<svg width="169" height="158" viewBox="0 0 169 158" fill="none" xmlns="http://www.w3.org/2000/svg">
<path d="M44.8906 138.25H39.6094V143.188H44.8906V138.25Z" fill="black"/>
<path d="M100.344 108.625H55.4531V71.5938C55.4531 70.939 55.1749 70.3111 54.6797 69.8481C54.1845 69.3851 53.5128 69.125 52.8125 69.125H5.28125C4.58091 69.125 3.90926 69.3851 3.41405 69.8481C2.91883 70.3111 2.64063 70.939 2.64062 71.5938V150.594C2.64063 151.249 2.91883 151.876 3.41405 152.339C3.90926 152.802 4.58091 153.063 5.28125 153.063H100.344C101.044 153.063 101.716 152.802 102.211 152.339C102.706 151.876 102.984 151.249 102.984 150.594V111.094C102.984 110.439 102.706 109.811 102.211 109.348C101.716 108.885 101.044 108.625 100.344 108.625ZM71.2969 113.563H81.8594V123.438H71.2969V113.563ZM23.7656 74.0625H34.3281V83.9375H23.7656V74.0625ZM7.92188 74.0625H18.4844V86.4063C18.4844 87.061 18.7626 87.6889 19.2578 88.1519C19.753 88.6149 20.4247 88.875 21.125 88.875H36.9688C37.6691 88.875 38.3407 88.6149 38.836 88.1519C39.3312 87.6889 39.6094 87.061 39.6094 86.4063V74.0625H50.1719V108.625H7.92188V74.0625ZM23.7656 113.563H34.3281V123.438H23.7656V113.563ZM7.92188 113.563H18.4844V125.906C18.4844 126.561 18.7626 127.189 19.2578 127.652C19.753 128.115 20.4247 128.375 21.125 128.375H36.9688C37.6691 128.375 38.3407 128.115 38.836 127.652C39.3312 127.189 39.6094 126.561 39.6094 125.906V113.563H50.1719V148.125H7.92188V113.563ZM97.7031 148.125H55.4531V113.563H66.0156V125.906C66.0156 126.561 66.2938 127.189 66.789 127.652C67.2843 128.115 67.9559 128.375 68.6562 128.375H84.5C85.2003 128.375 85.872 128.115 86.3672 127.652C86.8624 127.189 87.1406 126.561 87.1406 125.906V113.563H97.7031V148.125Z" fill="black"/>
<path d="M92.4219 138.25H87.1406V143.188H92.4219V138.25Z" fill="black"/>
<path d="M44.8906 98.75H39.6094V103.688H44.8906V98.75Z" fill="black"/>
<path d="M157.818 34.4933C158.021 34.5394 158.229 34.5626 158.437 34.5625C158.9 34.5621 159.355 34.4484 159.756 34.2327C160.157 34.017 160.491 33.7068 160.724 33.333C160.963 32.9383 161.086 32.4908 161.078 32.0369V22.2187C161.078 21.6647 160.879 21.1269 160.512 20.6916C160.146 20.2564 159.633 19.9491 159.057 19.8191L82.4789 2.53783C82.0718 2.44556 81.647 2.44556 81.2398 2.53783L4.66169 19.8191C4.08569 19.9491 3.57318 20.2564 3.2066 20.6916C2.84002 21.1269 2.64068 21.6647 2.64062 22.2187V32.0237C2.6316 32.5406 2.78967 33.048 3.09415 33.4796C3.39631 33.895 3.82663 34.2145 4.32784 34.3956C4.82905 34.5767 5.37738 34.6108 5.89982 34.4933L10.5625 33.4413V64.1875H15.8437V32.2495L81.8594 17.3519L147.875 32.2495V148.125H132.031V51.8437C132.031 51.189 131.753 50.561 131.258 50.098C130.763 49.6351 130.091 49.375 129.391 49.375H34.3281C33.6278 49.375 32.9561 49.6351 32.4609 50.098C31.9657 50.561 31.6875 51.189 31.6875 51.8437V61.7187C31.6875 62.3735 31.9657 63.0014 32.4609 63.4644C32.9561 63.9274 33.6278 64.1875 34.3281 64.1875H126.75V69.125H60.7344V74.0625H126.75V79H60.7344V83.9375H126.75V88.875H60.7344V93.8125H126.75V148.125H108.266V153.062H161.078V148.125H153.156V33.4413L157.818 34.4933ZM36.9687 59.25V54.3125H126.75V59.25H36.9687ZM81.8594 12.3437C81.6506 12.3436 81.4426 12.3668 81.2398 12.4128L7.92187 28.9581V24.1629L81.8594 7.47719L155.797 24.1629V28.9584L82.4789 12.4128C82.2761 12.3668 82.0681 12.3436 81.8594 12.3437Z" fill="black"/>
<path d="M87.1406 41.9688C89.2416 41.9688 91.2566 41.1885 92.7422 39.7995C94.2279 38.4106 95.0625 36.5268 95.0625 34.5625C95.0625 32.5982 94.2279 30.7144 92.7422 29.3255C91.2566 27.9365 89.2416 27.1563 87.1406 27.1562H76.5781C74.4771 27.1563 72.4622 27.9365 70.9765 29.3255C69.4909 30.7144 68.6563 32.5982 68.6562 34.5625C68.6563 36.5268 69.4909 38.4106 70.9765 39.7995C72.4622 41.1885 74.4771 41.9688 76.5781 41.9688H87.1406ZM73.9375 34.5625C73.9383 33.908 74.2167 33.2805 74.7118 32.8176C75.2068 32.3548 75.878 32.0945 76.5781 32.0938H87.1406C87.841 32.0938 88.5126 32.3539 89.0078 32.8168C89.503 33.2798 89.7812 33.9077 89.7812 34.5625C89.7812 35.2173 89.503 35.8452 89.0078 36.3082C88.5126 36.7711 87.841 37.0312 87.1406 37.0312H76.5781C75.878 37.0305 75.2068 36.7702 74.7118 36.3074C74.2167 35.8445 73.9383 35.217 73.9375 34.5625Z" fill="black"/>
</svg>
