<svg width="272" height="163" viewBox="0 0 272 163" fill="none" xmlns="http://www.w3.org/2000/svg">
<path d="M137.062 74.4938C136.781 74.4938 136.51 74.3933 136.311 74.2146C136.112 74.0358 136 73.7934 136 73.5406V60.8536C136 60.6008 136.112 60.3584 136.311 60.1796C136.51 60.0009 136.781 59.9005 137.062 59.9005H152.871C153.153 59.9005 153.423 60.0009 153.623 60.1796C153.822 60.3584 153.934 60.6008 153.934 60.8536C153.934 61.1064 153.822 61.3488 153.623 61.5275C153.423 61.7063 153.153 61.8067 152.871 61.8067H138.125V73.5406C138.125 73.7934 138.013 74.0358 137.814 74.2146C137.615 74.3933 137.344 74.4938 137.062 74.4938Z" fill="black"/>
<path d="M152.871 144.1H137.062C136.781 144.1 136.51 143.999 136.311 143.82C136.112 143.642 136 143.399 136 143.146V130.459C136 130.207 136.112 129.964 136.311 129.785C136.51 129.607 136.781 129.506 137.062 129.506C137.344 129.506 137.615 129.607 137.814 129.785C138.013 129.964 138.125 130.207 138.125 130.459V142.193H152.871C153.153 142.193 153.423 142.294 153.623 142.472C153.822 142.651 153.934 142.894 153.934 143.146C153.934 143.399 153.822 143.642 153.623 143.82C153.423 143.999 153.153 144.1 152.871 144.1Z" fill="black"/>
<path d="M270.938 74.4938C270.656 74.4938 270.385 74.3933 270.186 74.2146C269.987 74.0358 269.875 73.7934 269.875 73.5406V61.8067H255.129C254.847 61.8067 254.577 61.7063 254.377 61.5275C254.178 61.3488 254.066 61.1064 254.066 60.8536C254.066 60.6008 254.178 60.3584 254.377 60.1796C254.577 60.0009 254.847 59.9005 255.129 59.9005H270.938C271.219 59.9005 271.49 60.0009 271.689 60.1796C271.888 60.3584 272 60.6008 272 60.8536V73.5406C272 73.7934 271.888 74.0358 271.689 74.2146C271.49 74.3933 271.219 74.4938 270.938 74.4938Z" fill="black"/>
<path d="M270.938 144.1H255.129C254.847 144.1 254.577 143.999 254.377 143.82C254.178 143.642 254.066 143.399 254.066 143.146C254.066 142.894 254.178 142.651 254.377 142.472C254.577 142.294 254.847 142.193 255.129 142.193H269.875V130.459C269.875 130.207 269.987 129.964 270.186 129.785C270.385 129.607 270.656 129.506 270.938 129.506C271.219 129.506 271.49 129.607 271.689 129.785C271.888 129.964 272 130.207 272 130.459V143.146C272 143.399 271.888 143.642 271.689 143.82C271.49 143.999 271.219 144.1 270.938 144.1Z" fill="black"/>
<path d="M145.502 68.5568H262.499V135.443H145.502V68.5568Z" fill="#F0F5F9"/>
<path d="M262.499 136.396H145.501C145.219 136.396 144.949 136.296 144.75 136.117C144.55 135.938 144.438 135.696 144.438 135.443V68.5568C144.438 68.304 144.55 68.0615 144.75 67.8828C144.949 67.7041 145.219 67.6036 145.501 67.6036H262.499C262.781 67.6036 263.051 67.7041 263.25 67.8828C263.45 68.0615 263.562 68.304 263.562 68.5568V135.443C263.562 135.696 263.45 135.938 263.25 136.117C263.051 136.296 262.781 136.396 262.499 136.396ZM146.564 134.49H261.437V69.5099H146.563L146.564 134.49Z" fill="black"/>
<path d="M152.21 75.1066H157.442V128.893H152.21V75.1066Z" fill="black"/>
<path d="M163.829 75.1066H165.747V128.893H163.829V75.1066Z" fill="black"/>
<path d="M173.204 75.1066H176.297V128.893H173.204V75.1066Z" fill="black"/>
<path d="M181.066 75.1066H188.363V128.893H181.066V75.1066Z" fill="black"/>
<path d="M193.34 75.1066H196.014V128.893H193.34V75.1066Z" fill="black"/>
<path d="M202.484 75.1066H206.796V128.893H202.484V75.1066Z" fill="black"/>
<path d="M211.986 75.1066H217.219V128.893H211.986V75.1066Z" fill="black"/>
<path d="M223.606 75.1066H225.524V128.893H223.606V75.1066Z" fill="black"/>
<path d="M232.982 75.1066H236.075V128.893H232.982V75.1066Z" fill="black"/>
<path d="M240.842 75.1066H248.139V128.893H240.842V75.1066Z" fill="black"/>
<path d="M253.117 75.1066H255.792V128.893H253.117V75.1066Z" fill="black"/>
<g clip-path="url(#clip0)">
<path d="M99.3083 53.2476H95.2441C92.9904 53.2476 91.1568 55.0329 91.1568 57.2275V61.1845C91.1568 63.3789 92.9904 65.1642 95.2441 65.1642H99.3083C101.562 65.1642 103.396 63.3789 103.396 61.1845V57.2275C103.396 55.0329 101.562 53.2476 99.3083 53.2476ZM100.058 61.1843C100.058 61.5867 99.7215 61.914 99.3083 61.914H95.2441C94.8309 61.914 94.4947 61.5867 94.4947 61.1843V57.2273C94.4947 56.8249 94.8309 56.4973 95.2441 56.4973H99.3083C99.7215 56.4973 100.058 56.8249 100.058 57.2273V61.1843Z" fill="black"/>
<path d="M112.215 45.2935C111.059 44.159 109.517 43.5309 107.876 43.5253L104.397 43.5131L104.473 23.1095C104.479 21.588 103.874 20.1559 102.772 19.0777C101.669 17.9994 100.201 17.4051 98.6376 17.4043L92.7143 17.4012V6.62644C92.7143 4.3685 90.8279 2.5318 88.509 2.5318H25.2866C22.9677 2.5318 21.0813 4.3685 21.0813 6.62644V17.3655L15.4755 17.3624C15.4744 17.3624 15.4733 17.3624 15.4722 17.3624C12.2646 17.3624 9.6457 19.9026 9.6339 23.0267L9.55909 43.1793L6.32478 43.168C6.31699 43.168 6.30987 43.168 6.3023 43.168C2.92371 43.168 0.168338 45.8387 0.156315 49.131L1.02633e-05 91.1694C-0.0122358 94.4695 2.73512 97.1639 6.12417 97.1758L20.4031 97.2261L17.6622 104.67C17.365 105.478 17.4894 106.38 17.9953 107.082C18.5012 107.785 19.3292 108.206 20.2105 108.209L93.7775 108.468C93.7808 108.468 93.7839 108.468 93.7873 108.468C94.6648 108.468 95.4917 108.053 96.0009 107.357C96.5119 106.658 96.6435 105.757 96.3521 104.948L93.6666 97.4843L107.675 97.5335C107.683 97.5335 107.69 97.5335 107.698 97.5335C111.077 97.5333 113.832 94.8628 113.844 91.5705L114 49.5316C114.006 47.9332 113.372 46.428 112.215 45.2935ZM92.7143 20.6512H92.7145L98.6361 20.6543C99.3054 20.6547 99.9341 20.9092 100.407 21.3712C100.879 21.8332 101.138 22.4463 101.135 23.098L101.059 43.5014L92.7143 43.4722V20.6512ZM24.4192 6.62644C24.4192 6.16076 24.8084 5.7818 25.2866 5.7818H88.5092C88.9875 5.7818 89.3767 6.16076 89.3767 6.62644V43.46L24.4192 43.2313V6.62644ZM12.972 23.0384C12.9769 21.7003 14.0984 20.6124 15.4724 20.6124C15.4728 20.6124 15.4735 20.6124 15.474 20.6124L21.0815 20.6155V43.2198L12.8972 43.191L12.972 23.0384ZM16.5908 93.9624L16.6184 86.5122C16.6202 86.0153 17.0359 85.6125 17.5455 85.6125C17.5469 85.6125 17.548 85.6125 17.5491 85.6125L24.6694 85.6376L23.2275 89.5543L21.6531 93.8304L21.5981 93.98L16.5908 93.9624ZM21.1005 104.962L24.3412 96.1601C24.3415 96.1594 24.3419 96.1586 24.3424 96.1579L28.2132 85.6437L85.9424 85.8468L89.7354 96.3882C89.7356 96.3888 89.736 96.3895 89.7363 96.3901L92.9118 105.215L21.1005 104.962ZM97.3783 94.2469L92.4954 94.2297L91.8413 92.4117L89.486 85.8659L96.4818 85.8906C96.7297 85.8915 96.9621 85.9862 97.1367 86.1575C97.3112 86.3288 97.4068 86.5558 97.4059 86.7966L97.3783 94.2469ZM110.506 91.5586C110.5 93.0631 109.241 94.2833 107.697 94.2833C107.694 94.2833 107.69 94.2833 107.687 94.2833L100.716 94.2588L100.743 86.8083C100.748 85.699 100.308 84.6547 99.5051 83.8675C98.7026 83.0801 97.633 82.6445 96.4939 82.6404L87.2194 82.6077C87.1906 82.6062 87.1626 82.601 87.1336 82.6007L27.0463 82.3891C27.0441 82.3891 27.0421 82.3891 27.0403 82.3891C27.0124 82.3891 26.9857 82.3941 26.9581 82.3954L17.5616 82.3623C17.5562 82.3623 17.5511 82.3623 17.5458 82.3623C15.2012 82.3623 13.2895 84.2154 13.281 86.5001L13.2534 93.9505L6.13664 93.9256C4.58784 93.9201 3.33251 92.6887 3.3383 91.1811L3.4946 49.1423C3.50017 47.6377 4.75906 46.4176 6.30296 46.4176C6.30653 46.4176 6.30987 46.4176 6.31321 46.4176L11.2148 46.4349C11.215 46.4349 107.863 46.7753 107.864 46.7753C109.412 46.7807 110.668 48.0121 110.662 49.5197L110.506 91.5586Z" fill="black"/>
<path d="M67.0135 28.6851H33.5178C32.596 28.6851 31.849 29.4124 31.849 30.31C31.849 31.2075 32.596 31.9348 33.5178 31.9348H67.0133C67.9351 31.9348 68.6821 31.2075 68.6821 30.31C68.6821 29.4124 67.9353 28.6851 67.0135 28.6851Z" fill="black"/>
<path d="M81.1371 28.6851H76.2433C75.3215 28.6851 74.5745 29.4124 74.5745 30.31C74.5745 31.2075 75.3215 31.9348 76.2433 31.9348H81.1371C82.0586 31.9351 82.8059 31.2075 82.8059 30.31C82.8059 29.4124 82.0589 28.6851 81.1371 28.6851Z" fill="black"/>
<path d="M38.5031 16.5007H33.5178C32.596 16.5007 31.849 17.228 31.849 18.1256C31.849 19.0229 32.596 19.7505 33.5178 19.7505H38.5031C39.4248 19.7505 40.1719 19.0231 40.1719 18.1256C40.1719 17.228 39.4248 16.5007 38.5031 16.5007Z" fill="black"/>
<path d="M81.1368 16.5007H47.538C46.6162 16.5007 45.8692 17.228 45.8692 18.1256C45.8692 19.0229 46.6162 19.7505 47.538 19.7505H81.1368C82.0586 19.7505 82.8056 19.0231 82.8056 18.1256C82.8056 17.228 82.0586 16.5007 81.1368 16.5007Z" fill="black"/>
</g>
<defs>
<clipPath id="clip0">
<rect width="114" height="111" fill="white"/>
</clipPath>
</defs>
</svg>
