<svg width="264" height="182" viewBox="0 0 264 182" fill="none" xmlns="http://www.w3.org/2000/svg">
<path d="M12.8438 65.125H8.5625V54.5H19.2656V58.75H12.8438V65.125Z" fill="black"/>
<path d="M89.9062 148H85.625V143.75H89.9062V148ZM81.3438 148H77.0625V143.75H81.3438V148ZM72.7812 148H68.5V143.75H72.7812V148ZM64.2188 148H59.9375V143.75H64.2188V148ZM55.6562 148H51.375V143.75H55.6562V148ZM47.0938 148H42.8125V143.75H47.0938V148ZM38.5312 148H34.25V143.75H38.5312V148ZM29.9688 148H25.6875V143.75H29.9688V148ZM21.4062 148H17.125V143.75H21.4062V148ZM12.8438 148H8.5625V143.75H12.8438V148Z" fill="black"/>
<path d="M89.9062 156.5H85.625V152.25H89.9062V156.5ZM81.3438 156.5H77.0625V152.25H81.3438V156.5ZM72.7812 156.5H68.5V152.25H72.7812V156.5ZM64.2188 156.5H59.9375V152.25H64.2188V156.5ZM55.6562 156.5H51.375V152.25H55.6562V156.5ZM47.0938 156.5H42.8125V152.25H47.0938V156.5ZM38.5312 156.5H34.25V152.25H38.5312V156.5ZM29.9688 156.5H25.6875V152.25H29.9688V156.5ZM21.4062 156.5H17.125V152.25H21.4062V156.5ZM12.8438 156.5H8.5625V152.25H12.8438V156.5Z" fill="black"/>
<path d="M111.312 54.5H128.438V58.75H111.312V54.5Z" fill="black"/>
<path d="M111.312 63H128.438V67.25H111.312V63Z" fill="black"/>
<path d="M111.312 71.5H128.438V75.75H111.312V71.5Z" fill="black"/>
<path d="M89.9062 84.25H79.2031V80H85.625V73.625H89.9062V84.25Z" fill="black"/>
<path d="M130.578 46H109.172C105.625 46 102.75 48.8544 102.75 52.375V126.75H137V52.375C137 48.8544 134.125 46 130.578 46ZM132.719 122.5H107.031V52.375C107.031 51.2015 107.99 50.25 109.172 50.25H130.578C131.76 50.25 132.719 51.2015 132.719 52.375V122.5Z" fill="black"/>
<path d="M92.0469 135.25H6.42188C2.87542 135.25 0 138.104 0 141.625V158.625C0 162.146 2.87542 165 6.42188 165H92.0469C95.5933 165 98.4688 162.146 98.4688 158.625V141.625C98.4688 138.104 95.5933 135.25 92.0469 135.25ZM94.1875 158.625C94.1875 159.799 93.229 160.75 92.0469 160.75H6.42188C5.23972 160.75 4.28125 159.799 4.28125 158.625V141.625C4.28125 140.451 5.23972 139.5 6.42188 139.5H92.0469C93.229 139.5 94.1875 140.451 94.1875 141.625V158.625Z" fill="black"/>
<path d="M117.734 135.25C111.826 135.257 107.039 140.009 107.031 145.875V154.375C107.031 160.243 111.824 165 117.734 165C123.645 165 128.438 160.243 128.438 154.375V145.875C128.43 140.009 123.643 135.257 117.734 135.25ZM124.156 154.375C124.156 157.896 121.281 160.75 117.734 160.75C114.188 160.75 111.312 157.896 111.312 154.375V145.875C111.324 143.183 113.037 140.789 115.594 139.891V148H119.875V139.891C122.432 140.789 124.145 143.183 124.156 145.875V154.375Z" fill="black"/>
<path d="M92.0469 46H6.42188C2.87542 46 0 48.8544 0 52.375V103.375C0 106.896 2.87542 109.75 6.42188 109.75H36.3906V118.605C36.3885 120.755 34.6326 122.498 32.4668 122.5H25.6875V126.75H68.5V122.5H61.7207C59.5549 122.498 57.799 120.755 57.7969 118.605V109.75H92.0469C95.5933 109.75 98.4688 106.896 98.4688 103.375V52.375C98.4688 48.8544 95.5933 46 92.0469 46ZM39.6705 122.5C40.329 121.306 40.674 119.966 40.6719 118.605V109.75H44.9531V118.781H49.2344V109.75H53.5156V118.605C53.5135 119.966 53.8585 121.306 54.517 122.5H39.6705ZM94.1875 103.375C94.1875 104.549 93.229 105.5 92.0469 105.5H6.42188C5.23972 105.5 4.28125 104.549 4.28125 103.375V92.75H94.1875V103.375ZM94.1875 88.5H4.28125V52.375C4.28125 51.2015 5.23972 50.25 6.42188 50.25H92.0469C93.229 50.25 94.1875 51.2015 94.1875 52.375V88.5Z" fill="black"/>
<path d="M122.016 101.552V97H117.734V101.552C113.56 102.622 110.837 106.607 111.38 110.853C111.924 115.099 115.563 118.282 119.875 118.282C124.187 118.282 127.826 115.099 128.37 110.853C128.913 106.607 126.19 102.622 122.016 101.552ZM119.875 114C117.94 114.005 116.244 112.718 115.742 110.862C115.24 109.007 116.058 107.049 117.734 106.09V109.75H122.016V106.09C123.692 107.049 124.51 109.007 124.008 110.862C123.506 112.718 121.81 114.005 119.875 114Z" fill="black"/>
<path d="M44.9531 97H49.2344V101.25H44.9531V97Z" fill="black"/>
<g clip-path="url(#clip0)">
<path d="M242.775 30.4327C241.15 14.4194 228.01 1.74873 211.403 0.181398C192.197 -1.63138 175.104 11.9127 173.224 30.4327C161.272 31.2038 151.99 40.782 152 52.3324C152.011 64.4438 162.201 74.2535 174.761 74.243H176.511V70.8692H174.761C164.134 70.846 155.538 62.5193 155.562 52.2712C155.586 42.0231 164.221 33.7343 174.849 33.7575C175.781 33.7588 176.55 33.0556 176.598 32.1584C177.431 16.6448 190.287 4.24744 206.375 3.4449C223.718 2.57995 238.504 15.4353 239.401 32.1584C239.492 33.0693 240.289 33.7626 241.238 33.7575C251.865 33.7575 260.481 42.0653 260.481 52.3134C260.481 62.5615 251.865 70.8692 241.238 70.8692H239.488V74.243H241.238C253.216 74.2529 263.149 65.302 263.948 53.7772C264.787 41.6927 255.307 31.2411 242.775 30.4327Z" fill="black"/>
<path d="M209.749 94.6987V69.1825H206.25V94.6985C203.232 95.4474 201.002 98.0893 201.002 101.233C201.002 104.96 204.135 107.981 208 107.981C211.864 107.981 214.997 104.96 214.997 101.233C214.997 98.0895 212.767 95.4476 209.749 94.6987ZM208 104.607C206.067 104.607 204.501 103.097 204.501 101.233C204.501 99.3701 206.067 97.8597 208 97.8597C209.932 97.8597 211.498 99.3701 211.498 101.233C211.498 103.097 209.932 104.607 208 104.607Z" fill="black"/>
<path d="M183.508 47.2529C179.644 47.2529 176.511 50.2739 176.511 54.0004C176.511 57.1446 178.741 59.7865 181.759 60.5355V69.1825H185.258V60.5355C188.276 59.7865 190.506 57.1446 190.506 54.0004C190.506 50.2739 187.373 47.2529 183.508 47.2529ZM183.508 57.3742C181.576 57.3742 180.01 55.8638 180.01 54.0004C180.01 52.1371 181.576 50.6267 183.508 50.6267C185.441 50.6267 187.007 52.1371 187.007 54.0004C187.007 55.8638 185.441 57.3742 183.508 57.3742Z" fill="black"/>
<path d="M256.982 86.0515C253.721 86.0515 250.982 88.2018 250.205 91.1122H235.989C235.885 91.1221 235.781 91.1221 235.677 91.1122C234.797 91.0289 234.154 90.2736 234.24 89.4253V77.617H230.741V89.4253C230.739 89.5212 230.739 89.6169 230.741 89.7129C230.824 92.4284 233.173 94.5654 235.989 94.4859H250.205C250.982 97.3963 253.721 99.5466 256.982 99.5466C260.847 99.5466 263.979 96.5256 263.979 92.799C263.979 89.0725 260.847 86.0515 256.982 86.0515ZM256.982 96.1728C255.05 96.1728 253.483 94.6624 253.483 92.799C253.483 90.9357 255.05 89.4253 256.982 89.4253C258.914 89.4253 260.481 90.9357 260.481 92.799C260.481 94.6624 258.914 96.1728 256.982 96.1728Z" fill="black"/>
<path d="M185.258 89.4252V72.5563H181.759V89.405C181.77 89.5077 181.771 89.6112 181.761 89.7139C181.678 90.5664 180.894 91.1922 180.01 91.1121H165.794C165.018 88.2018 162.278 86.0514 159.017 86.0514C155.153 86.0514 152.02 89.0724 152.02 92.799C152.02 96.5256 155.153 99.5466 159.017 99.5466C162.278 99.5466 165.018 97.3962 165.794 94.4859H180.01C180.109 94.4886 180.208 94.4886 180.308 94.4859C183.124 94.4064 185.34 92.1407 185.258 89.4252ZM159.017 96.1728C157.085 96.1728 155.518 94.6624 155.518 92.799C155.518 90.9356 157.085 89.4252 159.017 89.4252C160.95 89.4252 162.516 90.9356 162.516 92.799C162.516 94.6624 160.949 96.1728 159.017 96.1728Z" fill="black"/>
<path d="M232.491 47.2529C228.626 47.2529 225.493 50.2739 225.493 54.0004C225.493 57.1446 227.723 59.7865 230.741 60.5355V74.2432H234.24V60.5355C237.258 59.7865 239.488 57.1446 239.488 54.0004C239.488 50.2739 236.355 47.2529 232.491 47.2529ZM232.491 57.3742C230.558 57.3742 228.992 55.8638 228.992 54.0004C228.992 52.1371 230.558 50.6267 232.491 50.6267C234.423 50.6267 235.989 52.1371 235.989 54.0004C235.989 55.8638 234.423 57.3742 232.491 57.3742Z" fill="black"/>
<path d="M196.991 59.5554C196.308 58.8968 195.2 58.8968 194.517 59.5554L189.269 64.616L191.743 67.0013L194.005 64.8202V84.3645H197.503V64.8202L199.765 67.0013L202.239 64.616L196.991 59.5554Z" fill="black"/>
<path d="M224.256 83.1719L221.995 85.3531V65.8087H218.496V85.3531L216.234 83.1719L213.76 85.5572L219.008 90.6179C219.336 90.9341 219.781 91.1121 220.245 91.1121C220.709 91.1121 221.154 90.9341 221.482 90.6179L226.73 85.5572L224.256 83.1719Z" fill="black"/>
<path d="M208 37.1315C204.135 37.1315 201.002 40.1525 201.002 43.8791C201.002 47.0232 203.232 49.6651 206.25 50.4141V65.8087H209.749V50.4141C212.767 49.6651 214.997 47.0232 214.997 43.8791C214.997 40.1525 211.864 37.1315 208 37.1315ZM208 47.2529C206.067 47.2529 204.501 45.7425 204.501 43.8791C204.501 42.0157 206.067 40.5053 208 40.5053C209.932 40.5053 211.498 42.0157 211.498 43.8791C211.498 45.7425 209.932 47.2529 208 47.2529Z" fill="black"/>
</g>
<defs>
<clipPath id="clip0">
<rect width="112" height="108" fill="white" transform="translate(152)"/>
</clipPath>
</defs>
</svg>
