<svg width="232" height="158" viewBox="0 0 232 158" fill="none" xmlns="http://www.w3.org/2000/svg">
<path d="M79.4062 49.625H66.1719V47.5C66.1719 46.5246 65.582 45.6746 64.7407 45.4387L49.6157 41.1887C49.0163 41.023 48.3811 41.1909 47.916 41.6477C47.4509 42.1046 47.2108 42.7867 47.2788 43.4774L52.9507 102.977C53.0509 104.055 53.862 104.875 54.8281 104.875H64.2812C65.3249 104.875 66.1719 103.925 66.1719 102.75V100.625H81.2969V111.25C81.2969 112.425 82.1439 113.375 83.1875 113.375H85.0781V126.125H83.1875C82.1439 126.125 81.2969 127.075 81.2969 128.25V145.25C81.2969 151.109 85.5375 155.875 90.75 155.875H109.656C110.7 155.875 111.547 154.925 111.547 153.75V100.625H113.437C116.565 100.625 119.109 97.7647 119.109 94.25C119.109 69.6425 101.3 49.625 79.4062 49.625ZM62.3906 100.625H56.5259L51.3248 46.0486L62.3906 49.1596V51.75V98.5V100.625ZM88.8594 113.375H92.6406V126.125H88.8594V113.375ZM107.766 151.625H90.75C87.6229 151.625 85.0781 148.765 85.0781 145.25V130.375H94.5312C95.5749 130.375 96.4219 129.425 96.4219 128.25V111.25C96.4219 110.075 95.5749 109.125 94.5312 109.125H85.0781V100.625H107.766V151.625ZM113.437 96.375H66.1719V53.875H79.4062C99.2143 53.875 115.328 71.9864 115.328 94.25C115.328 95.423 114.479 96.375 113.437 96.375Z" fill="black"/>
<path d="M103.984 70.875H85.0781V75.125H103.984V70.875Z" fill="black"/>
<path d="M103.984 79.375H85.0781V83.625H103.984V79.375Z" fill="black"/>
<path d="M103.984 87.875H85.0781V92.125H103.984V87.875Z" fill="black"/>
<path d="M41.5938 24.125H3.78125C2.73763 24.125 1.89062 25.077 1.89062 26.25V115.5C1.89062 116.675 2.73763 117.625 3.78125 117.625H41.5938C42.6374 117.625 43.4844 116.675 43.4844 115.5V26.25C43.4844 25.077 42.6374 24.125 41.5938 24.125ZM39.7031 113.375H5.67188V28.375H39.7031V113.375Z" fill="black"/>
<path d="M35.9219 83.625H9.45312V87.875H35.9219V83.625Z" fill="black"/>
<path d="M35.9219 104.875H9.45312V109.125H35.9219V104.875Z" fill="black"/>
<path d="M35.9219 75.125H9.45312V79.375H35.9219V75.125Z" fill="black"/>
<path d="M35.9219 53.875H9.45312V58.125H35.9219V53.875Z" fill="black"/>
<path d="M35.9219 32.625H9.45312V36.875H35.9219V32.625Z" fill="black"/>
<path d="M35.9219 92.125H9.45312V100.625H35.9219V92.125Z" fill="black"/>
<path d="M35.9219 62.375H9.45312V70.875H35.9219V62.375Z" fill="black"/>
<path d="M35.9219 41.125H9.45312V49.625H35.9219V41.125Z" fill="black"/>
<g clip-path="url(#clip0)">
<path d="M198.4 0H139.6C133.804 0.00720417 129.107 4.96533 129.1 11.0833V121.917C129.107 128.035 133.804 132.993 139.6 133H198.4C204.196 132.993 208.893 128.035 208.9 121.917V11.0833C208.893 4.96533 204.196 0.00720417 198.4 0ZM204.7 121.917C204.7 125.589 201.879 128.567 198.4 128.567H139.6C136.121 128.567 133.3 125.589 133.3 121.917V110.833H204.7V121.917ZM204.7 106.4H133.3V17.7333H204.7V106.4ZM204.7 13.3H133.3V11.0833C133.3 7.41059 136.121 4.43333 139.6 4.43333H198.4C201.879 4.43333 204.7 7.41059 204.7 11.0833V13.3Z" fill="black"/>
<path d="M169 113.05C165.521 113.05 162.7 116.027 162.7 119.7C162.7 123.373 165.521 126.35 169 126.35C172.479 126.35 175.3 123.373 175.3 119.7C175.3 116.027 172.479 113.05 169 113.05ZM169 121.917C167.84 121.917 166.9 120.924 166.9 119.7C166.9 118.476 167.84 117.483 169 117.483C170.16 117.483 171.1 118.476 171.1 119.7C171.1 120.924 170.16 121.917 169 121.917Z" fill="black"/>
<path d="M171.1 6.64999H166.9C165.74 6.64999 164.8 7.64251 164.8 8.86666C164.8 10.0908 165.74 11.0833 166.9 11.0833H171.1C172.26 11.0833 173.2 10.0908 173.2 8.86666C173.2 7.64251 172.26 6.64999 171.1 6.64999Z" fill="black"/>
</g>
<defs>
<clipPath id="clip0">
<rect width="126" height="133" fill="white" transform="translate(106)"/>
</clipPath>
</defs>
</svg>
