<svg width="298" height="159" viewBox="0 0 298 159" fill="none" xmlns="http://www.w3.org/2000/svg">
<g clip-path="url(#clip0)">
<path d="M139.006 87.9829L93.7278 116.296L87.2003 112.215C85.6775 111.263 83.6661 111.717 82.7076 113.229C81.7488 114.741 82.2059 116.738 83.7286 117.69L91.992 122.857C92.5224 123.189 93.1251 123.355 93.7278 123.355C94.3305 123.355 94.9332 123.189 95.4636 122.857L142.478 93.4587C144 92.5068 144.457 90.509 143.499 88.9972C142.54 87.4847 140.529 87.0305 139.006 87.9829Z" fill="black"/>
<path d="M139.006 100.924L93.7278 129.237L87.2003 125.156C85.6775 124.205 83.6661 124.658 82.7076 126.17C81.7488 127.682 82.2059 129.68 83.7286 130.631L91.992 135.798C92.5224 136.13 93.1251 136.296 93.7278 136.296C94.3305 136.296 94.9332 136.13 95.4636 135.798L142.478 106.4C144 105.448 144.457 103.45 143.499 101.938C142.54 100.426 140.529 99.9719 139.006 100.924Z" fill="black"/>
<path d="M57.5165 52.6241L75.9582 41.0923L134.628 77.7795L93.7278 103.355L87.2003 99.2737C85.6775 98.3219 83.6661 98.7755 82.7076 100.288C81.7488 101.8 82.2059 103.797 83.7286 104.749L91.992 109.916C92.5224 110.248 93.1251 110.414 93.7278 110.414C94.3305 110.414 94.9332 110.248 95.4636 109.916L142.478 80.5175C143.425 79.9251 144 78.8914 144 77.7798C144 76.6681 143.425 75.6345 142.478 75.0421L77.6943 34.5311C76.6336 33.8676 75.2835 33.8676 74.2227 34.5311L54.0448 47.1487C52.5221 48.1006 52.065 50.0983 53.0238 51.6102C53.9823 53.1224 55.9937 53.5766 57.5165 52.6241Z" fill="black"/>
<path d="M77.4265 71.0688L4.99372 25.7748C3.99028 25.1472 2.72165 25.1113 1.68336 25.68C0.644735 26.2494 -5.72205e-06 27.3342 -5.72205e-06 28.5125V97.1935C-5.72205e-06 98.3051 0.57469 99.3388 1.52209 99.9312L73.9549 145.225C74.484 145.556 75.087 145.723 75.6907 145.723C76.2322 145.723 76.7743 145.589 77.2653 145.32C78.3039 144.751 78.9486 143.666 78.9486 142.487V73.8065C78.9486 72.6949 78.3739 71.6612 77.4265 71.0688ZM72.4328 136.627L6.51582 95.4073V34.3729L72.4328 75.5924V136.627Z" fill="black"/>
<path d="M26.9592 89.5854C28.3305 90.4427 29.7304 90.8778 31.1199 90.8778H31.1202C34.3583 90.8778 37.8436 88.2385 37.8445 82.4438C37.8452 76.9072 34.5896 70.5337 30.4325 67.9338C29.0609 67.0765 27.661 66.6417 26.2718 66.6417C23.0334 66.6417 19.5478 69.281 19.5478 75.0764C19.5475 80.6136 22.8031 86.9868 26.9592 89.5854ZM26.42 73.1456C26.5406 73.1837 26.7243 73.2617 26.9602 73.4096C29.0228 74.6991 31.329 78.8364 31.3284 82.4431C31.3284 83.5114 31.1153 84.1193 30.9713 84.3743C30.8508 84.3358 30.6674 84.2578 30.4312 84.1103C28.3692 82.8207 26.0633 78.6837 26.0633 75.0767C26.0633 74.0081 26.2764 73.4005 26.42 73.1456Z" fill="black"/>
<path d="M42.6252 84.823L54.4071 92.1904C54.946 92.5275 55.5464 92.6883 56.1397 92.6883C57.2219 92.6883 58.2804 92.1532 58.8998 91.1765C59.8586 89.6646 59.4015 87.6668 57.8787 86.715L46.0968 79.3476C44.5747 78.3961 42.5626 78.8497 41.6042 80.3616C40.6454 81.8731 41.1025 83.8709 42.6252 84.823Z" fill="black"/>
<path d="M42.6249 97.7638L54.4068 105.132C54.946 105.469 55.5464 105.629 56.1397 105.629C57.222 105.629 58.2804 105.094 58.8998 104.118C59.8586 102.606 59.4015 100.608 57.8791 99.6562L46.0972 92.2884C44.5744 91.3366 42.5627 91.7905 41.6042 93.3021C40.6454 94.8139 41.1025 96.8114 42.6249 97.7638Z" fill="black"/>
</g>
<path d="M272.124 52.403C271.158 55.0356 270.625 58.4829 270.625 62.1094C270.625 65.7359 271.158 69.1831 272.124 71.8158C273.786 76.3399 276.186 77.0156 277.469 77.0156C278.751 77.0156 281.151 76.3399 282.813 71.8158C283.78 69.1831 284.312 65.7359 284.312 62.1094C284.312 58.4829 283.78 55.0356 282.813 52.403C281.151 47.8788 278.751 47.2031 277.469 47.2031C276.186 47.2031 273.786 47.8788 272.124 52.403ZM279.75 62.1094C279.75 67.9406 278.215 71.3448 277.469 71.9847C276.722 71.3448 275.188 67.9406 275.188 62.1094C275.188 56.2781 276.722 52.8739 277.469 52.234C278.215 52.8739 279.75 56.2781 279.75 62.1094Z" fill="black"/>
<path d="M211.312 79.5H215.875V84.4688H211.312V79.5Z" fill="black"/>
<path d="M220.438 79.5H225V84.4688H220.438V79.5Z" fill="black"/>
<path d="M229.562 79.5H234.125V84.4688H229.562V79.5Z" fill="black"/>
<path d="M238.688 79.5H243.25V84.4688H238.688V79.5Z" fill="black"/>
<path d="M247.812 79.5H252.375V84.4688H247.812V79.5Z" fill="black"/>
<path d="M289.312 29.7027C285.568 17.4734 280.805 14.9062 277.469 14.9062H213.594C210.257 14.9062 205.494 17.4734 201.751 29.7027C199.09 38.3956 197.625 49.9043 197.625 62.1094V96.8906H179.375C176.956 96.8936 174.636 97.9416 172.926 99.8046C171.215 101.668 170.253 104.193 170.25 106.828V124.219H158.844C158.239 124.219 157.658 124.481 157.231 124.946C156.803 125.412 156.563 126.044 156.562 126.703V134.156C156.565 136.791 157.528 139.317 159.238 141.18C160.949 143.043 163.268 144.091 165.688 144.094H229.562C231.982 144.091 234.301 143.043 236.012 141.18C237.722 139.317 238.685 136.791 238.688 134.156V126.703H256.938C259.357 126.7 261.676 125.652 263.387 123.789C265.097 121.926 266.06 119.4 266.062 116.766V109.312H277.469C280.805 109.312 285.568 106.745 289.312 94.516C291.972 85.8231 293.438 74.3141 293.438 62.1094C293.438 49.9046 291.972 38.3956 289.312 29.7027ZM165.688 139.125C164.478 139.123 163.318 138.6 162.463 137.668C161.608 136.737 161.126 135.474 161.125 134.156V129.188H220.438V134.156C220.436 135.901 220.858 137.616 221.662 139.125H165.688ZM234.125 106.828V111.797H229.562V116.766H234.125V134.156C234.125 135.474 233.644 136.738 232.789 137.67C231.933 138.602 230.773 139.125 229.562 139.125C228.352 139.125 227.192 138.602 226.336 137.67C225.481 136.738 225 135.474 225 134.156V126.703C225 126.044 224.76 125.412 224.332 124.946C223.904 124.481 223.324 124.219 222.719 124.219H174.812V116.766H179.375V111.797H174.812V106.828C174.814 105.511 175.295 104.248 176.15 103.316C177.006 102.385 178.165 101.861 179.375 101.859H235.35C234.546 103.369 234.123 105.083 234.125 106.828ZM238.688 121.734V106.828C238.688 105.51 239.168 104.247 240.024 103.315C240.879 102.383 242.04 101.859 243.25 101.859C244.46 101.859 245.621 102.383 246.476 103.315C247.332 104.247 247.812 105.51 247.812 106.828V116.766C247.811 118.511 248.233 120.225 249.037 121.734H238.688ZM263.781 24.8438V29.8125H265.594C262.954 38.4926 261.5 49.955 261.5 62.1094V79.5H256.938V84.4688H261.5V116.766C261.5 118.083 261.019 119.347 260.164 120.279C259.308 121.211 258.148 121.734 256.938 121.734C255.727 121.734 254.567 121.211 253.711 120.279C252.856 119.347 252.375 118.083 252.375 116.766V106.828C252.372 104.193 251.41 101.668 249.699 99.8046C247.989 97.9416 245.669 96.8936 243.25 96.8906H202.188V84.4688H206.75V79.5H202.188V62.1094C202.188 48.183 204.069 37.1179 206.548 29.8125H213.594V24.8438H208.604C210.269 21.6014 212.033 19.875 213.594 19.875H269.985C268.959 21.4296 268.081 23.0945 267.366 24.8438H263.781ZM266.062 104.344V95.879C267.301 99.6075 268.636 102.348 269.985 104.344H266.062ZM277.469 104.344C272.706 104.344 266.062 88.2763 266.062 62.1094C266.062 35.9425 272.706 19.875 277.469 19.875C282.232 19.875 288.875 35.9425 288.875 62.1094C288.875 88.2763 282.232 104.344 277.469 104.344Z" fill="black"/>
<path d="M183.938 111.797H188.5V116.766H183.938V111.797Z" fill="black"/>
<path d="M193.062 111.797H197.625V116.766H193.062V111.797Z" fill="black"/>
<path d="M202.188 111.797H206.75V116.766H202.188V111.797Z" fill="black"/>
<path d="M211.312 111.797H215.875V116.766H211.312V111.797Z" fill="black"/>
<path d="M220.438 111.797H225V116.766H220.438V111.797Z" fill="black"/>
<path d="M218.156 24.8438H222.719V29.8125H218.156V24.8438Z" fill="black"/>
<path d="M227.281 24.8438H231.844V29.8125H227.281V24.8438Z" fill="black"/>
<path d="M236.406 24.8438H240.969V29.8125H236.406V24.8438Z" fill="black"/>
<path d="M245.531 24.8438H250.094V29.8125H245.531V24.8438Z" fill="black"/>
<path d="M254.656 24.8438H259.219V29.8125H254.656V24.8438Z" fill="black"/>
<defs>
<clipPath id="clip0">
<rect width="144" height="143" fill="white" transform="translate(0 14)"/>
</clipPath>
</defs>
</svg>
