<svg width="170" height="157" viewBox="0 0 170 157" fill="none" xmlns="http://www.w3.org/2000/svg">
<g clip-path="url(#clip0)">
<path d="M118.176 125.487L96.4339 119.696V114.605C99.3284 112.459 101.617 109.649 103.036 106.425H104.648C110.689 106.425 115.601 101.888 115.601 96.3098V81.1373C115.601 64.4053 100.862 50.7923 82.7432 50.7923C64.6257 50.7923 49.8855 64.4053 49.8855 81.1373V96.3098C49.8855 101.888 54.7989 106.425 60.8381 106.425H62.4518C63.8703 109.649 66.1593 112.459 69.0525 114.605V119.696L47.3118 125.487C39.1549 127.661 33.4567 134.653 33.4567 142.495V157H132.03V142.495C132.03 134.653 126.333 127.661 118.176 125.487ZM98.6252 125.542L94.9311 137.479L86.8424 131.502L94.4899 124.44L98.6252 125.542ZM81.6977 146.885H83.79L86.5282 151.942H78.9595L81.6977 146.885ZM84.3489 141.827H81.1388L77.7161 138.666L82.7432 134.952L87.7716 138.666L84.3489 141.827ZM104.648 101.367H104.46C104.572 100.538 104.648 99.6955 104.648 98.8386V91.2523C107.669 91.2523 110.125 93.5205 110.125 96.3098C110.125 99.0991 107.669 101.367 104.648 101.367ZM82.7432 55.8498C97.8417 55.8498 110.125 67.1934 110.125 81.1373V87.6012C108.507 86.7307 106.654 86.1948 104.648 86.1948V84.7465C104.648 79.9668 100.438 76.0798 95.2653 76.0798C93.8201 76.0798 92.3681 76.3959 91.0672 76.996L84.9893 79.8026C83.0975 80.6743 80.981 81.1373 78.8633 81.1373H69.0525C65.4881 81.1373 62.4759 83.2586 61.3421 86.1948H60.8381C58.8339 86.1948 56.9809 86.7307 55.3618 87.6012V81.1373C55.3618 67.1934 67.646 55.8498 82.7432 55.8498ZM60.8381 101.367C57.8192 101.367 55.3618 99.0991 55.3618 96.3098C55.3618 93.5205 57.8192 91.2523 60.8381 91.2523V98.8386C60.8381 99.6955 60.9156 100.538 61.0279 101.367H60.8381ZM66.3143 98.8386V88.7236C66.3143 87.3283 67.5444 86.1948 69.0525 86.1948H78.8633C81.826 86.1948 84.7887 85.5478 87.4373 84.3267L93.5152 81.5213C94.058 81.2694 94.6597 81.1398 95.2653 81.1398C97.4206 81.1373 99.172 82.7561 99.172 84.7465V98.8386C99.172 107.206 91.8039 114.011 82.7432 114.011C73.6838 114.011 66.3143 107.206 66.3143 98.8386ZM82.7432 119.069C85.6484 119.069 88.42 118.533 90.9576 117.579V120.55L82.7432 128.137L74.5288 120.55V117.579C77.0677 118.533 79.8392 119.069 82.7432 119.069ZM70.9978 124.44L78.6453 131.502L70.5566 137.479L66.8625 125.542L70.9978 124.44ZM38.933 142.495C38.933 136.897 43.0027 131.902 48.8293 130.347L61.6001 126.944L67.5497 146.177L73.4124 141.845L76.6733 144.855L72.8375 151.942H55.3618V144.356H49.8855V151.942H38.933V142.495ZM126.553 151.942H115.601V144.356H110.125V151.942H92.6502L88.8144 144.855L92.0753 141.845L97.938 146.177L103.888 126.944L116.658 130.347C122.485 131.9 126.553 136.897 126.553 142.495V151.942Z" fill="black"/>
<path d="M69.8694 31.1846L82.7432 23.7379L95.6183 31.1846L91.3988 17.926L99.5343 11.6523L87.9922 8.87902L82.7432 -1.90735e-06L77.4942 8.87902L65.9534 11.6523L74.0889 17.926L69.8694 31.1846ZM81.1642 13.2228L82.7432 10.5496L84.3235 13.2204L87.8585 14.0699L85.1364 16.1689L86.2982 19.8225L82.7432 17.7692L79.1895 19.825L80.35 16.1714L77.6292 14.0723L81.1642 13.2228Z" fill="black"/>
<path d="M115.601 15.1725L110.352 24.0515L98.811 26.8248L106.947 33.0985L102.727 46.3571L115.601 38.9104L128.476 46.3571L124.256 33.0985L132.392 26.8248L120.85 24.0515L115.601 15.1725ZM119.156 34.9975L115.601 32.9417L112.047 34.9975L113.208 31.3439L110.487 29.2448L114.022 28.3953L115.601 25.7221L117.181 28.3929L120.716 29.2424L117.994 31.3414L119.156 34.9975Z" fill="black"/>
<path d="M165.252 11.6498L153.711 8.87532L148.458 -1.90735e-06L143.209 8.87902L131.669 11.6523L139.804 17.926L135.585 31.1846L148.458 23.7379L161.334 31.1846L157.114 17.926L165.252 11.6498ZM152.014 19.825L148.458 17.7692L144.905 19.825L146.065 16.1714L143.345 14.0723L146.879 13.2228L148.458 10.5496L150.039 13.2204L153.574 14.0699L150.852 16.1689L152.014 19.825Z" fill="black"/>
<path d="M37.0117 46.3571L49.8855 38.9104L62.7606 46.3571L58.5411 33.0985L66.6767 26.8248L55.1345 24.0515L49.8855 15.1725L44.6365 24.0515L33.0957 26.8248L41.2312 33.0985L37.0117 46.3571ZM48.3065 28.3953L49.8855 25.7221L51.4658 28.3929L55.0008 29.2424L52.2787 31.3414L53.4405 34.995L49.8855 32.9417L46.3318 34.9975L47.4923 31.3439L44.7716 29.2448L48.3065 28.3953Z" fill="black"/>
<path d="M17.0279 23.7379L29.903 31.1846L25.6835 17.926L33.819 11.6523L22.2769 8.87902L17.0279 -1.90735e-06L11.7789 8.87902L0.235382 11.6498L8.37091 17.9235L4.1514 31.1822L17.0279 23.7379ZM15.4489 13.2228L17.0279 10.5496L18.6082 13.2204L22.1432 14.0699L19.4211 16.1689L20.5829 19.8225L17.0279 17.7692L13.4742 19.825L14.6347 16.1714L11.9139 14.0723L15.4489 13.2228Z" fill="black"/>
<path d="M151.197 48.2636C151.197 44.0815 147.512 40.6773 142.982 40.6773C138.454 40.6773 134.768 44.0815 134.768 48.2636C134.768 52.4469 138.454 55.8498 142.982 55.8498C143.379 55.8498 143.758 55.7918 144.139 55.7412C148.743 64.372 151.197 73.9783 151.197 83.6661C151.197 93.9428 148.468 104.149 143.3 113.171L148.144 115.538C153.722 105.785 156.673 94.7676 156.673 83.6661C156.673 73.1646 154.002 62.7483 148.991 53.4001C150.349 52.0468 151.197 50.2515 151.197 48.2636ZM140.244 48.2636C140.244 46.8708 141.474 45.7348 142.982 45.7348C144.492 45.7348 145.72 46.8708 145.72 48.2636C145.72 49.6576 144.492 50.7923 142.982 50.7923C141.474 50.7923 140.244 49.6576 140.244 48.2636Z" fill="black"/>
<path d="M22.5041 111.482C22.1071 111.482 21.73 111.54 21.349 111.591C16.7431 102.96 14.2897 93.3539 14.2897 83.6661C14.2897 73.3869 17.0198 63.183 22.1873 54.1607L17.3461 51.7962C11.7655 61.5445 8.81345 72.5645 8.81345 83.6661C8.81345 94.1676 11.4861 104.581 16.4944 113.936C15.1387 115.288 14.2897 117.083 14.2897 119.069C14.2897 123.252 17.9758 126.655 22.5041 126.655C27.0338 126.655 30.7185 123.252 30.7185 119.069C30.7185 114.887 27.0338 111.482 22.5041 111.482ZM22.5041 121.597C20.996 121.597 19.766 120.465 19.766 119.069C19.766 117.673 20.996 116.54 22.5041 116.54C24.0136 116.54 25.2423 117.673 25.2423 119.069C25.2423 120.465 24.0136 121.597 22.5041 121.597Z" fill="black"/>
</g>
<defs>
<clipPath id="clip0">
<rect width="170" height="157" fill="white"/>
</clipPath>
</defs>
</svg>
