<svg width="168" height="166" viewBox="0 0 168 166" fill="none" xmlns="http://www.w3.org/2000/svg">
<path d="M162.75 54.4688V36.9609C162.748 35.4137 162.125 33.9304 161.018 32.8363C159.911 31.7422 158.41 31.1268 156.844 31.125H63.6562C62.0904 31.1268 60.5892 31.7422 59.4819 32.8363C58.3747 33.9304 57.7518 35.4137 57.75 36.9609V41.5H51.6311C50.6586 41.499 49.7009 41.7358 48.8434 42.1893C47.986 42.6427 47.2554 43.2988 46.7168 44.0989L37.9312 57.1209C36.1776 57.292 34.4803 57.8273 32.9505 58.6916C31.4208 59.5559 30.093 60.7297 29.0542 62.1362L24.127 68.8297L28.373 71.8812L33.2994 65.1877C33.9704 64.279 34.8487 63.5395 35.8631 63.029C36.8775 62.5186 37.9994 62.2517 39.1378 62.25H57.75V85.5938H18.2798L25.748 75.4476L21.502 72.3961L11.4187 86.0976C9.61812 86.719 8.05735 87.8779 6.95226 89.4139C5.84716 90.9499 5.25233 92.7873 5.25 94.6719V126.445C5.25182 127.993 5.87467 129.476 6.98191 130.57C8.08916 131.664 9.59037 132.279 11.1562 132.281H15.75C15.75 137.097 17.6859 141.715 21.1319 145.12C24.5779 148.525 29.2516 150.438 34.125 150.438C38.9984 150.438 43.6721 148.525 47.1181 145.12C50.5641 141.715 52.5 137.097 52.5 132.281H115.5C115.5 137.097 117.436 141.715 120.882 145.12C124.328 148.525 129.002 150.438 133.875 150.438C138.748 150.438 143.422 148.525 146.868 145.12C150.314 141.715 152.25 137.097 152.25 132.281H156.844C158.41 132.279 159.911 131.664 161.018 130.57C162.125 129.476 162.748 127.993 162.75 126.445V59.6562H157.5V103.75H63V36.9609C63 36.789 63.0691 36.624 63.1922 36.5024C63.3153 36.3808 63.4822 36.3125 63.6562 36.3125H156.844C157.018 36.3125 157.185 36.3808 157.308 36.5024C157.431 36.624 157.5 36.789 157.5 36.9609V54.4688H162.75ZM44.2798 57.0625L51.0851 46.9764C51.145 46.8875 51.2262 46.8147 51.3215 46.7643C51.4167 46.7139 51.5231 46.6875 51.6311 46.6875H57.75V57.0625H44.2798ZM10.5 94.6719C10.5011 93.6404 10.9163 92.6514 11.6545 91.922C12.3927 91.1926 13.3936 90.7824 14.4375 90.7812H18.375V102.453C18.3739 103.485 17.9587 104.474 17.2205 105.203C16.4823 105.932 15.4814 106.343 14.4375 106.344H10.5V94.6719ZM34.125 145.25C31.5291 145.25 28.9915 144.489 26.8331 143.064C24.6747 141.639 22.9925 139.614 21.9991 137.244C21.0057 134.874 20.7458 132.267 21.2522 129.751C21.7586 127.235 23.0087 124.925 24.8442 123.111C26.6798 121.297 29.0184 120.062 31.5644 119.562C34.1104 119.061 36.7494 119.318 39.1477 120.3C41.546 121.281 43.5958 122.943 45.038 125.076C46.4802 127.209 47.25 129.716 47.25 132.281C47.2461 135.72 45.862 139.016 43.4015 141.447C40.9409 143.879 37.6048 145.246 34.125 145.25ZM51.7361 127.094C50.6049 123.347 48.2799 120.061 45.1069 117.724C41.9338 115.387 38.0823 114.125 34.125 114.125C30.1677 114.125 26.3162 115.387 23.1431 117.724C19.9701 120.061 17.6451 123.347 16.5139 127.094H11.1562C10.9822 127.094 10.8153 127.025 10.6922 126.904C10.5691 126.782 10.5 126.617 10.5 126.445V111.531H14.4375C16.8733 111.529 19.2086 110.571 20.931 108.869C22.6534 107.167 23.6222 104.86 23.625 102.453V90.7812H57.75V127.094H51.7361ZM133.875 145.25C131.279 145.25 128.742 144.489 126.583 143.064C124.425 141.639 122.742 139.614 121.749 137.244C120.756 134.874 120.496 132.267 121.002 129.751C121.509 127.235 122.759 124.925 124.594 123.111C126.43 121.297 128.768 120.062 131.314 119.562C133.86 119.061 136.499 119.318 138.898 120.3C141.296 121.281 143.346 122.943 144.788 125.076C146.23 127.209 147 129.716 147 132.281C146.996 135.72 145.612 139.016 143.151 141.447C140.691 143.879 137.355 145.246 133.875 145.25ZM157.5 108.938V126.445C157.5 126.617 157.431 126.782 157.308 126.904C157.185 127.025 157.018 127.094 156.844 127.094H151.486C150.355 123.347 148.03 120.061 144.857 117.724C141.684 115.387 137.832 114.125 133.875 114.125C129.918 114.125 126.066 115.387 122.893 117.724C119.72 120.061 117.395 123.347 116.264 127.094H63V108.938H157.5Z" fill="black"/>
<path d="M42 95.9688H52.5V101.156H42V95.9688Z" fill="black"/>
<path d="M111.352 41.7042C111.015 41.556 110.651 41.4794 110.283 41.4794C109.914 41.4794 109.55 41.556 109.214 41.7042L85.6216 52.099C85.0944 52.3312 84.6594 52.7287 84.3838 53.2299C84.1083 53.731 84.0077 54.308 84.0974 54.8714L86.0642 67.2079C86.0672 67.2283 86.0708 67.2484 86.0744 67.2689C88.066 77.9609 94.1329 87.4906 103.025 93.8937L108.747 98.0583C109.196 98.3849 109.738 98.5619 110.296 98.5637C110.853 98.5654 111.396 98.3918 111.847 98.068L117.3 94.1515C126.309 87.7514 132.463 78.1543 134.471 67.371C134.474 67.3509 134.478 67.3308 134.481 67.3107L136.468 54.8723C136.558 54.3088 136.457 53.7317 136.182 53.2303C135.906 52.729 135.471 52.3313 134.944 52.099L111.352 41.7042ZM129.3 66.4716C127.526 75.9294 122.12 84.3433 114.213 89.9545L110.316 92.7547L106.14 89.7155C98.3363 84.1021 93.0067 75.7475 91.247 66.3701L89.5981 56.0275L110.283 46.9144L130.968 56.0285L129.3 66.4716Z" fill="black"/>
<path d="M101.609 65.6027L97.8971 69.2705L105.772 77.0518C106.264 77.5381 106.932 77.8114 107.628 77.8114C108.324 77.8114 108.992 77.5381 109.484 77.0518L125.234 61.4893L121.522 57.8214L107.628 71.5498L101.609 65.6027Z" fill="black"/>
<path d="M68.25 41.5H73.5V46.6875H68.25V41.5Z" fill="black"/>
<path d="M68.25 93.375H73.5V98.5625H68.25V93.375Z" fill="black"/>
<path d="M147 41.5H152.25V46.6875H147V41.5Z" fill="black"/>
<path d="M147 93.375H152.25V98.5625H147V93.375Z" fill="black"/>
<path d="M34.125 124.5C32.5675 124.5 31.0449 124.956 29.7499 125.811C28.4549 126.666 27.4455 127.882 26.8495 129.303C26.2534 130.725 26.0975 132.29 26.4013 133.799C26.7052 135.309 27.4552 136.695 28.5565 137.783C29.6579 138.872 31.0611 139.613 32.5887 139.913C34.1163 140.213 35.6997 140.059 37.1386 139.47C38.5776 138.881 39.8075 137.884 40.6728 136.604C41.5381 135.325 42 133.82 42 132.281C41.9977 130.218 41.1672 128.24 39.6909 126.782C38.2145 125.323 36.2129 124.502 34.125 124.5ZM34.125 134.875C33.6058 134.875 33.0983 134.723 32.6666 134.438C32.235 134.153 31.8985 133.748 31.6998 133.274C31.5011 132.8 31.4492 132.278 31.5504 131.775C31.6517 131.272 31.9017 130.81 32.2688 130.447C32.636 130.084 33.1037 129.837 33.6129 129.737C34.1221 129.637 34.6499 129.689 35.1295 129.885C35.6092 130.081 36.0192 130.414 36.3076 130.84C36.596 131.267 36.75 131.768 36.75 132.281C36.7492 132.969 36.4724 133.628 35.9803 134.114C35.4882 134.601 34.821 134.874 34.125 134.875Z" fill="black"/>
<path d="M133.875 124.5C132.317 124.5 130.795 124.956 129.5 125.811C128.205 126.666 127.195 127.882 126.599 129.303C126.003 130.725 125.847 132.29 126.151 133.799C126.455 135.309 127.205 136.695 128.307 137.783C129.408 138.872 130.811 139.613 132.339 139.913C133.866 140.213 135.45 140.059 136.889 139.47C138.328 138.881 139.558 137.884 140.423 136.604C141.288 135.325 141.75 133.82 141.75 132.281C141.748 130.218 140.917 128.24 139.441 126.782C137.965 125.323 135.963 124.502 133.875 124.5ZM133.875 134.875C133.356 134.875 132.848 134.723 132.417 134.438C131.985 134.153 131.649 133.748 131.45 133.274C131.251 132.8 131.199 132.278 131.3 131.775C131.402 131.272 131.652 130.81 132.019 130.447C132.386 130.084 132.854 129.837 133.363 129.737C133.872 129.637 134.4 129.689 134.88 129.885C135.359 130.081 135.769 130.414 136.058 130.84C136.346 131.267 136.5 131.768 136.5 132.281C136.499 132.969 136.222 133.628 135.73 134.114C135.238 134.601 134.571 134.874 133.875 134.875Z" fill="black"/>
<path d="M5.25 41.5H26.25V46.6875H5.25V41.5Z" fill="black"/>
<path d="M31.5 41.5H36.75V46.6875H31.5V41.5Z" fill="black"/>
<path d="M28.875 15.5625H70.875V20.75H28.875V15.5625Z" fill="black"/>
<path d="M76.125 15.5625H81.375V20.75H76.125V15.5625Z" fill="black"/>
<path d="M99.75 20.75H141.75V25.9375H99.75V20.75Z" fill="black"/>
<path d="M147 20.75H152.25V25.9375H147V20.75Z" fill="black"/>
<path d="M55.125 140.062H102.375V145.25H55.125V140.062Z" fill="black"/>
<path d="M107.625 140.062H112.875V145.25H107.625V140.062Z" fill="black"/>
</svg>
