<svg id="Capa_1" data-name="Capa 1" xmlns="http://www.w3.org/2000/svg" viewBox="0 0 359.72 446.54"><title>mision</title><path d="M215.56,333.11c0-4.84.33-9.71-.09-14.51-.51-5.94,1.4-10.38,5.86-14.4,6.32-5.69,6.1-5.94.08-12l-136-136c-6.35-6.35-6.34-9.18,0-15.56q9.26-9.27,18.54-18.52c5-5,8.46-5,13.57.07,4.22,4.17,8.55,8.23,12.52,12.63,2.34,2.6,3.7,2.58,6.21,0Q170,100.8,204,67c12.48-12.48,25.48-12.53,37.9-.14,7.62,7.6,15.33,15.11,22.77,22.89,2.51,2.62,3.92,2.72,6.54.06,16.31-16.57,32.81-32.95,49.25-49.38,5.88-5.88,9-5.87,14.91.05Q385.72,90.75,436,141.07c5.83,5.82,5.79,9-.15,14.91q-37.23,37.25-74.48,74.47c-11.79,11.78-25.14,11.8-36.9.07-7.95-7.93-16-15.8-23.78-23.87-2.16-2.24-3.37-2.15-5.52,0q-21.7,22-43.69,43.68c-2.28,2.25-2.63,3.67-.05,5.85,3.09,2.59,5.64,7.42,8.86,7.82,3.43.44,5.89-4.82,8.83-7.53,4.68-4.31,8.62-4.28,12.88.35a37.8,37.8,0,0,1,9.22,17.61c.51,2.28.57,4,3.61,2.18,3.29-1.92,6.37-.68,8.9,1.84q29.47,29.43,58.89,58.93c3.8,3.82,3.68,7.61.05,11.56a69,69,0,0,1-6.31,6.26c-2.47,2.07-2.51,3.52-.09,5.85,8,7.68,15.73,15.6,23.56,23.44q20.68,20.69,41.37,41.37c5.49,5.5,5.52,8.83.14,14.25Q412,449.61,402.49,459c-5.51,5.49-8.79,5.51-14.23.07Q356.15,427,324.11,394.81c-2.74-2.76-4.19-3.32-7.23-.17-11.47,11.91-23.23,23.54-35,35.12-2.48,2.43-3.24,4.08-.14,6.51a51.81,51.81,0,0,1,6.31,6.26c3.26,3.63,3.48,7.45.14,10.87-9.25,9.5-18.72,18.79-28.06,28.2-1.25,1.26-2.06,1.23-3.47.07-9.82-8-9.85-8-1.16-16.69,4.85-4.86,9.62-9.8,14.6-14.52,2-1.89,1.78-3-.07-4.83q-33.51-33.35-66.82-66.9c-2.89-2.92-4-1-5.82.78q-50,50-99.87,100c-3.19,3.22-4.82,3.3-7.89,0-6.45-7-6.65-6.81,0-13.43L192.8,362.84c5.77-5.77,7-5.93,13.92-1.63.66.41,1.39,1.2,2,.47,2.59-3.06,7.09-4.66,6.89-9.85C215.37,345.59,215.56,339.35,215.56,333.11ZM223,72.66c-3.26,0-5.42,2-7.55,4.14q-45.46,45.51-91,90.91c-2.74,2.72-2.32,4.07.15,6.53q44,43.71,87.64,87.68c2.82,2.84,4.19,2.6,6.87-.1q44.84-45.13,89.92-90c2.09-2.09,4.07-4.39,6.74-5.72s1.81-2.47.23-4.05q-43.21-43.14-86.36-86.32A9.15,9.15,0,0,0,223,72.66ZM342.6,224.25c3.75-.09,5.89-2.1,8-4.23q34.22-34.25,68.52-68.42c2.39-2.38,2.72-3.62.12-6.2Q375,101.39,331,57.08c-2.63-2.65-3.89-2.16-6.2.19q-21.35,21.65-43,43c-2.66,2.61-2.52,4,0,6.52q31.08,30.78,61.89,61.83c10.28,10.34,10.22,24.08.07,34.55-2.39,2.46-4.94,4.78-7.19,7.36a7.66,7.66,0,0,0-1.06,9.14A8.13,8.13,0,0,0,342.6,224.25Zm-62.19,127c-.5,10.36-3.13,18.89-8.14,26.64-5.66,8.77-5.67,8.76-12.86,1.6a20.54,20.54,0,0,0-2-2c-2-1.48-1.64-2.66-.2-4.55,11.43-14.93,10.91-32-1.23-46.13-4.11-4.79-4-8.08.39-12.6,4.69-4.79,9.6-9.37,14.16-14.29,6.32-6.81,8.19-14.83,5.73-23.84-.83-3-1.73-3.92-4.42-1.18q-19.53,19.84-39.35,39.38a6.75,6.75,0,0,0-2,5.41c.08,8.89-.48,17.81.16,26.66.73,10-.87,18.51-9.7,24.49-1.95,1.32-2,2.62-.17,4.44q22.59,22.39,45,45c1.43,1.43,2.41,2,4.15.27q18.93-19.11,38-38.07c1.12-1.12,1.73-2,.28-3.45C299.2,370.1,290.2,361.06,280.41,351.28Zm66.55-8c-.57-.7-1-1.32-1.52-1.84q-22.81-22.84-45.61-45.68c-1.47-1.47-2.42-1.33-3.81.07q-11.34,11.48-22.82,22.82c-1.53,1.5-1.79,2.5-.12,4.15q22.73,22.58,45.31,45.31c1.62,1.63,2.62,1.48,4.15-.07,7.54-7.67,15.19-15.24,22.79-22.85C345.86,344.6,346.31,344,347,343.23Zm-4.08,25.85c-.86.76-1.57,1.33-2.22,2-2.22,2.19-4.25,4.61-6.66,6.55-2.86,2.3-2.36,3.79.07,6.19,17.41,17.2,34.66,34.57,52,51.86,3,3,6,8,9.11,8.1,4,.1,6.43-5.63,9.87-8.47,2-1.63,1.62-2.8-.07-4.48q-30-29.85-59.9-59.82C344.44,370.34,343.71,369.8,342.88,369.08Zm-15.7-191.6a9.44,9.44,0,0,0-3,1c-5.43,3.94-9.63,9.2-14.45,13.8-1.15,1.11-.25,1.94.53,2.73,3.19,3.18,6.36,6.37,9.56,9.54.78.77,1.64,1.75,2.54.14,3-5.39,8.14-8.92,12-13.55a7.74,7.74,0,0,0,1-9.13C333.7,179,331.07,177.61,327.18,177.48ZM122.39,149.72c-1-3.05-2.67-4.06-4-5.35-7.72-7.8-7.74-7.78-15.31-.21-4.29,4.29-4.29,4.29.13,8.71,7.44,7.44,7.41,7.41,15-.1A31,31,0,0,1,122.39,149.72ZM249.73,276.9c-1.24-3.21-3.28-4.5-4.88-6.12-6.78-6.89-6.81-6.86-13.66,0-5,5-5,5,0,10,6.85,6.85,6.82,6.82,13.7,0A60.58,60.58,0,0,1,249.73,276.9Z" transform="translate(-80.63 -36)"/></svg>