<svg width="59" height="59" viewBox="0 0 59 59" fill="none" xmlns="http://www.w3.org/2000/svg">
<g clip-path="url(#clip0)">
<path d="M15.3784 47.0926C14.7072 46.6463 13.9412 46.3628 13.1413 46.2646C14.6758 45.0567 15.6194 43.2493 15.7333 41.2998C15.7333 34.798 11.9898 33.4331 8.85001 33.4331C5.71022 33.4331 1.96667 34.798 1.96667 41.2998C2.08086 43.2495 3.02486 45.0568 4.55972 46.2646C1.95315 46.5858 -0.00380486 48.8017 5.55488e-06 51.4281V58.0164C5.55488e-06 58.5595 0.440293 58.9998 0.983339 58.9998H16.7167C17.2597 58.9998 17.7 58.5595 17.7 58.0164V51.4281C17.7011 49.6853 16.8295 48.0577 15.3784 47.0926ZM3.98447 40.2594C4.25096 36.9633 5.80167 35.3998 8.85001 35.3998C11.6407 35.3998 13.1767 36.7194 13.6162 39.4727L10.3398 37.5061C9.87403 37.2267 9.27001 37.3777 8.99062 37.8435C8.95375 37.9049 8.92376 37.9701 8.90114 38.038C8.40357 39.5307 5.71711 40.0952 3.98447 40.2594ZM4.07002 42.232C5.75349 42.0933 8.79002 41.5839 10.206 39.7195L13.7205 41.8288C13.3261 44.237 10.3594 46.2164 8.85001 46.2164C6.6568 45.8429 4.83235 44.322 4.07002 42.232ZM9.66224 51.8785L8.85001 52.6927L8.03777 51.8794L8.85001 49.8469L9.66224 51.8785ZM15.7333 57.0331H1.96667V51.4281C1.96667 49.636 3.41955 48.1831 5.21167 48.1831H7.39467L5.96982 51.7516C5.82417 52.1168 5.90996 52.5337 6.18812 52.8116L8.15479 54.7783C8.53878 55.1622 9.16123 55.1622 9.54522 54.7783L11.5119 52.8116C11.7901 52.5337 11.8758 52.1168 11.7302 51.7516L10.3024 48.1831H12.4883C14.2805 48.1831 15.7333 49.636 15.7333 51.4281V57.0331Z" fill="#181818"/>
<path d="M36.0284 47.0926C35.3573 46.6463 34.5912 46.3628 33.7913 46.2646C35.3258 45.0567 36.2694 43.2493 36.3834 41.2998C36.3834 34.798 32.6398 33.4331 29.5 33.4331C26.3602 33.4331 22.6167 34.798 22.6167 41.2998C22.7309 43.2495 23.6749 45.0568 25.2097 46.2646C22.6032 46.5858 20.6462 48.8017 20.65 51.4281V58.0164C20.65 58.5595 21.0903 58.9998 21.6334 58.9998H37.3667C37.9097 58.9998 38.35 58.5595 38.35 58.0164V51.4281C38.3511 49.6853 37.4795 48.0577 36.0284 47.0926ZM24.6345 40.2594C24.901 36.9633 26.4517 35.3998 29.5 35.3998C32.2907 35.3998 33.8267 36.7194 34.2663 39.4727L30.9898 37.5061C30.5241 37.2267 29.92 37.3777 29.6406 37.8435C29.6038 37.9049 29.5738 37.9701 29.5512 38.038C29.0536 39.5307 26.3671 40.0952 24.6345 40.2594ZM24.72 42.232C26.4035 42.0933 29.44 41.5839 30.856 39.7195L34.3705 41.8288C33.9762 44.237 31.0094 46.2164 29.5 46.2164C27.3068 45.8429 25.4824 44.322 24.72 42.232ZM30.3123 51.8785L29.5 52.6927L28.6878 51.8794L29.5 49.8469L30.3123 51.8785ZM36.3834 57.0331H22.6167V51.4281C22.6167 49.636 24.0696 48.1831 25.8617 48.1831H28.0447L26.6169 51.7516C26.4712 52.1168 26.557 52.5337 26.8352 52.8116L28.8019 54.7783C29.1859 55.1622 29.8083 55.1622 30.1923 54.7783L32.159 52.8116C32.4371 52.5337 32.5229 52.1168 32.3773 51.7516L30.9524 48.1831H33.1384C34.9305 48.1831 36.3834 49.636 36.3834 51.4281V57.0331Z" fill="#181818"/>
<path d="M56.6784 47.0926C56.0073 46.6463 55.2413 46.3628 54.4413 46.2646C55.9758 45.0567 56.9195 43.2493 57.0334 41.2998C57.0334 34.798 53.2898 33.4331 50.1501 33.4331C47.0103 33.4331 43.2667 34.798 43.2667 41.2998C43.3809 43.2495 44.3249 45.0568 45.8598 46.2646C43.2532 46.5858 41.2962 48.8017 41.3001 51.4281V58.0164C41.3001 58.5595 41.7403 58.9998 42.2834 58.9998H58.0167C58.5598 58.9998 59.0001 58.5595 59.0001 58.0164V51.4281C59.0012 49.6853 58.1296 48.0577 56.6784 47.0926ZM45.2845 40.2594C45.551 36.9633 47.1017 35.3998 50.1501 35.3998C52.9408 35.3998 54.4767 36.7194 54.9163 39.4727L51.6398 37.5061C51.1741 37.2267 50.5701 37.3777 50.2907 37.8435C50.2538 37.9049 50.2238 37.9701 50.2012 38.038C49.7036 39.5307 47.0172 40.0952 45.2845 40.2594ZM45.3701 42.232C47.0535 42.0933 50.0901 41.5839 51.5061 39.7195L55.0205 41.8288C54.6262 44.237 51.6595 46.2164 50.1501 46.2164C47.9569 45.8429 46.1324 44.322 45.3701 42.232ZM50.9623 51.8785L50.1501 52.6927L49.3378 51.8794L50.1501 49.8469L50.9623 51.8785ZM57.0334 57.0331H43.2667V51.4281C43.2667 49.636 44.7196 48.1831 46.5117 48.1831H48.6947L47.2669 51.7516C47.1213 52.1168 47.2071 52.5337 47.4852 52.8116L49.4519 54.7783C49.8359 55.1622 50.4583 55.1622 50.8423 54.7783L52.809 52.8116C53.0872 52.5337 53.1729 52.1168 53.0273 51.7516L51.6024 48.1831H53.7884C55.5805 48.1831 57.0334 49.636 57.0334 51.4281V57.0331Z" fill="#181818"/>
<path d="M45.2334 29.4998V16.7164C45.2334 16.1734 44.7931 15.7331 44.2501 15.7331H35.4001V12.7831C35.4001 12.24 34.9598 11.7998 34.4167 11.7998H28.443C26.999 9.28783 24.2885 7.77571 21.3925 7.86642C17.0785 8.10807 13.7184 11.7017 13.7667 16.0222C13.7652 18.5897 14.4974 21.1041 15.877 23.2694L19.8418 29.4998H18.6834V31.4664H46.2167V29.4998H45.2334ZM24.5834 29.4998H23.425L24.5834 27.6796V29.4998ZM21.6334 28.6521L17.5368 22.2133C16.3578 20.3637 15.7321 18.2156 15.7334 16.0222C15.6777 12.7619 18.1972 10.035 21.4515 9.83309H21.6334C24.8919 9.83309 27.5334 12.4746 27.5334 15.7331V16.0222C27.5355 18.217 26.9097 20.3664 25.73 22.2172L21.6334 28.6521ZM33.4334 29.4998H26.5501V24.588L27.3898 23.2694C28.7695 21.1041 29.5017 18.5897 29.5001 16.0222V15.7331C29.4977 15.0695 29.4118 14.4087 29.2444 13.7664H33.4334V29.4998ZM40.3167 29.4998H38.3501V26.5498H40.3167V29.4998ZM43.2667 18.6831H41.3001V20.6498H43.2667V21.6331H41.3001V23.5998H43.2667V29.4998H42.2834V25.5664C42.2834 25.0234 41.8431 24.5831 41.3001 24.5831H37.3667C36.8237 24.5831 36.3834 25.0234 36.3834 25.5664V29.4998H35.4001V23.5998H37.3667V21.6331H35.4001V20.6498H37.3667V18.6831H35.4001V17.6998H43.2667V18.6831Z" fill="#181818"/>
<path d="M32.4499 14.7498H30.4833V16.7164H32.4499V14.7498Z" fill="#181818"/>
<path d="M40.3166 18.6831H38.35V20.6498H40.3166V18.6831Z" fill="#181818"/>
<path d="M40.3166 21.6331H38.35V23.5998H40.3166V21.6331Z" fill="#181818"/>
<path d="M32.4499 17.6998H30.4833V19.6664H32.4499V17.6998Z" fill="#181818"/>
<path d="M32.4499 20.6498H30.4833V22.6164H32.4499V20.6498Z" fill="#181818"/>
<path d="M29.5 23.5998H27.5333V25.5664H29.5V23.5998Z" fill="#181818"/>
<path d="M32.4499 23.5998H30.4833V25.5664H32.4499V23.5998Z" fill="#181818"/>
<path d="M29.5 26.5498H27.5333V28.5164H29.5V26.5498Z" fill="#181818"/>
<path d="M32.4499 26.5498H30.4833V28.5164H32.4499V26.5498Z" fill="#181818"/>
<path d="M54.5681 20.517L52.6398 20.9054C52.7607 21.5063 52.8591 22.1208 52.9348 22.7315L54.8847 22.4994C54.8051 21.8367 54.6989 21.17 54.5681 20.517Z" fill="#181818"/>
<path d="M4.42502 20.5642C4.29227 21.2211 4.18803 21.8868 4.11035 22.5437L6.06325 22.7738C6.13405 22.168 6.23239 21.5525 6.35235 20.9448L4.42502 20.5642Z" fill="#181818"/>
<path d="M51.7862 13.0279L50.0732 13.9936C50.3751 14.5275 50.6632 15.0811 50.9189 15.6407L52.7017 14.8107C52.4205 14.206 52.1117 13.6061 51.7862 13.0279Z" fill="#181818"/>
<path d="M49.5521 9.70231L48.0083 10.9236C48.3889 11.4025 48.7566 11.9069 49.1018 12.4193L50.7321 11.3209C50.3585 10.7663 49.9612 10.2215 49.5521 9.70231Z" fill="#181818"/>
<path d="M9.42721 9.73476C9.01322 10.2559 8.61596 10.8017 8.24524 11.3543L9.87954 12.4488C10.2208 11.9384 10.5875 11.4349 10.9691 10.9521L9.42721 9.73476Z" fill="#181818"/>
<path d="M46.8263 6.76608L45.4929 8.21158C45.9482 8.63245 46.3897 9.072 46.8037 9.51843L48.2462 8.18208C47.7978 7.69828 47.3199 7.22136 46.8263 6.76608Z" fill="#181818"/>
<path d="M7.19501 13.0604C6.87051 13.6376 6.56273 14.2394 6.28149 14.8481L8.06526 15.6741C8.32584 15.1116 8.61003 14.556 8.90798 14.026L7.19501 13.0604Z" fill="#181818"/>
<path d="M5.51257 16.7036C5.27952 17.333 5.07106 17.9751 4.89209 18.6123L6.78402 19.1462C6.95021 18.5562 7.14294 17.9662 7.35829 17.3841L5.51257 16.7036Z" fill="#181818"/>
<path d="M12.1471 6.78968C11.6554 7.24103 11.1815 7.71794 10.7291 8.20764L12.1736 9.54203C12.5866 9.09166 13.0311 8.65309 13.4815 8.23419L12.1471 6.78968Z" fill="#181818"/>
<path d="M53.4747 16.6633L51.631 17.3467C51.8463 17.9259 52.04 18.5179 52.2072 19.1069L54.0992 18.569C53.9172 17.9308 53.7058 17.2907 53.4747 16.6633Z" fill="#181818"/>
<path d="M22.5449 0.958508C21.8998 1.14141 21.2577 1.35184 20.6392 1.57899L21.3206 3.42274C21.8919 3.21231 22.4849 3.01957 23.0808 2.85044L22.5449 0.958508Z" fill="#181818"/>
<path d="M26.4782 0.177746C25.8214 0.255429 25.1547 0.360646 24.4978 0.489463L24.8784 2.41975C25.4861 2.29978 26.1016 2.20145 26.7083 2.13065L26.4782 0.177746Z" fill="#181818"/>
<path d="M28.4773 0.0194415L28.552 1.98611C29.1656 1.96448 29.791 1.96251 30.4046 1.98611L30.4833 0.0194415C29.8176 -0.00710852 29.143 -0.00514185 28.4773 0.0194415Z" fill="#181818"/>
<path d="M18.7866 2.34599C18.1838 2.62428 17.582 2.93599 17.0009 3.25853L17.9645 4.97346C18.5014 4.67158 19.055 4.38346 19.6126 4.13074L18.7866 2.34599Z" fill="#181818"/>
<path d="M32.4785 0.171841L32.2533 2.12474C32.858 2.19456 33.4736 2.29092 34.0833 2.40991L34.4599 0.479624C33.8001 0.350807 33.1383 0.247557 32.4785 0.171841Z" fill="#181818"/>
<path d="M43.6747 4.28513L42.5842 5.92139C43.0916 6.25966 43.5951 6.62546 44.0828 7.00896L45.2982 5.46316C44.7702 5.04819 44.2244 4.65093 43.6747 4.28513Z" fill="#181818"/>
<path d="M36.4109 0.945724L35.8828 2.83962C36.4728 3.00482 37.0628 3.19559 37.643 3.40799L38.3205 1.56227C37.6951 1.33119 37.053 1.12469 36.4109 0.945724Z" fill="#181818"/>
<path d="M15.2918 4.30873C14.7352 4.68338 14.1895 5.07966 13.6722 5.48873L14.8896 7.03256C15.3675 6.65496 15.8729 6.28818 16.3882 5.94106L15.2918 4.30873Z" fill="#181818"/>
<path d="M40.1751 2.32829L39.353 4.11403C39.9086 4.37068 40.4652 4.65388 41.005 4.95379L41.9638 3.23689C41.3797 2.91239 40.7789 2.60559 40.1751 2.32829Z" fill="#181818"/>
<path d="M21.6334 11.7998C19.4611 11.7998 17.7001 13.5608 17.7001 15.7331C17.7001 17.9054 19.4611 19.6664 21.6334 19.6664C23.8057 19.6664 25.5667 17.9054 25.5667 15.7331C25.5667 13.5608 23.8057 11.7998 21.6334 11.7998ZM21.6334 17.6998C20.5472 17.6998 19.6667 16.8193 19.6667 15.7331C19.6667 14.6469 20.5472 13.7664 21.6334 13.7664C22.7196 13.7664 23.6001 14.6469 23.6001 15.7331C23.6001 16.8193 22.7196 17.6998 21.6334 17.6998Z" fill="#181818"/>
</g>
<defs>
<clipPath id="clip0">
<rect width="59" height="59" fill="white"/>
</clipPath>
</defs>
</svg>
