<svg width="158" height="153" viewBox="0 0 158 153" fill="none" xmlns="http://www.w3.org/2000/svg">
<g clip-path="url(#clip0)">
<path d="M29.226 1.89758C37.1689 1.89758 44.3943 4.29448 49.6604 8.1661C55.0929 12.1728 58.4517 17.7549 58.4517 23.9642C58.4517 28.9535 56.2823 33.5279 52.6081 37.2212C49.1355 40.7112 44.298 43.4048 38.6906 44.8449L31.08 54.7558C30.1351 55.984 28.2459 55.9415 27.3448 54.7217L19.7608 44.8449C14.1533 43.4048 9.31614 40.7112 5.84291 37.2212C2.16941 33.5276 0 28.9532 0 23.9639C0 17.7549 3.35904 12.1725 8.80017 8.1658C14.0574 4.29478 21.2831 1.89758 29.226 1.89758ZM144.432 28.3944H135.431V64.3784H144.432V28.3944ZM133.113 23.9131H146.742C148.019 23.9131 149.06 24.9127 149.06 26.1496V66.6145C149.06 67.8597 148.019 68.8593 146.742 68.8593H133.113C131.836 68.8593 130.803 67.8597 130.803 66.6145V26.1496C130.803 24.9127 131.836 23.9131 133.113 23.9131ZM96.1979 44.5819V35.6454H87.1963V40.7279C90.3893 41.651 93.4076 42.9557 96.1979 44.5819ZM82.5689 39.6859V33.4006C82.5689 32.1641 83.6098 31.1642 84.887 31.1642H98.5161C99.7934 31.1642 100.825 32.1641 100.825 33.4006V47.7417C101.84 48.5464 102.811 49.3936 103.738 50.2913C104.779 51.2995 105.767 52.3667 106.686 53.4849V17.4501C106.686 16.2132 107.718 15.2053 108.995 15.2053H122.633C123.91 15.2053 124.942 16.2132 124.942 17.4501V66.6145C124.942 67.8597 123.91 68.8593 122.633 68.8593H114.305C114.637 70.308 114.891 71.7905 115.048 73.3067H153.372V6.37851H121.059C119.782 6.37851 118.741 5.37893 118.741 4.14238C118.741 2.90583 119.782 1.89758 121.059 1.89758H155.691C156.968 1.89758 158 2.90553 158 4.14238V75.5429C158 76.7797 156.968 77.7877 155.691 77.7877H115.25C115.224 79.338 115.093 80.888 114.874 82.438C114.629 84.2002 114.253 85.9113 113.772 87.5629C113.431 88.7487 112.154 89.4435 110.929 89.1133C109.696 88.7744 108.978 87.5462 109.328 86.3518C109.757 84.878 110.08 83.3701 110.299 81.8452C110.509 80.3543 110.623 78.8127 110.623 77.2118C110.623 67.9362 106.739 59.5418 100.467 53.4595C94.1859 47.3861 85.5172 43.6247 75.9384 43.6247C69.0803 43.6247 62.6945 45.5477 57.3235 48.8599C51.7774 52.2821 47.2988 57.2035 44.4906 63.0402C43.9484 64.1668 42.5748 64.6497 41.4114 64.1244C40.2567 63.6077 39.7583 62.2692 40.2919 61.151C43.4673 54.5607 48.5412 48.9869 54.8479 45.0989C60.3415 41.7021 66.7535 39.6013 73.6292 39.2117V4.14238C73.6292 2.90553 74.6615 1.89758 75.9384 1.89758H110.57C111.848 1.89758 112.889 2.90553 112.889 4.14238C112.889 5.37923 111.848 6.37851 110.57 6.37851H78.2566V39.2114C79.7172 39.2879 81.1608 39.4486 82.5689 39.6859ZM112.958 64.3784H120.315V19.6949H111.314V60.5835C111.935 61.8117 112.477 63.0823 112.958 64.3784ZM134.294 99.4644C133.393 100.337 131.923 100.337 131.022 99.4644C130.121 98.5918 130.121 97.1688 131.022 96.2962L138.282 89.2654C138.72 88.8416 139.306 88.5963 139.927 88.5963C140.548 88.5963 141.143 88.8419 141.571 89.2654L148.832 96.2962C149.742 97.1688 149.742 98.5918 148.832 99.4644C147.931 100.337 146.471 100.337 145.561 99.4644L142.245 96.2541V116.228C142.245 120.032 140.635 123.496 138.046 126.003C135.457 128.511 131.879 130.069 127.943 130.069H104.622C103.344 130.069 102.303 129.07 102.303 127.824C102.303 126.588 103.344 125.588 104.622 125.588H127.943C130.602 125.588 133.016 124.529 134.775 122.835C136.524 121.141 137.617 118.794 137.617 116.228V96.2538L134.294 99.4644ZM38.1311 122.226C37.2213 121.353 37.2213 119.93 38.1311 119.057C39.0322 118.185 40.4927 118.185 41.4025 119.057L48.6631 126.088C49.1003 126.503 49.3454 127.079 49.3454 127.681C49.3454 128.291 49.1003 128.858 48.6544 129.281L41.4028 136.304C40.4931 137.185 39.0322 137.185 38.1314 136.304C37.2217 135.432 37.2217 134.017 38.1314 133.136L41.4466 129.925H23.7062C19.7698 129.925 16.2006 128.367 13.6115 125.86C11.022 123.352 9.41273 119.887 9.41273 116.076V51.5365C9.41273 50.3 10.445 49.2917 11.7219 49.2917C12.9992 49.2917 14.0401 50.3 14.0401 51.5365V116.076C14.0401 118.651 15.1248 120.989 16.8832 122.691C18.6326 124.385 21.047 125.444 23.7065 125.444H41.4466L38.1311 122.226ZM19.105 26.2087C17.8278 26.2087 16.7869 25.2008 16.7869 23.9639C16.7869 22.7271 17.8281 21.7278 19.105 21.7278H39.3469C40.6242 21.7278 41.6651 22.7274 41.6651 23.9639C41.6651 25.2008 40.6239 26.2087 39.3469 26.2087H19.105ZM19.105 34.5189C17.8278 34.5189 16.7869 33.5106 16.7869 32.2741C16.7869 31.0372 17.8281 30.0376 19.105 30.0376H34.2036C35.4809 30.0376 36.5128 31.0372 36.5128 32.2741C36.5128 33.5106 35.4806 34.5189 34.2036 34.5189H19.105ZM19.105 17.8986C17.8278 17.8986 16.7869 16.8991 16.7869 15.6625C16.7869 14.4173 17.8281 13.4177 19.105 13.4177H39.3469C40.6242 13.4177 41.6651 14.4173 41.6651 15.6625C41.6651 16.8994 40.6239 17.8986 39.3469 17.8986H19.105ZM78.2566 109.494V119.201H89.0512V109.782C89.0512 108.935 89.5585 108.122 90.4072 107.749C93.4866 106.377 96.3208 104.589 98.8315 102.446C101.359 100.295 103.555 97.7957 105.357 95.0256C106.031 93.9752 107.457 93.662 108.532 94.3224C109.617 94.9831 109.941 96.364 109.259 97.4057C107.229 100.54 104.736 103.369 101.876 105.809C99.3999 107.91 96.6534 109.714 93.6792 111.171V121.446V133.915C93.6792 138.667 91.6931 142.962 88.4828 146.07C85.2725 149.18 80.8377 151.102 75.9388 151.102C71.0398 151.102 66.605 149.179 63.3947 146.07C60.1844 142.962 58.1986 138.667 58.1986 133.915V121.446V111.171C51.9178 108.087 46.6081 103.429 42.8291 97.7279C38.9103 91.7982 36.6359 84.759 36.6359 77.2115C36.6359 76.2628 36.6708 75.2972 36.7498 74.3231C36.8199 73.3489 36.9334 72.3917 37.0822 71.46C37.2658 70.2318 38.4468 69.393 39.7065 69.5792C40.9748 69.757 41.8407 70.9009 41.6571 72.1204C41.5259 72.9676 41.4207 73.8148 41.3596 74.6533C41.2895 75.4747 41.2633 76.3306 41.2633 77.2115C41.2633 83.8781 43.2664 90.0955 46.722 95.3136C50.2647 100.659 55.321 104.97 61.3043 107.673C62.1965 107.978 62.8263 108.808 62.8263 109.782V119.201H73.6295V109.494L56.5189 77.0845L55.8366 77.4655C54.7433 78.0925 53.3262 77.7366 52.6874 76.6692C52.04 75.6104 52.4076 74.2379 53.5098 73.6196L60.5955 69.6043C61.3565 69.1722 62.2576 69.2062 62.9661 69.6213L68.8531 72.9586L74.7754 69.6043C75.5363 69.1722 76.4374 69.2062 77.146 69.6213L83.033 72.9586L88.9549 69.6043C89.7162 69.1722 90.6173 69.2062 91.3169 69.6213L98.3763 73.6196C99.4786 74.2379 99.8461 75.6101 99.1987 76.6692C98.5513 77.7366 97.1432 78.0922 96.0409 77.4655L95.3672 77.0845L78.2566 109.494ZM61.7583 74.1112L60.5075 74.8227L75.9381 104.072L91.3777 74.8227L90.118 74.1112L84.231 77.4488C83.5311 77.8639 82.6214 77.8976 81.8604 77.4658L75.9381 74.1115L70.0508 77.4491C69.3509 77.8642 68.4415 77.8979 67.6891 77.4661L61.7583 74.1112ZM85.2108 142.894C87.0654 141.099 88.3686 138.769 88.8497 136.16H63.0355C63.508 138.769 64.8112 141.099 66.6658 142.894C69.0451 145.198 72.3171 146.622 75.9384 146.622C79.5601 146.622 82.8401 145.198 85.2108 142.894ZM62.8257 123.691V131.679H89.0509V123.691H62.8257ZM46.8526 11.7236C42.3736 8.41981 36.1456 6.37851 29.226 6.37851C22.3067 6.37851 16.0784 8.4201 11.5994 11.7236C7.29547 14.9002 4.62736 19.2287 4.62736 23.9639C4.62736 27.742 6.31568 31.2571 9.16739 34.1205C12.1941 37.1698 16.524 39.4994 21.5627 40.6852C22.1138 40.7868 22.6212 41.0835 22.9797 41.5494L29.2257 49.6814L35.4803 41.5494C35.7864 41.143 36.2499 40.8379 36.7924 40.7109C41.8746 39.5248 46.24 37.1871 49.284 34.1205C52.1357 31.2571 53.824 27.742 53.824 23.9639C53.8243 19.2287 51.1565 14.9002 46.8526 11.7236Z" fill="black"/>
</g>
<defs>
<clipPath id="clip0">
<rect width="158" height="153" fill="white"/>
</clipPath>
</defs>
</svg>
