<svg id="Capa_1" data-name="Capa 1" xmlns="http://www.w3.org/2000/svg" viewBox="0 0 412.61 412.85"><defs><style>.cls-1{fill:#1f1713;}</style></defs><title>producto2</title><path class="cls-1" d="M450,63.53c9.53,16.8,12.95,35.86,19.78,53.65a74.87,74.87,0,0,1,2.84,8.9c1.34,5.45-1.93,8.79-7.47,7.82a10.86,10.86,0,0,1-4.07-1.59c-3.23-2.09-6.54-4.09-9.62-6.38-1.86-1.39-2.79-1.46-4.21.64-8.78,12.89-17.73,25.66-26.6,38.48-7.88,11.4-15.82,22.74-23.54,34.24-3.07,4.57-6.9,6.5-12.44,6.44-21-.2-42.07,0-63.1-.13-2.06,0-2.33.72-2.33,2.52.06,19.56,0,39.13.1,58.69,0,2.4-.52,3.26-3,3a36.18,36.18,0,0,0-7.43,0c-2.59.29-2.92-.77-2.91-3.05q.11-43.54.05-87.08c0-3.58,0-7.16,0-10.75-.08-6.32-1.9-8.34-8.17-8.42-11.57-.13-23.15,0-34.72-.12-1.94,0-2,.8-1.89,2.28.87,12.91,2.58,25.74,3.82,38.62,1.1,11.42,2,22.84,1.53,34.34-.08,1.92-.7,2.27-2.37,2.18a36.47,36.47,0,0,0-6.61,0c-2.59.36-3-.92-3.2-3-1.86-22.49-3.8-45-5.68-67.47-.57-6.9-.51-6.9-7.49-6.9q-18.31,0-36.65,0a35.38,35.38,0,0,0-3.57.11c-3.72.4-5.8,2.64-5.76,6.4q.27,30,.64,60c.14,11.19.41,22.39.48,33.59,0,1.95.32,2.81,2.51,2.6a44.91,44.91,0,0,1,7.15,0c1.86.13,2.28-.56,2.27-2.32-.08-11.11,0-22.23,0-33.34,0-15,0-29.94,0-44.92,0-2.15.54-2.9,2.74-2.73a49.61,49.61,0,0,0,7.71,0c2.21-.18,2.71.6,2.71,2.73-.08,21.4-.05,42.81-.05,64.21,0,3.57,0,3.57,3.68,3.57,17.45,0,34.9,0,52.35.06,2.36,0,2.82-.66,2.81-2.9-.09-21.58,0-43.17-.1-64.76,0-2.2.41-3.11,2.8-2.92a81.08,81.08,0,0,0,8.54,0c1.3,0,1.89.37,1.78,1.71-.06.73,0,1.46,0,2.2q0,86.52-.08,173.05c0,2.89.81,3.5,3.49,3.36a98.7,98.7,0,0,1,15.94.26c6.37.69,11.22-2.26,14.81-7.29,6.51-9.13,13.77-17.65,20.85-26.33s17.38-10.11,26.52-4.05a54.89,54.89,0,0,1,8.3,6.34c7.65,7.51,8.43,18,1.78,26.33-11.76,14.81-23.63,29.54-35.44,44.31-6.58,8.22-15.17,12.12-25.65,12.11q-36.23,0-72.47,0a21.41,21.41,0,0,0-3.84.21,8.38,8.38,0,0,0-6.27,11.77c.4,1,1.14.76,1.82.76,3.12,0,6.25,0,9.37,0,5.49.12,7.86,2.21,7.92,7.66q.21,18.32,0,36.65c-.07,5.36-2.43,7.4-7.77,7.4H139c-5.52,0-7.79-2.14-7.81-7.6q-.07-18.18,0-36.37c0-5.4,2.32-7.62,7.79-7.74,3-.07,6.06-.13,9.09,0,1.92.1,2.46-.49,2.44-2.43-.09-11.48-.08-23,0-34.45s3.2-22.06,10.72-31a47.2,47.2,0,0,1,21.45-14.34c.73-.25,1.47-.48,2.41-.79-.95-.86-1.79-.55-2.54-.56-5.32-.1-10.65,0-16-.25a11.87,11.87,0,0,0-10.41,5c-7.82,10-15.76,19.84-23.61,29.78a10.5,10.5,0,0,1-8.59,4.19q-31.27,0-62.54-.19a4.4,4.4,0,0,1-1-.26l.08-12.58c19.45,0,38.91-.09,58.37-.06A7.27,7.27,0,0,0,125,364q11.37-14.34,22.76-28.67a10.76,10.76,0,0,0,2.49-6.83c0-13.21.1-26.43.11-39.64a2.21,2.21,0,0,0-.74-2.17c-.33.41-.66.83-1,1.23-11.86,13.63-23.78,27.21-35.57,40.9a16,16,0,0,1-13.27,5.94c-7.43-.17-14.86-.23-22.29-.27-5.68,0-11.37,0-17,.09l0-13c11.84,0,23.68-.12,35.52.07a11.7,11.7,0,0,0,9.79-4.4q36.67-42.35,73.52-84.53a13,13,0,0,0,3.49-9.22q-.41-27.52-.57-55.06c-.06-12.28,6-19.37,18.13-20.74,8.11-.91,16.32-.26,24.49-.24,2.38,0,3.2-.43,3.18-3.05-.13-20.2-.06-40.4-.07-60.6,0-8.54,3.81-14.7,11.4-18.58,1-.52,2.26-.61,2.93-1.7h52.92c3.31,4.38,4,9.34,3.84,14.72-.25,11.56-.07,23.13-.08,34.7,0,16.16-11.92,28.11-28.14,28.21-3.88,0-3.74,0-3.88,4-.07,2.06.72,2.34,2.52,2.32,9.64-.08,19.28,0,28.92-.06a21.82,21.82,0,0,1,13.61,4.34,10,10,0,0,0,6.12,2.11c12.76,0,25.52,0,38.28.12a6.29,6.29,0,0,0,5.6-2.85Q380,125.15,398.13,99.23c1.07-1.52,1-2.27-.58-3.4-6.17-4.47-12.22-9.09-18.29-13.68-2.37-1.8-3.71-4.07-2.86-7.16s3-4.63,6.16-5c15.6-1.59,31.21-3.17,46.79-4.9,3.59-.39,7.27-.32,10.73-1.6ZM286,398.92c11.93,0,23.87-.12,35.8.05a22.1,22.1,0,0,0,19-9.19c6.61-8.58,13.5-16.95,20.26-25.42,4.29-5.37,8.62-10.73,12.86-16.16,3.37-4.31,3.05-7.1-1.19-10.59a53.8,53.8,0,0,0-5.81-4.15c-3-1.88-5.14-1.59-7.66.85a24.44,24.44,0,0,0-2.21,2.45c-8.5,10.6-17,21.18-25.43,31.85a11.41,11.41,0,0,1-9.68,4.73c-15-.09-29.94,0-44.91-.06-3,0-5.12.85-6.82,3.57-3.83,6.14-9.58,9.18-16.83,9.22-7,0-14,0-20.94,0-9.1,0-18.19-.08-27.28,0-2.4,0-3.23-.65-3-3.08a40.77,40.77,0,0,0,0-7.16c-.17-2.19.58-2.73,2.73-2.72,14.79.1,29.58,0,44.37,0,9.45,0,11.62-2.42,10.73-12-.5-5.44-2.2-7.24-7.62-7.26-19.47-.05-38.94-.23-58.41.13-15.17.28-28.36,12.27-29.95,27.25-1.47,13.9-.27,27.9-.57,41.85,0,1.7,1.09,1.36,2,1.36,20.12,0,40.23,0,60.35.05,1.8,0,2.17-.57,2-2.19a24.79,24.79,0,0,1,.8-9.8c2.79-8.37,10.76-13.89,20.44-13.85C261.43,398.81,273.72,399.33,286,398.92ZM401.08,81.23l-.23.65c3.2,2.43,6.41,4.84,9.6,7.29,5.51,4.24,5.93,6.84,2,12.46q-21.15,30.21-42.26,60.45a10.15,10.15,0,0,1-9.2,4.86c-13-.13-26.09,0-39.13-.09-2,0-2.69.35-2.64,2.52q.24,10.33,0,20.67c-.05,2.12.59,2.53,2.59,2.52,19.48-.08,38.95-.16,58.43.05,4,0,6.4-1.35,8.59-4.53q25.79-37.54,51.8-74.93c3.39-4.89,5.88-5.5,11.16-2.85.44.22.84.78,1.58.35a3.23,3.23,0,0,0,0-1q-5-15-10-29.93c-.63-1.85-2.2-2.39-4-2.22Q420.21,79.35,401.08,81.23ZM230.9,340.69c5,0,9.37-.12,13.67.05,2.17.09,2.74-.54,2.73-2.72-.09-17.35,0-34.71-.09-52.07,0-2.06.38-3,2.68-2.8s4.59,0,6.88,0c4.05,0,3.53-.39,3.52,3.52,0,15.79-.08,31.58-.21,47.37,0,5.16,1.27,9.35,6.34,11.77a10.33,10.33,0,0,1,4.86,5.79,14.57,14.57,0,0,1,1.38,4.72c.11,3.49,1.94,4,4.92,3.8,1.88-.12,2.45-.53,2.43-2.46-.09-10.84-.05-21.68-.05-32.51,0-19.57,0-39.13.06-58.69,0-2.35-.67-2.93-2.92-2.84-4.68.17-9.37,0-14.05,0H232c2.94,5.93,2.36,12,2.37,18.05,0,16.62,0,33.24.12,49.86C234.53,335,234.1,338,230.9,340.69Zm-38.34-63.93c-8.9,0-17.8,0-26.7,0-1.56,0-2.24.23-2.24,2.06q.12,23.38,0,46.79c0,1.77.58,2.1,2.2,2.1q26.56-.09,53.12,0c1.89,0,2.25-.62,2.25-2.35q-.09-23.13,0-46.24c0-2-.66-2.4-2.5-2.38C210,276.81,201.28,276.76,192.56,276.76Zm3.05,186.39c16.35,0,32.7,0,49,0,1.88,0,2.49-.42,2.46-2.4-.13-6.79-.11-13.59,0-20.39,0-1.73-.37-2.38-2.25-2.37q-49.19.08-98.36,0c-1.69,0-2.2.48-2.18,2.17.09,6.71.14,13.41,0,20.12-.05,2.25.47,2.9,2.82,2.89C163.29,463.09,179.45,463.15,195.61,463.15Zm90.13-356.58c0-2.75-.08-5.51,0-8.26.06-1.53-.45-2.12-2-2.18-2.66-.09-5.31-.43-8-.49-8.53-.17-16.74,1-23.33,7.1a81.84,81.84,0,0,1-9.11,7.51A4.49,4.49,0,0,0,241,114q0,15.69-.19,31.39c0,1.49.58,1.87,2,1.84,3-.08,6.06-.1,9.09,0,1.49.05,1.88-.51,1.85-1.92-.08-3.21-.06-6.43,0-9.64.07-5.27,2.27-7.53,7.56-7.65,3.49-.08,7,.05,10.47,0a13.91,13.91,0,0,0,14-13.72C285.82,111.72,285.74,109.15,285.74,106.57ZM241.12,95.4l10.54-7.83A22.64,22.64,0,0,1,266,82.89c5.58.1,11.18-.07,16.76.07,2.22.06,3.55-.24,3-2.87a6.18,6.18,0,0,1,0-1.92c.14-1.25-.45-1.52-1.59-1.51-12.47,0-24.93,0-37.39.08a5.27,5.27,0,0,0-5.62,5.51C241,86.44,241.12,90.64,241.12,95.4ZM183,248.49l-12.78,14.66c4.21,0,7.84,0,11.46,0,1.18,0,1.33-.62,1.33-1.57C182.94,257.5,183,253.4,183,248.49Z" transform="translate(-60.31 -63.53)"/><path class="cls-1" d="M218.21,456.82c-2.57,0-5.14-.06-7.71,0-1.44.05-1.91-.47-1.86-1.9.09-2.93.1-5.87,0-8.8-.06-1.49.5-1.87,1.89-1.85,5.14.06,10.28.07,15.41,0,1.44,0,1.92.43,1.87,1.88-.1,2.93-.1,5.87,0,8.8.05,1.47-.49,1.92-1.9,1.87C223.35,456.76,220.78,456.82,218.21,456.82Z" transform="translate(-60.31 -63.53)"/></svg>