<svg width="59" height="45" viewBox="0 0 59 45" fill="none" xmlns="http://www.w3.org/2000/svg">
<path d="M22.0719 7.75868H18.3035V7.11213C18.3035 6.81536 18.1356 6.55674 17.896 6.48497L13.5893 5.19186C13.4186 5.14142 13.2377 5.1925 13.1053 5.33151C12.9729 5.47052 12.9045 5.67807 12.9239 5.8882L14.5389 23.9918C14.5674 24.3196 14.7984 24.5691 15.0735 24.5691H17.7652C18.0623 24.5691 18.3035 24.2801 18.3035 23.9226V23.276H22.6102V26.5088C22.6102 26.8664 22.8514 27.1554 23.1486 27.1554H23.6869V31.0347H23.1486C22.8514 31.0347 22.6102 31.3237 22.6102 31.6813V36.8537C22.6102 38.6363 23.8177 40.0865 25.3019 40.0865H30.6853C30.9825 40.0865 31.2237 39.7975 31.2237 39.4399V23.276H31.762C32.6524 23.276 33.377 22.4058 33.377 21.3364C33.377 13.8492 28.3059 7.75868 22.0719 7.75868ZM17.2268 23.276H15.5569L14.0759 6.67053L17.2268 7.61709V8.40524V22.6295V23.276ZM24.7636 27.1554H25.8403V31.0347H24.7636V27.1554ZM30.147 38.7934H25.3019C24.4115 38.7934 23.6869 37.9231 23.6869 36.8537V32.3278H26.3786C26.6758 32.3278 26.917 32.0388 26.917 31.6813V26.5088C26.917 26.1513 26.6758 25.8623 26.3786 25.8623H23.6869V23.276H30.147V38.7934ZM31.762 21.9829H18.3035V9.0518H22.0719C27.7121 9.0518 32.3004 14.5624 32.3004 21.3364C32.3004 21.6933 32.0586 21.9829 31.762 21.9829Z" fill="#181818"/>
<path d="M29.0703 14.2241H23.6869V15.5171H29.0703V14.2241Z" fill="#181818"/>
<path d="M29.0703 16.8103H23.6869V18.1033H29.0703V16.8103Z" fill="#181818"/>
<path d="M29.0703 19.3965H23.6869V20.6897H29.0703V19.3965Z" fill="#181818"/>
<path d="M11.3051 0H0.538339C0.241176 0 0 0.289655 0 0.646551V27.8017C0 28.1592 0.241176 28.4482 0.538339 28.4482H11.3051C11.6023 28.4482 11.8435 28.1592 11.8435 27.8017V0.646551C11.8435 0.289655 11.6023 0 11.3051 0ZM10.7668 27.1551H1.07668V1.2931H10.7668V27.1551Z" fill="#181818"/>
<path d="M9.69007 18.1035H2.15332V19.3966H9.69007V18.1035Z" fill="#181818"/>
<path d="M9.69007 24.5691H2.15332V25.8623H9.69007V24.5691Z" fill="#181818"/>
<path d="M9.69007 15.5171H2.15332V16.8103H9.69007V15.5171Z" fill="#181818"/>
<path d="M9.69007 9.05176H2.15332V10.3447H9.69007V9.05176Z" fill="#181818"/>
<path d="M9.69007 2.58618H2.15332V3.87917H9.69007V2.58618Z" fill="#181818"/>
<path d="M9.69007 20.6897H2.15332V23.2759H9.69007V20.6897Z" fill="#181818"/>
<path d="M9.69007 11.6379H2.15332V14.2242H9.69007V11.6379Z" fill="#181818"/>
<path d="M9.69007 5.17236H2.15332V7.75853H9.69007V5.17236Z" fill="#181818"/>
<path d="M55.9778 0H39.0531C37.3849 0.0024375 36.0328 1.68 36.0309 3.75V41.25C36.0328 43.32 37.3849 44.9976 39.0531 45H55.9778C57.6461 44.9976 58.9981 43.32 59 41.25V3.75C58.9981 1.68 57.6461 0.0024375 55.9778 0ZM57.7911 41.25C57.7911 42.4927 56.9793 43.5 55.9778 43.5H39.0531C38.0516 43.5 37.2398 42.4927 37.2398 41.25V37.5H57.7911V41.25ZM57.7911 36H37.2398V6H57.7911V36ZM57.7911 4.5H37.2398V3.75C37.2398 2.50734 38.0516 1.5 39.0531 1.5H55.9778C56.9793 1.5 57.7911 2.50734 57.7911 3.75V4.5Z" fill="#181818"/>
<path d="M47.5154 38.25C46.5139 38.25 45.702 39.2573 45.702 40.5C45.702 41.7427 46.5139 42.75 47.5154 42.75C48.5169 42.75 49.3287 41.7427 49.3287 40.5C49.3287 39.2573 48.5169 38.25 47.5154 38.25ZM47.5154 41.25C47.1816 41.25 46.9109 40.9142 46.9109 40.5C46.9109 40.0858 47.1816 39.75 47.5154 39.75C47.8492 39.75 48.1198 40.0858 48.1198 40.5C48.1198 40.9142 47.8492 41.25 47.5154 41.25Z" fill="#181818"/>
<path d="M48.12 2.25H46.9111C46.5773 2.25 46.3066 2.58581 46.3066 3C46.3066 3.41419 46.5773 3.75 46.9111 3.75H48.12C48.4538 3.75 48.7244 3.41419 48.7244 3C48.7244 2.58581 48.4538 2.25 48.12 2.25Z" fill="#181818"/>
</svg>
