<svg id="Capa_1" data-name="Capa 1" xmlns="http://www.w3.org/2000/svg" viewBox="0 0 399.77 400.05"><defs><style>.cls-1{fill:#1f1713;}</style></defs><title>producto3</title><path class="cls-1" d="M60.11,391.29c0-1.25,0-2.51,0-3.77q0-158.62,0-317.26c0-4.11-.54-3.51,3.58-3.51q196.31,0,392.61,0c1.16,0,2.32.11,3.48.17q0,160.92.06,321.83c0,2.24-.58,2.82-2.82,2.82-33.46-.08-66.91,0-100.37-.11-2.38,0-3.33.48-3.14,3.06.25,3.21-.16,6.47.11,9.68.48,5.61-1.16,10.52-3.91,15.32-3.59,6.28-7.2,12.61-8.5,19.89-1.21,6.77-.46,13.58-.17,20.38s.27,6.8-6.36,6.79c-2,0-4.4.6-5.77-.32s-.44-3.52-.49-5.36c-.27-8.94-1-17.91.61-26.81,1.07-5.83,3.74-11,6.93-15.9,4-6,5.36-12.33,5.17-19.52-.38-15.23-.11-30.49-.12-45.74,0-6.2-2-8.2-8.2-8.24a14,14,0,0,1-2.15,0c-1.72-.24-2.08.53-2.06,2.13.09,6.81,0,13.63.09,20.45,0,1.85-.59,2.3-2.29,2.23-2.78-.11-5.57-.14-8.34,0-1.84.1-2.22-.61-2.2-2.31.08-9,0-17.94,0-26.91,0-6-2.06-8.05-8.07-8.14-4.31-.06-4.31-.06-4.31,4.17,0,6.18-.07,12.37,0,18.56,0,1.71-.49,2.14-2.12,2.07-2.77-.13-5.56-.14-8.33,0-1.65.08-2.12-.38-2.1-2.07.09-8.61,0-17.22,0-25.83a31.59,31.59,0,0,0-.11-3.23c-.42-3.9-2.41-5.73-6.55-6.08-5.8-.48-5.8-.48-5.8,5.22s-.06,11.48,0,17.22c0,1.66-.27,2.43-2.16,2.31a54.34,54.34,0,0,0-8.07,0c-2.21.18-2.41-.78-2.41-2.61.06-19.92,0-39.83,0-59.74,0-2.78,0-5.56,0-8.34-.09-4.35-2.48-7.12-6-7.12-3.93,0-6.27,2.52-6.29,7.11-.06,12.56,0,25.11,0,37.67,0,20.45,0,40.9,0,61.36,0,2.31-.37,3.23-3,3.18-9.18-.17-9.14-.08-14.21-7.89q-6.07-9.36-12.37-18.56c-1.91-2.8-4.61-4.23-8.09-3.53a7.91,7.91,0,0,0-6.47,6.07,8.25,8.25,0,0,0,1,5.94q11,22.83,22.08,45.65c2.73,5.64,5.57,11.22,8.24,16.88s7.34,8.34,13.54,8.36c8.34,0,16.68.06,25,0,1.71,0,2.39.36,2.28,2.19a77.34,77.34,0,0,0,0,8.34c.11,1.87-.64,2.23-2.33,2.2-5.83-.09-11.66,0-17.49-.07-1.69,0-2.08.49-2.06,2.11.09,6.91,0,13.82.07,20.72,0,1.66-.28,2.39-2.15,2.27a70.32,70.32,0,0,0-8.34,0c-1.72.09-2.06-.51-2.05-2.12,0-6.54-.13-13.09-.13-19.63,0-2.63-.94-4.27-3.54-5.3a26.89,26.89,0,0,1-14.44-13.78c-4.63-9.48-9.28-18.95-13.64-28.56-1.89-4.16-4.62-5.8-9.17-5.79q-71.58.15-143.16,0C62.24,391.49,61.18,391.36,60.11,391.29ZM303.46,235.18c.6,1.33,1,2.22,1.39,3.1,3.67,8,5.72,16.43,4.9,25.28-.25,2.7.53,3,2.83,2.95,9.14-.14,18.29-.25,27.44-.06a8.52,8.52,0,0,0,7.34-3.43c10.35-12.25,20.86-24.37,31.23-36.62a9.75,9.75,0,0,1,8.12-3.76c19.19.11,38.38,0,57.57.1,2.16,0,2.87-.44,2.86-2.75q-.12-43.86,0-87.71c0-2.46-.7-2.92-3-2.92q-100.08.09-200.18,0c-2.48,0-3,.75-2.87,3a270.65,270.65,0,0,1-.16,32c-.55,8.69,2.28,16.06,9.29,21.48a7.68,7.68,0,0,1,3.31,6.37c0,5.38.15,10.76.14,16.13,0,1.49.4,2,2,2,5,.08,6.25-.61,8-5.34q7.74-20.58,15.39-41.2c.94-2.55,2.37-3.69,5.16-3.6,5.11.17,10.23,0,15.34.08,3.78,0,4.92-.61,6.44-4a24.57,24.57,0,0,1,25.35-14.74,25.07,25.07,0,0,1,9.49,46.89c-11.25,6.23-26.27,3.32-31.88-7-3.56-6.51-7.88-9.73-15.38-8.79-3.37.43-4.6.71-5.82,4-4.14,11-8.2,22.13-12.35,33.18-.46,1.22-.46,1.87.77,2.57,5.07,2.86,10.07,5.84,15.11,8.73a11.23,11.23,0,0,0,5.64,1.53c8.52,0,17,0,25.56.1a7.73,7.73,0,0,0,5.77-2.39c11.06-11.13,22.53-21.83,33.09-33.45,5.67-6.25,12.51-9.81,21.31-7.92a3.16,3.16,0,0,0,3.54-1.87c.52-.93.87-2,1.34-2.92,4.9-10,14.44-15.11,25.64-13.84a25.07,25.07,0,1,1-26.43,34.3c-.56-1.33-.74-3.15-2.75-3.22-4.52-.14-8.89.07-12.42,3.62-12.16,12.19-24.42,24.28-36.57,36.48a11.91,11.91,0,0,1-8.84,3.72C318.73,235.4,311.3,235.5,303.46,235.18ZM138.52,129.39c-20.89,0-41.79,0-62.69,0-2.22,0-3,.34-3,2.86q.15,40.64,0,81.26c0,2.33.53,3,2.94,3,17-.11,34.08,0,51.12-.1a10.56,10.56,0,0,1,8.07,3.49c6.33,6.47,12.78,12.83,19.19,19.23a6.93,6.93,0,0,0,5,2.27c17.12.22,34.25.28,51.37,0a4.56,4.56,0,0,0,4.32-2.6c1.37-2.62,2.79-5.22,4.35-7.72.83-1.32.63-2.08-.46-3.14-4.88-4.76-9.68-9.6-14.46-14.45a10.45,10.45,0,0,0-8-3.18c-11.57.08-23.14,0-34.7.05a9.34,9.34,0,0,1-7-2.78c-5.43-5.48-10.95-10.86-16.31-16.39-2-2-3.87-2.77-6.65-1.54a23.57,23.57,0,0,1-14.21,1.43c-13.31-2.52-21.87-15.24-19.52-29.12,2.19-12.93,15.12-22.28,28-20.25,16.56,2.6,25.77,18.72,19.55,34.28-.8,2-1,3.72.69,5.38,4.51,4.37,9,8.78,13.43,13.2a10.65,10.65,0,0,0,8,3.07c11.29,0,22.59.12,33.89.13a11,11,0,0,1,8.37,3.5c4.48,4.65,9.11,9.15,13.67,13.72,6,6,6,6,13.48,1.73a8.43,8.43,0,0,0,4.55-7.92c0-3.5-.36-7-.48-10.46a10.87,10.87,0,0,0-3.34-7.41C227.39,180.65,217.23,170.26,207,160a10.65,10.65,0,0,1-3.32-7.9c0-6.54-.46-13.08.05-19.61.19-2.37-.42-3.18-3-3.16C180,129.45,159.24,129.39,138.52,129.39Zm101.9,221.49.57-.25c0-13.79,0-27.58,0-41.37a3.61,3.61,0,0,0-2.13-3.45,3.32,3.32,0,0,0-3.91.95c-2.17,2.14-4.3,4.32-6.51,6.42-1.92,1.82-4.06,3.22-6.86,3.25-7.53.08-15.06.27-22.59.26-15.5,0-31-.3-46.52-.23-8.22,0-14.51,4-19.09,10.74a4.45,4.45,0,0,0-.44,5,16,16,0,0,1,1.75,6.15c1.13,10.45-2.62,18.78-11.51,24.27s-18.48,5.54-27.3-.5-12.39-14.57-10.55-25c2.83-16.05,18.69-24.69,33.87-18.69,2.38.94,4.23.75,6-1.16,3.15-3.31,6.55-6.39,9.61-9.78a10.19,10.19,0,0,1,8.23-3.62c23.5.15,47,.16,70.49.21a13.08,13.08,0,0,0,7.66-2.07c1.88-1.28,4.55-2.72,4.18-5-.4-2.53-2.95-4.11-5.59-4.9-2.8-.84-5.66-.58-8.52-.57-22.33.05-44.66,0-67,.14a13.14,13.14,0,0,1-10.41-4.58c-5.73-6.3-11.91-12.17-18.05-18.08a7.83,7.83,0,0,0-5.54-2.37c-11.83,0-23.66,0-35.49,0-1.46,0-2.18.39-2.18,2.15q.09,53.94,0,107.89c0,1.68.49,2.1,2.13,2.1q64.69-.06,129.41,0c2.37,0,1.94-.81,1.22-2.28-2.43-5-5.06-9.89-7.1-15a20.35,20.35,0,0,1,11.65-27c9-3.52,18.78-.46,24.67,7.79C236.63,345.12,238.49,348,240.42,350.88Zm19.19-234.67q92.29,0,184.59.06c2.26,0,2.8-.57,2.78-2.8-.13-10.22-.05-20.45-.07-30.68,0-3.9.5-3.44-3.41-3.44H76.2a10,10,0,0,1-1.34,0c-1.81-.25-2.23.55-2.22,2.28.08,10.49.14,21,0,31.48,0,2.62.64,3.19,3.22,3.19Q167.72,116.16,259.61,116.21Zm140.7,262.56c14.62,0,29.23-.06,43.85.05,2.28,0,2.81-.65,2.79-2.84q-.13-22.07,0-44.12c0-2.22-.55-2.83-2.8-2.83-22.77,0-45.54-.13-68.31-.08a15.57,15.57,0,0,1-10.35-3.61c-7.67-6.19-15.45-12.25-23.17-18.37a12.34,12.34,0,0,0-7.92-2.83q-23.13,0-46.26,0a34.38,34.38,0,0,0-7.92,1.35c-.52.12-1.08.19-1,1s.68.72,1.21.69.89-.15,1.34-.15c7,0,13.87.84,17.83,7.57,2.33,4,5.28,5.31,9.7,5.08,6.28-.32,11.83,1.78,15.21,7.32,2.34,3.84,5.22,5.26,9.67,5.22,9.62-.08,16.13,4.84,18.49,13.32a28.25,28.25,0,0,1,.91,7.71c0,7.53.08,15.07-.06,22.6-.05,2.29.42,3,2.9,3C371.08,378.7,385.7,378.77,400.31,378.77Zm-100.85-87.5c1.15.05,1.86.11,2.57.12,12.1.06,24.21.18,36.31.15a13.29,13.29,0,0,1,8.69,2.93c7.92,6.32,15.89,12.56,23.82,18.86a11.73,11.73,0,0,0,7.3,3c22.06,0,44.12,0,66.18.13,2.21,0,2.82-.63,2.81-2.87q-.12-37.8,0-75.59c0-2.25-.58-2.82-2.81-2.8q-26.76.23-53.52.21a6.17,6.17,0,0,0-5.11,2.38c-6,7.11-12.12,14.16-18.19,21.23l-6.34,7.44c7,0,13.3-.17,19.63.07,3.39.13,5.17-1.13,6.52-4.2a24.55,24.55,0,0,1,30.19-13.46,25.06,25.06,0,0,1-5.33,48.85,24.74,24.74,0,0,1-25.28-15.31c-1.07-2.61-2.51-3.48-5.23-3.43-10.3.18-20.61.22-30.92.21-14,0-28-.11-42-.15-1.12,0-2.26-.25-3,1.12C303.83,283.76,301.74,287.29,299.46,291.27ZM178.88,278.84c10.49,0,21,0,31.46,0,1.77,0,2.22-.34,1.91-2.23-1.08-6.54-2.1-13.1-2.75-19.69-.25-2.6-1.28-2.92-3.49-2.91-16.77.08-33.54,0-50.31.07a10.69,10.69,0,0,1-8.15-3.38c-6-6.13-12.16-12.18-18.24-18.27-1.76-1.76-3.7-3.2-6.29-3.21-16,0-32.11,0-48.16-.1-1.74,0-2.25.54-2.22,2.29q.17,10,0,19.91c0,2,.39,2.73,2.6,2.7,12.91-.14,25.83-.05,38.74-.19a10.94,10.94,0,0,1,8.55,3.62c6,6.24,12.31,12.28,18.46,18.42a9.68,9.68,0,0,0,7.23,3C158.44,278.81,168.66,278.84,178.88,278.84Zm99.84,13.26c15.12-8.53,22.11-27.27,16.66-43.77a37.42,37.42,0,0,0-72.88,9.44c-.9,14,8.38,31,18.55,33.67,0-6-.1-12,0-18,.27-13.2,11.12-21.86,23.52-18.89,8.37,2,14,9.64,14.12,19.28C278.78,279.79,278.72,285.78,278.72,292.1ZM122.34,178.92a12.39,12.39,0,1,0,.19-24.77,12.39,12.39,0,1,0-.19,24.77ZM109.89,329.07a12.73,12.73,0,0,0-12.44,12.32C97.39,348,103.38,354.05,110,354a12.47,12.47,0,0,0-.08-24.93ZM328.64,154.15a12.39,12.39,0,0,0-.07,24.77,12.39,12.39,0,1,0,.07-24.77Zm80.86,43.53a12.68,12.68,0,0,0,12.81-12.2c.18-6.43-5.54-12.39-12.16-12.66s-12.37,5.23-12.74,12S402.64,197.41,409.5,197.68Zm.29,62.69a12.53,12.53,0,0,0-12.39,12.27,12.72,12.72,0,0,0,12.44,12.57,12.85,12.85,0,0,0,12.48-12.33C422.44,266.24,416.56,260.36,409.79,260.37ZM228.22,162.75c0-10.6,0-21.32,0-32,0-1.19-.45-1.54-1.59-1.52-2.77.06-5.55.13-8.32,0-1.71-.09-2.1.5-2.07,2.12.09,6,.07,12,0,18a4.35,4.35,0,0,0,1.3,3.38C221.06,156,224.58,159.32,228.22,162.75Z" transform="translate(-60.11 -66.72)"/><path class="cls-1" d="M309.66,103.84q-60.81,0-121.62.06c-2.47,0-3.25-.63-3-3.06a30.9,30.9,0,0,0,0-6.45c-.26-2.38.71-3,2.84-2.68a3.25,3.25,0,0,0,.54,0H431.12c3.91,0,3.45-.45,3.39,3.45,0,2.84,1.25,6.64-.54,8.25-1.55,1.4-5.29.41-8.07.41Z" transform="translate(-60.11 -66.72)"/><path class="cls-1" d="M97.35,97.9c0,6,0,6-6.08,6s-6,0-6-6.15,0-6.06,6.15-6.06C97.35,91.72,97.35,91.72,97.35,97.9Z" transform="translate(-60.11 -66.72)"/><path class="cls-1" d="M135.11,97.72c0-6,0-6,5.95-6,6.25,0,6.25,0,6.25,6.23,0,6,0,6-5.94,6C135.11,103.93,135.11,103.93,135.11,97.72Z" transform="translate(-60.11 -66.72)"/><path class="cls-1" d="M122.2,97.9c0,6,0,6-6.13,6-5.89,0-5.89,0-5.89-6,0-6.21,0-6.21,6-6.21S122.2,91.72,122.2,97.9Z" transform="translate(-60.11 -66.72)"/></svg>