<svg id="Capa_1" data-name="Capa 1" xmlns="http://www.w3.org/2000/svg" viewBox="0 0 391.99 392.52"><defs><style>.cls-1{fill:#1f1713;}</style></defs><title>producto1</title><path class="cls-1" d="M352.75,73.27c.8.91,1.95.5,2.92.76,9.33,2.53,14.6,9.5,14.63,20.07.07,31.53,0,63.05.07,94.58,0,1.83-.65,2.17-2.27,2.11a85.85,85.85,0,0,0-8.64,0c-1.95.11-2.49-.44-2.48-2.44.1-13.54,0-27.07,0-40.61,0-6.55,0-13.1,0-19.65,0-.48.22-1-.3-1.47-.89.07-1,.93-1.25,1.47-3.22,5.78-6.45,11.56-9.59,17.4-7,13-17.75,19.48-32.46,19.48-23.66,0-47.33,0-71-.05-2.23,0-2.83.73-2.89,2.77-.09,3,.86,5.43,3.57,6.74,8.23,4,11.31,14.27,8.57,22.71-2.78,8.61-10.69,14-20.12,13.49-8.78-.44-16-6.9-17.92-16a18.19,18.19,0,0,1,8.34-19.6c3.11-1.93,4.81-4.42,4.41-8.2-.15-1.39-.63-1.9-2.11-1.9-18.42,0-36.85.12-55.27,0-8.45-.06-16.94.81-25.34-.81-9.9-1.91-17-7.63-22-16.19-4-6.85-7.68-13.87-12.23-20.62a4.52,4.52,0,0,0-.35,2.74q0,68.12.06,136.23c0,2.59-.67,3.25-3.14,3a71,71,0,0,0-8.38,0c-1.43.05-2.16-.31-1.94-1.86a9.53,9.53,0,0,0,0-1.31V95.08a27.39,27.39,0,0,1,1.26-8.77,17.77,17.77,0,0,1,12.72-12c.86-.25,1.92-.09,2.54-1ZM233.06,86.47q-56.85,0-113.7,0c-10.19,0-13.57,5.71-8.63,14.63,7,12.66,14.16,25.22,21,38,4.7,8.75,11.73,12.83,21.62,12.77,22.53-.13,45.06,0,67.59-.05,1.31,0,2.61-.11,3.92-.18.51,0,1,0,1.27-.64.78-1.65.17-5.54-1.28-6.85-1.1-1-2.34-1.82-3.52-2.7a19.81,19.81,0,0,1-6.84-22.67c2.77-7.68,10.87-13.21,18.87-12.89a19.84,19.84,0,0,1,18.59,14.34c2.35,8.78-.91,18-8.59,21.83-2.75,1.38-3.82,3.84-3.83,6.91,0,2.19.64,2.94,3,2.92,23.67-.1,47.33-.06,71-.06,9,0,15.73-3.77,20.11-11.72,7.15-13,14.37-25.89,21.52-38.86,5-9.16,1.73-14.75-8.68-14.75Q289.77,86.45,233.06,86.47Zm-.06,98a6.8,6.8,0,0,0-6.46,6.58,6.66,6.66,0,0,0,6.29,6.41,6.77,6.77,0,0,0,6.63-6.38A6.9,6.9,0,0,0,233,184.49Zm.1-52.44a6.62,6.62,0,0,0,6.36-6.37,6.55,6.55,0,0,0-6.58-6.41,6.48,6.48,0,0,0-6.34,6.35A6.56,6.56,0,0,0,233.1,132.05Z" transform="translate(-69.87 -73.27)"/><path class="cls-1" d="M219.91,465.74H157.54c-.87,0-1.75,0-2.61-.06-4.91-.48-7-2.68-7-7.66-.05-7.42-.1-14.85,0-22.27,0-2.2-.38-2.94-2.81-2.92-16.41.13-32.84.07-49.26.06-12.51,0-19.77-6.8-21-19.22-1.74-17.62-3.54-35.24-4.88-52.9a63.54,63.54,0,0,1,1.68-18.65c2.44-11.06,4.47-22.22,6.89-33.29,3.93-18,19.87-28.73,38.27-26.2,8.79,1.22,14.77,5.57,17.29,14.08,3.38,11.41-3.67,22.28-16,24.84-1.94.4-2.57,1-2.55,3q.14,18.87,0,37.73c0,2.09.44,2.5,2.43,1.88,5.16-1.62,10.36-3.06,15.84-3.21a43.63,43.63,0,0,1,20.22,4.5,6.92,6.92,0,0,0,6.84,0c8.66-4.43,18.09-4.77,27.57-4.49a1.91,1.91,0,0,0,.52.05c1.46-.27,3.51.9,4.29-.79a6.34,6.34,0,0,0-.57-6,10.43,10.43,0,0,0-3.17-3.07c-9-6-15-14.22-18.67-24.23-1.17-3.2-2.82-4.85-6.47-5.28-9-1.07-16.14-9.49-16.48-18.64-.37-9.7,5.82-17.73,15.86-19.85,3-.63,3.55-1.78,3.6-4.53.18-9.14.16-18.31,3.36-27.11,7.73-21.3,29.11-35.6,51.45-34.3,23.89,1.39,43.42,17.47,48.59,40.18,1.72,7.53,1.55,15.26,1.74,22.93,0,1.64.54,2.14,2.07,2.46,7,1.49,12.75,4.88,15.77,11.66,5.35,12-2.93,26-16.07,27.25a5.12,5.12,0,0,0-4.93,3.87A48.33,48.33,0,0,1,250,351.37c-2.46,1.64-4,3.84-3.87,7,.08,1.87.72,2.84,2.82,2.7,2.78-.18,5.59-.08,8.38-.13a47.94,47.94,0,0,1,22.75,5,4.68,4.68,0,0,0,4.68,0c11.94-6.15,24.22-6.5,36.7-1.83,2.16.81,2.81.6,2.79-1.88q-.17-18.87,0-37.73c0-1.9-.64-2.51-2.4-2.87-9.31-1.92-15.74-8.4-16.79-16.71a19.58,19.58,0,0,1,16.54-22.08c11-1.6,21.24.44,29.72,8.2a34.12,34.12,0,0,1,10.18,18.51c3,14,6,28,8.17,42.09,1.07,6.9-.35,13.76-.92,20.61-1.19,14.08-2.69,28.14-3.89,42.22-.93,10.89-8.71,18.38-19.63,18.41-16.86.05-33.71.07-50.57-.05-2.4,0-2.88.67-2.82,2.91.18,6.63.12,13.27.14,19.91,0,1,0,1.92-.09,2.87-.29,4.62-2.15,6.59-6.73,7.12a25,25,0,0,1-2.87.1ZM205,394.85c-5.9,1.7-11.13,3.91-16.66,5.19a5.53,5.53,0,0,1-5.71-1.71,13.29,13.29,0,0,1-2.31-4.08q-3.12-7.74-6.21-15.51c-1.34-3.38-2.07-3.71-5.21-2.19a35,35,0,0,0-5.09,2.65c-4.42,3.16-8.4,2.7-13-.11-12.07-7.35-24-6.59-35.42,1.78a26.36,26.36,0,0,1-3.68,2.48,6.43,6.43,0,0,1-9.48-5.18,48.37,48.37,0,0,1-.11-5q0-18.07.08-36.15c0-1,.15-1.87-1.39-1.84-4.36.09-8.73.05-13.1,0-.83,0-1.25.24-1.42,1.1-1.38,6.9-3.61,13.66-3.22,20.85,1,18.56,3,37,4.93,55.51.52,5.15,2.65,7,7.89,7q13.89.06,27.77.08c9.78,0,19.56,0,29.34,0,5.64,0,7.78,1.87,8,7.36.22,7.68.19,15.37.19,23.05,0,1.49.24,2.14,2,2.12q14.92-.12,29.86,0c1.44,0,1.86-.46,2.1-1.86,2.18-12.45,4.46-24.88,6.69-37.32C202.88,407.15,203.92,401.17,205,394.85Zm29.92,0a8,8,0,0,0,0,1.23q4.58,25.49,9.18,51c.93,5.12.95,5.12,6.12,5.12,8.82,0,17.64,0,26.46,0,.75,0,2.13.67,2-1.1-.28-4,.38-8-.26-12a39.18,39.18,0,0,1-.59-9.12q.74-9.39,9.94-10.95a21.22,21.22,0,0,1,5.74-.08,124.61,124.61,0,0,0,14.33.93c11.87-.2,23.74-.09,35.62-.15,5.67,0,7.7-1.69,8.26-7.21,1.6-16,3.2-31.94,4.51-47.94a67.79,67.79,0,0,0-2.94-27.4c-.55-1.62-1.29-2.16-3-2.1-3.49.12-7,.14-10.48,0-1.91-.08-2.3.63-2.29,2.4.07,10.13.05,20.26,0,30.39,0,3,0,5.94-.17,8.9-.27,4.21-3.15,7.29-6.34,6.75a13.84,13.84,0,0,1-6.5-2.46,33.42,33.42,0,0,0-11.87-5.87c-9.24-2.48-17.59-.14-25.4,4.82a8.54,8.54,0,0,1-9.59.23c-2.33-1.35-4.75-2.56-7.15-3.78-3.29-1.68-3.29-1.66-4.71,1.85-2.29,5.65-4.49,11.34-6.89,16.94-2,4.76-4.42,5.81-9.36,4.47-.84-.23-1.65-.56-2.48-.83C243.16,397.53,239.13,396.23,235,394.89ZM197.74,289.2c-4.31,0-9.54.07-14.78,0-1.68,0-2.26.41-2.23,2.14.1,5.5.08,11,0,16.5a39.27,39.27,0,0,0,26,37.7c22.21,8.18,46.57-5.25,51-28.36,1.6-8.42,1.43-17,1.9-25.53.11-1.91-.4-2.54-2.2-2.85a26.17,26.17,0,0,1-17.07-10.21c-1.16-1.54-1.67-1.34-2.81-.1a32.75,32.75,0,0,1-17.46,9.86C213,289.88,205.8,288.83,197.74,289.2Zm-17-19.37c0,1,.07,1.93,0,2.88-.2,2.21.4,3.23,3,3.2,9.78-.1,19.57.33,29.34,0,10.69-.37,17.52-6.4,19.48-16.37.31-1.62.34-3.31.78-4.9a6.41,6.41,0,0,1,10.24-3.43c1.62,1.26,2.21,3.09,2.71,5,.91,3.46,1.69,6.94,2.68,10.37a12.09,12.09,0,0,0,7.21,8.13c2.82,1.18,2.82,1.19,2.84-1.75,0-1.13,0-2.27,0-3.4-.45-21.4-16.53-38.32-37.46-39.44C199.89,228.91,180.93,247.38,180.78,269.83ZM220,452.45c3,0,5.95-.18,8.89.05,2.4.19,2.7-.68,2.31-2.77-2.37-12.93-4.63-25.87-7-38.8-.8-4.46-.85-4.33-5.49-4.47-2-.06-2.49.7-2.77,2.44-.88,5.49-1.91,11-2.89,16.45-1.46,8.22-2.87,16.46-4.42,24.67-.38,2,.18,2.58,2.19,2.47C213.86,452.33,216.92,452.45,220,452.45ZM344.11,321.51v.1c1.57,0,3.15-.06,4.71,0,1.24.07,1.52-.44,1.27-1.55-.52-2.3-1.1-4.58-1.45-6.91-2.05-13.62-13.56-19.09-24.78-17.25-3.83.63-5.9,3.14-5.69,6.85.18,3.21,2.94,5.69,6.57,5.82,2.09.08,4.2-.07,6.28.13,4.42.42,6.22,2.48,6.6,6.94.16,2-1,4.63.61,5.66C339.62,322.24,342.11,321.51,344.11,321.51Zm-248.26.09c2.06-.16,4.7.89,6-.45,1-1,.3-3.62.38-5.52.17-4.27,2.1-6.42,6.31-6.91a30.51,30.51,0,0,1,4.17-.05,11.7,11.7,0,0,0,5.36-.9,6.13,6.13,0,0,0,3.55-6.4c-.18-2.53-1.42-4.47-3.83-5.07-7.82-1.92-18.23-.34-23.47,8.28-2.22,3.65-3.11,7.71-3.94,11.81-1.06,5.22-1.06,5.22,4.15,5.22C95,321.61,95.41,321.64,95.85,321.6Zm137.4,39H206.32c3.41,5.75,8.68,7.34,14.43,7.06C225.81,367.45,230.7,366.08,233.25,360.63Zm-46.66,13.44c1.38,3.53,2.63,6.75,3.91,10,.21.53.36,1.26,1.23,1,3.3-1,6.8-1.45,9.81-3.31a5,5,0,0,0,2.18-4.25c.08-1.54-1.72-1.69-2.8-2.26a9,9,0,0,0-2.48-.76C194.65,373.71,190.82,374.31,186.59,374.07Zm66.56,0c-4.8.36-9.29-.64-13.61.91-1.42.51-3.49,1-3.49,2.62a5.42,5.42,0,0,0,2.82,4.46,6.11,6.11,0,0,0,1.4.7c2.49.75,5,1.43,7.49,2.22,1.08.34,1.37-.26,1.67-1.05C250.62,380.74,251.81,377.58,253.15,374Zm-33.23,7c-2.41,0-4.59,1.78-4.55,3.73,0,1.29,3.34,5.42,4.44,5.51s4.75-4.12,4.75-5.5C224.56,383,222.16,381,219.92,381Zm52.65-72.51c4.16-1,6-2.92,6-6.26a6.09,6.09,0,0,0-4.35-6.09c-1.16-.35-1.74-.25-1.7,1.22C272.63,301,272.57,304.65,272.57,308.5Zm-105.26-6.22c0-1.65-.06-3.32,0-5,0-1.21-.37-1.55-1.53-1.24a6.07,6.07,0,0,0-4.46,5.22c-.35,3,.81,5.29,3.33,6.47s2.62,1,2.64-1.55C167.32,304.9,167.31,303.59,167.31,302.28Z" transform="translate(-69.87 -73.27)"/><path class="cls-1" d="M461.86,263.49c0,.7-.08,1.39-.08,2.09q0,89.4,0,178.79c0,.52.05,1,.07,1.56-.83,12.62-8.59,19.78-21.64,19.8q-36.79.06-73.61,0c-19.39,0-38.78,0-58.16.05-2.55,0-3.63-.54-3.35-3.32a63.32,63.32,0,0,0,0-8.38c0-1.27.41-1.76,1.65-1.65.61.05,1.22,0,1.84,0H438.29c8.77,0,10.37-1.61,10.37-10.36q0-84.75.07-169.5c0-2.56-.64-3.12-3.13-3.1-10.12.11-20.27.35-30.37-.21-11.78-.64-18.83-8.67-18.88-20.5-.05-9.7-.07-19.39,0-29.08,0-2-.51-2.43-2.45-2.43q-53.06.09-106.11,0c-.61,0-1.22,0-1.83.06-4.92.28-6.47,1.71-7,6.62a26.46,26.46,0,0,0-.16,4.45c.09,1.66-.61,2.06-2.16,2-2.88-.11-5.77-.11-8.64,0-1.57.07-2.1-.47-2.26-2-1.49-14.8,6.6-24.3,21.4-24.36,37.9-.14,75.8,0,113.7,0a11.84,11.84,0,0,1,8.66,3.69q24.72,24.73,49.4,49.52A10.27,10.27,0,0,1,461.86,263.49Zm-24.77-7.31-27.42-27.11c0,6.71-.11,13.94,0,21.16.08,3.65,2.31,5.88,5.68,5.92C422.72,256.24,430,256.18,437.09,256.18Z" transform="translate(-69.87 -73.27)"/><path class="cls-1" d="M331.27,269.29c-8,0-16.06,0-24.09,0-1.56,0-2.16-.32-2.08-2,.15-3,.1-5.94,0-8.91,0-1.33.32-1.82,1.74-1.82q24.22.07,48.44,0c1.37,0,1.81.38,1.77,1.76-.1,3-.12,6.11,0,9.16.07,1.61-.61,1.81-2,1.8C347.15,269.26,339.21,269.29,331.27,269.29Z" transform="translate(-69.87 -73.27)"/><path class="cls-1" d="M403.05,335.05c5.85,0,11.69,0,17.54,0,1.48,0,2,.41,1.9,1.91-.11,3-.08,5.93,0,8.9,0,1.27-.2,1.86-1.69,1.85q-17.81-.07-35.6,0c-1.34,0-1.87-.37-1.82-1.77.08-3,.12-5.94,0-8.9-.08-1.73.64-2,2.15-2C391.36,335.09,397.2,335.05,403.05,335.05Z" transform="translate(-69.87 -73.27)"/><path class="cls-1" d="M402.83,321.7c-5.76,0-11.52-.07-17.28,0-1.66,0-2.06-.48-2-2.06.12-3,.1-5.93,0-8.9,0-1.43.32-2,1.87-2q17.67.09,35.35,0c1.47,0,1.74.55,1.71,1.84-.08,3-.12,5.94,0,8.91.07,1.66-.35,2.22-2.12,2.18C414.53,321.62,408.68,321.7,402.83,321.7Z" transform="translate(-69.87 -73.27)"/><path class="cls-1" d="M403.19,361.25c5.75,0,11.51.06,17.26,0,1.59,0,2.12.39,2.05,2-.13,3-.09,6.1,0,9.15,0,1.23-.34,1.65-1.61,1.65q-17.79-.06-35.57,0c-1.24,0-1.68-.36-1.65-1.62.08-3.05.12-6.11,0-9.15-.07-1.61.39-2.09,2-2.06C391.5,361.31,397.34,361.25,403.19,361.25Z" transform="translate(-69.87 -73.27)"/><path class="cls-1" d="M403,426.43c-5.76,0-11.51-.06-17.26,0-1.71,0-2.26-.44-2.18-2.18.14-3,.08-6.1,0-9.15,0-1.21.32-1.67,1.61-1.67q17.77.07,35.55,0c1.24,0,1.69.38,1.67,1.64-.07,3.22-.09,6.45,0,9.67,0,1.51-.69,1.67-1.91,1.66C414.66,426.41,408.82,426.43,403,426.43Z" transform="translate(-69.87 -73.27)"/><path class="cls-1" d="M403,399.88c-5.85,0-11.7-.06-17.55,0-1.61,0-2.13-.42-2.06-2.05.12-2.87.09-5.76,0-8.64,0-1.42.33-2,1.88-2q17.69.09,35.36,0c1.53,0,1.92.49,1.87,1.94-.1,3-.12,5.94,0,8.9.07,1.61-.59,1.82-2,1.8C414.68,399.84,408.83,399.88,403,399.88Z" transform="translate(-69.87 -73.27)"/><path class="cls-1" d="M344.36,230.5c3.58,0,7.16.05,10.74,0,1.36,0,2,.19,2,1.8-.12,3.13-.08,6.28,0,9.42,0,1.22-.34,1.69-1.62,1.68-7.51,0-15-.06-22.52,0-1.51,0-1.71-.61-1.68-1.87.07-3.05.1-6.11,0-9.16-.05-1.47.38-1.93,1.88-1.89C336.86,230.57,340.61,230.5,344.36,230.5Z" transform="translate(-69.87 -73.27)"/><path class="cls-1" d="M311.36,243c-2,0-4.64.78-5.82-.2-1.41-1.17-.43-3.91-.44-6s-1-4.87.4-6,4-.37,6.06-.38c6.36,0,6.4,0,6.33,6.32,0,2.06,1,4.9-.44,6S313.44,243,311.36,243Z" transform="translate(-69.87 -73.27)"/><path class="cls-1" d="M245.84,302.38c0,6.22,0,6.23-6.12,6.21-2.08,0-4.83.69-6.06-.36-1.45-1.23-.39-4.07-.46-6.22-.07-2-.67-4.66.35-5.81,1.21-1.37,3.95-.42,6-.44,6.27-.06,6.27,0,6.27,6.36Z" transform="translate(-69.87 -73.27)"/><path class="cls-1" d="M206.62,302.05c0,6.46,0,6.46-6.42,6.46s-6.34,0-6.34-6.29,0-6.29,6.29-6.29h.27C206.62,295.93,206.62,295.93,206.62,302.05Z" transform="translate(-69.87 -73.27)"/></svg>