<svg width="192" height="192" viewBox="0 0 192 192" fill="none" xmlns="http://www.w3.org/2000/svg">
<path d="M177 126H135C132.613 126 130.324 126.948 128.636 128.636C126.948 130.324 126 132.613 126 135V165C126 167.387 126.948 169.676 128.636 171.364C130.324 173.052 132.613 174 135 174H143.16L141.66 180H135V186H177V180H170.34L168.84 174H177C179.387 174 181.676 173.052 183.364 171.364C185.052 169.676 186 167.387 186 165V135C186 132.613 185.052 130.324 183.364 128.636C181.676 126.948 179.387 126 177 126ZM135 132H177C177.796 132 178.559 132.316 179.121 132.879C179.684 133.441 180 134.204 180 135V156H132V135C132 134.204 132.316 133.441 132.879 132.879C133.441 132.316 134.204 132 135 132ZM164.16 180H147.84L149.34 174H162.66L164.16 180ZM177 168H135C134.204 168 133.441 167.684 132.879 167.121C132.316 166.559 132 165.796 132 165V162H180V165C180 165.796 179.684 166.559 179.121 167.121C178.559 167.684 177.796 168 177 168Z" fill="black"/>
<path d="M177 6H135C132.613 6 130.324 6.94821 128.636 8.63604C126.948 10.3239 126 12.6131 126 15V45C126 47.3869 126.948 49.6761 128.636 51.364C130.324 53.0518 132.613 54 135 54H143.16L141.66 60H135V66H177V60H170.34L168.84 54H177C179.387 54 181.676 53.0518 183.364 51.364C185.052 49.6761 186 47.3869 186 45V15C186 12.6131 185.052 10.3239 183.364 8.63604C181.676 6.94821 179.387 6 177 6ZM135 12H177C177.796 12 178.559 12.3161 179.121 12.8787C179.684 13.4413 180 14.2044 180 15V36H132V15C132 14.2044 132.316 13.4413 132.879 12.8787C133.441 12.3161 134.204 12 135 12ZM164.16 60H147.84L149.34 54H162.66L164.16 60ZM177 48H135C134.204 48 133.441 47.6839 132.879 47.1213C132.316 46.5587 132 45.7957 132 45V42H180V45C180 45.7957 179.684 46.5587 179.121 47.1213C178.559 47.6839 177.796 48 177 48Z" fill="black"/>
<path d="M57 126H15C12.6131 126 10.3239 126.948 8.63604 128.636C6.94821 130.324 6 132.613 6 135V165C6 167.387 6.94821 169.676 8.63604 171.364C10.3239 173.052 12.6131 174 15 174H23.157L21.657 180H15V186H57V180H50.343L48.843 174H57C59.3869 174 61.6761 173.052 63.364 171.364C65.0518 169.676 66 167.387 66 165V135C66 132.613 65.0518 130.324 63.364 128.636C61.6761 126.948 59.3869 126 57 126ZM15 132H57C57.7957 132 58.5587 132.316 59.1213 132.879C59.6839 133.441 60 134.204 60 135V156H12V135C12 134.204 12.3161 133.441 12.8787 132.879C13.4413 132.316 14.2044 132 15 132ZM44.157 180H27.843L29.343 174H42.657L44.157 180ZM57 168H15C14.2044 168 13.4413 167.684 12.8787 167.121C12.3161 166.559 12 165.796 12 165V162H60V165C60 165.796 59.6839 166.559 59.1213 167.121C58.5587 167.684 57.7957 168 57 168Z" fill="black"/>
<path d="M15 54H23.157L21.657 60H15V66H57V60H50.343L48.843 54H57C59.3869 54 61.6761 53.0518 63.364 51.364C65.0518 49.6761 66 47.3869 66 45V15C66 12.6131 65.0518 10.3239 63.364 8.63604C61.6761 6.94821 59.3869 6 57 6H15C12.6131 6 10.3239 6.94821 8.63604 8.63604C6.94821 10.3239 6 12.6131 6 15V45C6 47.3869 6.94821 49.6761 8.63604 51.364C10.3239 53.0518 12.6131 54 15 54ZM44.157 60H27.843L29.343 54H42.657L44.157 60ZM57 48H15C14.2044 48 13.4413 47.6839 12.8787 47.1213C12.3161 46.5587 12 45.7957 12 45V42H60V45C60 45.7957 59.6839 46.5587 59.1213 47.1213C58.5587 47.6839 57.7957 48 57 48ZM15 12H57C57.7957 12 58.5587 12.3161 59.1213 12.8787C59.6839 13.4413 60 14.2044 60 15V36H12V15C12 14.2044 12.3161 13.4413 12.8787 12.8787C13.4413 12.3161 14.2044 12 15 12Z" fill="black"/>
<path d="M93 41.448V51H99V41.448C100.255 40.9998 101.394 40.2786 102.336 39.3365C103.279 38.3943 104 37.2548 104.448 36H120V30H104.448C103.837 28.2464 102.696 26.7263 101.182 25.6507C99.668 24.5751 97.857 23.9972 96 23.9972C94.143 23.9972 92.332 24.5751 90.8182 25.6507C89.3045 26.7263 88.1629 28.2464 87.552 30H72V36H87.552C88.0002 37.2548 88.7214 38.3943 89.6635 39.3365C90.6057 40.2786 91.7453 40.9998 93 41.448ZM96 30C96.5933 30 97.1734 30.176 97.6667 30.5056C98.1601 30.8353 98.5446 31.3038 98.7716 31.852C98.9987 32.4002 99.0581 33.0034 98.9424 33.5853C98.8266 34.1672 98.5409 34.7018 98.1213 35.1213C97.7018 35.5409 97.1672 35.8266 96.5853 35.9424C96.0033 36.0581 95.4001 35.9987 94.852 35.7717C94.3038 35.5446 93.8352 35.1601 93.5056 34.6667C93.1759 34.1734 93 33.5934 93 33C93 32.2044 93.3161 31.4413 93.8787 30.8787C94.4413 30.3161 95.2044 30 96 30Z" fill="black"/>
<path d="M33 120V104.448C34.2547 104 35.3943 103.279 36.3365 102.336C37.2786 101.394 37.9998 100.255 38.448 99H48V93H38.448C37.9998 91.7453 37.2786 90.6057 36.3365 89.6635C35.3943 88.7214 34.2547 88.0002 33 87.552V72H27V87.552C25.2464 88.1629 23.7263 89.3045 22.6507 90.8182C21.5751 92.332 20.9972 94.143 20.9972 96C20.9972 97.857 21.5751 99.668 22.6507 101.182C23.7263 102.696 25.2464 103.837 27 104.448V120H33ZM30 93C30.5933 93 31.1734 93.1759 31.6667 93.5056C32.1601 93.8352 32.5446 94.3038 32.7716 94.852C32.9987 95.4001 33.0581 96.0033 32.9424 96.5853C32.8266 97.1672 32.5409 97.7018 32.1213 98.1213C31.7018 98.5409 31.1672 98.8266 30.5853 98.9424C30.0033 99.0581 29.4001 98.9987 28.8519 98.7716C28.3038 98.5446 27.8352 98.1601 27.5056 97.6667C27.1759 97.1734 27 96.5933 27 96C27 95.2044 27.3161 94.4413 27.8787 93.8787C28.4413 93.3161 29.2043 93 30 93Z" fill="black"/>
<path d="M159 72V87.552C157.745 88.0002 156.606 88.7214 155.664 89.6635C154.721 90.6057 154 91.7453 153.552 93H144V99H153.552C154 100.255 154.721 101.394 155.664 102.336C156.606 103.279 157.745 104 159 104.448V120H165V104.448C166.754 103.837 168.274 102.696 169.349 101.182C170.425 99.668 171.003 97.857 171.003 96C171.003 94.143 170.425 92.332 169.349 90.8182C168.274 89.3045 166.754 88.1629 165 87.552V72H159ZM162 99C161.407 99 160.827 98.8241 160.333 98.4944C159.84 98.1648 159.455 97.6962 159.228 97.148C159.001 96.5999 158.942 95.9967 159.058 95.4147C159.173 94.8328 159.459 94.2982 159.879 93.8787C160.298 93.4591 160.833 93.1734 161.415 93.0576C161.997 92.9419 162.6 93.0013 163.148 93.2284C163.696 93.4554 164.165 93.8399 164.494 94.3333C164.824 94.8266 165 95.4067 165 96C165 96.7956 164.684 97.5587 164.121 98.1213C163.559 98.6839 162.796 99 162 99Z" fill="black"/>
<path d="M99 150.552V141H93V150.552C91.7453 151 90.6057 151.721 89.6635 152.664C88.7214 153.606 88.0002 154.745 87.552 156H72V162H87.552C88.1629 163.754 89.3045 165.274 90.8182 166.349C92.332 167.425 94.143 168.003 96 168.003C97.857 168.003 99.668 167.425 101.182 166.349C102.696 165.274 103.837 163.754 104.448 162H120V156H104.448C104 154.745 103.279 153.606 102.336 152.664C101.394 151.721 100.255 151 99 150.552ZM96 162C95.4067 162 94.8266 161.824 94.3333 161.494C93.8399 161.165 93.4554 160.696 93.2284 160.148C93.0013 159.6 92.9419 158.997 93.0576 158.415C93.1734 157.833 93.4591 157.298 93.8787 156.879C94.2982 156.459 94.8328 156.173 95.4147 156.058C95.9967 155.942 96.5999 156.001 97.148 156.228C97.6962 156.455 98.1648 156.84 98.4944 157.333C98.8241 157.827 99 158.407 99 159C99 159.796 98.6839 160.559 98.1213 161.121C97.5587 161.684 96.7956 162 96 162Z" fill="black"/>
<path d="M120 102H114V108H120V102Z" fill="black"/>
<path d="M108 102H102V108H108V102Z" fill="black"/>
<path d="M78 102H72V108H78V102Z" fill="black"/>
<path d="M132 90H131.64L129.3 71.25C129.118 69.8023 128.414 68.4706 127.321 67.5043C126.227 66.5379 124.819 66.0031 123.36 66H122.64C121.181 66.0031 119.773 66.5379 118.679 67.5043C117.586 68.4706 116.882 69.8023 116.7 71.25L114.36 90H77.64L75.3 71.25C75.1176 69.8023 74.4139 68.4706 73.3205 67.5043C72.2272 66.5379 70.8192 66.0031 69.36 66H68.64C67.1808 66.0031 65.7728 66.5379 64.6795 67.5043C63.5861 68.4706 62.8824 69.8023 62.7 71.25L60.36 90H60C58.4102 90.0047 56.8868 90.6384 55.7626 91.7626C54.6384 92.8868 54.0047 94.4102 54 96V114C54.0047 115.59 54.6384 117.113 55.7626 118.237C56.8868 119.362 58.4102 119.995 60 120H132C133.59 119.995 135.113 119.362 136.237 118.237C137.362 117.113 137.995 115.59 138 114V96C137.995 94.4102 137.362 92.8868 136.237 91.7626C135.113 90.6384 133.59 90.0047 132 90ZM122.64 72H123.36L125.61 90H120.39L122.64 72ZM68.64 72H69.36L71.61 90H66.39L68.64 72ZM132 114H60V96H132V114Z" fill="black"/>
<path d="M31.758 28.7579L36 32.9999L40.242 28.7579C39.1168 27.6331 37.591 27.0012 36 27.0012C34.409 27.0012 32.8832 27.6331 31.758 28.7579Z" fill="black"/>
<path d="M42.366 26.6369L46.608 22.3949C43.7918 19.5869 39.977 18.01 36 18.01C32.023 18.01 28.2083 19.5869 25.392 22.3949L29.634 26.6369C30.4698 25.8005 31.4622 25.1371 32.5545 24.6844C33.6469 24.2318 34.8176 23.9988 36 23.9988C37.1824 23.9988 38.3532 24.2318 39.4455 24.6844C40.5378 25.1371 41.5302 25.8005 42.366 26.6369Z" fill="black"/>
<path d="M151.758 28.7579L156 32.9999L160.242 28.7579C159.117 27.6331 157.591 27.0012 156 27.0012C154.409 27.0012 152.883 27.6331 151.758 28.7579Z" fill="black"/>
<path d="M162.363 26.637L166.605 22.395C163.792 19.5829 159.977 18.0032 156 18.0032C152.023 18.0032 148.208 19.5829 145.395 22.395L149.637 26.637C151.351 25.0007 153.63 24.0878 156 24.0878C158.37 24.0878 160.649 25.0007 162.363 26.637Z" fill="black"/>
<path d="M151.758 148.758L156 153L160.242 148.758C159.117 147.633 157.591 147.001 156 147.001C154.409 147.001 152.883 147.633 151.758 148.758Z" fill="black"/>
<path d="M162.363 146.637L166.605 142.395C163.792 139.583 159.977 138.003 156 138.003C152.023 138.003 148.208 139.583 145.395 142.395L149.637 146.637C151.351 145.001 153.63 144.088 156 144.088C158.37 144.088 160.649 145.001 162.363 146.637Z" fill="black"/>
<path d="M31.758 148.758L36 153L40.242 148.758C39.1168 147.633 37.591 147.001 36 147.001C34.409 147.001 32.8832 147.633 31.758 148.758Z" fill="black"/>
<path d="M42.366 146.637L46.608 142.395C43.7918 139.587 39.977 138.01 36 138.01C32.023 138.01 28.2083 139.587 25.392 142.395L29.634 146.637C30.4698 145.801 31.4622 145.137 32.5545 144.685C33.6469 144.232 34.8176 143.999 36 143.999C37.1824 143.999 38.3532 144.232 39.4455 144.685C40.5378 145.137 41.5302 145.801 42.366 146.637Z" fill="black"/>
</svg>
