<svg width="171" height="173" viewBox="0 0 171 173" fill="none" xmlns="http://www.w3.org/2000/svg">
<g clip-path="url(#clip0)">
<path d="M53.0554 137.341C56.3408 137.542 59.3133 138.988 61.5002 141.21C63.8765 143.605 65.344 146.919 65.344 150.578V155.731C69.4531 150.396 71.8952 143.682 71.8952 136.393C71.8952 127.686 68.402 119.794 62.7593 114.085C57.1167 108.376 49.3252 104.852 40.71 104.852C32.1042 104.852 24.3127 108.377 18.6704 114.085C13.0277 119.794 9.53459 127.686 9.53459 136.393C9.53459 143.672 11.977 150.377 16.0763 155.721V150.578C16.0763 146.928 17.5536 143.614 19.9205 141.21C22.1168 138.988 25.0896 137.542 28.3743 137.341C27.7875 135.827 27.4655 134.19 27.4655 132.475V124.334V120.828C27.4655 118.453 28.4217 116.298 29.9647 114.737C31.5078 113.175 33.6382 112.208 35.9858 112.208H51.4553C52.8467 112.208 53.9642 113.338 53.9642 114.746V124.334V132.475C53.9645 134.19 53.6426 135.827 53.0554 137.341ZM32.4736 121.805H48.9561V117.274H35.9862C35.0203 117.274 34.1496 117.676 33.5056 118.318C32.8714 118.97 32.4736 119.851 32.4736 120.828V121.805ZM48.9561 126.872H32.4736V132.475C32.4736 137.053 36.1849 140.808 40.71 140.808C45.2449 140.808 48.9558 137.053 48.9558 132.475V126.872H48.9561ZM138.526 29.9699C135.611 30.2956 131.274 30.0655 127.573 26.9336C126.247 27.6614 124.335 28.3896 122.044 28.3227V32.6994C122.044 34.9886 122.971 37.0673 124.467 38.5804C125.963 40.0938 128.018 41.0324 130.29 41.0324C132.552 41.0324 134.607 40.0938 136.103 38.5804C137.599 37.0669 138.526 34.9886 138.526 32.6994V29.9699ZM122.044 23.2651C123.53 23.3611 125.121 22.7769 126.228 21.7804C127.269 20.8705 128.851 20.9854 129.75 22.0393C132.543 25.2766 136.358 25.2479 138.526 24.8934V21.0432C138.526 20.0758 138.129 19.1851 137.494 18.5434C136.86 17.892 135.979 17.4994 135.014 17.4994H125.556C124.59 17.4994 123.719 17.892 123.075 18.5434C122.441 19.1851 122.043 20.0758 122.043 21.0432V23.2651H122.044ZM31.811 142.379H29.1886C26.9639 142.379 24.9376 143.308 23.4701 144.793C21.9932 146.277 21.0848 148.327 21.0848 150.578V160.903C23.2527 162.675 25.6573 164.169 28.2514 165.309V155.271C28.2514 153.863 29.3686 152.733 30.7506 152.733C32.133 152.733 33.2595 153.863 33.2595 155.271V167.023C35.6455 167.617 38.1447 167.933 40.7104 167.933C43.2857 167.933 45.7846 167.617 48.1709 167.023V155.271C48.1709 153.863 49.2974 152.733 50.6798 152.733C52.0622 152.733 53.1787 153.863 53.1787 155.271V165.309C55.7731 164.169 58.1871 162.675 60.355 160.894V150.578C60.355 148.337 59.4365 146.287 57.9597 144.793C56.4925 143.308 54.4662 142.379 52.2415 142.379H49.6191C47.2715 144.553 44.1377 145.885 40.7104 145.885C37.2927 145.884 34.1589 144.553 31.811 142.379ZM143.534 32.6994C143.534 34.4047 143.213 36.0519 142.625 37.5555C145.911 37.7664 148.883 39.2031 151.08 41.4251C153.447 43.8295 154.914 47.1435 154.914 50.8022V55.9554C159.023 50.611 161.465 43.8967 161.465 36.6074C161.465 27.9006 157.972 20.018 152.33 14.3093C146.687 8.60067 138.895 5.06633 130.29 5.06633C121.675 5.06633 113.883 8.60067 108.24 14.3093C102.598 20.018 99.1045 27.901 99.1045 36.6074C99.1045 43.8964 101.547 50.6011 105.647 55.9361V50.8022C105.647 47.1435 107.123 43.8295 109.5 41.4251C111.687 39.2031 114.66 37.7664 117.945 37.5555C117.357 36.0519 117.035 34.4047 117.035 32.6994V21.0432C117.035 18.6776 117.992 16.5222 119.535 14.9611C121.078 13.3997 123.208 12.4323 125.556 12.4323H135.014C137.361 12.4323 139.492 13.3997 141.035 14.9611C142.578 16.5222 143.534 18.6776 143.534 21.0432V32.6994H143.534ZM139.189 42.6033C136.841 44.7681 133.707 46.0998 130.29 46.0998C126.862 46.0998 123.738 44.7685 121.381 42.6033H118.758C116.533 42.6033 114.507 43.5234 113.04 45.0077C111.563 46.5019 110.654 48.5515 110.654 50.8022V61.1177C112.822 62.899 115.227 64.3837 117.821 65.5329V55.4857C117.821 54.0875 118.938 52.9475 120.32 52.9475C121.702 52.9475 122.829 54.0875 122.829 55.4857V67.2477C125.215 67.8417 127.714 68.1576 130.289 68.1576C132.855 68.1576 135.354 67.8413 137.74 67.2477V55.4857C137.74 54.0875 138.867 52.9475 140.249 52.9475C141.631 52.9475 142.748 54.0875 142.748 55.4857V65.5329C145.352 64.3837 147.756 62.8896 149.924 61.1079V50.8019C149.924 48.5512 149.006 46.5012 147.529 45.0074C146.061 43.5227 144.036 42.6029 141.811 42.6029H139.189V42.6033ZM70.2009 115.158C72.3594 114.737 74.6599 114.392 77.0268 114.124C79.0057 113.913 81.0126 113.76 82.9911 113.693V89.0386H57.95C58.0067 91.5768 58.139 94.0765 58.3474 96.5191C58.6032 99.4882 58.9629 102.333 59.4078 105.044C61.9264 106.576 64.2362 108.415 66.3002 110.503C67.7207 111.939 69.0272 113.501 70.2009 115.158ZM88.0089 113.683C95.4501 113.912 102.475 115.177 108.742 117.246C111.28 109.009 112.832 99.3726 113.05 89.0379H88.0089V113.683ZM113.428 119.008C118.351 121.096 122.668 123.72 126.19 126.757C129.703 123.127 132.741 119.018 135.213 114.555C135.885 113.338 137.4 112.898 138.612 113.578C139.814 114.248 140.249 115.79 139.577 117.006C134.191 126.766 126.314 134.898 116.799 140.55C107.606 146.009 96.9082 149.141 85.5003 149.141C83.3702 149.141 81.2213 149.026 79.0721 148.806C77.6898 148.653 76.3171 148.471 74.9631 148.232C73.1643 153.576 70.1728 158.375 66.3009 162.283C59.7585 168.9 50.7075 173 40.7104 173C31.0632 173 21.9177 169.149 15.1298 162.282C8.57872 155.654 4.52649 146.497 4.52649 136.392C4.52649 126.277 8.57872 117.131 15.1298 110.503C18.1781 107.409 21.7855 104.871 25.7709 103.041C25.146 100.743 24.6537 98.3958 24.294 96.0011C23.8301 92.898 23.584 89.7279 23.584 86.5C23.584 82.9082 23.8869 79.3644 24.474 75.9064C25.0702 72.3816 25.9509 68.9527 27.1058 65.6484C27.5697 64.3266 28.9992 63.637 30.2964 64.1066C31.6026 64.5662 32.2843 66.0127 31.8204 67.3345C30.7696 70.361 29.946 73.5125 29.406 76.7596C29.0085 79.1059 28.753 81.51 28.6485 83.9719H52.9415C53.159 73.0145 54.8255 62.7757 57.5709 53.9922C52.648 51.9041 48.3309 49.28 44.809 46.2535C41.5807 49.5865 38.7499 53.3218 36.402 57.3735C35.7013 58.5706 34.1773 58.9727 32.9843 58.2736C31.7916 57.5647 31.3939 56.0135 32.0946 54.8163C37.5669 45.3912 45.4055 37.5369 54.7781 32.1064C63.8391 26.8569 74.3192 23.8591 85.5 23.8591C87.6302 23.8591 89.779 23.974 91.9282 24.2041C93.3106 24.3477 94.6832 24.5393 96.0372 24.7691C97.836 19.425 100.837 14.6357 104.699 10.7274C111.242 4.09963 120.292 0 130.29 0C140.277 0 149.328 4.09963 155.87 10.7274C162.422 17.3463 166.474 26.5028 166.474 36.6077C166.474 46.7225 162.422 55.879 155.87 62.4973C152.822 65.5907 149.215 68.1289 145.229 69.968C145.854 72.267 146.346 74.6137 146.706 76.9989C147.17 80.102 147.416 83.2721 147.416 86.5C147.416 89.8428 147.151 93.1568 146.63 96.4228C146.109 99.7463 145.333 102.965 144.329 106.059C143.904 107.39 142.493 108.118 141.177 107.687C139.861 107.256 139.151 105.829 139.577 104.497C140.505 101.615 141.224 98.6546 141.707 95.6278C142.039 93.4923 142.256 91.2893 142.351 89.0382H118.058C117.84 99.9859 116.174 110.225 113.428 119.008ZM122.517 130.234C119.535 127.753 115.909 125.569 111.781 123.797C110.92 126.038 109.992 128.155 108.998 130.147C106.631 134.879 103.867 138.883 100.809 141.977C105.58 140.626 110.096 138.672 114.271 136.192C117.196 134.458 119.961 132.456 122.517 130.234ZM107.095 122.025C101.348 120.138 94.882 118.979 88.0086 118.75V143.825C94.3232 142.59 100.108 136.718 104.538 127.868C105.457 126.038 106.309 124.084 107.095 122.025ZM82.9911 118.759C81.1639 118.826 79.3367 118.96 77.5472 119.152C76.0042 119.324 74.4705 119.544 72.9746 119.793C75.4835 124.774 76.9036 130.416 76.9036 136.392C76.9036 137.925 76.8087 139.438 76.629 140.923C77.8885 141.833 79.1757 142.57 80.5013 143.097C81.3249 143.423 82.1488 143.672 82.9911 143.835V118.759ZM48.4828 42.7661C51.4653 45.2567 55.1007 47.4311 59.2285 49.2124C60.0805 46.9709 61.0083 44.8445 62.0025 42.8618C64.3692 38.1303 67.1242 34.1266 70.1918 31.0329C65.6193 32.3257 61.2925 34.1746 57.269 36.5016C54.1349 38.3124 51.2001 40.41 48.4828 42.7661ZM63.9052 50.9749C69.6518 52.8711 76.1181 54.0206 82.9911 54.2504V29.1752C76.6765 30.4105 70.8919 36.2817 66.4612 45.1418C65.5431 46.9617 64.6908 48.9157 63.9052 50.9749ZM88.0089 54.2507C89.9213 54.1933 91.7866 54.0591 93.5948 53.8581C95.1094 53.6952 96.5863 53.4847 98.0348 53.2353C95.5165 48.245 94.0964 42.5938 94.0964 36.6077C94.0964 35.0751 94.1913 33.5715 94.371 32.0868C93.1215 31.167 91.8243 30.4392 90.4987 29.9124C89.6751 29.5867 88.8512 29.3377 88.0089 29.1748V54.2507ZM100.809 57.8519C98.6309 58.2926 96.4063 58.6372 94.1245 58.8866C92.1082 59.1069 90.0632 59.2599 88.0086 59.3174V83.9716H113.05C112.993 81.4239 112.86 78.9238 112.652 76.4815C112.396 73.5125 112.037 70.6675 111.592 67.9664C109.083 66.434 106.763 64.5949 104.699 62.4973C103.279 61.0606 101.973 59.5086 100.809 57.8519ZM82.9911 59.3174C75.5499 59.0876 68.5252 57.8232 62.2577 55.7543C59.7204 64.0009 58.1681 73.627 57.9503 83.9716H82.9914V59.3174H82.9911ZM117.054 70.6958C117.291 72.4681 117.49 74.2498 117.641 76.0504C117.859 78.6363 118.001 81.2799 118.058 83.9712H142.351C142.266 81.8641 142.067 79.7854 141.754 77.7547C141.451 75.7054 141.035 73.7034 140.523 71.7396C137.276 72.7073 133.84 73.2246 130.289 73.2246C125.613 73.225 121.154 72.3245 117.054 70.6958ZM53.9455 102.304C53.7087 100.532 53.5096 98.7499 53.3584 96.9591C53.1406 94.3634 52.9987 91.7201 52.9419 89.0382H28.6488C28.7343 91.1453 28.9424 93.2142 29.2453 95.2544C29.5483 97.2946 29.9647 99.3061 30.4761 101.27C33.7234 100.302 37.1601 99.7848 40.7104 99.7848C45.3871 99.7845 49.8462 100.676 53.9455 102.304Z" fill="black"/>
</g>
<defs>
<clipPath id="clip0">
<rect width="171" height="173" fill="white"/>
</clipPath>
</defs>
</svg>
