<svg width="182" height="171" viewBox="0 0 182 171" fill="none" xmlns="http://www.w3.org/2000/svg">
<path d="M161.451 38.6127H103.957L113.624 29.5306C114.176 29.0148 114.484 28.3118 114.484 27.5805V13.7902C114.484 13.0603 114.176 12.356 113.624 11.8402L101.882 0.807981C101.042 0.0201573 99.7806 -0.21417 98.6827 0.210043C97.5848 0.636949 96.871 1.64429 96.871 2.75801V16.5483H85.1291V2.75801C85.1291 1.64429 84.4167 0.636949 83.3188 0.210043C82.2208 -0.216863 80.958 0.0201573 80.1181 0.807981L68.3762 11.8402C67.8244 12.356 67.5162 13.0603 67.5162 13.7902V27.5805C67.5162 28.3118 67.8244 29.0148 68.3762 29.5306L78.0426 38.6127H20.5486C15.6939 38.6127 11.7422 42.3256 11.7422 46.8869V135.145C11.7422 139.707 15.6939 143.419 20.5486 143.419H79.2581V148.935H73.3872C62.0595 148.935 52.8388 157.598 52.8388 168.241C52.8388 169.767 54.1518 170.999 55.7743 170.999H126.226C127.85 170.999 129.161 169.767 129.161 168.241C129.161 157.598 119.941 148.935 108.613 148.935H102.742V143.419H161.451C166.308 143.419 170.258 139.707 170.258 135.145V46.8869C170.258 42.3256 166.308 38.6127 161.451 38.6127ZM102.742 88.2578C102.742 94.3422 97.4758 99.29 91 99.29C84.5242 99.29 79.2581 94.3422 79.2581 88.2578C79.2581 82.1733 84.5242 77.2255 91 77.2255C97.4758 77.2255 102.742 82.1733 102.742 88.2578ZM73.3872 88.2578C73.3872 97.3844 81.2863 104.806 91 104.806C100.714 104.806 108.613 97.3844 108.613 88.2578C108.613 83.3733 106.335 78.9911 102.742 75.9569V69.2436C102.882 69.3217 103.03 69.3823 103.17 69.4645C104.321 70.1243 105.812 69.9614 106.778 69.0618L108.613 67.3353L113.268 71.7094L111.431 73.4332C110.475 74.3328 110.296 75.7334 111.002 76.8202C112.377 78.9332 113.346 81.1283 113.882 83.3544C114.184 84.6095 115.374 85.4997 116.744 85.4997H120.355V91.0158H116.744C115.374 91.0158 114.187 91.9073 113.882 93.1625C113.324 95.468 112.361 97.6766 111.032 99.7209C110.327 100.81 110.501 102.208 111.461 103.111L113.268 104.806L108.613 109.182L106.808 107.485C105.848 106.577 104.35 106.414 103.201 107.082C101.025 108.332 98.6741 109.233 96.2202 109.761C94.8844 110.041 93.9355 111.159 93.9355 112.446V115.838H88.0645V112.446C88.0645 111.159 87.1171 110.045 85.7841 109.758C83.4148 109.248 81.0756 108.337 78.8324 107.051C77.6757 106.387 76.185 106.547 75.2247 107.454L73.3872 109.182L68.7317 104.806L70.5692 103.08C71.5267 102.181 71.7059 100.779 70.9978 99.69C69.6275 97.581 68.6586 95.3818 68.1182 93.1598C67.8158 91.9073 66.6275 91.0158 65.2558 91.0158H61.6453V85.4997H65.2558C66.6275 85.4997 67.8129 84.6095 68.1182 83.3544C68.6758 81.0515 69.6361 78.8429 70.9691 76.7959C71.6729 75.7065 71.4966 74.3086 70.5406 73.4063L68.7317 71.7094L73.3872 67.3353L75.1932 69.0322C76.1492 69.9331 77.6442 70.0934 78.8009 69.4348C78.9499 69.3486 79.109 69.2827 79.2581 69.2005V75.9569C75.6647 78.9911 73.3872 83.3733 73.3872 88.2578ZM79.2581 63.0609C78.765 63.2642 78.2576 63.4299 77.776 63.6588L75.4626 61.4852C74.3145 60.4079 72.4598 60.4079 71.3117 61.4852L62.5053 69.7594C61.3572 70.8381 61.3572 72.5821 62.5053 73.6595L64.8187 75.8357C64.0963 77.173 63.4914 78.5615 63.017 79.9836H58.7098C57.0872 79.9836 55.7743 81.2199 55.7743 82.7416V93.7739C55.7743 95.2997 57.0872 96.5319 58.7098 96.5319H63.0227C63.5014 97.9312 64.112 99.3075 64.8488 100.656L62.5053 102.856C61.3572 103.935 61.3572 105.679 62.5053 106.756L71.3117 115.03C72.4598 116.109 74.3145 116.109 75.4626 115.03L77.8047 112.83C79.2409 113.522 80.7058 114.096 82.1936 114.545V118.596C82.1936 120.122 83.5065 121.354 85.1291 121.354H96.871C98.4949 121.354 99.8064 120.122 99.8064 118.596V114.551C101.324 114.104 102.801 113.535 104.224 112.857L106.537 115.03C107.685 116.109 109.54 116.109 110.688 115.03L119.495 106.756C120.643 105.679 120.643 103.935 119.495 102.856L117.181 100.684C117.904 99.3452 118.509 97.9581 118.984 96.5319H123.29C124.914 96.5319 126.226 95.2997 126.226 93.7739V82.7416C126.226 81.2199 124.914 79.9836 123.29 79.9836H118.979C118.5 78.5884 117.889 77.2094 117.153 75.8586L119.495 73.6595C120.047 73.1437 120.355 72.4407 120.355 71.7094C120.355 70.9795 120.047 70.2752 119.495 69.7594L110.688 61.4852C109.54 60.4079 107.685 60.4079 106.537 61.4852L104.195 63.6844C103.717 63.4528 103.226 63.2898 102.742 63.0851V55.1611H152.645V126.871H29.355V55.1611H79.2581V63.0609ZM73.3872 14.9322L79.2581 9.41613V19.3064C79.2581 20.8295 80.571 22.0644 82.1936 22.0644H99.8064C101.43 22.0644 102.742 20.8295 102.742 19.3064V9.41613L108.613 14.9322V26.4399L97.731 36.6627C97.1791 37.1785 96.871 37.8828 96.871 38.6127V72.675C95.0306 72.0636 93.0611 71.7094 91 71.7094C88.9389 71.7094 86.9695 72.0636 85.1291 72.675V38.6127C85.1291 37.8828 84.8209 37.1785 84.2691 36.6627L73.3872 26.4399V14.9322ZM122.994 165.483H59.0065C60.371 159.198 66.2979 154.451 73.3872 154.451H108.613C115.702 154.451 121.632 159.198 122.994 165.483ZM96.871 148.935H85.1291V143.419H96.871V148.935ZM164.387 135.145C164.387 136.668 163.073 137.903 161.451 137.903H20.5486C18.9289 137.903 17.6131 136.668 17.6131 135.145V46.8869C17.6131 45.3678 18.9289 44.1289 20.5486 44.1289H79.2581V49.645H26.4196C24.797 49.645 23.4841 50.8812 23.4841 52.403V129.629C23.4841 131.154 24.797 132.387 26.4196 132.387H155.58C157.204 132.387 158.516 131.154 158.516 129.629V52.403C158.516 50.8812 157.204 49.645 155.58 49.645H102.742V44.1289H161.451C163.073 44.1289 164.387 45.3678 164.387 46.8869V135.145Z" fill="black"/>
</svg>
