<svg width="155" height="162" viewBox="0 0 155 162" fill="none" xmlns="http://www.w3.org/2000/svg">
<path d="M28.4167 151.2C29.2 151.2 29.9417 150.827 30.4311 150.187C31.5172 148.783 56.8333 115.582 56.8333 99.9C56.8333 83.4969 44.1109 70.2 28.4167 70.2C12.7224 70.2 0 83.4969 0 99.9C0 115.582 25.3162 148.77 26.4022 150.187C26.8916 150.827 27.6333 151.2 28.4167 151.2ZM28.4167 75.6C41.2513 75.6145 51.6528 86.4856 51.6667 99.9C51.6667 110.376 36.3962 133.282 28.4167 144.123C20.4371 133.286 5.16667 110.381 5.16667 99.9C5.18054 86.4856 15.582 75.6145 28.4167 75.6Z" fill="black"/>
<path d="M38.75 97.2C38.75 91.2358 34.1232 86.4 28.4166 86.4C22.7101 86.4 18.0833 91.2358 18.0833 97.2C18.0833 103.164 22.7101 108 28.4166 108C34.1232 108 38.75 103.164 38.75 97.2ZM23.25 97.2C23.25 94.2179 25.5634 91.8 28.4166 91.8C31.2699 91.8 33.5833 94.2179 33.5833 97.2C33.5833 100.182 31.2699 102.6 28.4166 102.6C25.5634 102.6 23.25 100.182 23.25 97.2Z" fill="black"/>
<path d="M134.333 56.7C135.086 56.7 135.8 56.3572 136.291 55.76C138.208 53.4357 155 32.719 155 21.6C155 9.67017 145.748 0 134.333 0C122.919 0 113.667 9.67017 113.667 21.6C113.667 32.719 130.458 53.4357 132.376 55.76C132.866 56.3572 133.58 56.7 134.333 56.7ZM134.333 5.4C142.891 5.40923 149.825 12.6563 149.833 21.6C149.833 28.4423 139.971 42.5408 134.333 49.7852C128.694 42.5408 118.833 28.4555 118.833 21.6C118.842 12.6563 125.776 5.40923 134.333 5.4Z" fill="black"/>
<path d="M142.083 18.9C142.083 14.4269 138.613 10.8 134.333 10.8C130.053 10.8 126.583 14.4269 126.583 18.9C126.583 23.3732 130.053 27 134.333 27C138.613 27 142.083 23.3732 142.083 18.9ZM131.75 18.9C131.75 17.409 132.907 16.2 134.333 16.2C135.76 16.2 136.917 17.409 136.917 18.9C136.917 20.3911 135.76 21.6 134.333 21.6C132.907 21.6 131.75 20.3911 131.75 18.9Z" fill="black"/>
<path d="M131.75 67.5001H134.333C135.76 67.5001 136.917 66.2912 136.917 64.8001C136.917 63.309 135.76 62.1001 134.333 62.1001H131.75C130.323 62.1001 129.167 63.309 129.167 64.8001C129.167 66.2912 130.323 67.5001 131.75 67.5001Z" fill="black"/>
<path d="M98.1667 83.7H103.39C104.817 83.7 105.973 82.4911 105.973 81C105.973 79.509 104.817 78.3 103.39 78.3H98.125C97.4426 78.3014 96.788 78.5875 96.3074 79.0937C95.8268 79.5999 95.5581 80.2868 95.5631 81C95.572 82.4951 96.7362 83.7014 98.1667 83.7Z" fill="black"/>
<path d="M127.128 81C127.128 82.4911 128.285 83.7 129.712 83.7H134.974C136.401 83.7 137.557 82.4911 137.557 81C137.557 79.509 136.401 78.3 134.974 78.3H129.712C128.285 78.3 127.128 79.509 127.128 81Z" fill="black"/>
<path d="M115.959 67.5001H121.222C122.649 67.5001 123.806 66.2912 123.806 64.8001C123.806 63.309 122.649 62.1001 121.222 62.1001H115.959C114.531 62.1001 113.375 63.309 113.375 64.8001C113.375 66.2912 114.531 67.5001 115.959 67.5001Z" fill="black"/>
<path d="M47.055 156.6H41.79C40.3633 156.6 39.2066 157.809 39.2066 159.3C39.2066 160.791 40.3633 162 41.79 162H47.055C48.4817 162 49.6384 160.791 49.6384 159.3C49.6384 157.809 48.4817 156.6 47.055 156.6Z" fill="black"/>
<path d="M90.5794 77.2744C90.7598 77.2744 90.9389 77.2546 91.1142 77.2151C92.5093 76.9079 93.4024 75.4788 93.111 74.0207C93.0378 73.6515 93.0013 73.2771 93 72.9001C92.9987 72.0458 93.1917 71.2047 93.5626 70.4426C94.2097 69.1137 93.7039 67.4882 92.4311 66.8119C91.1596 66.1356 89.6043 66.6642 88.9572 67.9945C87.8863 70.1922 87.5684 72.7089 88.0553 75.1228C88.3038 76.3726 89.3571 77.2717 90.5794 77.2744Z" fill="black"/>
<path d="M113.925 83.7H119.19C120.617 83.7 121.774 82.4911 121.774 81C121.774 79.509 120.617 78.3 119.19 78.3H113.925C112.499 78.3 111.342 79.509 111.342 81C111.342 82.4911 112.499 83.7 113.925 83.7Z" fill="black"/>
<path d="M100.166 67.5001H105.431C106.858 67.5001 108.014 66.2912 108.014 64.8001C108.014 63.309 106.858 62.1001 105.431 62.1001H100.166C98.7393 62.1001 97.5826 63.309 97.5826 64.8001C97.5826 66.2912 98.7393 67.5001 100.166 67.5001Z" fill="black"/>
<path d="M74.6379 114.418C74.8422 114.473 75.0541 114.5 75.2648 114.5C76.4505 114.497 77.4823 113.653 77.7687 112.452C78.1029 111.064 78.7324 109.772 79.6103 108.672C80.2309 107.937 80.4201 106.908 80.1073 105.986C79.7945 105.061 79.0263 104.388 78.1017 104.224C77.1783 104.062 76.2411 104.435 75.6558 105.2C74.2721 106.926 73.2806 108.956 72.7571 111.14C72.5894 111.835 72.6941 112.572 73.0473 113.186C73.3992 113.802 73.9719 114.245 74.6379 114.418Z" fill="black"/>
<path d="M125.674 156.487C125.119 156.563 124.56 156.601 124 156.6H120.748C119.32 156.6 118.165 157.809 118.165 159.3C118.165 160.791 119.32 162 120.748 162H124C124.777 162 125.554 161.947 126.325 161.843C127.74 161.652 128.739 160.298 128.557 158.819C128.375 157.34 127.079 156.296 125.664 156.487H125.674Z" fill="black"/>
<path d="M129.273 125.009C127.563 124.469 125.786 124.196 124 124.2H123.323C121.896 124.2 120.739 125.409 120.739 126.9C120.739 128.391 121.896 129.6 123.323 129.6H124C125.277 129.6 126.547 129.796 127.769 130.183C128.012 130.262 128.266 130.301 128.521 130.301C129.801 130.303 130.89 129.323 131.079 128C131.267 126.675 130.499 125.406 129.273 125.019V125.009Z" fill="black"/>
<path d="M123.763 105.3C125.189 105.3 126.346 104.091 126.346 102.6C126.346 101.109 125.189 99.8999 123.763 99.8999H118.5C117.074 99.8999 115.917 101.109 115.917 102.6C115.917 104.091 117.074 105.3 118.5 105.3H123.763Z" fill="black"/>
<path d="M139.2 147.282C137.901 146.67 136.372 147.274 135.785 148.632C135.184 150.028 134.357 151.307 133.344 152.413C132.681 153.105 132.429 154.117 132.685 155.059C132.941 156.001 133.665 156.725 134.576 156.949C135.488 157.175 136.445 156.866 137.077 156.144C138.497 154.596 139.655 152.804 140.498 150.849C141.081 149.49 140.5 147.894 139.2 147.282Z" fill="black"/>
<path d="M152.729 92.2747C152.072 92.0716 151.365 92.1494 150.762 92.4922C150.16 92.835 149.712 93.4137 149.518 94.1006C149.138 95.4242 148.445 96.6266 147.501 97.5942C146.481 98.6384 146.463 100.348 147.462 101.415C148.461 102.481 150.097 102.499 151.117 101.456C152.692 99.8434 153.847 97.8395 154.475 95.6312C154.671 94.9443 154.595 94.2047 154.268 93.5746C153.94 92.9457 153.387 92.4777 152.729 92.2747Z" fill="black"/>
<path d="M149.782 87.2912C150.802 87.2925 151.727 86.665 152.143 85.692C152.558 84.7191 152.388 83.5813 151.706 82.7877C150.232 81.0738 148.365 79.7805 146.281 79.029C144.932 78.5439 143.462 79.2953 142.998 80.706C142.534 82.1166 143.253 83.6525 144.602 84.1377C145.854 84.5872 146.974 85.3638 147.857 86.3947C148.347 86.9656 149.047 87.2912 149.782 87.2912Z" fill="black"/>
<path d="M112.796 124.2H107.534C106.107 124.2 104.95 125.409 104.95 126.9C104.95 128.391 106.107 129.6 107.534 129.6H112.796C114.223 129.6 115.38 128.391 115.38 126.9C115.38 125.409 114.223 124.2 112.796 124.2Z" fill="black"/>
<path d="M139.554 99.8999H134.289C132.863 99.8999 131.706 101.109 131.706 102.6C131.706 104.091 132.863 105.3 134.289 105.3H139.554C140.981 105.3 142.138 104.091 142.138 102.6C142.138 101.109 140.981 99.8999 139.554 99.8999Z" fill="black"/>
<path d="M62.8451 156.6H57.5826C56.156 156.6 54.9993 157.809 54.9993 159.3C54.9993 160.791 56.156 162 57.5826 162H62.8451C64.2718 162 65.4285 160.791 65.4285 159.3C65.4285 157.809 64.2718 156.6 62.8451 156.6Z" fill="black"/>
<path d="M138.965 132.489C138.159 131.256 136.55 130.939 135.369 131.782C134.19 132.624 133.887 134.307 134.693 135.541C135.518 136.803 136.13 138.205 136.5 139.684C136.702 140.65 137.393 141.424 138.303 141.701C139.211 141.978 140.191 141.713 140.858 141.01C141.525 140.309 141.77 139.282 141.499 138.334C140.982 136.248 140.126 134.271 138.965 132.489Z" fill="black"/>
<path d="M82.5431 123.231C81.3157 122.592 80.2423 121.674 79.3984 120.544C78.523 119.366 76.8996 119.153 75.7732 120.068C74.6455 120.982 74.4424 122.679 75.3165 123.857C76.6397 125.632 78.3275 127.073 80.2562 128.072C81.5289 128.693 83.0438 128.137 83.6657 126.82C84.2876 125.504 83.7881 123.909 82.5431 123.231Z" fill="black"/>
<path d="M78.6365 156.6H73.3664C71.9398 156.6 70.7831 157.809 70.7831 159.3C70.7831 160.791 71.9398 162 73.3664 162H78.6365C80.0632 162 81.2198 160.791 81.2198 159.3C81.2198 157.809 80.0632 156.6 78.6365 156.6Z" fill="black"/>
<path d="M110.221 156.6H104.958C103.531 156.6 102.375 157.809 102.375 159.3C102.375 160.791 103.531 162 104.958 162H110.221C111.647 162 112.804 160.791 112.804 159.3C112.804 157.809 111.647 156.6 110.221 156.6Z" fill="black"/>
<path d="M92.1813 105.3C93.608 105.3 94.7647 104.091 94.7647 102.6C94.7647 101.109 93.608 99.8999 92.1813 99.8999H86.9188C85.4922 99.8999 84.3355 101.109 84.3355 102.6C84.3355 104.091 85.4922 105.3 86.9188 105.3H92.1813Z" fill="black"/>
<path d="M107.983 105.3C109.409 105.3 110.566 104.091 110.566 102.6C110.566 101.109 109.409 99.8999 107.983 99.8999H102.708C101.281 99.8999 100.124 101.109 100.124 102.6C100.124 104.091 101.281 105.3 102.708 105.3H107.983Z" fill="black"/>
<path d="M97.0062 124.2H91.7424C90.3158 124.2 89.1591 125.409 89.1591 126.9C89.1591 128.391 90.3158 129.6 91.7424 129.6H97.0062C98.4341 129.6 99.5895 128.391 99.5895 126.9C99.5895 125.409 98.4341 124.2 97.0062 124.2Z" fill="black"/>
<path d="M94.4317 156.6H89.1666C87.74 156.6 86.5833 157.809 86.5833 159.3C86.5833 160.791 87.74 162 89.1666 162H94.4317C95.8583 162 97.015 160.791 97.015 159.3C97.015 157.809 95.8583 156.6 94.4317 156.6Z" fill="black"/>
<path d="M31 156.6H28.4167C26.99 156.6 25.8333 157.809 25.8333 159.3C25.8333 160.791 26.99 162 28.4167 162H31C32.4266 162 33.5833 160.791 33.5833 159.3C33.5833 157.809 32.4266 156.6 31 156.6Z" fill="black"/>
</svg>
