<svg id="Capa_1" data-name="Capa 1" xmlns="http://www.w3.org/2000/svg" viewBox="0 0 380.5 411.41"><defs><style>.cls-1{fill:#1f1713;}</style></defs><title>servicio1</title><path class="cls-1" d="M242.88,54.29c2.28,1.07,4.81.93,7.2,1.55,15,3.9,25.68,13,31.22,27.37,4,10.28,10.32,17.1,20.95,20.62,11.12,3.69,18.92,11.64,23.67,22.32,1.58,3.54,3.78,4.79,7.53,4.71,9.12-.19,18.24-.11,27.36-.06,17.28.1,30.23,12.71,30.55,30,.23,12.83.05,25.68.07,38.52a7.21,7.21,0,0,1-2.3,5.47c-4.26,4.1-8.47,8.27-12.72,12.44-.82-1-.46-2.05-.46-3,0-16.75,0-33.5,0-50.26a32,32,0,0,0-.26-5.28c-1.27-7.57-6.2-12-13.94-12.34-9.65-.48-19.32,0-29-.12-2.11,0-2.14,1.07-2.14,2.62,0,8.28-.06,16.56.07,24.84,0,2.28-.7,2.78-2.85,2.77q-88.5-.07-177,0c-2.46,0-2.89-.84-2.86-3,.12-8.19,0-16.38.09-24.57,0-1.9-.52-2.59-2.48-2.64-9.67-.23-19.32-.51-29,0a14.64,14.64,0,0,0-14,13.74c-.06.83-.07,1.67-.07,2.51q0,135.27,0,270.53c0,6.26,1.73,11.56,7.41,14.92a18,18,0,0,0,9.39,2.17q115.15,0,230.32,0c4.54,0,9.1.35,13.64-.38,7.39-1.17,12.24-6.3,12.49-13.8.22-6.42.12-12.84.12-19.26q0-42.85,0-85.71a10.21,10.21,0,0,0-.42-4.19c-1.55,1.38-3,2.58-4.38,3.92q-26.07,26-52.12,52.11c-5.25,5.27-10.58,10.48-15.61,16a16.63,16.63,0,0,1-14.21,5.87c-10.39-.54-20.84-.25-31.26-.08-2.73.05-3.45-.78-3.42-3.4.13-12.28.09-24.56.1-36.85a8,8,0,0,1,2.67-5.9c10.44-10.48,20.81-21,31.26-31.5q64.25-64.28,128.53-128.51a36.35,36.35,0,0,1,4.82-4.21c5.91-4.17,12.44-4.22,18,.57a225.65,225.65,0,0,1,23.87,23.83c5.43,6.3,5,14.24-.84,20.2-15,15.39-30.09,30.7-45.52,45.66-7.88,7.64-15.57,15.49-23.31,23.27-2.1,2.11-2.7,4.74-2.7,7.66q0,58.9,0,117.82c0,17.29-10.09,29.37-27.05,32.36a19.41,19.41,0,0,1-3.33.14H118.15a31.12,31.12,0,0,1-30.4-24.34c-.13-.62,0-1.35-.67-1.76V157a3.51,3.51,0,0,0,.5-.93c3.3-15.86,14.62-25.23,30.69-25.31,9.11,0,18.23-.13,27.35.06,3.49.07,5.42-1.22,6.85-4.39a41.86,41.86,0,0,1,26.36-23.63,28.16,28.16,0,0,0,7.22-3.59c5.76-3.92,8.52-9.79,11.08-16,6.27-15.19,17.53-24.54,33.71-27.91,1.78-.37,3.71,0,5.34-1.05ZM239.14,161c24.29,0,48.58,0,72.86.06,2.53,0,3.2-.76,3.1-3.12-.15-3.9,0-7.82-.07-11.72-.42-14.25-7.23-23.75-20.54-28.87a58,58,0,0,1-10.17-4.51c-8.67-5.41-13.58-13.6-16.8-22.93C261.87,73.48,245.89,67.78,232,70.92,220.88,73.41,214.31,81,210.49,91.29a58.35,58.35,0,0,1-3.24,7.7c-5.12,9.47-13.31,15-23.25,18.4-10.52,3.58-17.19,10.74-19.7,21.6-1.45,6.23-.56,12.6-.77,18.9-.07,2.39.46,3.14,3,3.13C190.75,160.9,214.94,161,239.14,161Zm72.79,205.53c1-.15,1.4-.84,1.91-1.35q46.28-46.24,92.56-92.48c1.49-1.48,1.12-2.26-.16-3.52-5.5-5.42-11-10.86-16.3-16.44-1.59-1.66-2.41-1.72-4.07,0-13,13.18-26.09,26.25-39.17,39.35Q320.38,318.34,294,344.66c-1.15,1.15-2.34,2-.51,3.77C299.35,354,305,359.8,310.77,365.5,311.16,365.88,311.6,366.2,311.93,366.48Zm-42.79,6.25c-.06,7,6.86,15.09,13.35,16.64a12.17,12.17,0,0,0,10-1.93c2.58-1.72,4.52-4.09,6.56-6.38,1.4-1.57,1.47-2.54-.12-4.07-5.42-5.22-10.68-10.6-16-15.91-3.31-3.32-3.39-3.4-6.8-.08S269.34,368.15,269.14,372.73Zm162.4-166.27a11.48,11.48,0,0,0-1.33.94c-2.89,3-5.74,6.07-8.64,9.07-.88.91-.3,1.45.32,2.07,6.17,6.17,12.36,12.33,18.5,18.54.81.81,1.26.68,2-.07q4.15-4.31,8.42-8.51c.89-.88.78-1.39-.13-2.21a216.42,216.42,0,0,1-18.06-18.16A15.39,15.39,0,0,1,431.54,206.46ZM429,249.58a8.31,8.31,0,0,0-.82-1.16c-6.09-6-12.2-12-18.27-18-.73-.71-1.2-.56-1.85.05q-3.94,3.74-8,7.4c-.8.73-.78,1.24,0,2q9,9.1,18,18.29c.91.94,1.52,1,2.47,0,2.39-2.47,4.88-4.85,7.32-7.28C428.27,250.53,428.59,250.08,429,249.58Z" transform="translate(-87.08 -54.29)"/><path class="cls-1" d="M239.53,237.51c29.31,0,58.62,0,87.93-.06,2.6,0,3.38.71,3.21,3.26-.21,3.24-.1,6.51,0,9.76,0,1.46-.52,2.06-1.95,1.93-.56-.05-1.12,0-1.68,0q-87.78,0-175.57.07c-2.89,0-3.73-.75-3.49-3.55a66.53,66.53,0,0,0,0-8.93c-.1-2,.58-2.53,2.52-2.51,8,.1,16,0,24,0Z" transform="translate(-87.08 -54.29)"/><path class="cls-1" d="M310.6,283.18c-4.5,4.67-8.79,9.16-13.13,13.6a5.82,5.82,0,0,1-4.39,1.41q-71.16,0-142.31,0c-2,0-2.91-.46-2.81-2.66.16-3.43.11-6.88,0-10.32,0-1.58.51-2.25,2.09-2.06a8.21,8.21,0,0,0,1.11,0H310.6Z" transform="translate(-87.08 -54.29)"/><path class="cls-1" d="M264.47,329c-5.68,9.49-13.88,14.81-25,15-12,.26-24-.63-35.95-.51-17.58.18-35.16.05-52.74.15-2.16,0-2.95-.53-2.82-2.78.19-3.43.09-6.88,0-10.32,0-1.42.44-2.11,1.92-2a12.89,12.89,0,0,0,1.39,0q55.11,0,110.22,0C262.48,328.64,263.54,328.31,264.47,329Z" transform="translate(-87.08 -54.29)"/><path class="cls-1" d="M186.2,374.26c11.72,0,23.43.05,35.14,0,2,0,2.78.49,2.67,2.62-.18,3.43-.11,6.88,0,10.32,0,1.61-.57,2.07-2.11,2.07q-35.83-.06-71.67,0c-1.54,0-2.17-.55-2.14-2.12.07-3.53.12-7.06,0-10.59-.07-1.94.74-2.29,2.46-2.28C162.41,374.29,174.31,374.26,186.2,374.26Z" transform="translate(-87.08 -54.29)"/><path class="cls-1" d="M250.76,100.26a11.06,11.06,0,0,1-11.34,11.49,11.42,11.42,0,1,1,.16-22.83A11,11,0,0,1,250.76,100.26Z" transform="translate(-87.08 -54.29)"/></svg>