<svg width="59" height="57" viewBox="0 0 59 57" fill="none" xmlns="http://www.w3.org/2000/svg">
<path d="M48.2106 4.60959C49.514 5.03884 50.6343 5.8809 51.4282 6.97914C52.2121 8.07068 52.6759 9.41536 52.6759 10.8664C52.6759 11.9146 52.4309 12.9131 51.9965 13.8019C51.6111 14.584 51.082 15.2762 50.4383 15.8421V20.8507C50.4383 21.3367 50.053 21.7294 49.5761 21.7294H42.8634C42.3864 21.7294 42.001 21.3366 42.001 20.8507V15.8421C41.3575 15.2762 40.8283 14.584 40.4462 13.8019C40.0085 12.9131 39.7635 11.9146 39.7635 10.8664C39.7635 9.41536 40.2273 8.07057 41.0112 6.97914C41.8149 5.86422 42.9581 5.01548 44.2843 4.58952C44.7417 4.4464 45.2251 4.70282 45.3656 5.16881C45.3917 5.25205 45.408 5.34199 45.408 5.4284V9.69503L46.2214 10.041L47.0349 9.69503V5.4284C47.0349 4.94245 47.4203 4.54972 47.8972 4.54972C48.0081 4.54948 48.116 4.56944 48.2106 4.60959V4.60959ZM13.5039 30.4725H16.4144C17.1266 30.4725 17.7733 30.7687 18.2404 31.248C18.7108 31.7238 19.0016 32.386 19.0016 33.1116C19.0016 33.8372 18.7108 34.4962 18.2404 34.9755C17.7733 35.4513 17.1266 35.7475 16.4144 35.7475H13.5039C12.7917 35.7475 12.145 35.4513 11.6779 34.9755C11.3872 34.6791 11.1651 34.3131 11.0376 33.907C10.4007 33.7607 9.82569 33.4309 9.37823 32.975C8.76415 32.3461 8.38192 31.4808 8.38192 30.529V29.5771H6.83029C6.11814 29.5771 5.47144 29.2809 5.00428 28.805C4.53378 28.3258 4.24316 27.6668 4.24316 26.9412V23.4267C4.24316 22.7011 4.53378 22.0421 5.00428 21.5628C5.47144 21.087 6.11814 20.7907 6.83029 20.7907H8.42755C8.63013 18.8506 9.49243 17.1066 10.7795 15.7951C12.2592 14.2876 14.2974 13.3522 16.5449 13.3522C18.7922 13.3522 20.8305 14.2876 22.3102 15.7951C23.5972 17.1066 24.4595 18.8504 24.6621 20.7907H26.2594C26.9715 20.7907 27.6183 21.087 28.0887 21.5628C28.5558 22.0421 28.8465 22.7011 28.8465 23.4267V26.9412C28.8465 27.6668 28.5558 28.3258 28.0887 28.805C27.6183 29.2809 26.9715 29.5771 26.2594 29.5771H23.8454C23.3685 29.5771 22.9798 29.1843 22.9798 28.6984V21.6695C22.9798 19.869 22.2546 18.2282 21.0885 17.0399C19.9223 15.8518 18.3152 15.113 16.5448 15.113C14.7775 15.113 13.167 15.8518 12.001 17.0399C10.8348 18.2282 10.1096 19.869 10.1096 21.6695V28.6984V30.5291C10.1096 30.9951 10.2992 31.4209 10.5996 31.7304C10.7499 31.8801 10.9263 32.0033 11.119 32.09C11.2496 31.7738 11.4391 31.4876 11.6776 31.248C12.145 30.7687 12.7917 30.4725 13.5039 30.4725V30.4725ZM16.4143 32.2331H13.5037C13.2685 32.2331 13.0562 32.3329 12.8995 32.4927C12.7427 32.6523 12.6447 32.872 12.6447 33.1117C12.6447 33.3513 12.7427 33.571 12.8995 33.7276C13.0562 33.8872 13.2685 33.9872 13.5037 33.9872H16.4143C16.6495 33.9872 16.8618 33.8872 17.0186 33.7276C17.1753 33.571 17.2734 33.3513 17.2734 33.1117C17.2734 32.8721 17.1753 32.6524 17.0186 32.4927C16.8618 32.3329 16.6495 32.2331 16.4143 32.2331ZM8.38192 22.5515H6.83029C6.59509 22.5515 6.38283 22.6478 6.226 22.8077C6.06928 22.9675 5.97121 23.1872 5.97121 23.4268V26.9413C5.97121 27.1809 6.06916 27.4006 6.226 27.557C6.38283 27.7168 6.59509 27.8166 6.83029 27.8166H8.38192V22.5515ZM26.2596 22.5515H24.7081V27.8166H26.2596C26.4948 27.8166 26.7104 27.7168 26.8639 27.557C27.0207 27.4006 27.1187 27.1809 27.1187 26.9413V23.4268C27.1187 23.1872 27.0207 22.9675 26.8639 22.8077C26.7104 22.6478 26.4948 22.5515 26.2596 22.5515ZM34.3017 35.5579C33.8247 35.5579 33.4394 35.1619 33.4394 34.6759C33.4394 34.19 33.8249 33.794 34.3017 33.794H54.2145C54.6916 33.794 55.0768 34.19 55.0768 34.6759C55.0768 35.1619 54.6915 35.5579 54.2145 35.5579H34.3017ZM34.3017 32.1366C33.8247 32.1366 33.4394 31.7438 33.4394 31.2579C33.4394 30.7721 33.8249 30.376 34.3017 30.376H41.6841C42.1643 30.376 42.5497 30.772 42.5497 31.2579C42.5497 31.7439 42.1643 32.1366 41.6841 32.1366H34.3017ZM35.1675 14.5638C35.1675 15.0498 34.782 15.4461 34.3017 15.4461C33.8247 15.4461 33.4394 15.0498 33.4394 14.5638V10.7664H3.66169C3.1293 10.7664 2.64912 10.9861 2.29628 11.3457C1.94677 11.7018 1.72782 12.1944 1.72782 12.7334V23.1903C1.72782 23.6763 1.34237 24.069 0.865525 24.069C0.388686 24.069 0 23.6763 0 23.1904V12.7336C0 11.7086 0.411617 10.7766 1.07468 10.101C1.73773 9.42523 2.65235 9.00608 3.66169 9.00608H33.4393V4.13362C33.4393 3.26151 33.7888 2.47276 34.3507 1.90039C34.9126 1.32802 35.6868 0.971924 36.5393 0.971924H55.9002C56.7527 0.971924 57.5302 1.32802 58.092 1.90039C58.6537 2.47264 59 3.26139 59 4.1335V22.1454V39.2887V42.7101C59 43.7353 58.5884 44.6673 57.9253 45.3429C57.2623 46.0184 56.3477 46.4378 55.3415 46.4378H35.517L37.5912 51.5164H41.1452C41.6253 51.5164 42.0109 51.9093 42.0109 52.3951V55.8165C42.0109 56.3025 41.6253 56.695 41.1452 56.695H17.9006C17.4204 56.695 17.035 56.3024 17.035 55.8165V52.3951C17.035 51.9092 17.4204 51.5164 17.9006 51.5164H21.4546L23.5288 46.4378H3.66169C2.65235 46.4378 1.73773 46.0184 1.07468 45.3429C0.411617 44.6673 0 43.7353 0 42.71V39.2886V27.1776C0 26.6917 0.388686 26.299 0.865641 26.299C1.3426 26.299 1.72794 26.6918 1.72794 27.1776V38.4101H57.2719V24.9776C56.8571 25.1874 56.3933 25.3072 55.9002 25.3072H50.6051L46.9498 31.1648C46.695 31.5776 46.1594 31.6973 45.7575 31.4377C45.6432 31.3646 45.5486 31.2645 45.4831 31.1547L41.8343 25.3072H36.5394C35.6869 25.3072 34.9127 24.9511 34.3508 24.3787C33.7889 23.8064 33.4394 23.0173 33.4394 22.1455V18.5544C33.4394 18.0653 33.8249 17.6725 34.3017 17.6725C34.782 17.6725 35.1675 18.0653 35.1675 18.5544V22.1455C35.1675 22.5317 35.3211 22.881 35.5726 23.1339C35.8208 23.3868 36.1639 23.5467 36.5396 23.5467H42.3082C42.5956 23.5467 42.8733 23.6898 43.0366 23.9562L46.2215 29.0548L49.3836 23.9894C49.5305 23.7231 49.8116 23.5467 50.1316 23.5467H55.9002C56.2759 23.5467 56.6187 23.3869 56.867 23.1339C57.1186 22.881 57.2721 22.5317 57.2721 22.1455V4.1335C57.2721 3.74758 57.1186 3.39782 56.867 3.14492C56.6188 2.89202 56.2759 2.73211 55.9002 2.73211H36.5394C36.1638 2.73211 35.8208 2.89191 35.5725 3.14492C35.3209 3.39782 35.1673 3.74758 35.1673 4.1335V14.5638H35.1675ZM57.2719 40.1707H1.72794V42.7101C1.72794 43.2492 1.94677 43.742 2.29639 44.0981C2.64924 44.4574 3.12942 44.6772 3.6618 44.6772H55.3417C55.8708 44.6772 56.3542 44.4543 56.7037 44.0981C57.0565 43.742 57.2721 43.2492 57.2721 42.7101V40.1707H57.2719ZM19.0145 43.3058C18.5375 43.3058 18.1488 42.9098 18.1488 42.4239C18.1488 41.9379 18.5375 41.5419 19.0145 41.5419H22.8068C23.2838 41.5419 23.6691 41.9379 23.6691 42.4239C23.6691 42.9098 23.2837 43.3058 22.8068 43.3058H19.0145ZM39.048 43.3058C38.571 43.3058 38.1823 42.9098 38.1823 42.4239C38.1823 41.9379 38.571 41.5419 39.048 41.5419H39.9887C40.4657 41.5419 40.851 41.9379 40.851 42.4239C40.851 42.9098 40.4656 43.3058 39.9887 43.3058H39.048ZM34.7526 43.3058C34.2755 43.3058 33.8869 42.9098 33.8869 42.4239C33.8869 41.9379 34.2755 41.5419 34.7526 41.5419H35.6934C36.1703 41.5419 36.5557 41.9379 36.5557 42.4239C36.5557 42.9098 36.1702 43.3058 35.6934 43.3058H34.7526ZM30.4571 43.3058C29.9802 43.3058 29.5915 42.9098 29.5915 42.4239C29.5915 41.9379 29.9802 41.5419 30.4571 41.5419H31.3979C31.8749 41.5419 32.2602 41.9379 32.2602 42.4239C32.2602 42.9098 31.8748 43.3058 31.3979 43.3058H30.4571ZM26.1617 43.3058C25.6847 43.3058 25.296 42.9098 25.296 42.4239C25.296 41.9379 25.6847 41.5419 26.1617 41.5419H27.1023C27.5793 41.5419 27.9646 41.9379 27.9646 42.4239C27.9646 42.9098 27.5792 43.3058 27.1023 43.3058H26.1617ZM31.4795 53.277C31.0025 53.277 30.6172 52.8841 30.6172 52.395C30.6172 51.9091 31.0027 51.5163 31.4795 51.5163H35.7228L33.6452 46.4377H25.4005L23.323 51.5163H27.5663C28.0432 51.5163 28.4286 51.9092 28.4286 52.395C28.4286 52.8841 28.0431 53.277 27.5663 53.277H18.7629V54.9344H40.2827V53.277H31.4795ZM45.3558 19.9688V15.4259C45.3558 14.9399 45.7412 14.5439 46.2214 14.5439C46.6984 14.5439 47.0837 14.9399 47.0837 15.4259V19.9688H48.7105V15.4259H48.7136C48.7136 15.1596 48.8345 14.8968 49.0599 14.7238C49.6446 14.2746 50.1248 13.6921 50.4547 13.0197C50.7715 12.3773 50.9479 11.6452 50.9479 10.8664C50.9479 9.798 50.6114 8.81294 50.0365 8.01738C49.6903 7.53812 49.2559 7.12214 48.7626 6.79927V10.2804C48.7626 10.6233 48.5633 10.9495 48.2334 11.0893L46.5545 11.8082C46.3486 11.8981 46.1069 11.9047 45.8848 11.8082L44.232 11.1025C43.9084 10.9762 43.6766 10.6533 43.6766 10.2804V6.79927C43.1834 7.12214 42.749 7.53812 42.4027 8.01738C41.831 8.81282 41.4913 9.798 41.4913 10.8664C41.4913 11.6452 41.6677 12.3773 41.9845 13.0197C42.3046 13.6686 42.7652 14.2378 43.3237 14.6804C43.5687 14.8371 43.7289 15.1132 43.7289 15.426V19.9689H45.3558V19.9688Z" fill="#181818"/>
</svg>
