<svg id="Capa_1" data-name="Capa 1" xmlns="http://www.w3.org/2000/svg" viewBox="0 0 419.34 418.06"><defs><style>.cls-1{fill:#1f1713;}</style></defs><title>solucion3</title><path class="cls-1" d="M476.84,384.55v10.87c-1.35.64-.78,1.94-.95,2.95-4.86,30-20.62,51.78-49.69,61.58s-55.5,3.46-77.6-18.38a14.21,14.21,0,0,0-10.78-4.38q-35.34.17-70.66,0a181.1,181.1,0,0,1-96.67-27.63c-1.37-.85-2.59-2.07-4.76-2.22,0,7.6.12,15.07,0,22.54-.26,12.4-8.58,20.57-21,20.69-8.49.08-17,.1-25.49,0-12.92-.17-21.09-8.39-21.24-21.28-.08-6.69-.28-13.39.08-20.06.26-4.9-1.47-7.87-5.67-10.51a74.07,74.07,0,0,1-11.17-117.2,11.7,11.7,0,0,0,4.09-11,167,167,0,0,1,2-46.61c14.22-81.65,78.57-136.3,144.5-147.16,12.41-2,23.49-6,33-14.49,5.71-5.07,12.17-9.3,18.32-13.86,1.07-.79,1.95-2,3.86-2.1,0,7.16.35,14.24-.13,21.26-.31,4.6,1.25,5.94,5.65,6.65,53.47,8.65,96.11,34.51,126.1,80.14,18.17,27.66,29.16,57.77,30.64,91.08,1.12,25.25-3.08,49.66-11.58,73.36-1.3,3.64-.91,5.37,2.6,7.53q29.14,18,35.19,51.89C475.84,380.37,475.25,382.72,476.84,384.55ZM220.53,93.89a154.54,154.54,0,0,0-74.51,44c-33.77,35.7-50,78-47.42,127.3.18,3.39,1.1,3.65,3.92,2.45,5.38-2.3,11-4.31,16.77-4.89,4.4-.44,5.25-2.49,5.4-6.44.77-20.76,4.67-40.91,12.91-60,15.42-35.81,42.83-58.95,78.26-73.45,6.35-2.6,12.87-4.8,19.9-7.4l-20.6-15.64,6-5.13c.38-.2,1.13-.17.78-.86C221.85,93.6,221,93.83,220.53,93.89Zm-28.65,197.6c1.06-.83.71-1.73.72-2.49,0-12.26.1-24.53,0-36.79,0-3,.53-4.14,3.84-4.07,11.15.22,22.3.19,33.45,0,2.94,0,3.72.78,3.7,3.71-.13,18.26-.07,36.51-.07,54.77,0,8.67,0,8.47,8.71,8.73,3.71.1,4.63-1,4.61-4.64-.16-28.43,0-56.86-.16-85.29,0-3.25.8-4.26,4.14-4.19,10.73.21,21.47.26,32.19,0,3.84-.1,4.57,1.16,4.55,4.71-.14,27.17-.08,54.35-.08,81.52,0,7.82,0,7.82,8,7.81,5.36,0,5.37,0,5.37-5.39,0-37.07,0-74.14-.07-111.21,0-3.41.82-4.56,4.37-4.48q15.68.34,31.35,0c3.75-.09,4.91.86,4.9,4.8-.16,41.66-.09,83.33-.11,125,0,6.2.65,5.36-5.3,5.36q-62.3,0-124.58,0c-2.53,0-4.08.25-4.49,3.28-1.35,9.93-2.9,19.83-4.54,29.72-.32,1.93-.11,3,1.7,4.05,15.3,8.76,31.46,14.85,49.26,15.64,23.39,1,46.8.83,70.2.95,3.31,0,4.62-1,5.15-4.2,4.39-27,19.5-45.87,44.2-57.23a15.27,15.27,0,0,0,7.36-7c13.48-25.51,17.55-52.5,13.14-81-7.84-50.62-48.84-93.69-99.08-103.86-7.23-1.47-7.23-1.47-7.23,5.94v18.12c-10.69-8-20.47-15.38-30.24-22.75-2.5-1.89-5-3.32-8.4-2.85-63.64,8.87-110.89,64.5-109.59,129,.08,3.71,1.48,5,5.06,5.58a70.7,70.7,0,0,1,39.68,19.8C186.45,285.31,189.1,288.47,191.88,291.49ZM273.46,73c-11.83,8.88-22.82,17.16-33.84,25.39-2.15,1.61-.32,2.24.65,3,4.66,3.55,9.35,7,14,10.55l19.31,14.44c0-3.57.21-6.32-.06-9-.32-3.28.7-4.22,4.08-3.91C318.2,117,352,133.64,377.4,165.86c19.61,24.86,31,53,31.56,85,.4,21.06-4.16,41.18-11.77,60.68-1.05,2.69-.89,3.59,2.25,3.81,6.38.44,12.77,1.1,19.1,2.06,3.3.51,4.89-.26,6.16-3.5a159.81,159.81,0,0,0,10.05-77.08c-4.49-39.85-22-73.65-49.72-102.08-28.11-28.81-63.4-43-102.82-47.9-8.68-1.07-8.7-.91-8.74-9.43C273.46,76.3,273.46,75.2,273.46,73Zm-162,297.27c0-5.86-.16-11.71.06-17.56.12-3.25-.51-4.13-4.09-3.56a20,20,0,0,1-22.72-16.76,20.33,20.33,0,0,1,15.81-23.13c8.47-1.79,15.27.71,20.37,7.92a13.21,13.21,0,0,0,21.59,0,20.11,20.11,0,0,1,24.92-6.53,20.37,20.37,0,0,1,11.23,23.25c-2.51,9.88-10.1,15.43-21.54,15.28-3.48,0-4.84.6-4.74,4.5.29,11.42.09,22.85.1,34.27,0,4.63,0,4.63,4.21,2.9,24.08-10,39-37,35.12-63.63-3.83-26.49-25.1-47.89-51.07-51.38-27.71-3.72-53.88,11-64.64,36.28-9.68,22.78-4.17,49.37,14.22,68.18,5,5.13,10.7,9.26,17.8,11.2,2.5.69,3.5.44,3.42-2.48C111.37,382.79,111.49,376.51,111.5,370.25Zm336.17,58c18-18.22,23.27-57.48-5.23-83.39a60.29,60.29,0,0,0-87.91,7.29c-18,23-17.13,63.15,1.86,75.77,1.37-16.95,8.48-30.45,23.38-39.24,2.26-1.33.7-2.51,0-3.69-4.2-7.54-6.67-15.44-3.7-24,3.6-10.39,11.14-16.66,21.93-18.19,11.15-1.59,20.39,2.49,26.55,12.05s6.14,19.54.05,29.11c-2,3.13-1.65,4.25,1.39,6.14,10.15,6.3,16.59,15.49,19.56,27C446.5,420.77,447,424.45,447.67,428.29Zm-156.14-4.87c13,0,25.91-.09,38.86.05,3.27,0,4.22-.77,3.17-4-1.87-5.82-3.67-11.69-5.05-17.65-.9-3.87-2.54-5.27-6.71-5.2-16.17.28-32.34-.16-48.5.18-26.9.57-52.25-4.92-75.75-18.25-2.1-1.19-3.43-.92-5,.8-4.63,5-9.29,10-14.16,14.77-2.07,2-2,3,.48,4.49a166.94,166.94,0,0,0,61.4,22.85C257.26,424.09,274.42,423.33,291.53,423.42ZM401.7,450.59a65.48,65.48,0,0,0,29.56-7.7c2.72-1.55,4.07-3.39,3.32-6.77a104.1,104.1,0,0,1-1.3-10.33c-1.93-16.49-14.21-28.24-30.34-29-15.43-.76-28.53,10-31.73,26.19-.94,4.76-1.44,9.61-2.15,14.42-.4,2.64,1,4.08,3.15,5.28A63.88,63.88,0,0,0,401.7,450.59ZM327.27,262V216.48c0-8.57,0-8.38-8.43-8.62-3.56-.09-4.34,1-4.32,4.42.13,31.48.08,63,.08,94.46,0,8.63,0,8.48,8.81,8.6,3.16.05,3.95-.89,3.93-4C327.19,294.92,327.26,278.48,327.27,262Zm-195.47,175c4.31,0,8.62.14,12.93,0,4.85-.2,6.72-2,6.9-6.92.24-6.39.15-12.79.29-19.18.05-2.23-.72-2.88-3-2.48a98,98,0,0,1-34,0c-2.42-.42-3.23.22-3.19,2.67.11,6,0,12,0,17.93.08,5.53,2.29,7.78,7.88,8C123.73,437.2,127.77,437.09,131.8,437.08Zm141.67-162V243.36c0-8.54,0-8.28-8.43-8.62-4-.16-4.49,1.3-4.47,4.73.14,22.27.07,44.55.07,66.82,0,9.19,0,9,9.28,9.06,3.11,0,3.63-1.18,3.6-3.92C273.39,299.32,273.46,287.21,273.47,275.1ZM125.59,366.17v21.28c0,8.76,0,8.61,8.68,8.74,3.17.05,3.95-.88,3.92-4-.16-15.72-.07-31.44-.07-47.16,0-9.17,0-9.06-9.1-9.07-2.72,0-3.55.73-3.5,3.48C125.69,348.36,125.59,357.26,125.59,366.17Zm93.65-76.95V270.86c0-9,0-8.89-9-8.88-2.92,0-3.77.9-3.74,3.79.13,13.64,0,27.27,0,40.9,0,9.07,0,8.93,9.08,8.93,3,0,3.72-1,3.65-3.84C219.13,304.25,219.24,296.74,219.24,289.22ZM402,383a13.36,13.36,0,0,0,.07-26.71A13.36,13.36,0,1,0,402,383ZM158.9,335.65a6.54,6.54,0,1,0-.24-13.08,6.54,6.54,0,0,0,.24,13.08Zm-47.49-6.53a6.6,6.6,0,0,0-6.62-6.53,6.87,6.87,0,0,0-6.57,6.7,6.74,6.74,0,0,0,6.5,6.3A6.64,6.64,0,0,0,111.41,329.12Z" transform="translate(-57.49 -46.38)"/><path class="cls-1" d="M220.53,93.89c.49-.06,1.32-.29,1.4-.14.35.69-.4.66-.78.86Z" transform="translate(-57.49 -46.38)"/></svg>