<svg width="59" height="59" viewBox="0 0 59 59" fill="none" xmlns="http://www.w3.org/2000/svg">
<path d="M59 17.0192V9.3605C58.9993 8.68368 58.766 8.0348 58.3512 7.55621C57.9364 7.07762 57.3741 6.80841 56.7875 6.80762H21.8792C21.2926 6.80841 20.7302 7.07762 20.3154 7.55621C19.9007 8.0348 19.6674 8.68368 19.6667 9.3605V11.3461H17.3745C17.0102 11.3456 16.6514 11.4492 16.3302 11.6476C16.009 11.846 15.7354 12.1329 15.5336 12.483L12.2425 18.1793C11.5856 18.2542 10.9498 18.4883 10.3767 18.8664C9.80365 19.2445 9.30626 19.758 8.91711 20.3732L7.0714 23.3012L8.66194 24.6361L10.5074 21.7081C10.7587 21.3106 11.0878 20.9871 11.4678 20.7638C11.8478 20.5405 12.268 20.4237 12.6945 20.423H19.6667V30.6345H4.88102L7.6786 26.1962L6.08806 24.8613L2.31083 30.8549C1.63631 31.1268 1.05164 31.6337 0.637671 32.3056C0.223699 32.9776 0.00087203 33.7813 0 34.6057V48.5047C0.000683151 49.1816 0.234005 49.8304 0.648781 50.309C1.06356 50.7876 1.62592 51.0568 2.2125 51.0576H3.93333C3.93333 53.164 4.65854 55.1842 5.94942 56.6737C7.24029 58.1631 8.99109 58.9999 10.8167 58.9999C12.6422 58.9999 14.393 58.1631 15.6839 56.6737C16.9748 55.1842 17.7 53.164 17.7 51.0576H41.3C41.3 53.164 42.0252 55.1842 43.3161 56.6737C44.607 58.1631 46.3578 58.9999 48.1833 58.9999C50.0089 58.9999 51.7597 58.1631 53.0506 56.6737C54.3415 55.1842 55.0667 53.164 55.0667 51.0576H56.7875C57.3741 51.0568 57.9364 50.7876 58.3512 50.309C58.766 49.8304 58.9993 49.1816 59 48.5047V19.2884H57.0333V38.5768H21.6333V9.3605C21.6333 9.28527 21.6592 9.21312 21.7053 9.15993C21.7514 9.10673 21.814 9.07685 21.8792 9.07685H56.7875C56.8527 9.07685 56.9152 9.10673 56.9613 9.15993C57.0074 9.21312 57.0333 9.28527 57.0333 9.3605V17.0192H59ZM14.6207 18.1538L17.17 13.7417C17.1924 13.7028 17.2228 13.6709 17.2585 13.6489C17.2942 13.6269 17.334 13.6153 17.3745 13.6153H19.6667V18.1538H14.6207ZM1.96667 34.6057C1.96709 34.1545 2.12263 33.7219 2.39915 33.4028C2.67568 33.0837 3.0506 32.9043 3.44167 32.9038H4.91667V38.0095C4.91624 38.4608 4.76071 38.8934 4.48418 39.2124C4.20766 39.5315 3.83273 39.711 3.44167 39.7115H1.96667V34.6057ZM10.8167 56.7307C9.84424 56.7307 8.89365 56.398 8.08511 55.7746C7.27657 55.1512 6.64639 54.2652 6.27426 53.2286C5.90213 52.192 5.80476 51.0513 5.99447 49.9509C6.18418 48.8504 6.65245 47.8395 7.34006 47.0461C8.02767 46.2527 8.90373 45.7124 9.85747 45.4935C10.8112 45.2746 11.7998 45.387 12.6982 45.8164C13.5966 46.2458 14.3645 46.9729 14.9047 47.9058C15.445 48.8388 15.7333 49.9356 15.7333 51.0576C15.7319 52.5617 15.2134 54.0037 14.2917 55.0672C13.3699 56.1308 12.1202 56.729 10.8167 56.7307V56.7307ZM17.4138 48.7884C16.9901 47.1493 16.1191 45.7118 14.9305 44.6897C13.7419 43.6676 12.2991 43.1155 10.8167 43.1155C9.33426 43.1155 7.89145 43.6676 6.70282 44.6897C5.51418 45.7118 4.64323 47.1493 4.21948 48.7884H2.2125C2.1473 48.7884 2.08477 48.7585 2.03867 48.7053C1.99257 48.6521 1.96667 48.58 1.96667 48.5047V41.9807H3.44167C4.35413 41.9795 5.22893 41.5607 5.87414 40.8162C6.51935 40.0718 6.88229 39.0624 6.88333 38.0095V32.9038H19.6667V48.7884H17.4138ZM48.1833 56.7307C47.2109 56.7307 46.2603 56.398 45.4518 55.7746C44.6432 55.1512 44.0131 54.2652 43.6409 53.2286C43.2688 52.192 43.1714 51.0513 43.3611 49.9509C43.5508 48.8504 44.0191 47.8395 44.7067 47.0461C45.3943 46.2527 46.2704 45.7124 47.2241 45.4935C48.1779 45.2746 49.1665 45.387 50.0649 45.8164C50.9633 46.2458 51.7311 46.9729 52.2714 47.9058C52.8116 48.8388 53.1 49.9356 53.1 51.0576C53.0985 52.5617 52.5801 54.0037 51.6583 55.0672C50.7366 56.1308 49.4869 56.729 48.1833 56.7307ZM57.0333 40.8461V48.5047C57.0333 48.58 57.0074 48.6521 56.9613 48.7053C56.9152 48.7585 56.8527 48.7884 56.7875 48.7884H54.7805C54.3568 47.1493 53.4858 45.7118 52.2972 44.6897C51.1086 43.6676 49.6657 43.1155 48.1833 43.1155C46.7009 43.1155 45.2581 43.6676 44.0695 44.6897C42.8808 45.7118 42.0099 47.1493 41.5862 48.7884H21.6333V40.8461H57.0333Z" fill="#181818"/>
<path d="M13.7667 35.1731H17.7001V37.4423H13.7667V35.1731Z" fill="#181818"/>
<path d="M39.7462 11.4355C39.6202 11.3707 39.4837 11.3372 39.3457 11.3372C39.2078 11.3372 39.0713 11.3707 38.9453 11.4355L30.1076 15.9826C29.9101 16.0842 29.7471 16.2581 29.6439 16.4773C29.5407 16.6966 29.503 16.9489 29.5366 17.1954L30.2734 22.5919C30.2745 22.6008 30.2758 22.6096 30.2772 22.6186C31.0233 27.2957 33.296 31.4644 36.6268 34.2654L38.7705 36.0872C38.9386 36.23 39.1418 36.3075 39.3505 36.3082C39.5593 36.309 39.7629 36.2331 39.9318 36.0914L41.9743 34.3781C45.3494 31.5785 47.6544 27.3803 48.4065 22.6632C48.408 22.6544 48.4092 22.6457 48.4105 22.6369L49.1547 17.1958C49.1885 16.9493 49.1508 16.6968 49.0476 16.4775C48.9444 16.2582 48.7814 16.0843 48.5839 15.9826L39.7462 11.4355ZM46.4697 22.2698C45.805 26.4071 43.7799 30.0877 40.8179 32.5422L39.358 33.7672L37.7937 32.4377C34.8705 29.9822 32.8741 26.3275 32.2149 22.2254L31.5972 17.7011L39.3457 13.7147L47.0947 17.7016L46.4697 22.2698Z" fill="#181818"/>
<path d="M36.0965 21.8897L34.7059 23.4942L37.6559 26.898C37.8403 27.1108 38.0904 27.2303 38.3512 27.2303C38.612 27.2303 38.8621 27.1108 39.0465 26.898L44.9465 20.0903L43.5559 18.4858L38.3512 24.4912L36.0965 21.8897Z" fill="#181818"/>
<path d="M23.6 11.3462H25.5666V13.6154H23.6V11.3462Z" fill="#181818"/>
<path d="M23.6 34.0383H25.5666V36.3076H23.6V34.0383Z" fill="#181818"/>
<path d="M53.1 11.3462H55.0666V13.6154H53.1V11.3462Z" fill="#181818"/>
<path d="M53.1 34.0383H55.0666V36.3076H53.1V34.0383Z" fill="#181818"/>
<path d="M10.8167 47.6538C10.2332 47.6538 9.66289 47.8534 9.17777 48.2275C8.69264 48.6015 8.31453 49.1331 8.09126 49.7551C7.86798 50.377 7.80956 51.0614 7.92338 51.7217C8.03721 52.382 8.31817 52.9885 8.73074 53.4645C9.1433 53.9406 9.66894 54.2648 10.2412 54.3961C10.8134 54.5274 11.4066 54.46 11.9456 54.2024C12.4847 53.9448 12.9454 53.5085 13.2695 52.9487C13.5937 52.389 13.7667 51.7309 13.7667 51.0577C13.7658 50.1552 13.4547 49.29 12.9017 48.6519C12.3487 48.0138 11.5988 47.6548 10.8167 47.6538ZM10.8167 52.1923C10.6222 52.1923 10.4321 52.1257 10.2704 52.0011C10.1087 51.8764 9.98265 51.6992 9.90822 51.4919C9.83379 51.2845 9.81432 51.0564 9.85226 50.8363C9.8902 50.6162 9.98386 50.414 10.1214 50.2554C10.2589 50.0967 10.4341 49.9886 10.6249 49.9448C10.8156 49.9011 11.0133 49.9235 11.193 50.0094C11.3727 50.0953 11.5263 50.2407 11.6343 50.4273C11.7424 50.6139 11.8 50.8332 11.8 51.0577C11.7997 51.3585 11.696 51.6469 11.5117 51.8596C11.3274 52.0723 11.0774 52.1919 10.8167 52.1923Z" fill="#181818"/>
<path d="M48.1833 47.6538C47.5998 47.6538 47.0295 47.8534 46.5443 48.2275C46.0592 48.6015 45.6811 49.1331 45.4578 49.7551C45.2346 50.377 45.1761 51.0614 45.29 51.7217C45.4038 52.382 45.6847 52.9885 46.0973 53.4645C46.5099 53.9406 47.0355 54.2648 47.6078 54.3961C48.18 54.5274 48.7731 54.46 49.3122 54.2024C49.8512 53.9448 50.312 53.5085 50.6361 52.9487C50.9603 52.389 51.1333 51.7309 51.1333 51.0577C51.1324 50.1552 50.8213 49.29 50.2683 48.6519C49.7152 48.0138 48.9654 47.6548 48.1833 47.6538V47.6538ZM48.1833 52.1923C47.9888 52.1923 47.7987 52.1257 47.637 52.0011C47.4753 51.8764 47.3492 51.6992 47.2748 51.4919C47.2004 51.2845 47.1809 51.0564 47.2188 50.8363C47.2568 50.6162 47.3504 50.414 47.488 50.2554C47.6255 50.0967 47.8007 49.9886 47.9914 49.9448C48.1822 49.9011 48.3799 49.9235 48.5596 50.0094C48.7393 50.0953 48.8928 50.2407 49.0009 50.4273C49.1089 50.6139 49.1666 50.8332 49.1666 51.0577C49.1663 51.3585 49.0626 51.6469 48.8783 51.8596C48.6939 52.0723 48.444 52.1919 48.1833 52.1923Z" fill="#181818"/>
<path d="M0 11.3462H7.86667V13.6154H0V11.3462Z" fill="#181818"/>
<path d="M9.83337 11.3462H11.8V13.6154H9.83337V11.3462Z" fill="#181818"/>
<path d="M8.84998 0H24.5833V2.26923H8.84998V0Z" fill="#181818"/>
<path d="M26.55 0H28.5167V2.26923H26.55V0Z" fill="#181818"/>
<path d="M35.4 2.26929H51.1334V4.53852H35.4V2.26929Z" fill="#181818"/>
<path d="M53.1 2.26929H55.0666V4.53852H53.1V2.26929Z" fill="#181818"/>
<path d="M18.6833 54.4617H36.3833V56.7309H18.6833V54.4617Z" fill="#181818"/>
<path d="M38.35 54.4617H40.3166V56.7309H38.35V54.4617Z" fill="#181818"/>
</svg>
