<svg id="Capa_1" data-name="Capa 1" xmlns="http://www.w3.org/2000/svg" viewBox="0 0 421.39 420.92"><defs><style>.cls-1{fill:#1f1713;}</style></defs><title>solucion2</title><path class="cls-1" d="M412,49.54c.61,1.38,1.93.77,2.92,1,15.31,3.32,24.72,16.58,22.9,32.32-1.57,13.62-14.69,24.65-29,24-10-.46-18.3-4.88-22.92-13.65-3.93-7.46-9.48-9.34-17-8.63-3.31.31-6.64.66-10,.64-3,0-4.25,1.54-4.61,4.2a21.58,21.58,0,0,0-.14,2.9c0,22.77.06,45.54-.08,68.3,0,3.43,1,4.78,4.43,4.62,6.09-.28,12.2.28,18.29-.43a7.63,7.63,0,0,0,5.83-3.45,101.83,101.83,0,0,1,6-8.47c8.08-9.52,22.93-12.23,34.23-6.41s17.58,19.4,14.43,31.65C434,191.17,422.56,200.38,409.9,200c-9.92-.34-17.62-5.48-22.86-13.34-4.7-7-10.32-10-18.52-8.71a37.11,37.11,0,0,1-6.24,0c-8.1-.11-8.22-.12-8.44,8-.18,6.66,0,13.33,0,20q0,21.66,0,43.31c0,7.62,2.35,9.7,9.83,8.89a34.64,34.64,0,0,1,7.88.16c6.81.8,10.61-1.28,13.94-7.36,5.73-10.44,15.59-15.89,26.27-14.51,13.58,1.75,22.62,9.33,25.59,21.47a28.67,28.67,0,0,1-17.37,33.13c-13.59,5.15-27.92.06-34.4-12.73-3-6-7.76-7.86-13.86-7.91-5.55-.05-11.11.07-16.65-.18-9-.4-12-3.46-13.19-12.27-.88-6.64-.51-13.3-.53-20-.06-18.74-.1-37.49.05-56.22,0-3.18-.89-4-4-3.92-8.88.21-17.77.11-26.66.05-3.08,0-5.25.91-6.44,4.06-1.93,5.12-6.39,7.35-11.32,8.07-8.17,1.2-12.84,5.81-15.07,13.46a17.76,17.76,0,0,1-1.75,3.75c-4,6.95-3.66,11.21,1.49,17.44,5.64,6.84,5.65,12.34-.28,18.85a74.37,74.37,0,0,1-8.2,7.67c-6.29,5-10.88,5.94-16.86.69-7.47-6.55-14.38-5.28-22-1.4a19,19,0,0,1-2.62,1.25c-6.81,2.29-10.31,6.48-11,14.14-.76,8.88-5.17,12.12-14.16,12.58-4.43.23-8.87.44-13.27-.5-6.07-1.3-8.76-4.13-9.73-10.31-.28-1.78-.51-3.57-.82-5.35-.9-5.17-3.79-8.53-9-9.58a27.16,27.16,0,0,1-10.29-4.25c-3.62-2.5-7.25-2.34-10.87.08-2.65,1.76-5.26,3.6-8,5.16A10.28,10.28,0,0,1,128.8,253a53.76,53.76,0,0,1-12.93-13.43c-2.38-3.44-2.23-7.11-.22-10.6,1.58-2.76,3.51-5.32,5.3-7.95,2.43-3.57,2.73-7.16.22-10.84a28.57,28.57,0,0,1-4.23-9.86c-1.28-5.6-5.13-8.69-10.63-9.84-1.22-.26-2.48-.32-3.7-.55-8.69-1.66-11.25-4.63-11.44-13.52-.09-3.75-.11-7.5.13-11.24.47-7.54,3.66-11.34,11.15-12.09,8.56-.86,14-4.59,15.44-13.42a11.55,11.55,0,0,1,2.13-4.91c3.88-5.09,3.31-9.6-.37-14.73-6.94-9.69-3-24.14,7.51-29.71,6.4-3.38,12.42-2.53,17.83,1.87,5.7,4.65,11.26,5.47,17.36.9a16.11,16.11,0,0,1,7-2.66c5.65-1,8.71-4.45,9.52-10,0-.14,0-.28.05-.42,2.3-13,4.66-15.06,18.08-15.29,1.52,0,3.05.07,4.57.16,11.38.73,13.55,2.62,15.45,13.78a14.35,14.35,0,0,0,8.24,11.25A113,113,0,0,0,236,94.3c6.74,2.4,12.84,1.33,18-3.9,2.85-2.91,5.74-3.37,9.18-.8,4.66,3.48,9.59,6.57,13.84,10.63,3.46,3.31,4.08,7,3,11.35a36.41,36.41,0,0,1-4.39,9.82c-2.71,4.43-2.88,8.81.24,13.23a26.42,26.42,0,0,1,3.84,9.14c1.43,5.84,3.84,7.88,9.8,8.33,6.8.52,12.39,2.73,15.23,9.59,1.1,2.66,3.67,3.1,6.3,3.13,8.6.1,17.21.08,25.79.45,3.59.15,4.7-.72,4.66-4.51-.19-22.63-.09-45.25-.09-67.88,0-16.38,4.22-20.61,20.75-20.72,3.61,0,7.22,0,10.82.12,5.17.19,9.47-1.61,11.78-6.27,4.56-9.21,11.73-14.51,21.88-15.85.18,0,.3-.4.45-.62ZM291.89,170.85c-1.36-1.48,2.7-5.73-2.82-5.72-13.05,0-19.1-4.6-22.06-17.29a34.87,34.87,0,0,0-5.93-13.53c-4.42-5.89-3.8-11,1.21-16.44a32.28,32.28,0,0,0,3.8-4.92c1.77-2.85,1.19-5.57-1-8-3.8-4.09-5.8-4-11.12.66-7.46,6.49-12.69,7-21,1.58a55.19,55.19,0,0,0-16.06-6.65c-9.23-2.46-10.64-3.89-11.09-13.28a10.59,10.59,0,0,0-4.65-8.35,5,5,0,0,0-5.82-.68c-2,1.11-3.42,2.44-3.61,5.1-.82,11.32-5.21,16.31-16.41,18.72a25.45,25.45,0,0,0-9.76,4.26c-8,5.73-16.11,5.48-23.83-.32-6.2-4.66-6.2-4.66-12.34.33a4.63,4.63,0,0,1-.65.52c-2.7,1.56-2.39,2.87,0,4.74,6.22,5,8.66,11.49,6.55,19.24A102.7,102.7,0,0,1,126.08,154c-3.9,7-9.68,11.36-18,11.44-3.21,0-4.53,1.47-4.18,4.66a23.12,23.12,0,0,1,0,4.16c-.14,1.89.65,2.8,2.55,3,1.66.15,3.28.62,4.93.72,9.49.62,14.94,5.57,16.75,14.92a31.1,31.1,0,0,0,5.26,12.06c5.35,7.59,4.76,15.36-1,23.08-4.83,6.44-4.68,6.28,1.17,12,2.42,2.38,3.48,1.75,5.46-.39,7.4-8,15.54-9.17,25.12-4a32.92,32.92,0,0,1,4.25,2.61,19.17,19.17,0,0,0,10,3.7c7.11.78,11,4.5,12.16,11.56.29,1.77.47,3.57.62,5.36.4,5.06,2.63,7.3,7.23,7.18s6.66-2.3,6.91-7.49c.05-1.25.06-2.5.13-3.75.45-7.38,4.07-11.72,11.31-12.67A27.27,27.27,0,0,0,227.85,238a43.24,43.24,0,0,1,8.2-4c6.56-2.37,12.74-1.76,18.42,2.74,2,1.59,3.17,5.33,5.6,4.79s4.21-3.4,6.27-5.25a6.55,6.55,0,0,1,.6-.58c2.42-1.61,1.95-2.78-.11-4.6-8.39-7.37-9.79-14.77-5-24.92a55.54,55.54,0,0,1,3.52-6.13,10.94,10.94,0,0,0,1.69-4.61c1.44-10.68,7.92-16.74,18.77-17.69C291.89,177.25,291.89,177.25,291.89,170.85Zm102.38.74A15.4,15.4,0,0,0,409.54,187a15.83,15.83,0,0,0,15.87-15.36,15.57,15.57,0,1,0-31.14,0Zm0-93.16a15.58,15.58,0,1,0,31.15-.06c0-8.36-7.31-15.44-15.84-15.36A15.6,15.6,0,0,0,394.27,78.43Zm.09,186.12c0,8.45,7.21,15.69,15.53,15.59a15.78,15.78,0,0,0,15.53-15.63,15.45,15.45,0,0,0-15.85-15.17A15,15,0,0,0,394.36,264.55Z" transform="translate(-53.79 -49.54)"/><path class="cls-1" d="M53.79,369.41a1,1,0,0,0,.8,0q0,41.29-.07,82.6a5.83,5.83,0,0,1-.73-.1Z" transform="translate(-53.79 -49.54)"/><path class="cls-1" d="M54.52,452q0-41.31.07-82.6c1.2-4.64,4.65-5.71,8.88-5.82,9.42-.25,18.78,1.39,28.25.23,11-1.35,21.1-4.78,29.64-11.93a35.18,35.18,0,0,1,10.22-6.11c11.12-4.21,21.44-10.33,33.18-13.1,22.78-5.35,45.41-5.08,67.79,1.62,7.77,2.32,14.48,1.36,21.49-2.42,21.23-11.43,42.64-22.54,64-33.75a39,39,0,0,1,12.5-4.37c9.59-1.4,15.75,3.54,20.54,11.15,1.53,2.43,1.94,6.48,4.48,7.08,2.38.55,5.37-1.6,8.11-2.5,2.37-.78,4.74-1.59,7.15-2.19,11.15-2.78,17.58.09,23.09,10.2,3.22,5.93,3.21,5.89,9.81,3.76,5.13-1.66,10.19-3.61,15.59-4.35,11.07-1.51,17.63,1.83,21.48,12.33,1.6,4.38,3.62,5,7.71,4.69,12.38-1,22,5.58,25.54,16.91,3.45,11-.94,21.37-11.88,27.73C435.54,394,408,407.77,381.05,422.61c-19.18,10.56-38,21.82-58,30.74-17,7.57-34.31,14.32-53,16.34-14.55,1.58-29.1.4-43.63-.64-17.84-1.28-35.67-2.63-53.52-3.84q-49-3.31-97.95-6.49c-4.56-.3-9.14-.52-13.68-1C57.79,457.35,55.18,455.71,54.52,452Zm12.73-41.68c0,10.14.11,20.27-.06,30.4-.06,3.28,1.23,4.4,4.3,4.62q47.1,3.22,94.19,6.59c20.6,1.49,41.2,3.12,61.79,4.76,14.53,1.15,29,2.19,43.55-.21,19.91-3.29,38.51-10.34,56.39-19.34,42.85-21.57,84.29-45.76,126.53-68.47a17.76,17.76,0,0,0,6-5.1,10.5,10.5,0,0,0-4.61-16.23c-4-1.56-7.63-.36-11.14,1.57C429.7,356.83,415,364.39,400.92,373A209.39,209.39,0,0,1,289,404.09c-20-.1-39.73-3.62-59.56-5.81-4.48-.5-7.5-3.31-10.57-6.13-.78-.71-1.44-1.35-.29-2.32,2.63-2.22,5-4.89,8.69-5.37q42.48-5.44,85-10.93c5.89-.76,11.9-1.1,17.51-3.35,5.33-2.14,7.17-5.72,5.82-11.2-1.49-6.07-4.7-8.13-13-8.21-20.12-.21-40.24.23-60.36-.33-13.78-.39-27.54-1.19-40.69-5.36-17.88-5.66-35.6-4.86-53.3-.1-14.77,4-28.76,9.8-41.46,18.6-7.59,5.27-15,11.31-24.69,12.26a187,187,0,0,1-30.76.51c-3.6-.24-4.2.77-4.15,4C67.36,390.3,67.25,400.3,67.25,410.29Zm219.38-17.6,28.9-3.3c17-1.94,33.56-5.51,49.33-12.41,20.62-9,39.65-21,59.33-31.68a13,13,0,0,0,2.65-2c3.22-3,3.64-6.58,1.31-10.51s-5.26-5-9.5-3.76a29.18,29.18,0,0,0-5,2.08q-29.25,15.33-58.47,30.69a16.79,16.79,0,0,0-8,8.1c-4,8.71-11,13.36-20.28,14.57-13.32,1.73-26.66,3.31-40,5-1.23.16-3.1-.29-2.89,2C284.22,393,285.54,392.74,286.63,392.69Zm-14.48-56.17c14.43,2.37,27.52,2.67,40.56-1a61.11,61.11,0,0,0,23.05-12c3.75-3.12,5.49-10,3.62-12.77-2.24-3.28-8.65-4.41-13.22-2.11-11.88,6-23.71,12.05-35.54,18.12C284.78,329.83,279,332.93,272.15,336.52ZM382.67,326.2c0-4.6-6.27-8.15-10.71-6.19-11.15,4.93-21.74,11-32.53,16.61-1.85,1-1.66,1.77-.57,3.11,2.63,3.22,5.27,6.44,7.75,9.77,1.09,1.46,2,1.35,3.46.6,9.17-4.86,18.52-9.38,27.4-14.81C381.09,333.07,382,329.59,382.67,326.2Z" transform="translate(-53.79 -49.54)"/><path class="cls-1" d="M149.45,171.57a46.72,46.72,0,1,1,46.73,46.74A46.64,46.64,0,0,1,149.45,171.57Zm80.42-.28a33.74,33.74,0,0,0-33.66-33.57,34.11,34.11,0,0,0-34,33.82c0,18.48,15.41,33.79,34,33.76A33.67,33.67,0,0,0,229.87,171.29Z" transform="translate(-53.79 -49.54)"/></svg>