<svg id="Capa_1" data-name="Capa 1" xmlns="http://www.w3.org/2000/svg" viewBox="0 0 422.34 384.23"><defs><style>.cls-1{fill:#1f1713;}</style></defs><title>solucion1</title><path class="cls-1" d="M422.89,78.44c1.35,1.44,3.28,1,4.92,1.46,15.1,3.85,25.44,15.55,27.26,31a101.62,101.62,0,0,1,.68,11.83q0,96.33,0,192.65,0,21.83-.22,43.65a13.63,13.63,0,0,0,4,10.3c7.53,7.8,14.85,15.8,22.2,23.78,3.18,3.44,3.38,5.42.76,8.76-15.61,19.86-33.76,36.77-56.18,48.88-31.43,17-62.26,15.52-92.75-2.31a166.85,166.85,0,0,1-40.17-32.8A12.78,12.78,0,0,0,283,411.09q-88.84.27-177.69.36a59,59,0,0,1-16.29-1.78c-13.8-3.9-22.18-12.89-25.64-26.71-.35-1.39-.09-3.06-1.44-4.13V111.39c1.18-.58.79-1.78,1-2.69C66.37,93,75.71,83.13,91.5,79.51c.9-.21,2.12.14,2.66-1.07ZM337,358.05a2.86,2.86,0,0,0-.74.18c-16.8,10-30.8,23.28-43.41,38.12-1.25,1.48-.72,2.31.29,3.52a196.49,196.49,0,0,0,15.68,16.7c8.37,7.84,17.1,15.23,27.26,20.73.31.37.68.66,1.09.24.09-.11-.17-.56-.27-.85-.57-.84-1.12-1.7-1.71-2.52-10-13.86-13.83-29.23-11.19-46.16,1.74-11.11,6.8-20.67,13.48-29.51.26-.31.37-.63,0-.91C337.42,357.57,337.15,357.89,337,358.05Zm89.79,79.85a4.6,4.6,0,0,0,1.09-.31c16.55-10,30.55-22.95,43-37.66,1.43-1.69,1-2.78-.24-4.22A216,216,0,0,0,454,378.27c-8.07-7.43-16.5-14.44-26.32-19.54l-.81-.31.3.81c.56.85,1.1,1.71,1.69,2.53,10.25,14.26,13.81,30.06,10.9,47.33-1.8,10.68-6.89,19.83-13.38,28.3-.26.3-1,.42-.65.9S426.55,438.42,426.78,437.9Zm18.33-81.13v-3q0-104,.09-208c0-3.73-1.66-3.64-4.34-3.64q-182,.06-363.89,0c-3.43,0-4.47.75-4.46,4.35q.18,87.53.08,175.05c0,17.37-.08,34.73,0,52.1.09,13.48,7.66,23.31,20.12,26.37a44.59,44.59,0,0,0,10.63,1.1q85.42,0,170.84.06c3.71,0,6-.47,6.4-4.68.13-1.38,1.29-2.75,2.22-3.94a184,184,0,0,1,47.38-43c31.24-19.44,63.18-22,96.1-4.45C432.6,348.42,438.53,352.36,445.11,356.77ZM193.39,131.31H441.66a8.83,8.83,0,0,1,1.15,0c1.79.21,2.49-.49,2.44-2.35-.13-5,.13-10-.2-14.93-.74-11.41-7.69-20.29-18.17-23.67a40.46,40.46,0,0,0-12.48-1.5H209.09c-10.85,0-10.84,0-10.71,11C198.5,110.46,199.7,121.15,193.39,131.31ZM382.25,446.55a48.57,48.57,0,1,0-1-97.14c-26.27.15-48.09,22.32-47.91,48.66A48.73,48.73,0,0,0,382.25,446.55ZM124.05,131.43c15.2,0,30.41-.43,45.58.13,11.74.43,18.72-8.13,18.66-18.53,0-6.77-.14-13.54.06-20.3.08-2.93-.64-3.94-3.78-3.92-29.11.18-58.22.14-87.33.28-11.78.06-21.95,9.18-23.89,20.87-.95,5.7-.47,11.47-1.15,17.16-.42,3.5.55,4.4,4,4.37C92.13,131.34,108.09,131.43,124.05,131.43ZM338.14,438l-.25.17c.07.07.13.2.2.21s.17-.1.25-.16Z" transform="translate(-61.97 -78.44)"/><path class="cls-1" d="M426.78,437.9c-.23.52-.78.79-1.07.39s.39-.6.65-.9C426.5,437.55,426.65,437.72,426.78,437.9Z" transform="translate(-61.97 -78.44)"/><path class="cls-1" d="M337,358.05c.16-.16.43-.48.46-.46.39.28.28.6,0,.91A3.37,3.37,0,0,1,337,358.05Z" transform="translate(-61.97 -78.44)"/><path class="cls-1" d="M427.15,359.23l-.3-.81.81.31Z" transform="translate(-61.97 -78.44)"/><path class="cls-1" d="M336.89,436.69c.1.29.36.74.27.85-.41.42-.78.13-1.09-.24Z" transform="translate(-61.97 -78.44)"/><path class="cls-1" d="M338.14,438l.2.22c-.08.06-.17.17-.25.16s-.13-.14-.2-.21Z" transform="translate(-61.97 -78.44)"/><path class="cls-1" d="M233.27,293.93c-1.07,4.76-4,5.46-7.68,5.38-7.4-.17-14.81,0-22.21-.07-5.32,0-6.65-1.34-6.66-6.52q0-43.47,0-86.94c0-5.21,1.61-6.84,6.91-6.9q11.3-.12,22.59,0c5,.06,6.62,1.71,6.62,6.74q0,27.39,0,54.77V264c3.76-8.26,7.91-16.09,7.67-25.61-.47-19.14-.15-38.3-.13-57.45,0-6.64,1.49-8.11,8.08-8.13q10.16,0,20.3,0c6.21,0,7.75,1.53,7.75,7.62,0,10.85,0,21.7.06,32.55,0,1.15-1,3.13,1.26,3.32,2.13.18,4.5.35,5.6-2.18a12.32,12.32,0,0,0,.63-4.91q0-23.16,0-46.34c0-6.28,1.29-7.67,7.6-7.76q11.1-.17,22.21,0c4.88.1,6.31,1.68,6.32,6.59,0,16.72.09,33.44-.06,50.16,0,3.86,1.31,6,4.9,7.57,27.75,12.31,42.49,39.13,38.71,70-3.36,27.43-26.33,50.85-54.63,55.68-33,5.63-64.71-14.36-74.57-46.94C234.2,297.06,233.85,295.85,233.27,293.93ZM258,241.49c-15.55,15.09-20.07,40.91-10.71,61.28,9.91,21.59,32.76,35.12,55.64,32.94a56.08,56.08,0,0,0,28.41-100.87c-22.12-16.49-54.63-14-72.23,5.53Zm-35.73,7.81c0-12.11-.07-24.22.06-36.33,0-2.66-.72-3.64-3.42-3.42a44.76,44.76,0,0,1-8,0c-3.07-.3-3.84.82-3.82,3.82.12,21.29,0,42.58.11,63.86,0,3.76-1.72,8.69.85,11s7.32.37,11.11.7c2.58.22,3.2-.81,3.18-3.27C222.18,273.52,222.24,261.41,222.24,249.3ZM309.6,190c0-4.21.11-8.42,0-12.63-.13-3.77,1.69-8.75-.76-11s-7.31-.31-11.1-.67c-2.87-.28-3.32,1-3.29,3.51.12,11,0,21.94.09,32.91,0,3.65-1.68,8.47.77,10.63s7.31,1,11.1,1.33c2.5.22,3.34-.47,3.28-3C309.49,204.08,309.6,197.06,309.6,190Zm-58.82,42.88c4.14-3.06,7.42-5.68,10.9-8a10,10,0,0,0,4.77-9q-.07-14.91,0-29.83c0-1.89-.39-2.8-2.52-2.71-3.56.15-7.14.15-10.71,0-2.17-.1-2.51.91-2.49,2.74.07,7,0,14,0,21Z" transform="translate(-61.97 -78.44)"/><path class="cls-1" d="M153,260c0-10.72,0-21.44,0-32.16,0-5.5,1.31-6.94,6.62-7q11.49-.13,23,0c5.08.06,6.54,1.61,6.54,6.76q0,32.73,0,65.46c0,5.49-1.36,6.9-6.69,6.92q-11.47.06-23,0c-5.14,0-6.45-1.38-6.47-6.67C153,282.24,153,271.14,153,260Zm25.87.4c0-5.73.11-11.47,0-17.2-.1-3.89,1.75-9-.82-11.34s-7.54-.49-11.46-.66c-.26,0-.52,0-.77,0-1.84-.2-2.42.65-2.42,2.44q.07,26.37,0,52.74c0,2.17,1,2.52,2.81,2.47,3.18-.09,6.38-.18,9.55,0,2.56.17,3.25-.77,3.21-3.25C178.82,277.25,178.91,268.85,178.91,260.44Z" transform="translate(-61.97 -78.44)"/><path class="cls-1" d="M94.28,221.36q0,17.23,0,34.48a29.3,29.3,0,0,1-.26,5c-.48,2.77-2.22,4.19-5.1,4.12s-4.14-1.73-4.64-4.22a17,17,0,0,1-.19-3.43q0-36.4,0-72.8c0-.64,0-1.28,0-1.91.19-3.2,2-5,5.09-5.11s4.67,2.12,4.86,4.84c.32,4.57.2,9.18.21,13.78C94.3,204.5,94.28,212.93,94.28,221.36Z" transform="translate(-61.97 -78.44)"/><path class="cls-1" d="M84.07,163.56c0-5,2.14-7.77,5.31-7.54,3.54.26,5.33,3.47,4.8,8.55-.41,3.91-2.5,5.73-6,5.12C84.26,169,84.16,166,84.07,163.56Z" transform="translate(-61.97 -78.44)"/><path class="cls-1" d="M137.16,110a6.57,6.57,0,0,1-6.75,6.76,7,7,0,0,1-7-6.71,7.27,7.27,0,0,1,7.12-7A6.89,6.89,0,0,1,137.16,110Z" transform="translate(-61.97 -78.44)"/><path class="cls-1" d="M156,116.75a6.83,6.83,0,0,1-6.36-7.22,7,7,0,0,1,7.53-6.49,6.85,6.85,0,0,1,6,7.48A6.55,6.55,0,0,1,156,116.75Z" transform="translate(-61.97 -78.44)"/><path class="cls-1" d="M111,110.21a6.57,6.57,0,0,1-6.94,6.54,6.94,6.94,0,0,1-6.72-6.93,7.15,7.15,0,0,1,6.92-6.81A6.76,6.76,0,0,1,111,110.21Z" transform="translate(-61.97 -78.44)"/><path class="cls-1" d="M258.72,242.21l1.06-1.19c5.38-1.65,10.88-.91,16.32-.59,2.06.12,3.38,1.58,3.64,3.81a61.18,61.18,0,0,1,.06,14.12c-.4,3.51-2.82,4.48-6.62,3.1-4.93-1.8-5.27-1.68-7.82,3-11.46,20.85,3.74,49.49,27.42,51.74a48,48,0,0,0,12.16-.45c4.5-.72,7.06.46,7.59,3.57.6,3.51-1.15,5.52-5.75,6.61-24.94,5.9-51.33-12.41-54.82-37.84-1.77-12.92,1-24.54,8.8-35,1-1.39,1.67-2.28-.44-3.47C257.27,247.88,257.61,245,258.72,242.21Z" transform="translate(-61.97 -78.44)"/><path class="cls-1" d="M320.1,303.46c0-1.53,0-3.06,0-4.59.1-5.12,2.15-7,7-5.52,3.66,1.16,5-.12,6.12-3.27,7.8-21.15-9.13-46-31.66-46.41-2.55,0-5.1.13-7.65.17-4.34.07-6.38-1.34-6.69-4.59s1.59-5.46,6-5.85c17.72-1.56,32.44,4,43,18.77,11.18,15.65,11.78,32.08,3.28,49.06-.95,1.9-1.86,3.18.66,4.82,1.66,1.09,3.21,3.28,2.09,5.67a5.91,5.91,0,0,1-5.86,3.55c-3.31-.06-6.63.07-9.95,0-4.49-.17-6-1.82-6.23-6.4-.07-1.78,0-3.57,0-5.36Z" transform="translate(-61.97 -78.44)"/><path class="cls-1" d="M312.66,269.46c.07,3.07-.6,5.53-4,6.17s-5.33-1.23-6-4.33c-.39-1.7-1.58-2.54-2.72-3.53-1.53-1.33-2.77-.69-3.95.57s-1.62,2.55-.47,4.08a7.35,7.35,0,0,0,5.18,2.87c5.92.77,9.92,4,11.43,9.77s.7,11-4.12,14.95c-2.71,2.2-4.41,5.25-7,7.51-1.91,1.64-3.48,1.71-5.29-.07a60.11,60.11,0,0,1-11-15.52c-1.74-3.34-.42-6.17,2.86-7.43,2.84-1.1,5.11.13,6.48,3.51a11.36,11.36,0,0,0,.94,2.49c1.08,1.48,2.62,2.67,4.49,2.28a3,3,0,0,0,2.47-3.4c-.32-1.89-1.19-3.65-3.41-4.11-1.24-.26-2.52-.38-3.75-.7-9.34-2.41-13.79-13.26-8.41-21.27,2.53-3.77,5.92-7,9-10.34,1.33-1.45,3.15-2.16,4.77-.74,4.37,3.86,8.8,7.71,11.65,12.93A7.88,7.88,0,0,1,312.66,269.46Z" transform="translate(-61.97 -78.44)"/></svg>