<svg width="169" height="173" viewBox="0 0 169 173" fill="none" xmlns="http://www.w3.org/2000/svg">
<g clip-path="url(#clip0)">
<path d="M138.095 16.7864C141.828 18.0217 145.037 20.445 147.311 23.6057C149.557 26.747 150.885 30.6169 150.885 34.7929C150.885 37.8096 150.184 40.683 148.939 43.2408C147.835 45.4919 146.32 47.4837 144.476 49.1124V63.5268C144.476 64.9253 143.372 66.0555 142.006 66.0555H122.778C121.412 66.0555 120.308 64.925 120.308 63.5268V49.1124C118.465 47.4837 116.949 45.4919 115.854 43.2408C114.6 40.683 113.899 37.8096 113.899 34.7929C113.899 30.6169 115.227 26.7467 117.473 23.6057C119.775 20.3971 123.049 17.9545 126.848 16.7286C128.158 16.3167 129.543 17.0547 129.945 18.3957C130.02 18.6353 130.067 18.8941 130.067 19.1428V31.4218L132.397 32.4175L134.727 31.4218V19.1428C134.727 17.7443 135.831 16.614 137.197 16.614C137.515 16.6134 137.824 16.6708 138.095 16.7864ZM38.6805 91.2172H47.0176C49.0575 91.2172 50.9099 92.0697 52.2481 93.449C53.5954 94.8185 54.4282 96.7242 54.4282 98.8124C54.4282 100.901 53.5954 102.797 52.2481 104.176C50.9099 105.546 49.0575 106.398 47.0176 106.398H38.6805C36.6407 106.398 34.7883 105.546 33.4501 104.176C32.6177 103.324 31.9813 102.27 31.6162 101.102C29.7919 100.681 28.1448 99.7314 26.8631 98.4194C25.1041 96.6093 24.0092 94.119 24.0092 91.3798V88.6405H19.5647C17.5248 88.6405 15.6724 87.788 14.3343 86.4185C12.9866 85.0393 12.1541 83.1427 12.1541 81.0545V70.9401C12.1541 68.8519 12.9866 66.9553 14.3343 65.5761C15.6724 64.2066 17.5248 63.3541 19.5647 63.3541H24.1399C24.7202 57.7705 27.1902 52.7514 30.8768 48.9772C35.1154 44.6387 40.9535 41.9467 47.3913 41.9467C53.8285 41.9467 59.6669 44.6387 63.9054 48.9772C67.5921 52.7514 70.062 57.7701 70.6423 63.3541H75.2175C77.2574 63.3541 79.1102 64.2066 80.4575 65.5761C81.7953 66.9553 82.6281 68.8519 82.6281 70.9401V81.0545C82.6281 83.1427 81.7953 85.0393 80.4575 86.4185C79.1102 87.788 77.2574 88.6405 75.2175 88.6405H68.3031C66.9369 88.6405 65.8235 87.5099 65.8235 86.1117V65.8832C65.8235 60.7013 63.7463 55.9793 60.4059 52.5595C57.0656 49.1404 52.4623 47.0141 47.391 47.0141C42.3289 47.0141 37.7157 49.1404 34.3757 52.5595C31.0353 55.9793 28.9581 60.7013 28.9581 65.8832V86.1117V91.3801C28.9581 92.7212 29.5011 93.9467 30.3616 94.8374C30.792 95.2682 31.2973 95.6227 31.8492 95.8724C32.2235 94.9624 32.7662 94.1387 33.4495 93.449C34.7883 92.0697 36.6407 91.2172 38.6805 91.2172ZM47.0173 96.2843H38.6802C38.0065 96.2843 37.3982 96.5715 36.9493 97.0313C36.5004 97.4905 36.2195 98.1227 36.2195 98.8127C36.2195 99.5023 36.5004 100.135 36.9493 100.585C37.3982 101.044 38.0065 101.332 38.6802 101.332H47.0173C47.691 101.332 48.299 101.044 48.7482 100.585C49.1972 100.135 49.4781 99.5023 49.4781 98.8127C49.4781 98.1231 49.1972 97.4909 48.7482 97.0313C48.299 96.5715 47.691 96.2843 47.0173 96.2843ZM24.0092 68.4215H19.5647C18.891 68.4215 18.283 68.6985 17.8338 69.1587C17.3849 69.6186 17.104 70.2508 17.104 70.9404V81.0548C17.104 81.7445 17.3846 82.3767 17.8338 82.8267C18.283 83.2866 18.891 83.5738 19.5647 83.5738H24.0092V68.4215ZM75.2182 68.4215H70.774V83.5738H75.2182C75.8919 83.5738 76.5095 83.2866 76.9491 82.8267C77.3984 82.3767 77.6789 81.7445 77.6789 81.0548V70.9404C77.6789 70.2508 77.3984 69.6186 76.9491 69.1587C76.5095 68.6985 75.8919 68.4215 75.2182 68.4215ZM98.254 105.853C96.8878 105.853 95.784 104.713 95.784 103.314C95.784 101.916 96.8882 100.776 98.254 100.776H155.293C156.659 100.776 157.762 101.916 157.762 103.314C157.762 104.713 156.659 105.853 155.293 105.853H98.254ZM98.254 96.0065C96.8878 96.0065 95.784 94.8759 95.784 93.4777C95.784 92.0795 96.8882 90.9395 98.254 90.9395H119.4C120.776 90.9395 121.88 92.0792 121.88 93.4777C121.88 94.8763 120.776 96.0065 119.4 96.0065H98.254ZM100.734 45.4337C100.734 46.8323 99.6298 47.9727 98.254 47.9727C96.8878 47.9727 95.784 46.8323 95.784 45.4337V34.505H10.4886C8.9636 34.505 7.58817 35.1372 6.57747 36.1722C5.57634 37.197 4.94919 38.6148 4.94919 40.166V70.2599C4.94919 71.6584 3.84508 72.7887 2.47922 72.7887C1.11335 72.7887 0 71.6584 0 70.2603V40.1664C0 37.2166 1.17904 34.5344 3.07831 32.5902C4.97758 30.6453 7.59741 29.439 10.4886 29.439H95.7837V15.4166C95.7837 12.9067 96.7848 10.6368 98.3943 8.98954C100.004 7.34233 102.222 6.3175 104.663 6.3175H160.121C162.563 6.3175 164.79 7.34233 166.399 8.98954C168.008 10.6364 169 12.9064 169 15.4162V67.2527V116.589V126.436C169 129.386 167.821 132.069 165.922 134.013C164.022 135.957 161.403 137.164 158.521 137.164H101.735L107.676 151.78H117.857C119.232 151.78 120.336 152.91 120.336 154.309V164.155C120.336 165.554 119.232 166.683 117.857 166.683H51.2747C49.8992 166.683 48.7951 165.553 48.7951 164.155V154.309C48.7951 152.91 49.8992 151.78 51.2747 151.78H61.4546L67.396 137.164H10.4886C7.59741 137.164 4.97758 135.957 3.07831 134.013C1.17904 132.069 0 129.386 0 126.436V116.589V81.735C0 80.3365 1.11335 79.2062 2.47955 79.2062C3.84574 79.2062 4.94952 80.3368 4.94952 81.735V114.061H164.05V75.4036C162.862 76.0074 161.533 76.3521 160.121 76.3521H144.953L134.483 93.2098C133.754 94.3978 132.219 94.7421 131.068 93.995C130.741 93.7845 130.47 93.4967 130.282 93.1807L119.831 76.3521H104.664C102.222 76.3521 100.004 75.3273 98.3946 73.68C96.7852 72.0328 95.784 69.7619 95.784 67.253V56.9183C95.784 55.5107 96.8882 54.3801 98.254 54.3801C99.6298 54.3801 100.734 55.5107 100.734 56.9183V67.253C100.734 68.3643 101.174 69.3696 101.894 70.0974C102.605 70.8252 103.588 71.2854 104.664 71.2854H121.188C122.011 71.2854 122.807 71.6973 123.274 72.464L132.397 87.1372L141.455 72.5596C141.876 71.7933 142.681 71.2854 143.597 71.2854H160.121C161.197 71.2854 162.179 70.8255 162.89 70.0974C163.611 69.3696 164.05 68.3643 164.05 67.253V15.4162C164.05 14.3056 163.611 13.299 162.89 12.5712C162.179 11.8434 161.197 11.3832 160.121 11.3832H104.664C103.588 11.3832 102.605 11.843 101.894 12.5712C101.174 13.299 100.734 14.3056 100.734 15.4162V45.4337H100.734ZM164.05 119.128H4.94952V126.436C4.94952 127.988 5.57634 129.406 6.5778 130.43C7.5885 131.464 8.96393 132.097 10.4889 132.097H158.521C160.037 132.097 161.421 131.456 162.423 130.43C163.433 129.406 164.05 127.988 164.05 126.436V119.128H164.05ZM54.4652 128.15C53.099 128.15 51.9857 127.011 51.9857 125.612C51.9857 124.214 53.099 123.074 54.4652 123.074H65.3281C66.6943 123.074 67.798 124.214 67.798 125.612C67.798 127.011 66.6939 128.15 65.3281 128.15H54.4652ZM111.849 128.15C110.483 128.15 109.37 127.011 109.37 125.612C109.37 124.214 110.483 123.074 111.849 123.074H114.544C115.91 123.074 117.014 124.214 117.014 125.612C117.014 127.011 115.91 128.15 114.544 128.15H111.849ZM99.5456 128.15C98.1791 128.15 97.0657 127.011 97.0657 125.612C97.0657 124.214 98.1791 123.074 99.5456 123.074H102.24C103.607 123.074 104.71 124.214 104.71 125.612C104.71 127.011 103.606 128.15 102.24 128.15H99.5456ZM87.2416 128.15C85.8754 128.15 84.7621 127.011 84.7621 125.612C84.7621 124.214 85.8754 123.074 87.2416 123.074H89.9364C91.3026 123.074 92.4064 124.214 92.4064 125.612C92.4064 127.011 91.3023 128.15 89.9364 128.15H87.2416ZM74.9376 128.15C73.5714 128.15 72.4581 127.011 72.4581 125.612C72.4581 124.214 73.5714 123.074 74.9376 123.074H77.6321C78.9983 123.074 80.102 124.214 80.102 125.612C80.102 127.011 78.9979 128.15 77.6321 128.15H74.9376ZM90.1701 156.846C88.8039 156.846 87.7001 155.716 87.7001 154.308C87.7001 152.91 88.8042 151.779 90.1701 151.779H102.325L96.3736 137.164H72.7575L66.8065 151.779H78.961C80.3271 151.779 81.4309 152.91 81.4309 154.308C81.4309 155.716 80.3268 156.846 78.961 156.846H53.7446V161.616H115.386V156.846H90.1701ZM129.917 60.9885V47.9145C129.917 46.516 131.022 45.3763 132.397 45.3763C133.763 45.3763 134.867 46.516 134.867 47.9145V60.9885H139.527V47.9145H139.536C139.536 47.1482 139.882 46.392 140.527 45.894C142.202 44.6012 143.578 42.9249 144.523 40.9898C145.43 39.1412 145.935 37.0341 145.935 34.7929C145.935 31.7181 144.972 28.8832 143.325 26.5936C142.333 25.2144 141.089 24.0172 139.676 23.088V33.1065C139.676 34.0931 139.105 35.0321 138.16 35.4342L133.351 37.5031C132.761 37.7619 132.069 37.7809 131.433 37.5031L126.699 35.4724C125.772 35.1088 125.108 34.1796 125.108 33.1065V23.088C123.695 24.0172 122.45 25.2144 121.459 26.5936C119.821 28.8829 118.848 31.7181 118.848 34.7929C118.848 37.0341 119.353 39.1412 120.261 40.9898C121.178 42.8573 122.497 44.4954 124.097 45.7693C124.799 46.22 125.257 47.0147 125.257 47.9149V60.9889H129.917V60.9885Z" fill="black"/>
</g>
<defs>
<clipPath id="clip0">
<rect width="169" height="173" fill="white"/>
</clipPath>
</defs>
</svg>
