<svg id="Capa_1" data-name="Capa 1" xmlns="http://www.w3.org/2000/svg" viewBox="0 0 351.37 441.01"><title>valores</title><path d="M432.9,40c3.32,2.17,4.31,5.23,4.29,9.15-.13,24.11-.06,48.21-.07,72.31,0,6.91-2.09,9-9,9q-36.37,0-72.74,0c-6.71,0-8.71-2-8.71-8.71,0-24.39.06-48.78-.07-73.17,0-3.86,1.14-6.65,4.46-8.55Zm-8.7,45.2c0-9.46-.09-18.92.06-28.38.05-2.82-.47-4-3.68-4-19.21.15-38.42.12-57.63,0-2.61,0-3.42.66-3.4,3.35q.17,29,0,58.06c0,2.74.89,3.31,3.44,3.3q28.81-.15,57.63,0c2.76,0,3.71-.68,3.66-3.56C424.1,104.41,424.2,94.81,424.2,85.2Z" transform="translate(-85.82 -40)"/><path d="M111.24,325.18c-6.8,1.73-13.09.69-18.52-3.93a18.76,18.76,0,0,1-6.81-14.78c0-35.16-.21-70.33.07-105.5.15-17.92,14.44-31.66,32.43-31.73q45.43-.19,90.87,0c17.75.09,32,13.74,32.19,31.51.34,35.46.23,70.91.05,106.37a18.72,18.72,0,0,1-22,18.56c-3.81-.61-3.82.68-3.81,3.54q.09,51,0,102.06c0,13.08-9,23.05-21.24,23.83-13.39.84-24.25-9.47-24.28-23.32-.07-33.45,0-66.89,0-100.34,0-5.17-.1-10.34,0-15.5.06-2.22-.6-2.9-2.89-3-10.07-.33-10.07-.42-10.07,9.52q0,54.69,0,109.38c0,9.63-4.38,16.89-13.11,21-8.58,4.07-16.83,2.82-24.17-3.12-6-4.84-8.28-11.44-8.27-19q.06-50.16,0-100.33C111.7,328.72,112.06,327,111.24,325.18Zm91.6-8.36q0-56,0-112a28,28,0,0,1,.11-4.3,6,6,0,0,1,5.79-5.42c3-.27,5.19,1.21,6.43,4,.73,1.65.57,3.38.58,5.09q0,26.91,0,53.83c0,16.08,0,32.16,0,48.23,0,4.18,2.44,6.62,6.24,6.7s6.32-2.38,6.63-6.41c.06-.86,0-1.72,0-2.58q0-50.17,0-100.35c0-13.73-7.9-21.55-21.69-21.56H120.85c-14.37,0-22,7.68-22,22.06q0,49.53,0,99.06a18.86,18.86,0,0,0,.4,5.11,5.89,5.89,0,0,0,6.44,4.6c3.41-.23,5.51-2.24,6-5.69a29.34,29.34,0,0,0,.09-3.87q0-30.15,0-60.3c0-6.12,2.22-9.26,6.5-9.26s6.4,3.08,6.41,9.27c0,1.43,0,2.87,0,4.3q0,90.66,0,181.31a33.85,33.85,0,0,0,.13,4.73,9.8,9.8,0,0,0,19.54-.6c.11-1.42.05-2.87.05-4.3q0-59.87,0-119.73c0-6.62,2.09-8.67,8.78-8.69h20.68c7.45,0,9.3,1.89,9.3,9.48V428.88c0,1.3-.06,2.59,0,3.88a9.8,9.8,0,0,0,19.53.76,33.84,33.84,0,0,0,.15-4.73Z" transform="translate(-85.82 -40)"/><path d="M254.52,260.42V88.19c0-15,7.4-22.35,22.52-22.35,11.91,0,23.83,0,35.74,0,12.08,0,20.88,8.13,21,19.25s-8.82,19.46-21.16,19.5c-5.45,0-10.91.09-16.36,0-2.2,0-3,.57-3,2.88q.11,36.17,0,72.34c0,2.63,1.14,3.06,3.37,3,5.74-.1,11.49-.11,17.22,0,11.25.18,19.69,8.24,19.92,18.93s-8,19.2-19.21,19.73c-6,.28-12.06.16-18.08,0-2.39,0-3.22.66-3.22,3.14q.13,36,0,71.91c0,2.7,1.19,3,3.37,3,6-.08,12.07-.23,18.08.06,11.13.53,19.38,9.29,19.06,19.86S325.1,338,314.1,338.21c-5.16.11-10.36.33-15.49-.07-4.37-.35-5.49,1-5.44,5.39.24,23,.18,45.93,0,68.89,0,3.2.76,4.22,4,4.06,5.72-.28,11.47-.17,17.21-.05a19.35,19.35,0,0,1-.1,38.69c-13.06.14-26.12.07-39.18,0-12.65,0-20.63-8-20.64-20.78Q254.5,347.4,254.52,260.42Zm12.92.11q0,86.31,0,172.62c0,7.23,1.88,9.08,9.2,9.09,12.05,0,24.11,0,36.16,0,5,0,8-2.54,8-6.48s-3.05-6.4-8-6.42c-7.89,0-15.79,0-23.68,0-6.71,0-8.71-2-8.71-8.7q0-43.28,0-86.53c0-6.7,2-8.72,8.73-8.76,8,0,16.07,0,24.1,0,2.22,0,4.32-.28,5.85-2.12a6,6,0,0,0,1.3-6.38c-1.2-3.1-3.62-4.37-6.73-4.39-8.32-.06-16.65,0-25-.05-6.21,0-8.28-2.07-8.28-8.22q0-43.7,0-87.39c0-6.11,2.08-8.12,8.34-8.16,8,0,16.07,0,24.11,0,4.93-.05,8-2.67,8-6.55s-3-6.3-8.08-6.33c-8.18,0-16.36.05-24.54,0-5.58-.07-7.79-2.35-7.79-7.94q0-44.13,0-88.25c0-5.55,2.28-7.75,7.9-7.78,8.18,0,16.36,0,24.54,0,5,0,8-2.54,8-6.49s-3.05-6.4-8.05-6.41c-11.91,0-23.82,0-35.73,0-7.88,0-9.58,1.69-9.58,9.57Z" transform="translate(-85.82 -40)"/><path d="M346.69,435.69c0-12.34,0-24.68,0-37,0-5.88,2.18-8.09,8-8.1q37.23,0,74.47,0c5.51,0,7.91,2.35,7.92,7.85q.07,37.44,0,74.89c0,5.26-2.45,7.66-7.67,7.67q-37.67.06-75.33,0c-5,0-7.37-2.37-7.39-7.4C346.65,460.94,346.69,448.31,346.69,435.69Zm77.51.52c0-9.61-.09-19.21.06-28.81,0-2.8-.43-4-3.67-4-19.2.16-38.41.13-57.62,0-2.59,0-3.44.61-3.43,3.32q.18,29,0,58.06c0,2.71.84,3.34,3.43,3.32,19.2-.1,38.42-.13,57.62,0,3.24,0,3.71-1.19,3.67-4C424.11,454.85,424.2,445.53,424.2,436.21Z" transform="translate(-85.82 -40)"/><path d="M392,156.93c12.33,0,24.67,0,37,0,5.87,0,8.14,2.22,8.15,8q0,37,0,74c0,6-2.3,8.36-8.35,8.37q-37,.07-74,0c-5.88,0-8-2.26-8-8.13q0-37.23,0-74.45c0-5.62,2.16-7.79,7.8-7.82C367,156.89,379.47,156.93,392,156.93Zm-.4,12.92c-9.47,0-18.93.09-28.4-.06-2.83,0-3.62.83-3.6,3.63q.17,28.83,0,57.65c0,2.63.79,3.44,3.42,3.42q29-.13,58.08,0c2.43,0,3.21-.78,3.2-3.21q-.12-29,0-58.08c0-2.69-.89-3.42-3.46-3.39C411.05,169.92,401.3,169.85,391.55,169.85Z" transform="translate(-85.82 -40)"/><path d="M346.68,319.08c0-12.48,0-25,0-37.44,0-5.63,2.19-8,7.75-8q37.44-.09,74.88,0c5.44,0,7.77,2.49,7.77,8.06q.06,37.23,0,74.46c0,5.56-2.29,7.85-7.85,7.86q-37.44.06-74.89,0c-5.54,0-7.65-2.25-7.66-8C346.66,343.76,346.68,331.42,346.68,319.08ZM392,286.56c-9.61,0-19.22.05-28.82,0-2.37,0-3.65.29-3.64,3.2q.18,29.25,0,58.51c0,2.25.71,3,2.94,3q29.26-.1,58.52,0c2.39,0,3.23-.69,3.22-3.17q-.13-29,0-58.08c0-2.64-.79-3.47-3.42-3.43C411.22,286.63,401.61,286.56,392,286.56Z" transform="translate(-85.82 -40)"/><path d="M118.34,111.24a45.19,45.19,0,1,1,90.37-.37c.21,24.69-20.27,45.31-45.07,45.4A45.16,45.16,0,0,1,118.34,111.24Zm44.92-32.47a32.29,32.29,0,1,0,32.53,32.09A32.19,32.19,0,0,0,163.26,78.77Z" transform="translate(-85.82 -40)"/><path d="M124.6,207.85c0,2.29.13,4.59,0,6.87-.27,3.67-2.43,5.84-6,6.06s-6.28-1.9-6.58-5.43a80.71,80.71,0,0,1,.05-15c.36-3.52,3.08-5.53,6.74-5.22a5.93,5.93,0,0,1,5.8,5.84c.19,2.27,0,4.57,0,6.87Z" transform="translate(-85.82 -40)"/></svg>