<svg id="Capa_1" data-name="Capa 1" xmlns="http://www.w3.org/2000/svg" viewBox="0 0 399.21 399.07"><title>vision</title><path d="M460.37,226.59c-.41,30.16-12.45,58.6-33.95,83.13-28.2,32.16-64.37,50.9-105.3,61.29a241.34,241.34,0,0,1-50.46,7c-2.79.1-3.6.94-3.51,3.71.2,6.7.16,13.41,0,20.11-.05,2.12.64,3,2.64,3.6,11.06,3.38,18.35,10.69,21.76,21.74.61,2,1.41,2.83,3.58,2.67,2.8-.2,5.63,0,8.44-.07,1.78-.08,2.46.63,2.25,2.34a2.71,2.71,0,0,0,0,.4c.44,10.12.44,10.25-9.7,10.08-2.94-.05-4,.93-4.89,3.65a32,32,0,0,1-61-.09c-.89-2.84-2.14-3.59-5-3.55-9.87.14-9.76,0-9.67-9.78,0-2.58.86-3.41,3.22-3,6.89,1.13,11.07-.6,13.64-8.22,2.8-8.27,10.07-13.42,18.58-15.9,2.84-.82,3.39-2.13,3.31-4.75-.17-6-.24-12.07,0-18.09.14-3.42-.58-4.76-4.42-4.92-30.27-1.24-59.48-7.42-87.25-19.71-32.78-14.51-60.69-35.15-80.49-65.58-29.6-45.45-27.82-100.52,4.39-144.19,21.49-29.14,50-48.89,83.31-62.11,34.54-13.73,70.48-18.82,107.54-16.41,39.2,2.55,75.89,13.19,109.24,34.2,28.08,17.68,50.34,40.72,63.65,71.59C457,191.05,460.28,207.1,460.37,226.59ZM268.47,82.24c-35.12-.42-66.13,4.64-95.8,16.81S117,128.64,97.92,154.83C73.24,188.64,66.79,225.49,82.26,265c10.82,27.65,30.4,48.35,54.74,64.67C166.65,349.53,199.59,360.21,235,364c34.63,3.7,68.54.4,101.52-10.78,34.62-11.74,64.84-30.29,86.91-60.1,23.23-31.37,30.58-66,18.39-103.7-9.08-28-27.23-49.61-50.67-66.81C353.73,95.17,311.14,83.59,268.47,82.24Zm11.6,354.14a19.29,19.29,0,1,0-19.21,19.17A19.38,19.38,0,0,0,280.07,436.38Z" transform="translate(-61.16 -69.36)"/><path d="M125.59,436.22c0,6.47,0,6.47-6.53,6.47a12.24,12.24,0,0,1-2,0c-3.67-.62-5.46.73-7,4.39-4.71,11.13-17,16.91-28.82,14.25a25.69,25.69,0,0,1,.34-50.2c11.6-2.54,23.8,3.3,28.47,14.28,1.53,3.62,3.27,5.07,7,4.44a12.12,12.12,0,0,1,2,0C125.59,429.81,125.59,429.81,125.59,436.22ZM86.94,449.11a12.86,12.86,0,1,0-12.83-12.79A13,13,0,0,0,86.94,449.11Z" transform="translate(-61.16 -69.36)"/><path d="M396,436.3c0-6.49,0-6.49,6.51-6.49a12.24,12.24,0,0,1,2,0c3.66.61,5.47-.69,7-4.38,4.61-11,16.86-16.88,28.44-14.34a25.65,25.65,0,0,1,.56,50.09c-11.94,2.68-24.21-3-28.94-14.06-1.64-3.86-3.64-5-7.37-4.47a13.47,13.47,0,0,1-2,0C396,442.69,396,442.69,396,436.3Zm51.48,0a12.86,12.86,0,1,0-12.83,12.78A12.9,12.9,0,0,0,447.44,436.33Z" transform="translate(-61.16 -69.36)"/><path d="M151.34,436.11c0,6.58,0,6.58-7.61,6.58-5.27,0-5.27,0-5.27-7.71,0-5.18,0-5.18,8.21-5.17C151.34,429.82,151.34,429.82,151.34,436.11Z" transform="translate(-61.16 -69.36)"/><path d="M170.61,429.81c6.48,0,6.48,0,6.48,7.71,0,5.17,0,5.17-7.81,5.17-5.07,0-5.07,0-5.07-7.91C164.21,429.81,164.21,429.81,170.61,429.81Z" transform="translate(-61.16 -69.36)"/><path d="M190,435.92c0-6.11,0-6.11,6.06-6.11,6.82,0,6.82,0,6.82,7a16,16,0,0,0,0,2.4c.43,2.78-.62,4-3.47,3.53a18.81,18.81,0,0,0-2.81,0C190,442.69,190,442.69,190,435.92Z" transform="translate(-61.16 -69.36)"/><path d="M331.59,436.55c0,6.14,0,6.14-6,6.14-6.84,0-6.84,0-6.84-6.94a9.49,9.49,0,0,0,0-1.6c-.58-3.42.59-5.06,4.24-4.36a10.37,10.37,0,0,0,2,0C331.59,429.81,331.59,429.81,331.59,436.55Z" transform="translate(-61.16 -69.36)"/><path d="M350.54,442.69c-6.08,0-6.08,0-6.08-6.1,0-6.78,0-6.78,6.6-6.78a18.67,18.67,0,0,0,2.8,0c2.83-.43,3.93.71,3.49,3.51a16.15,16.15,0,0,0,0,2.41C357.34,442.69,357.34,442.69,350.54,442.69Z" transform="translate(-61.16 -69.36)"/><path d="M376.78,442.69c-6.57,0-6.57,0-6.57-7.61,0-5.27,0-5.27,7.71-5.27,5.17,0,5.17,0,5.17,8.21C383.08,442.69,383.08,442.69,376.78,442.69Z" transform="translate(-61.16 -69.36)"/><path d="M258.9,314c-41.8-.71-80.13-14.95-112.9-43.7-8.06-7.07-15.93-14.36-23.84-21.6-3.82-3.5-4.22-7.26-.71-10.4,15-13.4,29-27.92,46.15-38.7,35.11-22,73.23-30.84,114.41-25.87,36.23,4.38,67.77,19.13,94.9,43.42q10.93,9.8,21.75,19.72c5,4.57,5.11,7.95.14,12.37-14.7,13.09-28.53,27.2-45.34,37.78C325.05,304.87,294.07,313.7,258.9,314ZM263,185.14c-28,.22-52.28,6.11-75.32,17.68-19.34,9.71-35,24.15-50.67,38.58-1.84,1.69-1.07,2.47.32,3.7,5.1,4.55,10,9.34,15.2,13.77q79.17,67.42,175.22,27.47C350,277,367.5,260.8,384.87,244.57c1.86-1.74.41-2.44-.63-3.4-4.95-4.51-9.9-9-14.87-13.54C338.56,199.73,302.3,185.73,263,185.14Z" transform="translate(-61.16 -69.36)"/><path d="M267.21,130.75c0,4.29.13,8.58,0,12.86-.1,2.36.53,3.37,3,3.44a167,167,0,0,1,29.48,3.64c2.32.48,3-.52,3.75-2.36,2.65-6.87,5.49-13.66,8.09-20.54.84-2.21,1.68-2.8,4.07-1.88,9.2,3.52,9.23,3.43,5.58,12.62-1.73,4.35-3.42,8.73-5.23,13.05-.74,1.76-.89,2.79,1.44,3.46a188.86,188.86,0,0,1,36.05,14.54c1.79.95,2.58.26,3.57-1.08,4.14-5.61,8.42-11.11,12.5-16.76,1.48-2.05,2.51-2.37,4.69-.7,7.64,5.82,7.71,5.72,2,13.34-2.58,3.43-5.05,6.94-7.76,10.26-1.45,1.78-1.34,2.72.64,4,12,7.65,22.95,16.74,34.48,25,2.3,1.65,2.42,2.76.72,5-5.68,7.45-5.59,7.53-13.06,1.92-15.22-11.41-30-23.61-47.4-31.6Q240.3,131.51,147.55,197.74c-7.53,5.37-14.86,11-22.19,16.65-1.77,1.36-2.64,1.33-4.08-.54-6.11-7.95-6.22-7.94,1.86-13.92,9.69-7.17,19-14.85,29.3-21.21,2.31-1.43,2-2.46.56-4.29-3.89-5-7.52-10.11-11.42-15.05-1.48-1.88-1.52-2.83.55-4.38,7.87-5.93,7.8-6,13.67,1.81,2.89,3.86,5.84,7.68,8.66,11.6,1.07,1.49,1.93,2.15,3.87,1.12A182,182,0,0,1,204,155.15c2.41-.68,2.38-1.76,1.55-3.76-2.64-6.3-5-12.71-7.66-19-.89-2.12-.51-2.92,1.61-3.83,9.22-3.95,9.18-4,12.93,5.36,1.89,4.73,3.87,9.42,5.63,14.19.76,2.07,1.69,3,4.07,2.51A177.21,177.21,0,0,1,251.64,147c2.37-.1,2.76-1.19,2.74-3.27-.1-8.58.05-17.17-.1-25.75,0-2.62.4-3.73,3.41-3.71,9.52.07,9.52-.07,9.52,9.62Z" transform="translate(-61.16 -69.36)"/><path d="M209.28,243a51.55,51.55,0,0,1,52-51.32c28.2.1,51.12,23.4,51,51.86-.1,28.16-23.52,51.3-51.78,51.13A51.58,51.58,0,0,1,209.28,243Zm40-36.35c-14.49,3.44-27.16,19.8-27.09,34.56,0,1.77.13,2.47,2.37,2.29,22-1.8,38,14.07,35.87,35.78-.31,3.18,1.34,2.57,2.95,2.43a38.37,38.37,0,0,0,25.77-12.44,34.92,34.92,0,0,0,8.29-14.5C266.26,262.12,241.87,235.58,249.28,206.6Zm36.92,36.52a28,28,0,0,0,10.55-2.18c2-.78,2.42-1.83,2.11-4-2.3-15.85-15.63-29.28-31.52-31.91-2.82-.46-3.82.55-4.74,2.79C255.86,224.4,268.29,243,286.2,243.12Zm-38.32,31.77A19.23,19.23,0,0,0,228.54,256c-3.15,0-4.13.72-2.52,3.87a39.34,39.34,0,0,0,17.74,17.84C247.44,279.55,247.91,279.19,247.88,274.89Z" transform="translate(-61.16 -69.36)"/></svg>