<svg width="170" height="157" viewBox="0 0 170 157" fill="none" xmlns="http://www.w3.org/2000/svg">
<path d="M96.5653 112.113C102.385 108.61 106.25 102.553 106.25 95.6719C106.25 84.8511 96.7167 76.0469 85 76.0469C73.2833 76.0469 63.75 84.8511 63.75 95.6719C63.75 102.553 67.6148 108.61 73.4347 112.113C58.5783 116.617 47.8125 129.527 47.8125 144.734V154.547H122.188V144.734C122.188 129.527 111.422 116.617 96.5653 112.113ZM99.8378 139.828L89.2128 149.641H88.6762L99.7555 118.665C101.657 119.587 103.45 120.672 105.103 121.915L103.833 128.558L94.1136 134.542L99.8378 139.828ZM66.1698 128.556L64.9002 121.913C66.5523 120.669 68.3453 119.585 70.2472 118.663L81.3264 149.641H80.7898L70.1648 139.828L75.8917 134.542L66.1698 128.556ZM69.0625 95.6719C69.0625 87.5545 76.2105 80.9531 85 80.9531C93.7895 80.9531 100.938 87.5545 100.938 95.6719C100.938 103.789 93.7895 110.391 85 110.391C76.2105 110.391 69.0625 103.789 69.0625 95.6719ZM94.8441 116.749L85 144.271L75.1586 116.749C78.2611 115.817 81.5655 115.297 85 115.297C88.4372 115.297 91.7389 115.817 94.8441 116.749ZM53.125 144.734C53.125 137.689 55.8264 131.218 60.3128 126.145L61.3302 131.475L67.5484 135.305L62.6503 139.828L73.2753 149.641H53.125V144.734ZM116.875 149.641H96.7247L107.35 139.828L102.452 135.302L108.67 131.473L109.687 126.142C114.174 131.218 116.875 137.689 116.875 144.734V149.641Z" fill="black"/>
<path d="M71.7187 71.1406H98.2812V41.7031H111.215L85 5.38951L58.7855 41.7031H71.7187V71.1406ZM68.7145 36.7969L85 14.2355L101.285 36.7969H92.9687V66.2344H77.0312V36.7969H68.7145Z" fill="black"/>
<path d="M7.23828 36.1223L16.3997 78.4313L25.4017 70.1177L47.9958 91.8156L67.5405 73.7655L44.0459 52.8992L53.048 44.5855L7.23828 36.1223ZM59.9569 73.8342L48.0728 84.8094L25.4788 63.1115L19.6642 68.479L14.0117 42.3777L42.2769 47.598L36.465 52.9679L59.9569 73.8342Z" fill="black"/>
<path d="M102.457 73.7655L122.002 91.8156L144.596 70.1177L153.598 78.4313L162.759 36.1223L116.947 44.5831L125.949 52.8967L102.457 73.7655ZM155.988 42.3777L150.336 68.4814L144.521 63.114L121.927 84.8119L110.043 73.8366L133.538 52.9703L127.726 47.6004L155.988 42.3777Z" fill="black"/>
<path d="M10.625 17.1719C15.0184 17.1719 18.5938 13.87 18.5938 9.8125C18.5938 5.75503 15.0184 2.45312 10.625 2.45312C6.23156 2.45312 2.65625 5.75503 2.65625 9.8125C2.65625 13.87 6.23156 17.1719 10.625 17.1719ZM10.625 7.35938C12.0886 7.35938 13.2812 8.46083 13.2812 9.8125C13.2812 11.1642 12.0886 12.2656 10.625 12.2656C9.16141 12.2656 7.96875 11.1642 7.96875 9.8125C7.96875 8.46083 9.16141 7.35938 10.625 7.35938Z" fill="black"/>
<path d="M31.7338 32.7837L35.4903 29.3145L39.059 32.6102L35.3025 36.0795L31.7338 32.7837Z" fill="black"/>
<path d="M16.7123 18.9062L20.4688 15.437L24.2253 18.9062L20.4688 22.3755L16.7123 18.9062Z" fill="black"/>
<path d="M24.2247 25.8461L27.9813 22.3769L31.7378 25.8461L27.9813 29.3154L24.2247 25.8461Z" fill="black"/>
<path d="M10.625 139.828C6.23156 139.828 2.65625 143.13 2.65625 147.188C2.65625 151.245 6.23156 154.547 10.625 154.547C15.0184 154.547 18.5938 151.245 18.5938 147.188C18.5938 143.13 15.0184 139.828 10.625 139.828ZM10.625 149.641C9.16141 149.641 7.96875 148.539 7.96875 147.188C7.96875 145.836 9.16141 144.734 10.625 144.734C12.0886 144.734 13.2812 145.836 13.2812 147.188C13.2812 148.539 12.0886 149.641 10.625 149.641Z" fill="black"/>
<path d="M31.7237 124.207L35.2924 120.911L39.0489 124.38L35.4802 127.676L31.7237 124.207Z" fill="black"/>
<path d="M16.6972 138.082L20.4537 134.613L24.2102 138.082L20.4537 141.551L16.6972 138.082Z" fill="black"/>
<path d="M24.2117 131.142L27.9682 127.673L31.7247 131.142L27.9682 134.611L24.2117 131.142Z" fill="black"/>
<path d="M159.375 139.828C154.982 139.828 151.406 143.13 151.406 147.188C151.406 151.245 154.982 154.547 159.375 154.547C163.768 154.547 167.344 151.245 167.344 147.188C167.344 143.13 163.768 139.828 159.375 139.828ZM159.375 149.641C157.911 149.641 156.719 148.539 156.719 147.188C156.719 145.836 157.911 144.734 159.375 144.734C160.839 144.734 162.031 145.836 162.031 147.188C162.031 148.539 160.839 149.641 159.375 149.641Z" fill="black"/>
<path d="M145.741 138.094L149.498 134.625L153.254 138.094L149.498 141.563L145.741 138.094Z" fill="black"/>
<path d="M130.907 124.391L134.663 120.922L138.232 124.218L134.475 127.687L130.907 124.391Z" fill="black"/>
<path d="M138.226 131.154L141.983 127.685L145.739 131.154L141.983 134.623L138.226 131.154Z" fill="black"/>
<path d="M159.375 17.1719C163.768 17.1719 167.344 13.87 167.344 9.8125C167.344 5.75503 163.768 2.45312 159.375 2.45312C154.982 2.45312 151.406 5.75503 151.406 9.8125C151.406 13.87 154.982 17.1719 159.375 17.1719ZM159.375 7.35938C160.839 7.35938 162.031 8.46083 162.031 9.8125C162.031 11.1642 160.839 12.2656 159.375 12.2656C157.911 12.2656 156.719 11.1642 156.719 9.8125C156.719 8.46083 157.911 7.35938 159.375 7.35938Z" fill="black"/>
<path d="M138.242 25.8582L141.998 22.3889L145.755 25.8582L141.998 29.3274L138.242 25.8582Z" fill="black"/>
<path d="M145.754 18.9202L149.51 15.451L153.267 18.9202L149.51 22.3895L145.754 18.9202Z" fill="black"/>
<path d="M130.917 32.6178L134.486 29.322L138.242 32.7913L134.673 36.0871L130.917 32.6178Z" fill="black"/>
<path d="M159.375 93.2188C154.982 93.2188 151.406 96.5207 151.406 100.578C151.406 104.636 154.982 107.938 159.375 107.938C163.768 107.938 167.344 104.636 167.344 100.578C167.344 96.5207 163.768 93.2188 159.375 93.2188ZM159.375 103.031C157.911 103.031 156.719 101.93 156.719 100.578C156.719 99.2265 157.911 98.125 159.375 98.125C160.839 98.125 162.031 99.2265 162.031 100.578C162.031 101.93 160.839 103.031 159.375 103.031Z" fill="black"/>
<path d="M140.781 98.125H146.094V103.031H140.781V98.125Z" fill="black"/>
<path d="M119.531 98.125H124.844V103.031H119.531V98.125Z" fill="black"/>
<path d="M130.156 98.125H135.469V103.031H130.156V98.125Z" fill="black"/>
<path d="M10.625 107.938C15.0184 107.938 18.5938 104.636 18.5938 100.578C18.5938 96.5207 15.0184 93.2188 10.625 93.2188C6.23156 93.2188 2.65625 96.5207 2.65625 100.578C2.65625 104.636 6.23156 107.938 10.625 107.938ZM10.625 98.125C12.0886 98.125 13.2812 99.2265 13.2812 100.578C13.2812 101.93 12.0886 103.031 10.625 103.031C9.16141 103.031 7.96875 101.93 7.96875 100.578C7.96875 99.2265 9.16141 98.125 10.625 98.125Z" fill="black"/>
<path d="M34.5312 98.125H39.8438V103.031H34.5312V98.125Z" fill="black"/>
<path d="M23.9062 98.125H29.2188V103.031H23.9062V98.125Z" fill="black"/>
<path d="M45.1562 98.125H50.4688V103.031H45.1562V98.125Z" fill="black"/>
</svg>
