<svg id="Capa_1" data-name="Capa 1" xmlns="http://www.w3.org/2000/svg" viewBox="0 0 468.5 97.35"><defs><style>.cls-1,.cls-2{fill:#5b5b5f;}.cls-2{font-size:18.56px;font-family:MyriadPro-Regular, Myriad Pro;}.cls-3{fill:none;stroke:#5b5b5f;stroke-miterlimit:10;}</style></defs><title>12</title><path class="cls-1" d="M22,122c2.19-3.37,5.23-4.68,9.28-4.42a84,84,0,0,0,13,0c4.18-.38,4.94,1.35,4.83,5.08C48.83,130.8,49,139,49,147.12c0,6,2.79,8.81,8.86,8.85,7.66.06,15.32.13,23,0,2.88-.06,4.29.48,4.07,3.77-.28,4.32,0,8.66-.09,13-.14,4.94-2.78,7.92-7.72,8-15.82.16-31.64.06-47.47.06-3.51,0-5.8-2-7.65-4.72Z" transform="translate(-22 -117.51)"/><path class="cls-1" d="M136.11,147.46c7.71,4.82,10.64,11.49,8.76,19.87-1.54,6.92-7.13,11.67-15.39,12.87-7.61,1.11-15.28.23-22.92.51-2.17.07-2.88-.91-2.88-3q.06-28.46,0-56.91c0-2.56,1.19-3,3.36-3,6.32.08,12.65-.07,19,.06,7.86.16,13.72,3.8,15.81,9.93,2.43,7.13,1.08,13.42-4.82,18.47A6.47,6.47,0,0,0,136.11,147.46Zm-24,14.61c0,10.82,0,10.83,10.87,10.8a31.67,31.67,0,0,0,4.47-.12c5.45-.78,8.5-4.26,8.71-9.76.28-7.11-3.4-11-10.7-11.34C112.15,151.06,112.15,151.06,112.15,162.07Zm0-27.49c0,9.45,0,9.45,9.23,9.45,1.16,0,2.33,0,3.49,0,5.64-.18,9.18-3.92,9-9.58-.15-6.34-3.76-9-12.13-9.1C112.15,125.3,112.15,125.3,112.15,134.58Z" transform="translate(-22 -117.51)"/><path class="cls-1" d="M380.51,141.15c0-7.34.23-13.33-.09-19.3-.18-3.5,1.15-4.12,4.24-4,2.86.08,4.38.2,4.33,3.91-.23,18.14-.16,36.28,0,54.43,0,3-.4,4.45-4,4.34-3.1-.1-4.72-.63-4.09-4a18.09,18.09,0,0,0,0-2.58c-3.55,3.81-6.71,6.83-11.52,7.37C357,182.61,349,175.8,347.26,161.35c-1.6-13.62,5.56-28.34,22.18-26.55C373.58,135.24,376.88,137.13,380.51,141.15Zm-24.79,17.5a30.5,30.5,0,0,0,.43,4.54c1.12,4.73,3.48,8.77,8.3,10.34a11.35,11.35,0,0,0,11.6-2.43c6.58-5.91,6.21-21-.67-26.59a10.61,10.61,0,0,0-6.83-2.52C360.82,142,355.66,148.41,355.72,158.65Z" transform="translate(-22 -117.51)"/><path class="cls-1" d="M178.9,173.56c-5.13,6.59-10.68,9.18-17.79,7.6-6.25-1.38-10.47-5.65-11.11-11.24-.74-6.55,2.1-11.73,8.15-14.55,5.24-2.43,10.93-3,16.57-3,3.74,0,3.68-1.92,3-4.44-1.19-4.49-5.08-6.46-11.22-5.9a13.24,13.24,0,0,0-6.57,2.14c-3,2.17-4.25,1.22-5.86-1.7-1.88-3.41.6-4,2.53-5a27.22,27.22,0,0,1,13-3c10.56,0,16.91,6.25,17.19,17.16.21,8.33-.11,16.66.12,25,.09,3.32-1,4.24-4.23,4.26s-4.24-1-3.8-4A29.34,29.34,0,0,0,178.9,173.56Zm-7.12-14.51a23.4,23.4,0,0,0-8.32,1.8c-3.52,1.55-5.73,4-4.67,8.15a7.61,7.61,0,0,0,8.84,5.47c5.63-.91,8.49-4.8,10-9.87C179.08,159.77,178.29,158.9,171.78,159.05Z" transform="translate(-22 -117.51)"/><path class="cls-1" d="M277.12,159.17c-4,0-8,.23-12-.07-3.37-.26-3.49,1.38-3,3.84,1.62,8,10.54,13.05,19.09,10.59,1.88-.54,3.56-1.75,5.44-2.35,1.34-.44,2.76-3.89,4.31-.11.92,2.22,3.33,3.91-.52,6.32-10.76,6.72-25.13,5-32.43-4.44-7.57-9.77-6.4-25,2.53-33.13,5.94-5.38,16.32-6.84,23.31-3.26,6.41,3.27,10.72,11.83,10.18,19.74-.14,2.1-.76,3-2.94,2.9C286.44,159.09,281.78,159.17,277.12,159.17Zm-15-6.26c6.15,0,12,.08,17.77,0,1.7,0,4.12,1.06,5-.71s-.13-4.21-1.32-6.07a9.77,9.77,0,0,0-5.34-4.19C271,139.48,264.43,143.7,262.11,152.91Z" transform="translate(-22 -117.51)"/><path class="cls-1" d="M420.48,159.17c-4.5,0-9,.11-13.48,0-2.56-.09-3.05.72-2.52,3.19,2.31,10.65,13.66,15,24.12,9.23,1.67-.92,3.21-3.79,5.32.08,1.73,3.18,1,4.55-1.82,6.22-10.34,6-23.61,4.4-31-4.06S393.82,150.72,401,142c5.59-6.83,16.37-9.43,24.52-5.9,7.09,3.07,11.74,12.24,10.78,20.73-.23,2-1,2.42-2.8,2.39C429.13,159.11,424.8,159.17,420.48,159.17ZM405,152.91c6.83,0,13.64-.08,20.45,0,2.51.05,2.64-1,2.19-3-1.25-5.5-5.76-9.09-11.14-8.69C410.13,141.7,405.69,146.13,405,152.91Z" transform="translate(-22 -117.51)"/><path class="cls-1" d="M309,144.29c4.9-7.45,10.86-10.15,18.48-9.56,7,.56,12.11,4.75,12.45,11.81.52,10.46.32,21,.33,31.45,0,4.35-3.39,1.82-5.22,2.3-2.26.59-3.16-.41-3.11-2.92.16-8.16,0-16.32.06-24.47,0-3.78-.17-7.64-4-9.57-4.25-2.16-8.49-1-12.21,1.6-4.72,3.3-6.67,8.13-6.72,13.77-.05,6.16-.24,12.33.07,18.48.2,4-2.26,3.06-4.44,3.19-2.35.14-4,.16-3.94-3.2.21-12.65.23-25.3,0-37.95-.07-3.56,1.54-3.59,4.14-3.56s4.75-.12,4.12,3.51A36.91,36.91,0,0,0,309,144.29Z" transform="translate(-22 -117.51)"/><path class="cls-1" d="M230.93,153c0-8-.16-16,.08-24,.09-3.2-1-4-4-3.81-4.65.25-9.34-.17-14,.13-3.49.23-3.09-1.76-3.18-4s.26-3.55,3.14-3.52c14.66.15,29.32.18,44,0,3.27,0,3.24,1.46,3.33,3.88.1,2.76-.67,3.8-3.57,3.65-4.49-.23-9,.17-13.48-.14-3.47-.23-4.1,1.12-4.07,4.27.15,15.49,0,31,.15,46.48,0,3.33-.59,4.55-4.26,4.55s-4.36-1.16-4.25-4.51C231.1,168.33,230.93,160.67,230.93,153Z" transform="translate(-22 -117.51)"/><path class="cls-1" d="M50.59,118.42c9.23,0,17.54,0,25.84,0,5.47,0,7.41,1.94,7.46,7.55.08,9.15,0,18.29,0,28.16Z" transform="translate(-22 -117.51)"/><path class="cls-1" d="M203.92,144.73c3.77-5.8,7.24-9.62,13.29-9.78,2.31-.06,3.09,1,2.66,3s1.7,4.81-1.93,5.66c-9.79,2.29-13.56,6.8-13.85,16.87-.15,5.48-.25,11,0,16.46.15,3.27-1.16,3.91-4.06,3.83s-4.71,0-4.65-3.83c.21-12.47.18-24.94,0-37.41,0-3.28,1-4.35,4.26-4.26,3.08.09,4.81.74,4.29,4.22A44.53,44.53,0,0,0,203.92,144.73Z" transform="translate(-22 -117.51)"/><path class="cls-1" d="M451.25,145.86c3.16-5.52,6.05-9.38,11.1-10.43,1.59-.33,4.57-2,4.68,1.1.08,2.23,2.88,6.32-2.93,6.95-6.82.73-11.5,6.3-12,13.82-.44,6.63-.51,13.3-.31,19.94.13,4.08-2.48,3-4.59,3.11s-4.09.31-4-3.16q.31-19.2,0-38.42c-.06-3.59,2-3.06,4.1-3.06s4.55-.6,4,3A60,60,0,0,0,451.25,145.86Z" transform="translate(-22 -117.51)"/><path class="cls-1" d="M236.81,199.69a18.91,18.91,0,0,1,3.57-.31,6.21,6.21,0,0,1,4.15,1.1,3.18,3.18,0,0,1,1.26,2.67,3.59,3.59,0,0,1-2.56,3.32v0a3.91,3.91,0,0,1,3.12,3.8,4.09,4.09,0,0,1-1.28,3c-1.06,1-2.76,1.41-5.23,1.41a22.72,22.72,0,0,1-3-.18Zm1.95,6.2h1.77c2.07,0,3.28-1.08,3.28-2.54,0-1.77-1.35-2.47-3.32-2.47a9.05,9.05,0,0,0-1.73.13Zm0,7.25a11.38,11.38,0,0,0,1.64.09c2,0,3.88-.75,3.88-2.94s-1.77-2.92-3.9-2.92h-1.62Z" transform="translate(-22 -117.51)"/><path class="cls-1" d="M252,214.62V208.2l-4.78-8.71h2.22l2.13,4.17c.58,1.15,1,2.07,1.5,3.12h0c.42-1,.94-2,1.53-3.12l2.17-4.17h2.22L254,208.17v6.45Z" transform="translate(-22 -117.51)"/><path class="cls-1" d="M265.28,212.24a6.88,6.88,0,0,0,3.5,1c2,0,3.16-1.06,3.16-2.59s-.81-2.22-2.85-3c-2.47-.88-4-2.16-4-4.29,0-2.36,1.95-4.11,4.89-4.11a6.86,6.86,0,0,1,3.34.74l-.53,1.6a6.07,6.07,0,0,0-2.88-.72c-2.06,0-2.85,1.23-2.85,2.27,0,1.41.92,2.11,3,2.91,2.56,1,3.86,2.22,3.86,4.45s-1.73,4.35-5.3,4.35a7.81,7.81,0,0,1-3.86-1Z" transform="translate(-22 -117.51)"/><path class="cls-1" d="M284.45,207.52h-5.88V213h6.55v1.64h-8.5V199.49h8.17v1.64h-6.22v4.78h5.88Z" transform="translate(-22 -117.51)"/><path class="cls-1" d="M290.11,209.86l-1.57,4.76h-2l5.14-15.13H294l5.17,15.13h-2.09l-1.62-4.76Zm5-1.53L293.59,204c-.34-1-.56-1.89-.79-2.76h0c-.23.9-.47,1.82-.77,2.74l-1.48,4.37Z" transform="translate(-22 -117.51)"/><path class="cls-1" d="M312.58,213.94a14,14,0,0,1-4.65.83,7.09,7.09,0,0,1-7.76-7.63c0-4.51,3.12-7.81,8.19-7.81a9.23,9.23,0,0,1,3.77.7l-.47,1.59a7.84,7.84,0,0,0-3.34-.65c-3.69,0-6.09,2.29-6.09,6.08s2.31,6.11,5.84,6.11a6.23,6.23,0,0,0,2.6-.41v-4.51H307.6v-1.57h5Z" transform="translate(-22 -117.51)"/><path class="cls-1" d="M317.52,199.49v8.95c0,3.39,1.51,4.83,3.53,4.83,2.24,0,3.68-1.48,3.68-4.83v-8.95h2v8.82c0,4.65-2.44,6.55-5.72,6.55-3.1,0-5.43-1.77-5.43-6.46v-8.91Z" transform="translate(-22 -117.51)"/><path class="cls-1" d="M330.1,199.49h1.95V213h6.46v1.64H330.1Z" transform="translate(-22 -117.51)"/><path class="cls-1" d="M340.69,199.49h2V213h6.46v1.64h-8.42Z" transform="translate(-22 -117.51)"/><path class="cls-1" d="M355.78,212.24a6.94,6.94,0,0,0,3.5,1c2,0,3.17-1.06,3.17-2.59s-.81-2.22-2.85-3c-2.47-.88-4-2.16-4-4.29,0-2.36,1.95-4.11,4.9-4.11a6.89,6.89,0,0,1,3.34.74l-.54,1.6a6,6,0,0,0-2.87-.72c-2.07,0-2.85,1.23-2.85,2.27,0,1.41.92,2.11,3,2.91,2.56,1,3.87,2.22,3.87,4.45s-1.73,4.35-5.3,4.35a7.81,7.81,0,0,1-3.86-1Z" transform="translate(-22 -117.51)"/><path class="cls-1" d="M377.69,214.12a9.65,9.65,0,0,1-4,.72c-4.27,0-7.48-2.69-7.48-7.65a7.53,7.53,0,0,1,7.9-7.95,8,8,0,0,1,3.59.68l-.47,1.59a7.07,7.07,0,0,0-3.05-.63c-3.55,0-5.9,2.27-5.9,6.24,0,3.7,2.13,6.08,5.81,6.08a7.71,7.71,0,0,0,3.19-.63Z" transform="translate(-22 -117.51)"/><path class="cls-1" d="M382.09,199.49v15.13h-1.95V199.49Z" transform="translate(-22 -117.51)"/><path class="cls-1" d="M393.34,207.52h-5.88V213H394v1.64h-8.5V199.49h8.17v1.64h-6.22v4.78h5.88Z" transform="translate(-22 -117.51)"/><path class="cls-1" d="M396.55,214.62V199.49h2.14l4.85,7.65a43.85,43.85,0,0,1,2.71,4.92l.05,0c-.18-2-.23-3.87-.23-6.22v-6.33h1.84v15.13h-2l-4.81-7.68a47.74,47.74,0,0,1-2.82-5.05l-.07,0c.11,1.91.16,3.73.16,6.24v6.47Z" transform="translate(-22 -117.51)"/><path class="cls-1" d="M414.2,201.15h-4.6v-1.66h11.2v1.66h-4.62v13.47h-2Z" transform="translate(-22 -117.51)"/><path class="cls-1" d="M424.44,199.49v15.13h-1.95V199.49Z" transform="translate(-22 -117.51)"/><path class="cls-1" d="M427.85,199.49H436v1.64h-6.2v5h5.73v1.61H429.8v6.85h-1.95Z" transform="translate(-22 -117.51)"/><path class="cls-1" d="M440.74,199.49v15.13h-1.95V199.49Z" transform="translate(-22 -117.51)"/><path class="cls-1" d="M454.72,214.12a9.61,9.61,0,0,1-4,.72c-4.27,0-7.48-2.69-7.48-7.65a7.53,7.53,0,0,1,7.91-7.95,8.1,8.1,0,0,1,3.59.68l-.47,1.59a7.12,7.12,0,0,0-3.06-.63c-3.54,0-5.9,2.27-5.9,6.24,0,3.7,2.13,6.08,5.81,6.08a7.67,7.67,0,0,0,3.19-.63Z" transform="translate(-22 -117.51)"/><text class="cls-2" transform="translate(451.94 67.23)">R</text><circle class="cls-3" cx="457.17" cy="60.66" r="10.83"/></svg>