<svg id="Capa_1" data-name="Capa 1" xmlns="http://www.w3.org/2000/svg" viewBox="0 0 462.29 173.51"><defs><style>.cls-1{fill:#5b5b5f;}</style></defs><title>13</title><path class="cls-1" d="M14.66,118.28c5.59,0,11.17,0,16.76,0a2.67,2.67,0,0,1,2.75,1.66c6.25,11.33,12.61,22.6,18.92,33.9.6,1.08,1.1,2.22,1.74,3.5,1.19-2.17,2.37-4.2,3.45-6.28q7.26-14,14.5-28.06c.06-.13.2-.23.25-.37,1.19-3.43,3.33-4.82,7.18-4.43,4.33.45,8.74.11,13.28.11-.52,2.21-1.81,3.89-2.77,5.73-2.49,4.76-4.94,9.55-7.45,14.31-5.72,10.87-11.48,21.73-17.17,32.62a2,2,0,0,1-2,1.29c-6,0-12.08,0-18.12,0a1.72,1.72,0,0,1-1.84-.89c-3.26-5.84-6.59-11.63-9.88-17.46q-7.91-14-15.8-28c-1.26-2.23-2.5-4.45-3.75-6.68Z" transform="translate(-14.66 -65.36)"/><path class="cls-1" d="M477,192.15c-1.73,3-4,4.84-7.81,4.62a7.39,7.39,0,0,1-6.2-3.69,7,7,0,0,1,.09-7.55,7.42,7.42,0,0,1,7-3.79c2.95.06,4.93,1.68,6.35,4.14.17.29.1.77.6.83ZM466.5,194c2,1.55,4.06,1.7,6.61-.15-2,.53-2.46-.48-2.48-1.7s-.48-2.26-1.69-2.15-.61,1.37-.54,2c.16,1.59-.44,2.18-1.95,2,0-3,.05-6.1.07-9.15,1.28,0,2.56,0,3.84,0,2.3,0,3.33,1.49,2.27,3.56-.87,1.72.41,3,.54,4.51.08.89,1,0,1.22-.37,1-1.83,1.5-3.67.35-5.74-1.88-3.35-5.78-4.34-8.17-1.92a1,1,0,0,0-1.17.45C463.53,188.16,462.64,190.83,466.5,194Zm4-7.09c-.11-.42-.79-.13-1.32-.17s-.9.1-.82.72c.12,1,.88.53,1.39.6S470.66,188,470.51,186.9Z" transform="translate(-14.66 -65.36)"/><path class="cls-1" d="M235.18,172.21c-6.11,0-12.22.07-18.26-1.28-7.48-1.67-9.19-6.54-9.57-12a104.18,104.18,0,0,1,0-13.8c.4-6.53,4.32-10.43,10.79-11.47,7.52-1.21,15.11-1,22.66-.8,3.88.13,7.87.11,11.68,1.27,5.36,1.64,8.38,5.33,8.69,11a110.93,110.93,0,0,1,0,14.7c-.51,6.52-3.09,9.36-10.12,11.43a35.38,35.38,0,0,1-7.92.94C240.47,172.33,237.82,172.21,235.18,172.21Zm-1.25-11.33c2.64,0,4.76.1,6.86,0s4.5-.73,5.27-2.93a19.15,19.15,0,0,0,.22-10.77c-.7-3-3.25-3.24-5.93-3.59a49.07,49.07,0,0,0-13.59.18,5.74,5.74,0,0,0-4.5,5.14c-.08,2.26-.1,4.52,0,6.78.13,2.85,1.29,4,4.17,4.83C229.1,161.3,231.79,160.55,233.93,160.88Z" transform="translate(-14.66 -65.36)"/><path class="cls-1" d="M116.45,172.21a75.69,75.69,0,0,1-15.73-.94c-6.23-1.19-9.92-3.37-10.84-10.55A61.8,61.8,0,0,1,90,142.4c.85-5,5.14-7.88,10-8.7,7.81-1.3,15.7-1.08,23.56-.83,3.73.11,7.58.15,11.22,1.3,5,1.57,8.47,5.43,8.58,11.31.09,4.38-.08,8.76,0,13.13.2,7-4,11.22-10.3,12.65a47.68,47.68,0,0,1-7.93.92C122.54,172.33,119.9,172.21,116.45,172.21Zm.11-11.33a57.89,57.89,0,0,0,6.32,0c3.68-.42,6.21-1.67,6-6.05-.1-2,0-4.07,0-6.1a5.1,5.1,0,0,0-4.41-5,57,57,0,0,0-11.89-.39c-3.32.2-7,.7-7.93,4.65a16.8,16.8,0,0,0,.19,8.67c1.06,3.37,2.17,4.21,5.63,4.28C112.49,160.91,114.52,160.88,116.56,160.88Z" transform="translate(-14.66 -65.36)"/><path class="cls-1" d="M348,156.35c-5.21,0-10.42,0-15.63,0-1.55,0-2.19.22-1.91,2.06.53,3.38,1.71,4.69,5.18,4.74,4,.06,8,.1,12,0,1.91-.06,3.74-.62,3.7-3.12,0-.9.46-.93,1.13-.93,4.23,0,8.46,0,12.68,0,1.11,0,1.26.51,1.16,1.38-.65,6.08-2.15,9.09-8.83,10.83-7.14,1.85-14.5.78-21.76.94a30.72,30.72,0,0,1-10.89-1.77,13,13,0,0,1-8.43-11.63,67.85,67.85,0,0,1-.37-8.06,55.37,55.37,0,0,1,.94-7.93c1.15-5.3,5.3-8.4,11.37-9.14a99.58,99.58,0,0,1,17.25-.84,50.43,50.43,0,0,1,12.25,1.78c4.45,1.37,6.55,4.7,7.55,8.91.91,3.84.3,7.78.49,11.67.07,1.35-.75,1.18-1.57,1.18Zm-7-8.61c3.08,0,6.17-.1,9.25,0,1.81.08,1.87-.89,1.46-2.05-.83-2.28-2.86-2.88-5-2.94-3.68-.1-7.37-.06-11.06,0a5.87,5.87,0,0,0-4.55,1.84,2.69,2.69,0,0,0-.47,2.72c.22.79,1.17.37,1.78.38C335.31,147.76,338.17,147.73,341,147.74Z" transform="translate(-14.66 -65.36)"/><path class="cls-1" d="M400.49,172.23c-6.6,0-11.31.21-16-.9-5.28-1.27-9.27-3.84-10.71-9.5a36.15,36.15,0,0,1-.19-18.5c1.5-5.65,5.34-8.87,11.29-9.69a102.64,102.64,0,0,1,19.73-.77c4.57.26,9.31.48,13.35,3.24a12.53,12.53,0,0,1,5.05,12.67c-.2.94-.77.76-1.32.77-3.93,0-7.86-.05-11.78,0-1.25,0-1.46-.43-1.47-1.56,0-3.26-1.05-4-4.42-4.4a46.17,46.17,0,0,0-12.26,0,5.17,5.17,0,0,0-4.56,4.9,74.64,74.64,0,0,0,0,7.48c.21,3.07,2.51,4.61,5.83,4.82a75,75,0,0,0,11.32,0c3.53-.32,4.3-.77,5-4.41.15-.81.41-1,1.11-1,4.08,0,8.16,0,12.24,0,.6,0,1.13-.08,1.21.86.65,7.33-2.61,13.5-11.05,15A62.59,62.59,0,0,1,400.49,172.23Z" transform="translate(-14.66 -65.36)"/><path class="cls-1" d="M175.54,172.21c-4.55-.05-9.08.09-13.61-.82-6.54-1.31-10.44-5.17-11.59-11.58-1-5.88-1.38-11.84.73-17.62a12.42,12.42,0,0,1,10.54-8.51,100.23,100.23,0,0,1,19.27-.84A39.5,39.5,0,0,1,192,134.56c4.62,1.57,8.37,5.5,8.06,11.16-.21,3.82,0,3.83-3.92,3.83-3,0-6-.06-9.06,0-1.32,0-1.61-.4-1.6-1.65,0-3-1-4-3.84-4.28a46.64,46.64,0,0,0-12.71,0c-2.56.43-4.57,2.18-4.68,4.77s-.09,5.14,0,7.7,2.85,4.71,5.82,4.77c3.78.07,7.55.07,11.33,0,3.28-.07,4.69-1.3,5-4.38.1-1,.5-1,1.26-1,4,0,8,0,12,0,.55,0,1.2-.21,1.29.78.44,4.84-.36,9.3-4.44,12.43-2.55,1.95-5.72,2.6-8.84,3.09A72.29,72.29,0,0,1,175.54,172.21Z" transform="translate(-14.66 -65.36)"/><path class="cls-1" d="M463,133.23c3.1,0,6.19.05,9.29,0,1.19,0,1.55.33,1.51,1.53-.09,2.56-.12,5.14,0,7.7.07,1.47-.45,1.73-1.79,1.71-6-.07-12.09,0-18.13-.06-1.42,0-1.95.32-1.91,1.85.11,4,0,8,0,12,0,2.49,1.37,3.79,3.89,3.84.83,0,1.66,0,2.49,0,3.31,0,4-.73,4-4.06,0-.68,0-1.37,0-2-.07-.88.27-1.18,1.15-1.17,3.78,0,7.55,0,11.33,0,.51,0,.95-.06,1.15.7,1.06,4.14-1.75,11.38-5.21,13.91-2.26,1.65-4.85,2.14-7.41,2.55a45.65,45.65,0,0,1-17.12-.44c-4.8-1.06-8.35-4.41-8.91-9.68s-.17-10.37-.32-15.54c0-1.32-.13-2.07-1.79-2s-3.85.78-4.73-.31-.29-3.16-.3-4.81c0-1.8-.63-4.11.25-5.28s3.38-.34,5.15-.39c1.07,0,1.45-.32,1.4-1.42-.08-1.88,0-3.77,0-5.66,0-1.07.1-1.63,1.42-1.61,4.07.09,8.15.08,12.23,0,1.16,0,1.39.43,1.35,1.45-.07,1.81.05,3.63-.05,5.44-.08,1.34.26,1.85,1.72,1.79C456.81,133.15,459.91,133.23,463,133.23Z" transform="translate(-14.66 -65.36)"/><path class="cls-1" d="M175.1,233.29c-1-3.85.63-5.72,4.25-7.14a98,98,0,0,0,22.69-13,113.72,113.72,0,0,0,17.82-16.44,104.19,104.19,0,0,0,11.88-16.55,2.8,2.8,0,0,1,2.88-1.6q4.53.15,9.06,0c1.8-.05,1.95.59,1.17,2a147.35,147.35,0,0,1-11.91,18.42,124.6,124.6,0,0,1-13,13.81A116.12,116.12,0,0,1,199.52,228a153.35,153.35,0,0,1-20.65,10.38,5.81,5.81,0,0,1-1.94.52c-1.3.09-2-.23-1.85-1.72C175.19,235.86,175.1,234.57,175.1,233.29Z" transform="translate(-14.66 -65.36)"/><path class="cls-1" d="M104.93,126a104.92,104.92,0,0,1,7.1-12.41,110.72,110.72,0,0,1,20-23,124.42,124.42,0,0,1,24.47-16.9c5.46-3,11.1-5.52,16.8-8,1.48-.63,1.86-.29,1.82,1.21-.06,2.56-.13,5.14,0,7.69.1,1.66-.58,2.4-2,3a122.55,122.55,0,0,0-22.88,12.74,107.54,107.54,0,0,0-31.37,34.09A2.77,2.77,0,0,1,116,126C112.43,125.93,108.82,126,104.93,126Z" transform="translate(-14.66 -65.36)"/><path class="cls-1" d="M269.37,145c0-8.3,0-16.6,0-24.91,0-1.49.38-1.91,1.85-1.86,3.7.1,7.4.09,11.1,0,1.31,0,1.62.39,1.61,1.64q0,25.37,0,50.73c0,1.27-.31,1.67-1.61,1.64-3.7-.09-7.4-.11-11.1,0-1.51.05-1.86-.41-1.85-1.87C269.41,161.92,269.37,153.47,269.37,145Z" transform="translate(-14.66 -65.36)"/><path class="cls-1" d="M308.35,145.24c0,8.38,0,16.76,0,25.13,0,1.46-.34,1.93-1.85,1.88-3.69-.11-7.39-.09-11.09,0-1.29,0-1.62-.37-1.62-1.64q.06-25.35,0-50.71c0-1.26.32-1.67,1.62-1.64,3.69.08,7.4.1,11.09,0,1.5,0,1.87.41,1.85,1.88C308.32,128.49,308.35,136.87,308.35,145.24Z" transform="translate(-14.66 -65.36)"/><path class="cls-1" d="M129.31,126.44c-1.36,0-2.72,0-4.07,0-.57,0-1.3.31-1.65-.34s.18-1.32.52-1.85c1.79-2.76,3.47-5.6,5.49-8.18a109,109,0,0,1,9.75-11.18,114.81,114.81,0,0,1,24.43-18.14c3-1.66,6.1-3.18,9.23-4.62,1.47-.68,2.2-.76,2.12,1.22-.1,2.56,0,5.13,0,7.7A1.88,1.88,0,0,1,174,93a110.29,110.29,0,0,0-20.8,13.56,84.88,84.88,0,0,0-12.55,12.59,63.25,63.25,0,0,0-4.86,6.42,2,2,0,0,1-2,.87C132.34,126.4,130.82,126.44,129.31,126.44Z" transform="translate(-14.66 -65.36)"/><path class="cls-1" d="M175.56,223.3c0-3.47,0-6.71,0-10a1.89,1.89,0,0,1,1.27-1.89,109.27,109.27,0,0,0,17.62-11.07,90.63,90.63,0,0,0,18.74-19.23c1.31-1.87,2.66-2.93,5.12-2.66a56.25,56.25,0,0,0,7.46,0c1.32,0,1.71.4,1,1.51A144.39,144.39,0,0,1,216,194.65a106.83,106.83,0,0,1-23.75,20.06A93.74,93.74,0,0,1,175.56,223.3Z" transform="translate(-14.66 -65.36)"/><path class="cls-1" d="M146.93,126.44h-5.66c-1,0-1.25-.32-.57-1.18,1.57-2,3-4.13,4.68-6a102.76,102.76,0,0,1,27.4-21.57c2.18-1.16,2.32-1.07,2.32,1.43,0,2.71-.1,5.44.05,8.14a2.66,2.66,0,0,1-1.53,2.68,80,80,0,0,0-17.78,14.31c-1.51,1.59-3.05,2.51-5.29,2.21A29.13,29.13,0,0,0,146.93,126.44Z" transform="translate(-14.66 -65.36)"/><path class="cls-1" d="M175.55,207.88c0-3.88,0-7.5,0-11.11a1.6,1.6,0,0,1,.82-1.65A91.24,91.24,0,0,0,196,179.18a3,3,0,0,1,2.33-1.1c3.32.06,6.64,0,10,0a2.14,2.14,0,0,1,1.83.64c.16.23-.37,1.07-.73,1.52A101.69,101.69,0,0,1,182,204.56,39.82,39.82,0,0,1,175.55,207.88Z" transform="translate(-14.66 -65.36)"/><path class="cls-1" d="M175.56,192.09c0-3.86-.1-7.09,0-10.32.11-2.51,1.41-3.64,3.89-3.66,4.14,0,8.28,0,12.84,0C187.51,183.76,182,188,175.56,192.09Z" transform="translate(-14.66 -65.36)"/><path class="cls-1" d="M158.21,126.43a71.14,71.14,0,0,1,16.94-13.88c-.81,3.83-.41,7.2-.49,10.56,0,2-.86,3.26-2.87,3.29C167.43,126.49,163.07,126.43,158.21,126.43Z" transform="translate(-14.66 -65.36)"/></svg>