<svg id="Capa_1" data-name="Capa 1" xmlns="http://www.w3.org/2000/svg" viewBox="0 0 431.49 139.18"><defs><style>.cls-1{fill:#5b5b5f;}</style></defs><title>2</title><path class="cls-1" d="M464.44,185.51c-5.92,0-11.85,0-17.78.1-1.09,0-1.24-.66-1.48-1.41-1.17-3.77-2.4-7.52-3.52-11.31-.28-.94-.61-1.32-1.67-1.31q-10.14.07-20.3,0a1.76,1.76,0,0,0-2,1.53c-1.11,3.72-2.36,7.41-3.45,11.14a1.6,1.6,0,0,1-1.87,1.37c-5-.05-10.06-.07-15.09,0-1.49,0-1.71-.41-1.26-1.75q7.53-22.65,15-45.32c2.4-7.27,4.82-14.53,7.15-21.83.54-1.68,1.21-2.46,3.19-2.4,5.93.18,11.86.12,17.79,0a2.17,2.17,0,0,1,2.52,1.81q11.12,34.11,22.35,68.18a6.63,6.63,0,0,0,.4.8Zm-34.72-50.62c-2.36,7.57-4.56,14.62-6.78,21.68-.37,1.16.43,1,1.07,1,3.76,0,7.53-.07,11.3,0,1.44,0,1.42-.48,1.05-1.57-1-2.89-1.84-5.81-2.75-8.71C432.37,143.33,431.12,139.36,429.72,134.89Z" transform="translate(-32.95 -81.95)"/><path class="cls-1" d="M88.69,82a19.28,19.28,0,0,1,8.52,4.28,16.17,16.17,0,0,1-6.27,27.32,1.43,1.43,0,0,0-1,.59h9a2.45,2.45,0,0,1,2,.63c2.93,3,5.88,5.95,8.84,8.93-.33.56-.87.29-1.3.29-6.88,0-13.77,0-20.65,0-1.25,0-1.63.33-1.63,1.6q.08,21.47,0,43a2.61,2.61,0,0,0,.87,2c2.7,2.64,5.33,5.34,8,8a2.83,2.83,0,0,1,1,2.19c0,3.65,0,7.3,0,11,0,.38.19.92-.31,1.1s-.7-.37-1-.64c-5.84-5.83-11.66-11.7-17.54-17.5a2.91,2.91,0,0,1-.78-2.42c0-17.37,0-34.74,0-52.11A4,4,0,0,0,75.14,117c-7.76-7.64-15.46-15.34-23.21-23-.82-.81-.78-1.27.11-1.93,2-1.45,4-2.78,6.15-4a1.51,1.51,0,0,1,2.17.37c6.2,6.23,12.46,12.41,18.64,18.65,2.26,2.28,4.38,4.68,6.56,7l.61-.42V82Z" transform="translate(-32.95 -81.95)"/><path class="cls-1" d="M33,126.53c.37-2,.73-4.09,1.12-6.13.12-.63.31-1.24.47-1.9L56,140.19l.68-.37v-4.34c0-2.51,0-5,0-7.55a3.17,3.17,0,0,0-1-2.52c-5.36-5.31-10.65-10.69-16-16a1.84,1.84,0,0,1-.38-2.74c1.25-2,2.5-3.94,3.9-5.82.64-.86,1.06-.84,1.79-.1q10.4,10.43,20.84,20.8a2.48,2.48,0,0,1,.78,1.9q0,20,0,40.08a4.06,4.06,0,0,1-.24.8C55.15,153,44.05,141.73,33,130.49Z" transform="translate(-32.95 -81.95)"/><path class="cls-1" d="M33,144.87c.84-.18,1.14.55,1.58,1q30,29.91,60,59.82a4.6,4.6,0,0,1,1.54,3.76c-.15,3.69,0,7.4,0,11.69L33,158.18Z" transform="translate(-32.95 -81.95)"/><path class="cls-1" d="M322.61,150.29a18.64,18.64,0,0,1,6.78,3.18,14.7,14.7,0,0,1,5.49,9.58A22.3,22.3,0,0,1,333,176.52a15.43,15.43,0,0,1-10.22,8.11,33.71,33.71,0,0,1-8.72,1c-9.59,0-19.18,0-28.77,0-1.4,0-1.67-.44-1.67-1.74q.06-33.8,0-67.59c0-1.42.28-2,1.85-1.93,9.7.17,19.41-.26,29.11.29a25.7,25.7,0,0,1,9.92,2.22c5.4,2.61,8.29,7.12,9.27,12.86,1.07,6.28,0,12-4.71,16.75A18.08,18.08,0,0,1,322.61,150.29Zm-21.68,14.56c0,2.4,0,4.79,0,7.19,0,.91.28,1.28,1.23,1.25,2.15-.06,4.31.05,6.47,0,6.06-.29,8.64-2.55,9-7.77a7.88,7.88,0,0,0-7.49-8.76c-2.51-.22-5-.16-7.54-.27-1.41-.06-1.73.48-1.67,1.77C301,160.42,300.93,162.64,300.93,164.85Zm4.2-21.08c1,0,2,.07,3.05,0,4.61-.38,7.3-2.35,8-5.83,1.24-6-1.62-9.86-7.7-10.34-1.72-.14-3.46-.23-5.19-.26-2.36,0-2.37,0-2.37,2.27v10.05C300.93,143.82,300.93,143.82,305.13,143.77Z" transform="translate(-32.95 -81.95)"/><path class="cls-1" d="M395.5,185.59h-7.08c-4,0-8-.05-12,0a2.49,2.49,0,0,1-2.53-1.47c-4.61-8.24-9.29-16.45-14-24.67l-.34-.59c-.68.23-.37.73-.37,1.07,0,7.91-.05,15.82,0,23.72,0,1.43-.27,2-1.85,1.95-4.67-.1-9.34-.06-14,0-1.12,0-1.55-.24-1.55-1.48q.06-34.14,0-68.28c0-1.26.46-1.49,1.57-1.47,9.34.13,18.68-.34,28,.34a28.1,28.1,0,0,1,12.46,3.64,19,19,0,0,1,9.21,13.9c1.37,8.29.54,16.14-5.72,22.55a20.32,20.32,0,0,1-6.26,4.12c-1,.47-1.09.86-.5,1.83C385.51,168.89,390.38,177.05,395.5,185.59Zm-36.33-47h0c0,2.75,0,5.51,0,8.26,0,1.1.24,1.64,1.49,1.6a62.6,62.6,0,0,0,7-.32c4.92-.72,8.22-4.15,8.36-8.78.18-5.59-2.59-9.34-7.75-10.41-2.54-.53-5.12-.09-7.68-.25-1.15-.07-1.42.43-1.41,1.47C359.2,133,359.17,135.77,359.17,138.58Z" transform="translate(-32.95 -81.95)"/><path class="cls-1" d="M234.32,149.93c0-11.21,0-22.41,0-33.61,0-1.63.45-2,2-2q18.42.09,36.84,0c1.52,0,2.12.29,2.06,2-.13,3.47-.1,7,0,10.42,0,1.38-.44,1.69-1.74,1.67-6.71-.06-13.42,0-20.13-.06-1.29,0-1.78.27-1.74,1.67.1,3.77.1,7.55,0,11.32,0,1.3.4,1.59,1.62,1.58,6.64,0,13.3,0,19.94,0,1.56,0,2.1.38,2,2-.13,3.47-.1,6.95,0,10.42,0,1.34-.36,1.74-1.71,1.72-6.65-.06-13.3,0-19.95,0-1.43,0-2,.27-1.94,1.84.13,3.77.09,7.55,0,11.32,0,1.2.35,1.51,1.51,1.5,6.65-.05,13.3,0,20-.05,1.55,0,2.23.27,2.15,2.05-.16,3.47-.08,6.94,0,10.42,0,1.09-.22,1.58-1.48,1.58q-19-.08-37.92,0c-1.45,0-1.46-.67-1.46-1.74Q234.33,166.91,234.32,149.93Z" transform="translate(-32.95 -81.95)"/><path class="cls-1" d="M205.4,114.39q10.51,0,21,0c2,0,2,0,1.09,1.79L199.6,169.83c-.92,1.77-.89,1.77,1,1.77,7.49,0,15,.05,22.47,0,1.59,0,1.88.3,1.07,1.75-2,3.67-4,7.39-5.86,11.12a1.88,1.88,0,0,1-2,1.15q-21.39,0-42.79,0c-1.63,0-1.65-.43-1-1.71q14.07-26.87,28.1-53.78c.88-1.69.86-1.72-1.06-1.73-7.55,0-15.11,0-22.66,0-1.32,0-1.75-.15-1-1.53,2-3.72,4-7.5,5.92-11.28a2,2,0,0,1,2.1-1.23c7.13,0,14.26,0,21.39,0Z" transform="translate(-32.95 -81.95)"/><path class="cls-1" d="M105.88,133.93v6.45c0,9.76-.09,19.53-.06,29.29,0,1.43-.4,1.88-1.83,1.8a59.8,59.8,0,0,0-6.28,0c-1.4.08-1.85-.32-1.83-1.78.08-6.77,0-13.54,0-20.31q0-11.59,0-23.19c0-.51-.29-1.25.23-1.49s1,.48,1.4.86c2.38,2.36,4.78,4.7,7.08,7.13a3,3,0,0,0,2.46,1.11c3.78,0,7.55,0,11.33,0a2.49,2.49,0,0,1,2,.6c2.82,2.86,5.66,5.68,8.49,8.52a.59.59,0,0,1,.16.8h-13c1.06,1.72,2.45,2.67,3.54,3.88,1.49,1.63,3.08,3.18,4.71,4.68a3.44,3.44,0,0,1,1.16,2.84c0,4.91,0,9.82,0,14.74,0,1.21.29,1.7,1.6,1.64,2.22-.1,4.44-.09,6.65,0,1.18,0,1.58-.33,1.55-1.52-.07-3.11,0-6.23,0-9.34,0-1.26.39-1.69,1.63-1.65,2.63.07,5.42-.5,7.86.18s3.81,3.31,5.7,5c2.08,1.89,4,4,6.09,5.84a3.8,3.8,0,0,1,1.25,3.66c-1,7.47-7.9,13.78-15.35,13.93a16.27,16.27,0,0,1-16.6-13c-.59-3.13-.59-3.13-3.74-3.13a40.6,40.6,0,0,0-4.13,0c-1.75.19-2.34-.29-2.31-2.19.13-8,0-15.94.08-23.91a3.71,3.71,0,0,0-1.27-3C111.64,139.8,109,137.05,105.88,133.93Z" transform="translate(-32.95 -81.95)"/></svg>