<svg id="Capa_1" data-name="Capa 1" xmlns="http://www.w3.org/2000/svg" viewBox="0 0 214.61 110"><defs><style>.cls-1{fill:#5b5b5f;}</style></defs><title>4_tsc_n</title><path class="cls-1" d="M95,73.45H75c-1.07,0-1.4-.31-1.38-1.37.07-2.44.09-4.89,0-7.33-.05-1.24.31-1.61,1.57-1.6H110a6.81,6.81,0,0,0,3.3-.62,4.26,4.26,0,0,0,2.36-4.73c-.33-1.86-1.65-3-3.85-3.15-.45,0-.9,0-1.36,0H87.87a20.39,20.39,0,0,1-11.5-3.43c-8.49-5.74-8.26-17.75,1.52-23.1a21.25,21.25,0,0,1,10.36-2.51c12.94-.06,25.89,0,38.83-.05,1,0,1.34.27,1.31,1.27-.06,2.48-.09,5,0,7.47.05,1.24-.36,1.51-1.53,1.51H92a5.92,5.92,0,0,0-4.54,1.72A3.78,3.78,0,0,0,89.27,44a11.24,11.24,0,0,0,3,.34c7.61,0,15.21-.07,22.82,0a19,19,0,0,1,10.81,3.39c8.28,5.78,7.85,17.26-.82,22.76a20.86,20.86,0,0,1-11.37,3C107.41,73.5,101.25,73.45,95,73.45Z"/><path class="cls-1" d="M107.25,79.08H191.6c1.37,0,1.77.33,1.71,1.71-.12,2.57-.1,5.16,0,7.74,0,1.24-.32,1.59-1.58,1.59q-25.47-.08-50.93,0H23.06c-2.25,0-1.89.25-1.92-2v-8c0-.77.23-1.09,1-1a5.75,5.75,0,0,0,.83,0ZM94.72,86.59c0,.62-.36,1.09.34,1.19s.61-.5.69-.83a11.34,11.34,0,0,0,.35-2.25c.08-1.45-.56-1.87-1.91-1.34-.3.12-.65.54-1,.13-.82-1.07-1.73.28-2.62-.18-.59-.3-.66-.15-1.09,2.1-.07.36-.19.71-.24,1.06s-.45,1.09.26,1.26.79-.57.85-1.07a3.65,3.65,0,0,1,.74-2.24c.19-.21.44-.53.8-.37a.7.7,0,0,1,.37.8c-.09.58-.22,1.15-.27,1.73,0,.41-.52,1.07.33,1.16s.67-.65.72-1.06a5,5,0,0,1,.52-1.93c.21-.38.54-.86,1-.69s.45.74.36,1.18a6.93,6.93,0,0,0-.17,1.35ZM75.25,83.37V82.16c0-.35.6-.9-.25-1-.59-.09-.77.33-.85.82-.28,1.59-.58,3.16-.83,4.75-.06.37-.48.94.28,1.07s.69-.48.77-.89A7.94,7.94,0,0,1,75,84.84c.23-.41.53-.82,1-.71s.42.63.35,1a14.66,14.66,0,0,0-.28,1.72c0,.31-.24.77.3.89s.75-.19.83-.65.22-1.06.34-1.59C78,83.48,77.3,82.79,75.25,83.37Zm50,.13a7.05,7.05,0,0,0,.21-1.3c0-.39.35-1-.39-1.07-.56,0-.61.49-.69,1-.25,1.46-.57,2.89-.85,4.37-.1.47-.61,1.12.28,1.28s.76-.52.87-1.06c.17-.77.11-1.63.75-2.23.25-.24.51-.57.92-.33a.68.68,0,0,1,.3.83,11.21,11.21,0,0,0-.28,1.72c0,.36-.5.93.26,1.09s.68-.31.78-.83.2-1.13.28-1.71C128,83.15,127.46,82.73,125.25,83.5ZM142.47,87c-.73,0-1.14,0-1.2-.55-.09-.72.49-.45.82-.51a3.75,3.75,0,0,0,.67,0c.77-.25,1.44-.69,1.35-1.57a1.44,1.44,0,0,0-1.54-1.24,2.39,2.39,0,0,0-2.24,1.38c-.45,1-.77,2,0,2.89a2,2,0,0,0,2.69.41.57.57,0,0,0,.33-.74h0c-.16-.41-.41-.1-.65,0S142.36,87,142.47,87Zm-31.3-3.87a2.66,2.66,0,0,0-2.43,1.73,2.3,2.3,0,0,0,.36,2.64c.83.76,1.68.5,2.55.25.27-.08.64-.25.44-.68s-.39-.23-.67-.15c-.62.19-1.47.28-1.57-.48s.79-.33,1.22-.51c.2-.09.41-.14.62-.23a1.29,1.29,0,0,0,1-1.54,1.4,1.4,0,0,0-1.49-1ZM78.4,85.61c0,2,1.59,2.89,3,2.12.24-.13.46-.27.37-.62s-.31-.28-.6-.21c-.62.13-1.48.25-1.53-.56s.83-.29,1.29-.46c.81-.31,1.7-.62,1.53-1.72a1.71,1.71,0,0,0-2.19-1l-.15.06a2.52,2.52,0,0,0-1.76,2.38Zm42.7,2.31a5.79,5.79,0,0,0,.94-.14.54.54,0,0,0,.43-.64.24.24,0,0,0,0-.08c-.08-.45-.37-.23-.62-.2-1.51.16-2.24-.3-2.34-1.49a2.55,2.55,0,0,1,2-3h0c.42,0,.83,0,1.24,0,.23,0,.45,0,.5-.33s-.09-.46-.42-.55a3.75,3.75,0,0,0-4.61,2.6,3.71,3.71,0,0,0-.07,1.72,2.72,2.72,0,0,0,2.91,2.11ZM87.59,81.38c-1.09.05-2,.25-2.32,1.36a1.7,1.7,0,0,0,1,2.2l.15,0a1.36,1.36,0,0,1,.34.23c.36.3.67.66.39,1.15A1.18,1.18,0,0,1,86,87a5,5,0,0,1-.9-.24c-.32-.07-.51.13-.62.41s.06.41.27.53c1.27.83,3.56-.11,3.75-1.61C88.63,85,87.85,84.45,87,84c-.41-.23-.82-.49-.61-1a1,1,0,0,1,1.1-.58h.67a.56.56,0,0,0,.56-.41c.07-.29-.22-.41-.47-.47s-.53-.11-.7-.14Zm9.27,5a1.4,1.4,0,0,0,1.22,1.55,1.36,1.36,0,0,0,.9-.21c.2-.08.49-.34.58-.28,1.69,1.12,1.06-.63,1.36-1.13.19-.32.07-.8.18-1.19.17-.59.57-1.35.1-1.75A2.26,2.26,0,0,0,99,83.31a3.16,3.16,0,0,0-2.17,3.09Zm36.23-1.33a1.8,1.8,0,0,0-1.67-1.93h-.25A2.84,2.84,0,0,0,128.56,86a1.87,1.87,0,0,0,1.83,1.93h.14a2.69,2.69,0,0,0,2.57-2.81v-.07ZM68.8,82.29c1.88.23,1.87.22,1.4,2.12-.19.79-.33,1.59-.47,2.39-.06.35-.34.85.28,1s.76-.34.85-.79a23.22,23.22,0,0,0,.52-3c.08-1.08.37-1.75,1.61-1.59a.45.45,0,0,0,.55-.34h0a.17.17,0,0,0,0-.1c0-.41-.34-.34-.6-.34H69.55c-.49-.1-.7.15-.75.62Zm37,4.35c0,.62.1,1,.62,1.2a.91.91,0,0,0,1-.07c.38-.41,0-.69-.24-1a2.16,2.16,0,0,1,.24-2.25c1.88-.64,0-1.46.18-2.12.05-.15-.24-.28-.41-.21-.7.33-1.54,1.32-1.41,1.55.61,1.09-.1,2.06,0,2.93ZM138.06,88c.38-.14,1.1.08,1.12-.59s-.62-.26-1-.36c-.77-.21-1.15-.66-.9-1.47a1.82,1.82,0,0,1,1.81-1.5c.34,0,.7,0,.72-.41s-.46-.49-.79-.52a3,3,0,0,0-2.81,1.9c-.63,1.63.16,3,1.81,3Zm-21.85-5c-.68.12-1.17.69-1.92.32-.41-.21-.71.24-.71.71a13.26,13.26,0,0,1-.5,2.73c-.07.35-.35,1,.34,1.1s.92-.26,1-.93c.09-1,.18-2.11,1.22-2.48s.62-.83.58-1.45Zm-14.07,3.89c-.1.5-.24.9.32,1s.71-.34.77-.75c.18-1.19.14-2.47,1.74-2.83.27-.06.17-.46.17-.72s-.16-.37-.35-.29c-.62.28-1.35-.06-1.81.12s-.49,1.14-.54,1.8-.42,1.2-.31,1.7Zm32.08,1c.75.12.7-.62.75-1a22.86,22.86,0,0,1,.56-2.71c.08-.29.25-.75-.28-.88s-.74.08-.83.57c-.22,1.14-.48,2.26-.71,3.39-.07.33,0,.64.51.62Zm11-1.35c-.55,0-.9.19-.89.68a.71.71,0,0,0,.68.74h.1c.44,0,.59-.39.6-.74S145.71,86.43,145.22,86.5Z"/><path class="cls-1" d="M174.72,73.46H159.24c-6.91,0-13.26-1.78-18.41-6.61a21,21,0,0,1-6.63-12.3c-1.08-6.82,0-13.21,4.18-18.9a23.81,23.81,0,0,1,17.75-9.89c4-.37,8-.15,11.94-.17H191.7c1.17,0,1.6.28,1.56,1.5-.09,2.4-.1,4.8,0,7.2.06,1.32-.45,1.55-1.63,1.55H162.42c-7.75,0-12.73,5-12.79,12.84a15.32,15.32,0,0,0,1.73,8,11.65,11.65,0,0,0,10.82,6.44H192c1,0,1.34.26,1.32,1.29q-.09,3.87,0,7.74c0,1.1-.26,1.47-1.42,1.46-5.71-.06-11.41,0-17.11,0Z"/><path class="cls-1" d="M44.42,25.58H66.14c1.18,0,1.58.29,1.53,1.51-.09,2.44-.1,4.89,0,7.33,0,1.2-.41,1.42-1.47,1.41-4.25-.06-8.51,0-12.76,0-1.15,0-1.45.36-1.45,1.48V71.73c0,1.75,0,1.75-1.77,1.75H38.14c-1.15,0-1.44-.36-1.44-1.47V37.54c0-1.76,0-1.76-1.78-1.76H22.43c-1,0-1.24-.31-1.21-1.24.06-2.58.07-5.16,0-7.74,0-1,.29-1.28,1.3-1.27C29.85,25.61,37.13,25.58,44.42,25.58Z"/><path class="cls-1" d="M98.05,85.88c.12-1,1.13-2,1.81-1.87.48.1.41.45.29.72-.33.87-.27,2.1-1.57,2.2C98,87,98,86.31,98.05,85.88Z"/><path class="cls-1" d="M129.82,86c0-1.11.34-1.86,1.24-2a.85.85,0,0,1,.94.75h0a.76.76,0,0,1,0,.3c-.12.86-.32,1.76-1.4,1.86C129.82,87,129.82,86.39,129.82,86Z"/><ellipse class="cls-1" cx="80.73" cy="84.49" rx="0.86" ry="0.51"/><ellipse class="cls-1" cx="110.9" cy="84.49" rx="0.86" ry="0.51"/><ellipse class="cls-1" cx="142.41" cy="84.49" rx="0.86" ry="0.51"/><circle class="cls-1" cx="135.27" cy="82.06" r="0.67"/></svg>