<svg id="Capa_1" data-name="Capa 1" xmlns="http://www.w3.org/2000/svg" viewBox="0 0 417.16 156.3"><defs><style>.cls-1{fill:#5b5b5f;}.cls-2{fill:#fff;}</style></defs><title>4</title><path class="cls-1" d="M226.67,187.89c-16.12,0-32.24-.06-48.36.05-2.59,0-3.4-.76-3.33-3.33.16-5.92.21-11.85,0-17.76-.12-3,.75-3.89,3.8-3.88,28.06.11,56.13.06,84.2.07a16.72,16.72,0,0,0,8-1.52,10.34,10.34,0,0,0,5.72-11.44c-.81-4.51-4-7.18-9.33-7.65-1.09-.1-2.2-.06-3.29-.06-18.2,0-36.4.12-54.6-.06a49.43,49.43,0,0,1-27.86-8.3c-20.55-13.91-20-43,3.7-55.95A51.41,51.41,0,0,1,210.18,72c31.36-.13,62.71,0,94.07-.11,2.46,0,3.23.64,3.17,3.08-.15,6-.22,12.07,0,18.09.11,3-.87,3.65-3.71,3.64-28.18-.1-56.35-.05-84.53-.06-4.22,0-8,1-11,4.17-5.25,5.56-3,13.7,4.49,15.65a27.71,27.71,0,0,0,7.16.81c18.42,0,36.84-.17,55.26.07a46,46,0,0,1,26.2,8.21c20.06,14,19,41.81-2,55.13-8.4,5.31-17.78,7.14-27.54,7.2C256.71,188,241.69,187.89,226.67,187.89Z" transform="translate(-47.71 -71.85)"/><path class="cls-1" d="M256.4,201.51q102.15,0,204.31-.08c3.33,0,4.29.79,4.14,4.13-.29,6.24-.23,12.51,0,18.75.11,3-.78,3.85-3.82,3.84q-61.68-.15-123.37-.07-142.62,0-285.24,0c-5.46,0-4.6.62-4.65-4.76-.06-6.47.05-12.94,0-19.41,0-1.86.54-2.64,2.41-2.41a16.33,16.33,0,0,0,2,0ZM226.05,219.7c0,1.5-.87,2.66.83,2.89,1.53.21,1.47-1.22,1.66-2a26.62,26.62,0,0,0,.85-5.47c.21-3.51-1.35-4.53-4.61-3.24-.74.29-1.58,1.31-2.33.32-2-2.58-4.2.68-6.36-.43-1.43-.74-1.6-.38-2.64,5.09-.16.86-.46,1.7-.57,2.56-.14,1.09-1.09,2.65.62,3.06,1.94.46,1.92-1.38,2.06-2.6.23-1.95.38-3.91,1.79-5.42.48-.51,1.08-1.29,1.94-.9a1.71,1.71,0,0,1,.91,1.94c-.22,1.4-.55,2.78-.67,4.18-.1,1-1.26,2.6.8,2.82,1.72.19,1.64-1.59,1.76-2.58a11.82,11.82,0,0,1,1.24-4.67c.53-.92,1.32-2.08,2.51-1.67s1.08,1.8.87,2.87A16.46,16.46,0,0,0,226.05,219.7Zm-47.21-7.8c0-1.18,0-2.05,0-2.91s1.47-2.18-.6-2.49c-1.43-.22-1.86.8-2.07,2-.67,3.84-1.39,7.66-2,11.5-.14.9-1.17,2.27.69,2.58,1.61.28,1.65-1.15,1.86-2.15a18.12,18.12,0,0,1,1.48-5c.54-1,1.28-2,2.45-1.73s1,1.52.83,2.54a39.75,39.75,0,0,0-.67,4.17c0,.74-.59,1.87.73,2.16s1.8-.47,2-1.57c.27-1.28.53-2.57.82-3.85C185.49,212.18,183.79,210.5,178.84,211.9Zm121.1.32a17.69,17.69,0,0,0,.49-3.15c0-.93.85-2.49-.94-2.58-1.36-.07-1.48,1.19-1.68,2.34-.6,3.54-1.37,7-2.05,10.58-.23,1.14-1.48,2.71.69,3.12,1.85.34,1.82-1.28,2.1-2.58.4-1.86.26-3.95,1.82-5.41.6-.57,1.23-1.37,2.23-.79a1.66,1.66,0,0,1,.71,2,28.66,28.66,0,0,0-.68,4.18c0,.88-1.2,2.26.64,2.63,1.5.31,1.64-.75,1.9-2,.31-1.38.48-2.75.66-4.15C306.49,211.38,305.27,210.35,299.94,212.22Zm41.69,8.37c-1.77.12-2.76-.11-2.91-1.35-.2-1.74,1.21-1.09,2-1.22a11,11,0,0,0,1.63-.06c1.86-.59,3.47-1.67,3.25-3.81a3.5,3.5,0,0,0-3.73-3c-2.18.12-4.33.89-5.42,3.35s-1.87,4.72.05,7,4.11,2.12,6.51,1a1.4,1.4,0,0,0,.76-1.92c-.38-1-1-.23-1.58-.07S341.37,220.62,341.63,220.59Zm-75.8-9.39a6.37,6.37,0,0,0-5.88,4.2c-.76,2.09-1.15,4.53.86,6.38s4.06,1.22,6.18.61c.66-.19,1.54-.59,1.07-1.64-.35-.8-.94-.56-1.62-.36-1.52.45-3.56.68-3.81-1.17-.29-2.08,1.92-.8,2.95-1.23.49-.21,1-.35,1.51-.55,1.71-.66,2.81-1.81,2.35-3.73S267.43,211.3,265.83,211.2Zm-79.38,6.14c0,4.76,3.86,7,7.36,5.13.58-.31,1.12-.65.9-1.5s-.75-.67-1.45-.52c-1.5.33-3.58.62-3.7-1.34s2-.71,3.12-1.12c1.95-.75,4.12-1.51,3.7-4.17-.33-2.09-3.34-3.24-5.67-2.24C187.83,212.81,186.31,215,186.45,217.34Zm103.42,5.6c.56-.08,1.43-.18,2.28-.36s1.19-.89,1-1.74c-.2-1.08-.91-.54-1.51-.47-3.66.38-5.41-.74-5.67-3.62-.34-3.79,1.81-7,5-7.27a29.33,29.33,0,0,1,3,.05c.56,0,1.1-.09,1.2-.79s-.21-1.13-1-1.33a9.83,9.83,0,0,0-6.69.73c-3.08,1.44-5.39,6.33-4.66,9.73C283.46,220.94,286.11,222.93,289.87,222.94ZM208.7,207.1c-2.63.1-4.82.6-5.61,3.28s.32,4.39,2.75,5.45a3.62,3.62,0,0,1,.81.55c.87.74,1.62,1.62.95,2.8a2.87,2.87,0,0,1-2.75,1.39,16,16,0,0,1-2.18-.58c-.77-.16-1.22.33-1.48,1s.13,1,.63,1.29c3.1,2,8.63-.28,9.09-3.9.33-2.6-1.56-3.85-3.52-5-1-.55-2-1.19-1.49-2.53a2.28,2.28,0,0,1,2.66-1.42c.54.05,1.09,0,1.62.09.84.13,1.2-.31,1.37-1,.25-1-.53-1-1.14-1.14S209.12,207.17,208.7,207.1Zm22.47,12c.08,3.06,2.25,4.45,5.12,3.26.49-.21,1.19-.83,1.41-.68,4.09,2.71,2.57-1.54,3.3-2.75.45-.77.16-1.94.43-2.87.42-1.44,1.39-3.28.24-4.24-1.38-1.17-3.46-.78-5.26-.15A7.59,7.59,0,0,0,231.17,219.14Zm87.75-3.22c-.05-2.91-1.85-4.73-4.65-4.7-3.39,0-6.42,3.4-6.32,7a4.56,4.56,0,0,0,4.78,4.68C316.21,222.86,319,219.73,318.92,215.92ZM163.21,209.2c4.54.55,4.51.54,3.39,5.14-.46,1.9-.81,3.84-1.14,5.77-.15.87-.84,2.06.66,2.43s1.86-.82,2.07-1.92a59.93,59.93,0,0,0,1.27-7.36c.18-2.61.89-4.23,3.89-3.85a1.12,1.12,0,0,0,1.36-1.09c0-1-.84-.82-1.45-.82-2.74,0-5.48,0-8.22,0C163.82,207.46,163.31,208.07,163.21,209.2Zm89.49,10.54c0,1.49.24,2.46,1.5,2.91a2.31,2.31,0,0,0,2.49-.17c.92-1-.08-1.67-.57-2.51-1.12-1.94-.13-5.2.57-5.44,4.56-1.55-.09-3.53.45-5.15.12-.35-.58-.68-1-.49-1.7.8-3.73,3.2-3.42,3.74C254.21,215.28,252.48,217.62,252.7,219.74Zm78.14,3.18c.91-.32,2.66.2,2.71-1.41s-1.5-.64-2.33-.87c-1.86-.51-2.79-1.61-2.17-3.58.67-2.13,1.91-3.66,4.37-3.63.82,0,1.71,0,1.75-1,0-1.22-1.12-1.17-1.92-1.25-2.68-.27-5.71,1.82-6.79,4.61C324.93,219.74,326.84,222.94,330.84,222.92Zm-52.93-12.13c-1.64.29-2.84,1.68-4.65.77-1-.5-1.71.59-1.72,1.74,0,2.28-.77,4.41-1.21,6.6-.17.85-.85,2.35.83,2.66s2.22-.62,2.39-2.25c.23-2.32.44-5.1,2.95-6C278.83,213.52,278,212.29,277.91,210.79Zm-34.09,9.43c-.23,1.21-.56,2.17.78,2.35s1.73-.83,1.88-1.81c.44-2.89.32-6,4.2-6.86.67-.15.43-1.13.41-1.76s-.38-.89-.83-.69c-1.5.68-3.28-.14-4.39.29s-1.19,2.76-1.31,4.37S243.55,219,243.82,220.22Zm77.71,2.37c1.81.29,1.69-1.51,1.83-2.39a49.19,49.19,0,0,1,1.34-6.58c.21-.69.61-1.8-.67-2.13s-1.79.19-2,1.39c-.54,2.75-1.18,5.46-1.72,8.21C320.12,221.88,320.29,222.65,321.53,222.59Zm26.56-3.27c-1.35,0-2.18.46-2.16,1.66a1.72,1.72,0,0,0,1.88,1.78c1.07,0,1.44-.94,1.47-1.8S349.15,219.15,348.09,219.32Z" transform="translate(-47.71 -71.85)"/><path class="cls-1" d="M419.76,187.9c-12.5,0-25,.07-37.5,0-16.73-.1-32.11-4.31-44.59-16A51,51,0,0,1,321.6,142.1c-2.61-16.52,0-32,10.12-45.78,10.69-14.55,25.14-22.26,43-23.94,9.63-.9,19.28-.37,28.92-.42,19.08-.1,38.16,0,57.24-.09,2.83,0,3.88.67,3.77,3.63-.21,5.8-.24,11.63,0,17.43.15,3.2-1.09,3.76-3.95,3.75-23.57-.1-47.15-.06-70.73-.06-18.79,0-30.85,12.21-31,31.1-.05,6.79.81,13.26,4.19,19.27,5.76,10.24,14.38,15.6,26.21,15.61h43.09c9.65,0,19.3.08,28.95,0,2.43,0,3.26.62,3.19,3.12-.16,6.25-.17,12.5,0,18.75.08,2.67-.61,3.56-3.43,3.53-13.82-.15-27.63-.07-41.45-.07Z" transform="translate(-47.71 -71.85)"/><path class="cls-1" d="M104.15,71.93c17.53,0,35.07.06,52.6-.06,2.86,0,3.83.7,3.72,3.65-.23,5.91-.25,11.84,0,17.75.12,2.91-1,3.44-3.57,3.41-10.3-.13-20.6,0-30.9-.11-2.78,0-3.51.88-3.51,3.58.09,27.83.06,55.67.06,83.5,0,4.24,0,4.24-4.29,4.24-9.75,0-19.51-.1-29.26.06-2.78,0-3.48-.86-3.47-3.55.09-27.83.06-55.67.06-83.5,0-4.26,0-4.27-4.32-4.27-10.08,0-20.17-.09-30.25,0-2.38,0-3-.73-2.91-3,.14-6.24.15-12.49,0-18.73-.07-2.47.68-3.1,3.13-3.08C68.86,72,86.5,71.93,104.15,71.93Z" transform="translate(-47.71 -71.85)"/><path class="cls-1" d="M234.05,218c.28-2.33,2.74-4.86,4.37-4.54,1.18.23,1,1.09.72,1.75-.8,2.11-.67,5.09-3.8,5.32C234,220.61,234,219.09,234.05,218Z" transform="translate(-47.71 -71.85)"/><path class="cls-1" d="M311,218.38c0-2.69.81-4.5,3-4.85a2.06,2.06,0,0,1,2.23,2.55c-.29,2.08-.77,4.25-3.38,4.5C311,220.77,311,219.23,311,218.38Z" transform="translate(-47.71 -71.85)"/><ellipse class="cls-1" cx="144.38" cy="142.79" rx="2.08" ry="1.24"/><ellipse class="cls-1" cx="217.46" cy="142.79" rx="2.08" ry="1.24"/><ellipse class="cls-1" cx="293.79" cy="142.79" rx="2.08" ry="1.24"/><circle class="cls-2" cx="276.5" cy="136.9" r="1.63"/></svg>