<svg id="Capa_1" data-name="Capa 1" xmlns="http://www.w3.org/2000/svg" viewBox="0 0 407.39 103.45"><defs><style>.cls-1{fill:#5b5b5f;}</style></defs><title>5</title><path class="cls-1" d="M87.22,201.66c-15.21,0-27.21-2-38.77-6.54-1.86-.73-2.5-1.54-2-3.69,1.56-6.26,2.81-12.6,4.18-18.92.53-2.42,2.11-3,4.08-1.33a50.7,50.7,0,0,0,23.93,11.2,54,54,0,0,0,21.61-.14,21.05,21.05,0,0,0,4.16-1.42c3.68-1.68,5.91-4.39,5.92-8.64s-3.05-6.17-6.33-7.61c-5.38-2.36-11.1-3.77-16.72-5.48-6.26-1.91-12.58-3.74-18.15-7.37-9.41-6.13-13-16.06-9.8-26.93,2.93-10.15,10.23-16.1,19.44-19.89,12-4.92,24.57-5.44,37.33-4.37,8.74.73,17.29,2.06,25.48,5.35,1.37.55,1.82,1,1.47,2.51-1.41,6.1-2.61,12.24-4,18.36-.57,2.58-1.95,3.12-4.11,1.49-10-7.55-21.41-10.34-33.74-9.79a28.7,28.7,0,0,0-12.23,2.78c-3.09,1.6-5.13,3.85-5.26,7.53s2.07,5.9,5.19,7.42c5.76,2.8,12,4.19,18.08,6,7.06,2,14.06,4.3,20.12,8.67,7.44,5.38,9.46,12.9,8.29,21.56-1.82,13.53-10.78,20.7-22.7,25.14C103.6,200.93,94,201.59,87.22,201.66Z" transform="translate(-46.31 -98.27)"/><path class="cls-1" d="M196.47,167.4c-8.27,0-16.54.14-24.81-.07-2.77-.07-3,1.06-2.8,3.26.78,7.19,6.27,12,14.93,13.43,11.8,1.87,22.52-1.21,32.75-6.79a4.94,4.94,0,0,1,2.39-1c1.34,0,1.95.17,1.53,1.83-1.27,5-2.37,10.11-3.48,15.18a3.76,3.76,0,0,1-2.47,3,76.84,76.84,0,0,1-36.06,5.1,44.08,44.08,0,0,1-17.19-4.68c-9.08-4.89-14.57-12.41-15.23-22.63-1.18-18,4.94-33,20.65-43,10.34-6.57,21.91-8.12,33.95-7,5.62.54,11.05,1.76,15.91,4.73,7,4.3,10.17,10.93,10.71,18.93a48.69,48.69,0,0,1-2.51,17.67,2.5,2.5,0,0,1-2.88,2.09C213.4,167.35,204.93,167.4,196.47,167.4ZM171.4,153.81c10.44,0,20.64,0,30.83,0a1.68,1.68,0,0,0,1.9-1.36,11,11,0,0,0-7.5-13.39C185.8,136.18,175.47,142.05,171.4,153.81Z" transform="translate(-46.31 -98.27)"/><path class="cls-1" d="M282.35,199.88c.58-2.66,1.1-5,1.73-7.89-4,2.13-7.33,4.57-11.06,6.32-7.89,3.7-16,4.52-24.29,1.84-7.11-2.3-11-7.89-11.35-15.45-.33-7.41,2.1-14.32,3.7-21.37,2.57-11.36,5.45-22.64,8.13-34,.47-2,1.2-2.85,3.46-2.78,6.4.19,12.8.12,19.19,0,1.87,0,2.32.32,1.84,2.32-3.31,13.68-7.31,27.2-10,41-2,10.47,1.45,14.17,12.86,12.34,1.82-.3,3.52-1.21,5.32-1.65,4.29-1.07,6.06-3.78,7-8.11,3.17-14.42,6.91-28.72,10.24-43.11.55-2.37,1.51-2.9,3.74-2.84,6.1.15,12.2.09,18.3,0,1.79,0,2.64.09,2.07,2.37-5,20.23-9.85,40.49-14.75,60.75-.69,2.86-1.42,5.71-2,8.59-.2,1-.5,1.57-1.64,1.57C297.41,199.87,290,199.88,282.35,199.88Z" transform="translate(-46.31 -98.27)"/><path class="cls-1" d="M444,176c-1.42,5.92-2.83,11.72-4.19,17.53a4.4,4.4,0,0,1-2.81,3.41,58.61,58.61,0,0,1-39.67,2.47,28.21,28.21,0,0,1-20.48-25.85c-1.13-24.36,15.14-43.13,39.18-48a61.17,61.17,0,0,1,34.68,3c2.51,1,3.68,2,2.67,5.1-1.47,4.44-2.25,9.1-3.44,13.64-.29,1.1.05,2.73-1.76,3a4.07,4.07,0,0,1-3.88-1.51c-8.69-9.68-28.35-10.68-37.19,2-5.35,7.68-7.09,16.09-4.23,25.06,2,6.33,7.43,8.11,13.41,8.64,8.35.73,15.59-2.14,22.15-7C440,176.24,441.56,175.16,444,176Z" transform="translate(-46.31 -98.27)"/><path class="cls-1" d="M328.33,199.89c5.27-21.86,10.42-43.25,15.58-64.63,0-.19.18-.36.22-.55.54-2.67.28-6.33,2.27-7.63s5.32-.41,8.07-.43c5,0,10,0,15.22,0-2.63,10.88-5.18,21.42-7.72,32q-4.71,19.54-9.41,39.09c-.28,1.19-.39,2.23-2.09,2.22C343.2,199.85,335.93,199.89,328.33,199.89Z" transform="translate(-46.31 -98.27)"/><path class="cls-1" d="M377.3,98.3c-1.26,5.44-2.48,10.57-3.62,15.72a2.16,2.16,0,0,1-2.55,2c-7.08-.09-14.15,0-21.23,0-1.35,0-2.22,0-1.7-1.88,1.25-4.62,2.22-9.32,3.36-14,.21-.89.26-1.91,1.72-1.9C361.22,98.33,369.16,98.3,377.3,98.3Z" transform="translate(-46.31 -98.27)"/></svg>