<svg id="Capa_1" data-name="Capa 1" xmlns="http://www.w3.org/2000/svg" viewBox="0 0 467.83 139.89"><defs><style>.cls-1{fill:#5b5b5f;}</style></defs><title>8</title><path class="cls-1" d="M326.44,165.12a.19.19,0,0,1,.05-.16c.32-.34.17-.76.17-1.14q0-20.65,0-41.31a1.79,1.79,0,0,0-.14-1.07c-.13-.42,0-.62.46-.62,2.64,0,5.28-.09,7.91.06,2.37.14,3.54,1.78,3.57,4.56-.27.32-.16.71-.16,1.06q0,18.72,0,37.42c0,.35-.13.74.18,1.05,3.42.25,6.9.76,9.56-2.21a10.58,10.58,0,0,0,2.3-5.66,37.39,37.39,0,0,0,.23-5.7c0-9.83,0-19.66,0-29.48,0-.85.15-1.15,1.08-1.12,2.47.08,4.95,0,7.42,0,2.77,0,4,1.17,4.34,3.9a17.15,17.15,0,0,1,.12,1.9c0,8,0,16,0,24.07a31.25,31.25,0,0,1-1.89,11.48c-2.28,5.8-6.55,9.28-12.52,10.83a26.59,26.59,0,0,1-6,.87,6.9,6.9,0,0,0-.78-.09q-9.88,0-19.78,0a1.3,1.3,0,0,0-.87.13,26.73,26.73,0,0,1-9.11-2,17,17,0,0,1-9.54-10.4,28.78,28.78,0,0,1-1.6-9.62c0-10,0-20,0-30,0-.87.19-1.13,1.09-1.1,2.47.07,4.94,0,7.42,0s4.26,1.28,4.41,4c.06,1,.09,1.93.09,2.9,0,9.13,0,18.25.08,27.38a11.27,11.27,0,0,0,2.58,7.6,6.83,6.83,0,0,0,4.8,2.34,5.52,5.52,0,0,1,.68.15c-.13,0-.31.1-.39,0s-.16.16-.18.17c1.16,0,2.18,0,3.2,0C325.58,165.34,326.09,165.6,326.44,165.12Z" transform="translate(-16.08 -77.46)"/><path class="cls-1" d="M291,165.36c1.92.1,3.21,1.42,3.35,3.63a32.05,32.05,0,0,1,0,4.8H263a2,2,0,0,0-1.17.13,25.45,25.45,0,0,1-10.2-2.5,17.18,17.18,0,0,1-8.84-10.9,31.73,31.73,0,0,1-1.25-9.79c0-3.1-.1-6.22.06-9.32.3-5.67,1.65-11,5.92-15.15a19.15,19.15,0,0,1,11-5c5.79-.82,11.61-.46,17.41-.31,4.89.12,9.63,1.23,13.68,4.29a14.24,14.24,0,0,1,5.71,10,17.61,17.61,0,0,1-2.06,11.47,9.91,9.91,0,0,1-5.61,4.83,4.75,4.75,0,0,1-1.67.23l-29.28,0c-.26,0-.55-.07-.71.23-.05,3,.09,6,1.42,8.8a7.07,7.07,0,0,0,6.06,4.25,2.62,2.62,0,0,1,.48.13.67.67,0,0,0-.16.12s0,.09,0,.09l.48,0Zm-24.52-22.45c3,0,6.09,0,9.13,0,3.42,0,5.08-1.52,5.43-4.92a7.4,7.4,0,0,0-6.17-8,51.84,51.84,0,0,0-10.49-.26,7.54,7.54,0,0,0-7.49,5.69A21.68,21.68,0,0,0,256,142c0,.73.15,1,.92,1C260.13,142.89,263.31,142.91,266.48,142.91Z" transform="translate(-16.08 -77.46)"/><path class="cls-1" d="M450.06,173.93a28.27,28.27,0,0,1-8.18-1.65,17.06,17.06,0,0,1-10.49-10.89,29.52,29.52,0,0,1-1.57-9.53A108.43,108.43,0,0,1,430,140c.52-5.14,1.92-9.92,5.74-13.69a18.75,18.75,0,0,1,9.07-4.73c5.5-1.33,11.1-.65,16.66-.78a25.91,25.91,0,0,1,11.85,2.33c5.05,2.37,8,6.44,9.44,11.7a35.5,35.5,0,0,1,1.11,9.51,86.51,86.51,0,0,1-.32,11.61c-1.05,7.87-4.79,14.73-14.24,17.08a35.66,35.66,0,0,1-5.62.86,1,1,0,0,0-.67-.13h-12.3A1,1,0,0,0,450.06,173.93Zm11.18-8.78a2.79,2.79,0,0,1,.47-.14,7.28,7.28,0,0,0,6.37-4.57,19.43,19.43,0,0,0,1.26-5.51c.26-.24.18-.56.18-.85q0-6.77,0-13.53c0-.29.1-.61-.18-.84a23,23,0,0,0-1-4.78,7.36,7.36,0,0,0-6.17-5,56.23,56.23,0,0,0-9.71-.11,7.31,7.31,0,0,0-5.68,2.7,11.16,11.16,0,0,0-2.27,6.81,136.21,136.21,0,0,0,.19,17.73,8.81,8.81,0,0,0,4,7,10.14,10.14,0,0,0,3.88,1.15.88.88,0,0,0,0,.16s.05,0,.08,0h8.64C461.31,165.35,461.32,165.23,461.24,165.15Z" transform="translate(-16.08 -77.46)"/><path class="cls-1" d="M390.06,173.94a24.93,24.93,0,0,1-10.91-2.84,17.29,17.29,0,0,1-8.34-11,34.57,34.57,0,0,1-1.19-9.81c0-3.34-.15-6.68.18-10,.56-5.68,2.13-10.91,6.68-14.78a19.63,19.63,0,0,1,10.16-4.28c5.65-.83,11.35-.47,17-.34a21,21,0,0,1,12.84,4.33,18,18,0,0,1,6.07,9.62,35.46,35.46,0,0,1,1.14,9.5,86.67,86.67,0,0,1-.34,11.62c-1.17,9.08-5.91,15.67-15.88,17.46-1.39.26-2.78.35-4.17.5a1,1,0,0,0-.67-.14H390.73A.94.94,0,0,0,390.06,173.94Zm19.07-18.61c.28-.23.19-.55.19-.84q0-7,0-13.94c0-.29.09-.61-.19-.85-.2-1.18-.36-2.37-.63-3.54a7.58,7.58,0,0,0-6.46-6.23,52.71,52.71,0,0,0-9.81-.14,7.3,7.3,0,0,0-5.61,2.64,11.61,11.61,0,0,0-2.35,7.19c-.11,4.38-.08,8.76-.09,13.14a22.45,22.45,0,0,0,.44,5.17c.63,2.77,1.79,5.16,4.53,6.45a13.22,13.22,0,0,0,3,.76c0,.06-.05.14,0,.17a.24.24,0,0,0,.17.06l9.15,0a.88.88,0,0,0,0-.14l-.39-.06a2.52,2.52,0,0,1,.47-.13,7.35,7.35,0,0,0,6.45-4.76A22.1,22.1,0,0,0,409.13,155.33Z" transform="translate(-16.08 -77.46)"/><path class="cls-1" d="M215.06,165.15a7.14,7.14,0,0,0,4.5-2.09c2.54-2.75,2.34-9.22-2.51-10.77-.44-.14-.9-.24-1.34-.36-.26-.32-.62-.2-.93-.2H197.73a1.32,1.32,0,0,0-.87.13,15.8,15.8,0,0,1-9.64-3.33,14,14,0,0,1-5-9.76,19,19,0,0,1,.82-8.58c1.79-5,5.44-7.86,10.58-9a26.12,26.12,0,0,1,5.58-.39q16.55,0,33.09,0c.91,0,1.23.22,1.15,1.15a37.16,37.16,0,0,1-.17,4.6,3.47,3.47,0,0,1-3.7,3.1c-8.25,0-16.51,0-24.76.06a9.2,9.2,0,0,0-4.36.88,6.38,6.38,0,0,0-3.12,6.26c.4,3.88,2.8,6.05,6.71,6.05,5.78,0,11.57-.06,17.35,0a15.54,15.54,0,0,1,10.15,3.56,13.28,13.28,0,0,1,4.55,8.2c.74,4.56.52,9-2.14,13a13.62,13.62,0,0,1-11.3,6.13l-1.5,0H185.08a24.85,24.85,0,0,1,.06-4.88c.37-2.44,1.11-3.17,3.49-3.67.26.21.58.13.87.13h25a1.83,1.83,0,0,0,.78,0C215.4,165.25,215.15,165.2,215.06,165.15Z" transform="translate(-16.08 -77.46)"/><path class="cls-1" d="M115.9,194.57c-.13-6.4,5.29-11.81,11.94-11.95s12.32,5.08,12.45,11.44a12.2,12.2,0,0,1-24.39.51Z" transform="translate(-16.08 -77.46)"/><path class="cls-1" d="M59.85,195.94a11.34,11.34,0,1,1-11.25-11A11.14,11.14,0,0,1,59.85,195.94Z" transform="translate(-16.08 -77.46)"/><path class="cls-1" d="M42,117.32c-6.11-.17-11-5-10.86-10.84A11,11,0,0,1,42.5,96,10.88,10.88,0,0,1,53.22,107.1C53.06,112.79,47.89,117.49,42,117.32Z" transform="translate(-16.08 -77.46)"/><path class="cls-1" d="M88.72,198.2a9.59,9.59,0,1,1-9.85,9.63A9.81,9.81,0,0,1,88.72,198.2Z" transform="translate(-16.08 -77.46)"/><path class="cls-1" d="M85.69,77.46a9.57,9.57,0,1,1-9.85,9.61A9.65,9.65,0,0,1,85.69,77.46Z" transform="translate(-16.08 -77.46)"/><path class="cls-1" d="M150.34,139.39a9.47,9.47,0,1,1,9.62-9.72A9.63,9.63,0,0,1,150.34,139.39Z" transform="translate(-16.08 -77.46)"/><path class="cls-1" d="M160.6,167.15a9.46,9.46,0,0,1-18.92-.07,9.42,9.42,0,0,1,9.41-9.13A9.33,9.33,0,0,1,160.6,167.15Z" transform="translate(-16.08 -77.46)"/><path class="cls-1" d="M26.41,158.29a9,9,0,1,1,.18,17.93,9,9,0,1,1-.18-17.93Z" transform="translate(-16.08 -77.46)"/><path class="cls-1" d="M127.73,108.45a8.44,8.44,0,1,1,8.71-8.37A8.58,8.58,0,0,1,127.73,108.45Z" transform="translate(-16.08 -77.46)"/><path class="cls-1" d="M57,119.57c-.15-3.87,3.32-7.44,7.76-7.39a7.44,7.44,0,1,1-.32,14.87A7.45,7.45,0,0,1,57,119.57Z" transform="translate(-16.08 -77.46)"/><path class="cls-1" d="M127.89,143.86a7.39,7.39,0,1,1-7.69,7.33A7.52,7.52,0,0,1,127.89,143.86Z" transform="translate(-16.08 -77.46)"/><path class="cls-1" d="M23.62,144.58a7.31,7.31,0,1,1,7.6-7.3A7.43,7.43,0,0,1,23.62,144.58Z" transform="translate(-16.08 -77.46)"/><path class="cls-1" d="M282.49,196.88c.56-2.12,1.1-4.19,1.65-6.26.38-1.41.79-2.82,1.12-4.25a1.08,1.08,0,0,1,1.21-.91c2.13,0,2.16,0,1.57,2-1.3,4.48-2.62,8.95-3.88,13.43a1.38,1.38,0,0,1-1.55,1.2c-.8,0-1.61.06-1.9-1.11-.78-3.06-1.71-6.09-2.57-9.13-.08-.29-.09-.69-.42-.71s-.35.39-.43.67c-.91,3.13-1.88,6.24-2.72,9.39-.33,1.24-1.26.72-1.94.86a1,1,0,0,1-1.21-.77c-1.49-4.94-3-9.87-4.49-14.81-.19-.64,0-1,.77-1,2.87,0,2.41-.17,3,2.2.71,2.74,1.45,5.47,2.17,8.21.06.25.05.6.37.62s.35-.35.41-.59c.83-3.05,1.65-6.11,2.48-9.16a1.92,1.92,0,0,1,2.72-1.17c.34.18.4.49.49.82.91,3.31,1.84,6.6,2.75,9.91A.72.72,0,0,0,282.49,196.88Z" transform="translate(-16.08 -77.46)"/><path class="cls-1" d="M338.45,192c0,2.37,0,4.63,0,6.89,0,.66-.06,1.33-.09,2-.05,1.09-.27,1.2-1.75,1.18-.94,0-1.15-.44-1.1-1.33.22-4.67.39-9.34.58-14,0-.52-.09-1.21.64-1.25s1.76-.39,2.26.73c.95,2.13,1.95,4.23,2.93,6.35.7,1.51,1.38,3,2.09,4.54.1.22.15.57.48.54s.26-.36.34-.56c1.55-3.57,3.07-7.15,4.61-10.73a2,2,0,0,1,2.52-.8c.38.24.31.64.33,1q.24,4.9.46,9.81c.07,1.54.1,3.08.23,4.61.07.82-.31,1.07-1,1.1h-.3c-1.65,0-1.7,0-1.76-1.66-.1-2.79-.24-5.59-.38-8.68a26.86,26.86,0,0,0-1.61,3.66c-.81,1.93-1.63,3.86-2.36,5.83-.26.72-.71.76-1.3.79a1.1,1.1,0,0,1-1.2-.79c-1.27-2.89-2.6-5.76-3.91-8.64C339.06,192.38,339,192.13,338.45,192Z" transform="translate(-16.08 -77.46)"/><path class="cls-1" d="M47.79,150.79a6.47,6.47,0,0,1-6.43-6.34A6.53,6.53,0,0,1,48,138.12a6.34,6.34,0,1,1-.25,12.67Z" transform="translate(-16.08 -77.46)"/><path class="cls-1" d="M92.38,118.06a6.43,6.43,0,0,1-6.48-6.28,6.54,6.54,0,0,1,13.07,0A6.41,6.41,0,0,1,92.38,118.06Z" transform="translate(-16.08 -77.46)"/><path class="cls-1" d="M51,169.48a6.13,6.13,0,1,1,6.11,6.08A5.9,5.9,0,0,1,51,169.48Z" transform="translate(-16.08 -77.46)"/><path class="cls-1" d="M114.54,180.83A5.9,5.9,0,0,1,108.6,175a5.74,5.74,0,0,1,6-5.74c3.58.06,5.94,2.43,5.93,5.83C120.54,178.67,117.72,180.76,114.54,180.83Z" transform="translate(-16.08 -77.46)"/><path class="cls-1" d="M392.51,195.22c-.37.61-.13,1.29-.16,1.93-.05,1.3,0,2.61,0,3.91,0,.73-.29,1-1,1-2.07,0-2.07,0-2.07-2.14,0-4.41,0-8.82,0-13.23,0-.91.29-1.32,1.21-1.22a4.17,4.17,0,0,0,.5,0c1.36,0,1.38,0,1.37,1.41,0,1.63,0,3.27,0,4.9,0,.24-.12.6.23.68s.35-.26.48-.44c1.34-1.87,2.67-3.74,4-5.6a2.84,2.84,0,0,1,3-.91c.53.24.4.57.11.95-1.56,2.07-3.08,4.18-4.68,6.23a1.09,1.09,0,0,0,.05,1.68c1.85,2.18,3.62,4.43,5.42,6.66.19.23.49.47.37.76s-.52.26-.81.29a3.37,3.37,0,0,1-3.61-1.46c-1.12-1.69-2.47-3.21-3.73-4.8C393,195.57,392.9,195.27,392.51,195.22Z" transform="translate(-16.08 -77.46)"/><path class="cls-1" d="M371,197.94c-1,0-2.17-.43-2.92.12s-.75,1.8-1.09,2.73a2.19,2.19,0,0,1-3.06,1.14c-.49-.26-.21-.56-.11-.84l3.52-9.33c.67-1.77,1.4-3.52,2-5.32.39-1.2,1.27-.93,2.11-1a1.27,1.27,0,0,1,1.47,1c1.75,4.74,3.58,9.45,5.38,14.17.49,1.29.42,1.38-1,1.46-1.61.08-1.78,0-2.34-1.47-.35-.89-.35-2.17-1.11-2.58S372,197.94,371,197.94Zm-2.14-2.34h3.7c.39,0,.58-.07.44-.49-.65-1.9-1.29-3.8-2-5.89Z" transform="translate(-16.08 -77.46)"/><path class="cls-1" d="M90.57,181.82a5.64,5.64,0,0,1-5.64,5.57,5.54,5.54,0,1,1-.07-11.08A5.63,5.63,0,0,1,90.57,181.82Z" transform="translate(-16.08 -77.46)"/><path class="cls-1" d="M210.31,193.87c0-2.44,0-4.88,0-7.32,0-.83.29-1.12,1.11-1.11,2.67,0,5.34,0,8,0,.55,0,1.05,0,.92.78s.31,1.67-1,1.66c-1.67,0-3.34,0-5,0-.72,0-1,.16-1,.94a22.1,22.1,0,0,1,0,2.7c0,.69.24.85.87.83,1.37,0,2.74,0,4.11,0,1,0,1.2.39,1.22,1.3s-.33,1.12-1.16,1.09c-1.4-.06-2.81,0-4.21,0-.69,0-.85.29-.83.9,0,1.07,0,2.14,0,3.21,0,.62.19.81.8.8,1.74,0,3.48,0,5.21,0,1,0,1,.56,1,1.26s-.06,1.24-1,1.23c-2.7,0-5.4.07-8.1,0-.8,0-1-.28-1-1.05C210.33,198.61,210.31,196.24,210.31,193.87Z" transform="translate(-16.08 -77.46)"/><path class="cls-1" d="M304.42,185.45c1.3,0,2.61,0,3.91,0,.59,0,1.14-.07,1.1.84-.06,1.33-.19,1.59-1.17,1.6-1.64,0-3.28,0-4.92,0-.69,0-1,.19-.93.9,0,.9,0,1.81,0,2.71,0,.65.16.89.84.86,1.44,0,2.88,0,4.31,0,1.11,0,1,.66,1,1.38s-.29,1-1.05,1c-1.4-.05-2.81,0-4.21,0-.8,0-1,.28-.93,1a28.24,28.24,0,0,1,0,2.91c0,.77.17,1.06,1,1,1.7-.07,3.4,0,5.11,0,.57,0,1,.09.91.82s.42,1.62-.81,1.63c-2.81,0-5.62,0-8.42,0-.61,0-.83-.34-.83-1q0-7.27,0-14.54c0-.86.34-1.11,1.14-1.09C301.81,185.49,303.12,185.45,304.42,185.45Z" transform="translate(-16.08 -77.46)"/><path class="cls-1" d="M412.33,193.72c0-2.37,0-4.75,0-7.12,0-.86.28-1.18,1.16-1.16,2.61,0,5.21,0,7.82,0,.54,0,1.23,0,1,.77-.16.63.34,1.73-1.06,1.68-1.7-.06-3.41,0-5.11,0-.6,0-.84.15-.81.79a28.05,28.05,0,0,1,0,2.9c0,.65.22.79.81.78,1.47,0,2.94,0,4.41,0,1.1,0,.89.72.93,1.36s-.1,1.06-.92,1c-1.47-.06-2.94,0-4.41,0-.59,0-.84.13-.82.78.05,1.13,0,2.27,0,3.4,0,.59.22.74.76.73,1.74,0,3.48,0,5.22,0,1.27-.05,1,.76,1.08,1.52s-.34,1-1.1.95c-2.5,0-5,0-7.51,0-1.44,0-1.46,0-1.46-1.44Z" transform="translate(-16.08 -77.46)"/><path class="cls-1" d="M236,202.29a14.14,14.14,0,0,1-3.75-.56c-1.06-.23-.83-.94-.61-1.61s.32-1.44,1.38-1.05a8.83,8.83,0,0,0,3.63.59c1.62-.12,2.53-1.08,2.35-2.47a2.34,2.34,0,0,0-1.49-1.73c-1.21-.63-2.44-1.21-3.63-1.87a4.27,4.27,0,0,1-2.48-4.31,4.83,4.83,0,0,1,3.63-3.83,9.66,9.66,0,0,1,5.77.45c.5.19,1.15.42.63,1.2-.39.58-.17,1.86-1.58,1.28a6.59,6.59,0,0,0-3.32-.54,1.93,1.93,0,0,0-1.84,1.28,1.62,1.62,0,0,0,.91,2c1.16.64,2.37,1.21,3.54,1.83,2.6,1.39,3.47,3.14,2.85,5.69-.49,2-2.71,3.59-5.2,3.64Z" transform="translate(-16.08 -77.46)"/><path class="cls-1" d="M120.63,128.46a5.16,5.16,0,0,1-5.3-5.17,5.22,5.22,0,0,1,5.18-5.08,5.16,5.16,0,0,1,5.39,5.08A5.07,5.07,0,0,1,120.63,128.46Z" transform="translate(-16.08 -77.46)"/><path class="cls-1" d="M86.68,135.89c-2.76,0-5.27-2.41-5.13-5a5.15,5.15,0,0,1,10.29,0A5.1,5.1,0,0,1,86.68,135.89Z" transform="translate(-16.08 -77.46)"/><path class="cls-1" d="M191.4,198.5c.45-2.23-.44-4.08-1.56-5.92s-2.26-4-3.39-6c-.48-.85-.33-1.08.67-1.11.27,0,.54,0,.8,0a1.69,1.69,0,0,1,1.94,1.17c.84,1.78,1.76,3.52,2.66,5.27.11.23.13.6.46.59s.37-.33.5-.57q1.38-2.76,2.78-5.52a2.41,2.41,0,0,1,2.84-.83c.46.29.15.56,0,.84-1.35,2.52-2.66,5.07-4.07,7.56a5.74,5.74,0,0,0-.6,3.08c0,1.3,0,2.61,0,3.91,0,.83-.35,1.14-1.15,1.09-1.91-.11-1.91-.1-1.91-2.05Z" transform="translate(-16.08 -77.46)"/><path class="cls-1" d="M473.52,194.86c0,2,0,4.08,0,6.12,0,.82-.26,1.11-1.11,1.06-1.94-.13-1.94-.09-1.94-2,0-3.71,0-7.42,0-11.13,0-.84-.25-1.11-1.09-1.06-1.06.07-2.14,0-3.2,0s-.79-.61-.78-1.14-.25-1.28.78-1.27c3.87,0,7.75,0,11.63,0,.5,0,1.07.06.87.73s.35,1.64-.89,1.65-2.28,0-3.41,0c-.7,0-.92.17-.91.89C473.55,190.78,473.52,192.82,473.52,194.86Z" transform="translate(-16.08 -77.46)"/><path class="cls-1" d="M89.76,167.6a4.73,4.73,0,1,1,.15-9.45,5,5,0,0,1,4.82,4.77A4.88,4.88,0,0,1,89.76,167.6Z" transform="translate(-16.08 -77.46)"/><path class="cls-1" d="M453.05,193.87c0,1.77,0,3.54,0,5.31,0,.68.15,1,.88.89,1-.14.86.56.88,1.16s-.22.83-.91.8c-1.46-.06-2.93,0-4.4,0-1,0-1.27-.3-1.23-1.33,0-.54.26-.75.74-.67.85.14,1-.29,1-1q0-5.27,0-10.52c0-.78-.13-1.23-1-1.08-.57.09-.86-.15-.85-.77s.08-1.16.77-1.18c1.81,0,3.61,0,5.41,0,.78,0,.58.66.61,1.13s-.06.92-.68.81c-1-.17-1.21.3-1.17,1.22C453.1,190.39,453.05,192.13,453.05,193.87Z" transform="translate(-16.08 -77.46)"/><path class="cls-1" d="M73.18,160.37a4.52,4.52,0,0,1-4.5-4.42,4.41,4.41,0,0,1,4.63-4.38,4.33,4.33,0,0,1,4.46,4.4A4.45,4.45,0,0,1,73.18,160.37Z" transform="translate(-16.08 -77.46)"/><path class="cls-1" d="M108,138.32a4.11,4.11,0,0,1-4.14,4.09,4.34,4.34,0,0,1-4.29-4.14,4.26,4.26,0,0,1,4.34-4A4,4,0,0,1,108,138.32Z" transform="translate(-16.08 -77.46)"/><path class="cls-1" d="M67.19,140a4,4,0,0,1,4-4.05,4,4,0,0,1,4.21,4,4.12,4.12,0,0,1-4,4A4,4,0,0,1,67.19,140Z" transform="translate(-16.08 -77.46)"/><path class="cls-1" d="M104.91,157.59a3.63,3.63,0,0,1-3.77-3.66,3.72,3.72,0,0,1,3.84-3.72,3.88,3.88,0,0,1,3.75,3.7A3.79,3.79,0,0,1,104.91,157.59Z" transform="translate(-16.08 -77.46)"/><path class="cls-1" d="M326.53,121.44a1.79,1.79,0,0,1,.14,1.07q0,20.65,0,41.31c0,.38.15.8-.17,1.14q0-18.4,0-36.81C326.47,125.91,326.51,123.68,326.53,121.44Z" transform="translate(-16.08 -77.46)"/><path class="cls-1" d="M338.49,165c-.31-.31-.18-.7-.18-1.05q0-18.71,0-37.42c0-.35-.11-.74.16-1.06,0,.1,0,.2,0,.3Q338.5,145.36,338.49,165Z" transform="translate(-16.08 -77.46)"/><path class="cls-1" d="M185.08,173.79h36.06l1.5,0c-.26.3-.62.18-.94.18H186C185.67,174,185.29,174.19,185.08,173.79Z" transform="translate(-16.08 -77.46)"/><path class="cls-1" d="M261.86,173.93a2,2,0,0,1,1.17-.13h31.3c-.16.33-.46.21-.7.21H262.35A4.13,4.13,0,0,1,261.86,173.93Z" transform="translate(-16.08 -77.46)"/><path class="cls-1" d="M256.06,152c.16-.3.45-.23.71-.23l29.28,0c-.41.33-.9.17-1.35.17Q270.38,152,256.06,152Z" transform="translate(-16.08 -77.46)"/><path class="cls-1" d="M291,165.36H264.34l-.48,0s0-.08,0-.09a.67.67,0,0,1,.16-.12l25.72,0A2.05,2.05,0,0,1,291,165.36Z" transform="translate(-16.08 -77.46)"/><path class="cls-1" d="M215.06,165.15c.09,0,.34.1.18.18a1.83,1.83,0,0,1-.78,0h-25c-.29,0-.61.08-.87-.13.43,0,.86-.09,1.29-.09Z" transform="translate(-16.08 -77.46)"/><path class="cls-1" d="M321.66,173.93a1.3,1.3,0,0,1,.87-.13q9.89,0,19.78,0a6.9,6.9,0,0,1,.78.09,5.23,5.23,0,0,1-.78.11H322.25A5.6,5.6,0,0,1,321.66,173.93Z" transform="translate(-16.08 -77.46)"/><path class="cls-1" d="M196.86,151.86a1.32,1.32,0,0,1,.87-.13h17.05c.31,0,.67-.12.93.2H197.85C197.52,151.93,197.19,151.88,196.86,151.86Z" transform="translate(-16.08 -77.46)"/><path class="cls-1" d="M450.06,173.93a1,1,0,0,1,.67-.14H463a1,1,0,0,1,.67.13c-2.15.17-4.31,0-6.47.06C454.84,174,452.45,174,450.06,173.93Z" transform="translate(-16.08 -77.46)"/><path class="cls-1" d="M390.06,173.94a.94.94,0,0,1,.67-.15h11.92a1,1,0,0,1,.67.14c-2.63,0-5.25.06-7.88.07C393.65,174,391.86,174,390.06,173.94Z" transform="translate(-16.08 -77.46)"/><path class="cls-1" d="M326.44,165.12c-.35.48-.86.22-1.29.23-1,.05-2,0-3.2,0,0,0,.1-.23.18-.17s.26,0,.39,0Z" transform="translate(-16.08 -77.46)"/><path class="cls-1" d="M469.34,154.93V139.71c.28.23.18.55.18.84q0,6.76,0,13.53C469.52,154.37,469.6,154.69,469.34,154.93Z" transform="translate(-16.08 -77.46)"/><path class="cls-1" d="M452.51,165.16h8.73c.08.08.07.2,0,.2h-8.64s-.08,0-.08,0A.88.88,0,0,1,452.51,165.16Z" transform="translate(-16.08 -77.46)"/><path class="cls-1" d="M409.13,155.33q0-7.82,0-15.63c.28.24.19.56.19.85q0,7,0,13.94C409.32,154.78,409.41,155.1,409.13,155.33Z" transform="translate(-16.08 -77.46)"/><path class="cls-1" d="M392.13,165.14h8.92l.39.06a.88.88,0,0,1,0,.14l-9.15,0a.24.24,0,0,1-.17-.06S392.12,165.2,392.13,165.14Z" transform="translate(-16.08 -77.46)"/></svg>