<svg id="Capa_1" data-name="Capa 1" xmlns="http://www.w3.org/2000/svg" viewBox="0 0 468.82 76.45"><defs><style>.cls-1{fill:#5b5b5f;}</style></defs><title>9</title><path class="cls-1" d="M390.51,146.74c1,.18,2,.38,2.92.53,5.45.84,8.73,3.93,9.79,9.36a38.26,38.26,0,0,1,0,15.3c-1.55,7.38-5.62,10.9-13.32,12.11a67.33,67.33,0,0,1-9.91.72c-12.9.07-25.79,0-38.69.06-1.5,0-2-.35-2-1.93q.07-35.76,0-71.51c0-1.53.5-1.82,1.89-1.82,12.5,0,25,0,37.51.06a53.07,53.07,0,0,1,11.44.92c6.26,1.42,10.47,4.87,11.81,11.39a34.49,34.49,0,0,1,0,14.69c-1.2,5.35-4.72,8.31-9.93,9.48C391.52,146.21,391,146,390.51,146.74ZM369,168.05v0c2.66,0,5.33.07,8,0,4.22-.14,6.38-1.78,6.82-5.2a13.57,13.57,0,0,0-.2-5.23c-.66-2.53-1.55-3.36-4.09-3.66-6.23-.71-12.48-.19-18.72-.37-1,0-1.17.45-1.16,1.3,0,4,0,7.94,0,11.91,0,1,.34,1.34,1.35,1.32C363.65,168,366.32,168.05,369,168.05Zm.8-41.86c-3.2,0-5.81.07-8.41,0-1.34,0-1.81.3-1.76,1.71.1,3.32.1,6.65,0,10-.05,1.44.33,1.94,1.83,1.89,5.14-.16,10.28.08,15.42-.18,3.68-.19,5.28-1.37,5.79-4.92a16.22,16.22,0,0,0,0-4.29,4.09,4.09,0,0,0-3.7-3.88C375.69,125.91,372.44,126.41,369.79,126.19Z" transform="translate(-12.85 -108.98)"/><path class="cls-1" d="M147,147.67c0,6.1.34,12.23-1,18.27-2.49,10.9-8,16.22-19.14,18.09a89.59,89.59,0,0,1-29.72.29C87,182.6,79,176,77.81,164a179,179,0,0,1,.1-32.16C79,118,88.13,111.31,100.27,109.76a108.87,108.87,0,0,1,23.18-.32c7.94.69,14.93,3.37,19.5,10.45a26,26,0,0,1,3.69,12A148.9,148.9,0,0,1,147,147.67ZM98,147.28c0,2,0,3.91,0,5.86s.12,3.9.24,5.85c.33,5.21,2.82,8.18,7.29,8.61a54.65,54.65,0,0,0,12.46.06c4.52-.6,6.7-2.43,7.62-7,1.3-6.44.8-13,.82-19.46a44.88,44.88,0,0,0-.42-7.58c-.67-3.87-2.4-6-6.19-6.77a37.55,37.55,0,0,0-14.33-.07c-4.33.74-6.08,2.72-6.89,7S98.23,142.82,98,147.28Z" transform="translate(-12.85 -108.98)"/><path class="cls-1" d="M206.67,133.19c-2.67,0-5.34-.05-8,0-1.2,0-1.62-.38-1.58-1.57a10.56,10.56,0,0,0-.26-2.89,4.64,4.64,0,0,0-4-3.76,37.87,37.87,0,0,0-12.61-.2c-4.69.65-6.38,2.73-5.71,8.75.33,2.93,2.13,4.5,5.07,4.74,5.58.45,11.16.76,16.73,1.2a45.27,45.27,0,0,1,12,2.15c6.14,2.25,9.22,6.71,9.87,13.18a65.14,65.14,0,0,1-.13,14c-1,8.54-5.43,13.34-14.06,15.17-7.71,1.64-15.54,1.26-23.34,1.14A64.89,64.89,0,0,1,167,183.71c-8.27-1.91-11.55-7.13-12.48-14.48-.31-2.44-.26-4.93-.44-7.4-.08-1.13.37-1.45,1.45-1.44,5.47,0,10.94,0,16.41,0,1,0,1.38.32,1.35,1.34a12.68,12.68,0,0,0,.31,2.52c.56,3.14,2.12,4.57,5.34,4.95a71.08,71.08,0,0,0,14.8,0,4.29,4.29,0,0,0,.94-.22c3.13-1,4.32-3.62,4-8.58-.2-2.85-1.69-4.38-4.85-4.88-6.05-.94-12.19-.89-18.26-1.54a46,46,0,0,1-11.6-2.29,13.13,13.13,0,0,1-8.55-9.64,46,46,0,0,1-.32-19.54c1.31-6.92,5.93-10.57,12.55-11.91,8.66-1.74,17.44-1.79,26.23-1.33a51,51,0,0,1,9.47,1.06c8.19,2,12,7.26,12.89,15.77.19,1.81,0,3.64.12,5.47,0,1.2-.31,1.73-1.65,1.68C212,133.12,209.34,133.19,206.67,133.19Z" transform="translate(-12.85 -108.98)"/><path class="cls-1" d="M294.8,147.31c0,11.85,0,23.7,0,35.56,0,1.5-.35,2-1.93,2-5.4-.1-10.81-.11-16.21,0-1.68,0-2.07-.53-2.05-2.1.07-8.47,0-16.94.06-25.41,0-1.62-.29-2.25-2.11-2.22q-10.94.18-21.88,0c-1.8,0-2.13.54-2.11,2.2.08,8.46,0,16.93.06,25.4,0,1.54-.28,2.17-2,2.13-5.53-.11-11.07-.08-16.61,0-1.39,0-1.74-.44-1.73-1.78q0-35.85,0-71.71c0-1.36.38-1.78,1.75-1.77,5.6.07,11.2.08,16.8,0,1.56,0,1.8.6,1.79,2,0,8.2,0,16.41-.06,24.62,0,1.44.35,1.86,1.83,1.85,7.42-.08,14.85-.1,22.27,0,1.74,0,2-.59,2-2.12-.07-8.08,0-16.16-.06-24.23,0-1.6.41-2.13,2.06-2.1q8.1.15,16.21,0c1.59,0,1.92.52,1.92,2C294.78,123.47,294.8,135.39,294.8,147.31Z" transform="translate(-12.85 -108.98)"/><path class="cls-1" d="M471.6,184.79c-2.87,0-5.73-.07-8.6,0a1.75,1.75,0,0,1-2-1.52c-1-3.42-2.08-6.81-3-10.23a1.53,1.53,0,0,0-1.74-1.36c-8.07,0-16.15,0-24.22,0-1.17,0-1.56.52-1.82,1.5-.9,3.38-1.93,6.73-2.74,10.12-.3,1.24-.87,1.5-2,1.49-5.79-.05-11.59-.07-17.38,0-1.63,0-1.92-.32-1.44-1.92q9.33-30.84,18.53-61.73c1-3.28,2-6.55,2.93-9.85.34-1.24.83-1.78,2.23-1.77q13.58.11,27.15,0a1.89,1.89,0,0,1,2.17,1.61q10.88,35.94,21.87,71.86c.42,1.37.24,1.84-1.28,1.79C477.33,184.72,474.46,184.79,471.6,184.79Zm-27.24-59.46-.44,0c-.92,3.23-1.85,6.46-2.76,9.69-1.94,6.85-3.85,13.71-5.8,20.55-.25.86-.51,1.5.82,1.5,5.72,0,11.44,0,17.38,0C450.45,146.38,447.41,135.86,444.36,125.33Z" transform="translate(-12.85 -108.98)"/><path class="cls-1" d="M42.67,109.59c9.18,0,18.36,0,27.54,0,1.69,0,2.25.41,2.19,2.17-.13,4.36-.1,8.72,0,13.08,0,1.52-.39,2-2,2-5.47-.08-10.94,0-16.4-.07-1.68,0-2,.52-2,2.09,0,17.9,0,35.8.07,53.71,0,1.7-.31,2.36-2.2,2.31-5.4-.14-10.81-.11-16.21,0-1.6,0-1.95-.49-1.95-2,.05-17.9,0-35.8.08-53.71,0-1.82-.35-2.46-2.31-2.4-4.88.15-9.77,0-14.65.08-1.46,0-2-.31-2-1.92.11-4.49.1-9,0-13.48,0-1.5.47-1.85,1.89-1.84C24.05,109.62,33.36,109.59,42.67,109.59Z" transform="translate(-12.85 -108.98)"/><path class="cls-1" d="M327.21,147.32c0,11.78,0,23.57,0,35.35,0,1.74-.46,2.2-2.18,2.16-5.47-.11-10.94-.08-16.4,0-1.34,0-1.78-.34-1.78-1.74q.06-35.93,0-71.87c0-1.32.42-1.65,1.66-1.64,5.66.05,11.32.06,17,0,1.43,0,1.7.53,1.69,1.82C327.19,123.36,327.21,135.34,327.21,147.32Z" transform="translate(-12.85 -108.98)"/></svg>