<svg id="Capa_1" data-name="Capa 1" xmlns="http://www.w3.org/2000/svg" viewBox="0 0 452.76 136.34"><defs><style>.cls-1{fill:#4d3685;}</style></defs><title>10a</title><path class="cls-1" d="M92,176.35a.17.17,0,0,0,.28,0,3.38,3.38,0,0,0,2.4-1.75c.61-.1,1.33,0,1.4-.94A3.69,3.69,0,0,0,97.7,173c2.68-2.06,5.43-4,8.18-6a3.3,3.3,0,0,1,1.58-.49c.23,0,.25.4.25.74q-.1,9.06-.13,18.11a2.42,2.42,0,0,1-1.38,2.3c-2.09,1.27-4,2.79-6,4.19-3.45,2.38-7,4.64-10.33,7.15A6.44,6.44,0,0,1,84,200.34c-5.87-1.3-11.8-2.4-17.76-3.22-5.28-.74-10.47-2-15.73-2.7-3.24-.45-6.36-1.66-9.69-1.41H40.3c-.6-.88-1.61-.85-2.48-.94-3.71-.41-7.34-1.2-11-1.86-1.47-.26-1.72-.87-1.69-2.09.05-1.91,0-3.82,0-5.74q0-44.17,0-88.36c0-1.71.26-2.32,2.11-2,3.8.76,7.65,1.31,11.47,2,5.56,1,11.09,2.13,16.67,2.94,4.94.72,9.78,2.17,14.82,2.15h0c.12.38.28.69.75.73A88.74,88.74,0,0,1,83.06,102a8.17,8.17,0,0,0,8.09-2.3,24.3,24.3,0,0,1,3-2.16c3.83-2.76,7.74-5.42,11.67-8,.42-.28.82-1.15,1.52-.65.45.32.3,1,.3,1.5,0,5.59,0,11.18,0,16.77a3.09,3.09,0,0,1-1.5,2.8c-1.66,1.21-3.77,1.89-4.84,3.84l-.14-.06-.12.09c-3.13,1.19-5.53,3.52-8.23,5.36-1.46,1-3.31,1.63-4.22,3.36l0,0a20.5,20.5,0,0,1-4.29.09c-2.27-.08-4.36-1.37-6.69-.94l-1.77-.13c-1.44-1.51-3.45-.84-5.17-1.23-5.21-1.21-10.49-2.33-15.88-1.6-4,.54-7.29,2.45-9,6.31-3.87,8.83-2.38,17.2,2.33,25.28,1.39,2.39,3.6,4.08,5.51,6.38-2.34.51-4.14-.36-6-.71-1.57-.29-2.09.23-2.08,1.74,0,4.51,0,9,0,13.54,0,1.14.4,2.11,1.59,2.14,3,.09,5.76,1.49,8.77,1.16h0a.92.92,0,0,0,1,.73c3.45.05,6.73,1.18,10.1,1.7,2.71.43,5.37,1.28,8,1.62s5.25.36,7.58,1.15C86.89,181.14,89.39,178.9,92,176.35Z" transform="translate(-25.12 -88.65)"/><path class="cls-1" d="M186,131.44c2.08,1,1.66,2.94,1.52,4.59-.12,1.45-1.52,1.22-2.57,1.22-10.57,0-21.13-.06-31.7,0-3.83,0-3.77-1-3.77,3.83,0,6.89.07,13.78-.06,20.67,0,2,.72,2.6,2.5,2.59,9.57,0,19.14-.05,28.71-.1,2.6,0,5.19-.08,7.8.08s2,2,2.05,3.5c.1,1.82-1.06,1.92-2.38,1.92q-21.48,0-43,0c-1.67,0-2.33-.36-2.33-2.28q.12-31.71,0-63.4c0-1.79.46-2.39,2.32-2.38,14,.07,28,0,42,0,.85,0,2.07-.45,2.43.66a6.14,6.14,0,0,1,0,4.06c-.34.87-1.51.48-2.31.48-11.18,0-22.36,0-33.54,0-4.71,0-4.21-.82-4.24,4.28,0,6.13,0,12.25,0,18.38,0,1.48.5,2.19,1.91,2.18q16.65,0,33.31-.11c.2,0,.41-.18.61-.27Z" transform="translate(-25.12 -88.65)"/><path class="cls-1" d="M423.93,125.48a.15.15,0,0,0,.1.24c.49,2.36,1.83,4.51,1.84,7q.09,17.67.1,35.34c0,.57.17,1.31-.68,1.48a7.71,7.71,0,0,1-4.52-.12c-1.11-.5-.51-1.94-.52-2.94,0-9.94,0-19.88-.07-29.83,0-2.82.07-5.79-2.16-8.07l-.72-.61c.18-1.14-.71-1.68-1.41-2.15-3.22-2.17-12.39-2.74-16.37,1.66-3.65,4-4.44,8.75-4.06,13.89v1.42a5.75,5.75,0,0,0,.13,3.73l.05.62c-1.06.64-.88,1.68-.88,2.66,0,5.9-.11,11.8.06,17.69.06,2.12-.85,2.39-2.54,2.3s-3.3.36-3.25-2.43c.15-9.42.05-18.84.07-28.25a34.56,34.56,0,0,0-.42-7.33,9.11,9.11,0,0,0-5.1-6.82c-4.9-2.27-12-.59-15.44,3.64a18.19,18.19,0,0,0-3.91,11.79c0,8.88-.11,17.76,0,26.64,0,2.34-.84,2.86-2.9,2.8-1.9-.05-3.24,0-3.21-2.68.14-14.7.11-29.4,0-44.1,0-2.13.69-2.46,2.61-2.51,2.27-.06,3.05.64,2.68,2.85a17.42,17.42,0,0,0,0,3c0,.5-.24,1.19.52,1.3a1.22,1.22,0,0,0,1.29-.68c3.53-5.87,9-8.12,15.57-7.93,4.15.12,7.75,2,11,4.52v0c0,.67.12,1.3.93,1.46a1,1,0,0,0,1,1c-.11.6-.24,1.29.46,1.55s.85-.52,1.17-.87.29-.82.43-1.25l-.12-.12.12.12c.46.07.62-.28.87-.58,3.37-4,7.83-5.63,12.92-5.89a18.71,18.71,0,0,1,12.6,4.07v0a.88.88,0,0,0,.93,1,.22.22,0,0,0,.09.3C423.09,124.94,423.15,125.47,423.93,125.48Z" transform="translate(-25.12 -88.65)"/><path class="cls-1" d="M437.74,128a.62.62,0,0,0,.08-.4,3,3,0,0,0,1.88-2.3l0,0c.28-.06.49-.18.43-.52h0c.35,0,.47-.16.51-.45l0,0c1.07-.17,1-1,1.12-1.8l2.06-1,7.83-2.73,1.34,0c3,.14,6,.09,8.83,1.2,1.48.57,2.84,1.55,4.53,1.47,3.83,2.73,7.06,6,8.55,10.58-.26.15-.15.32-.06.53a28.43,28.43,0,0,1,2,14.15h0l-.42.11a6.76,6.76,0,0,0-2.76,0,7.17,7.17,0,0,0-3.65,0H469c-9.47-.46-18.94-.08-28.41-.19a1.51,1.51,0,0,0-1.58,2c.75,2.35.23,5.05,1.87,7.13.73.92.55,2.43,1.92,2.92a12.41,12.41,0,0,0,9.49,6.8c5.17.83,10.17.32,14.06-3.86a10.35,10.35,0,0,0,2.75-4.17,4.72,4.72,0,0,0,.87-1c1.43-3,1.9-3.28,5.13-2.93,1.13.12,1.76.42,1.24,1.72s-.81,2.58-1.36,3.82a19,19,0,0,1-6.8,8.5c-5.25,3.47-11,3.76-16.94,3.07a17.38,17.38,0,0,1-12.6-7.32c-6.07-8.54-6.44-18-4.17-27.87C435.13,132.82,437.28,130.8,437.74,128Zm17.42,13.49v.15c4.67,0,9.33,0,14,0,1.38,0,1.89-.57,1.82-1.95a17.12,17.12,0,0,0-1.07-4.21c-1.57-4.95-4.46-8.91-9.57-10.48-11.61-3.57-18.89,4.8-20.75,14.75-.28,1.5.43,1.78,1.8,1.76C446,141.46,450.57,141.51,455.16,141.51Z" transform="translate(-25.12 -88.65)"/><path class="cls-1" d="M339.88,121.76c3.72,3.12,6.75,6.73,8.24,11.44.52,1.64,1,3.29,1.48,4.94,0,2-.05,4,.11,6s-.42,2.77-2.63,2.74c-10.78-.12-21.56,0-32.34-.11-2.08,0-2.65.63-2.49,2.63a24.32,24.32,0,0,0,1,4.87c1.62,5.55,5.07,9.82,10.38,11.66a13.44,13.44,0,0,0,12.23-1.52v0a3.21,3.21,0,0,0,2.5-1.78.14.14,0,0,0,.21-.14,9.22,9.22,0,0,0,4.14-6.4h0c1.07-.43.83-1.45,1-2.27,1.47-.89,3.09-.64,4.63-.45,2,.25,1.2,1.75.89,2.8-.46,1.59-1.1,3.12-1.66,4.68-.55.07-.64.56-.9.93-1.83,2.68-3.76,5.22-6.75,6.77-5.63,2.92-11.57,3.19-17.58,1.95a16.8,16.8,0,0,1-10.22-6.24A25.4,25.4,0,0,1,307,152.76a38.89,38.89,0,0,1,.95-18.65c1.3-4.09,3.9-7.26,6.37-10.57l-.1-.07.09.08a1.37,1.37,0,0,0,1-.41A22.06,22.06,0,0,1,331,119.21C334.16,119.53,336.9,121,339.88,121.76ZM328,141.52v0c4,0,8,0,11.93,0s4.6-.74,3.57-4.66c-.13-.51-.84-.3-.7-.95.25-1.22-.65-2.15-1.07-3.17-3.77-9.07-16.38-11.44-23.45-4.65-3.15,3-4.6,6.78-5.78,10.73-.65,2.19-.16,2.66,2.19,2.66Z" transform="translate(-25.12 -88.65)"/><path class="cls-1" d="M228.86,123.55c1.88-3.16,4.89-3.28,8.06-3,.52,0,1.2-.06,1.37.52.09.3-.29.79-.55,1.13-5,6.61-9.9,13.25-15,19.77-1.31,1.67-1.17,2.67.08,4.29,5.49,7.15,10.81,14.43,16.18,21.66.31.41,1,.75.66,1.34s-1,.52-1.64.51l-5.87-.11h0c-.21-.52.13-1.42-.93-1.37v0c-.37-1.94-1.91-3.08-3-4.53-3-4-6-8-8.93-12-1.82-2.48-2.22-2.43-4,0-3.94,5.55-8,11-12,16.54-.84,1.15-6.38,2.08-7.4,1.25-.77-.64-.17-1.21.23-1.75L209,150.49c.58-.78,1.13-1.59,1.72-2.37,3.11-4.12,3-4,0-8-4.49-6-8.8-12.21-13.54-18.06-.69-.85-.5-1.42.64-1.46,3.32-.12,6.39-.42,8.59,3.33,2.68,4.6,6.18,8.71,9.35,13,1.59,2.15,2.15,2.13,3.76-.09a117.91,117.91,0,0,0,7-10.17c.36-.58.72-1.16,1.07-1.74a1.3,1.3,0,0,0,1.28-1.37Z" transform="translate(-25.12 -88.65)"/><path class="cls-1" d="M292.6,121.59c1.88-.52,3.75-1.1,5.65-1.54,1.31-.3,2.93-.92,3.91.16s.49,2.93.32,4.43c-.11,1-1,1-1.77,1.06-7.6.44-12.74,4.31-15.37,11.36A20.45,20.45,0,0,0,284,144.2c0,7.81-.1,15.61.06,23.41.05,2.61-1.53,2.07-3,2.12s-2.86.21-2.85-2.12q.14-22.38,0-44.75c0-2.13,1-2.42,2.67-2.32,1.5.09,3.12-.34,2.9,2.23a42.93,42.93,0,0,0,.25,8.15c1.81-3.26,4.45-5.68,6.75-8.38C291.7,122.7,292,121.89,292.6,121.59Z" transform="translate(-25.12 -88.65)"/><path class="cls-1" d="M354.58,208.19c.11,3.06,1.59,5.78,2.28,8.7.19.79-.2,2.4,1,2.31,1-.08,1.1-1.59,1.38-2.61,1.43-5.28,2.84-10.56,4.37-15.81.35-1.19,1-2.24,2.69-2.09s1.74,1.21,2,2.32c.82,3.29,1.88,6.51,2.67,9.8.63,2.57,1.49,5.17,2.14,7.78.1.42.28.68.73.73s.82-.27,1-.76c1.06-3.64,2.14-7.26,3.18-10.9.73-2.59,1.34-5.21,2.14-7.78.41-1.32,1.66-1.23,2.71-1,1.21.3.59,1.12.35,1.82-1.7,5.14-3.4,10.28-5.06,15.43a9.06,9.06,0,0,0-.19,1.82l0,0c-.7.25-.63.91-.85,1.45-.69,1.68-.74,3.67-2.33,4.92l-2.09-.13c-.68-.58-.28-1.83-1.37-2.15l-.12-.76c-.11-2.69-1.37-5.1-1.94-7.67-.64-2.83-1.93-5.48-2.3-8.39-.07-.6-.52-1.26-1.11-1.28-.89,0-.48.92-.74,1.4-.81,1.51-.54,3.3-1.16,4.78-1.68,4-2.24,8.28-4.09,12.19-.47,1-.8,1.65-2,1.78a1.78,1.78,0,0,1-2-1.71c-.12-1.79-1.11-3.21-1.65-4.8-.82-2.38-.9-5.06-2.69-7.08a.17.17,0,0,0,0-.28c-.08-1,.41-2.24-.92-2.87l-.09-.79c0-.76.3-1.65-.86-1.89l-.07-.86c.25-1-.4-1.84-.69-2.74-.23-.72-.86-1.91.53-2.26a1.62,1.62,0,0,1,2.28,1.19c.67,2.39,1.46,4.74,2.24,7.1a4.41,4.41,0,0,0,.59.93Z" transform="translate(-25.12 -88.65)"/><path class="cls-1" d="M321.18,212.38c-2.68,0-5.36,0-8,0-1.25,0-1.92.39-1.65,1.75,1.15,5.76,5.6,9.78,11.69,7.3a7.69,7.69,0,0,0,3.87-4.15c.43-.88.73-1.69,1.84-1.73s2.06.43,1.5,1.77c-1.87,4.54-3.58,6.72-9.5,7.58a10.7,10.7,0,0,1-10.6-5.19,16.43,16.43,0,0,1-.08-16.35c2.39-4.57,6.44-6,11.31-5.37,4.36.58,7,3.36,8.44,7.31.73,2,1.78,4.35.71,6.2s-3.69.67-5.61.85c-1.29.12-2.59,0-3.89,0Zm3.75-2.23c2.3.08,2.94-.91,2.27-3.6a7.63,7.63,0,0,0-9.35-5.7c-3.19.84-5,3.08-5.89,6.23-.59,2-.48,2.46,1.54,2.57C317.28,209.85,321.1,209.15,324.93,210.15Z" transform="translate(-25.12 -88.65)"/><path class="cls-1" d="M407.26,222.05c-2,.58-3.6,2.07-5.78,2.49a11.38,11.38,0,0,1-11.64-4.08c-5-5.9-4.17-19.22,5.67-22.08a11.89,11.89,0,0,1,10.61,1.81c.34.23.5.83,1.1.56a.39.39,0,0,0,.26.33,20.15,20.15,0,0,1,3.75,11l-.12,1.82c-1,2.09-1.41,4.45-2.68,6.44-.06.21-.12.43-.17.65-.67,0-1,.31-1,1Zm.45-10.17c-.07-1.22,0-2.46-.23-3.66a8.91,8.91,0,0,0-5.63-7.16,8.25,8.25,0,0,0-9.22,2.51c-3,3.39-3.51,9.74-1.14,13.9,2.55,4.49,6.52,6.05,11.1,3.8C406.3,219.45,407.84,216,407.71,211.88Z" transform="translate(-25.12 -88.65)"/><path class="cls-1" d="M282.12,198.84c1.29,0,2.86-.73,3,1.55a.72.72,0,0,0,1.23.43c3-3.53,7.08-2.95,11-2.82.2.88.83,1,1.57.9h0c2.81,2.41,3.82,5.47,3.7,9.13-.15,4.51,0,9,0,13.55a3.38,3.38,0,0,1-1.11,2.86h-.49a2.49,2.49,0,0,1-1.57-2.69c.1-4.81.07-9.62,0-14.43,0-4.11-2.13-6.47-5.81-6.78a7.65,7.65,0,0,0-8.14,5.77c-1.17,5-.41,10-.55,15.06,0,1.52-.1,2.72-1.86,3l-.39,0-.69-.39h0Q282.12,211.43,282.12,198.84Z" transform="translate(-25.12 -88.65)"/><path class="cls-1" d="M416.36,211.19c0-3.44,0-6.87,0-10.31,0-1.17.06-2.09,1.58-2.21s1.44.91,1.46,1.9c0,.62,0,1.29.7,1.54s1-.46,1.36-.91c1.43-1.67,3.44-2.39,5.42-3.08a1.69,1.69,0,0,1,2.43,1.36,1.88,1.88,0,0,1-1.69,2.24c-5.73,1.24-7.28,3-7.6,8.82-.2,3.58-.08,7.17-.1,10.76a7.84,7.84,0,0,1,0,1.37,1.78,1.78,0,0,1-2.1,1.61c-1.17-.09-1.51-.79-1.5-1.87,0-3.74,0-7.48,0-11.22Z" transform="translate(-25.12 -88.65)"/><path class="cls-1" d="M337.56,202c.14-1.66-1.09-.75-1.71-.85-.84-.14-1.94.33-2-1.12s1-1.32,1.88-1.23c1.9.22,2.42-.68,2.27-2.41-.11-1.29,0-2.59,0-3.89,0-1,.49-1.5,1.55-1.51s1.48.54,1.44,1.55a14.41,14.41,0,0,0,0,1.61c.1,1.28-.41,2.64.25,3.83.83,1.49,2.34.6,3.55.77.91.13,1.47.59,1.38,1.48s-.85.88-1.58.92c-3.66.17-3.64.19-3.62,3.95,0,4.43,0,8.87,0,13.3,0,1.31.06,2.62,1.76,2.91,1.17.51,2.62-.17,3.64.9,0,.59-.07,1.19-.1,1.79l.07-.07a1.73,1.73,0,0,0-1.37.56l-2.59,0A3.05,3.05,0,0,0,340,224c-.1-.11-.19-.23-.28-.34,0-.5-.3-.54-.68-.45l0,0a20.34,20.34,0,0,1-1-7.15c0-4.24.36-8.5-.25-12.73A1.48,1.48,0,0,0,337.56,202Z" transform="translate(-25.12 -88.65)"/><path class="cls-1" d="M73.93,138.34c2.93,1.29,6.25,1.09,9.17,2.12,3.71,1.32,6-.85,8.59-2.54.13-.09.11-.42.16-.64l.05,0c3.69-1.53,6.56-4.32,9.84-6.47,1.48-1,2.89-2.05,4.36-3,.93-.63,1.51-.6,1.5.79,0,5.87-.13,11.75,0,17.62.05,1.73-1.68,1.79-2,3l0,0c-4.34,2.07-7.85,5.42-11.92,7.9A6.17,6.17,0,0,0,92,158.19c-3.16,4-7.39,3.34-11.38,2.26-2.8-.75-5.66-.82-8.46-1.43-6.06-1.31-12.68-6.33-11.55-14.32a40.86,40.86,0,0,1,1-4.17h0a9.54,9.54,0,0,1,8-2.33,20.35,20.35,0,0,0,2.47,0Z" transform="translate(-25.12 -88.65)"/><path class="cls-1" d="M251.8,144.23c0-5.51-.06-11,0-16.52,0-1.76-.49-2.61-2.34-2.43a40.54,40.54,0,0,1-4.12.17c-.84,0-1.48.21-1.6-1.36-.26-3.5-.54-3.47,2.88-3.47,5.08,0,5.08,0,5.13-5.08,0-2.3,0-4.59,0-6.89,0-1.88.92-2.73,2.82-2.79s2.87.45,2.82,2.52c-.07,3.37.08,6.73,0,10.1,0,1.59.47,2.21,2.09,2.12,2-.11,4,.05,6-.07,1.67-.1,2.15.6,2,2.15-.11,1.36.34,2.89-1.93,2.78-2.06-.1-4.13,0-6.19,0-1.42,0-2,.56-2,2.07.07,10.71,0,21.42.08,32.13,0,4.24,1.78,5.91,6,5.89.46,0,.92,0,1.38,0,1.18,0,2.68-.67,2.67,1.62,0,1.9-.36,3.1-2.58,3.09a28.44,28.44,0,0,1-8-.66c-.58-.16-1.5-.14-1.17-1.21,0-.07.25-.08.39-.12-.72.74-1.31.36-1.9-.19-2.12-2-2.32-4.73-2.43-7.28-.24-5.49-.08-11-.08-16.52Z" transform="translate(-25.12 -88.65)"/><path class="cls-1" d="M452.43,219.54c-.28,1.27.77,1.87,1.4,2.66.37.46.63.88.42,1.43-.3.78-1,.48-1.58.49-1.32,0-2-.92-2.69-1.84-2.38-3.3-4.82-6.57-7.06-10-1.16-1.75-2-1.84-3.77-.64a6.43,6.43,0,0,0-3.11,6.82,26.39,26.39,0,0,1,0,3.67c0,1,0,1.93-1.36,1.93s-1.61-.89-1.6-2c0-2.14,0-4.28,0-6.42,0-8.19.08-16.38,0-24.56,0-1.76.74-1.89,2-1.9,1.54,0,.89,1.15.89,1.8.05,5.66,0,11.32,0,17,0,.79-.33,1.74.72,2.21s1.11-.77,1.6-1.17c3.7-3.09,7.3-6.29,10.94-9.45a2.83,2.83,0,0,1,.95-.6c1-.28,2.31-.68,2.82.08.69,1-.78,1.33-1.37,1.87-2.09,1.9-4.18,3.83-6.39,5.6-1.58,1.27-1.79,2.16-.31,3.83,2.24,2.55,4,5.47,6.09,8.19.31.41.48,1.22,1.33,1Z" transform="translate(-25.12 -88.65)"/><path class="cls-1" d="M472.81,220.48c1.68-.45,2.17-1.74,2.16-3.26a3.85,3.85,0,0,0-2.52-3.46,29.44,29.44,0,0,0-7.18-2,15.52,15.52,0,0,1-3.79-1.37,6.17,6.17,0,0,1-.92-10.27c3.08-2.5,8.88-3,12.31-1a7.48,7.48,0,0,1,3.69,4.41c.21.75.83,1.76-.25,2.16-.87.32-2.21.75-2.38-1-.07-.66-.63-.78-1.16-.9a.46.46,0,0,0-.08-.34c.06-1.66-1.37-1.81-2.39-2.24a7.29,7.29,0,0,0-7.78.91c-2,1.65-1.76,4.23.46,5.67a14.53,14.53,0,0,0,6.13,2.12c3,.42,6.08,1,7.83,3.94,2.51,4.25-.23,9.63-5.41,10.52a20.76,20.76,0,0,1-6.63.15,8.8,8.8,0,0,1-7.37-6.57c-.75-2.65,1.37-2,2.62-2.44l0,0a6.36,6.36,0,0,0,5.13,6.35c2.6.71,5.36,1.09,7.48-1.36l-.08-.09Z" transform="translate(-25.12 -88.65)"/></svg>