<svg id="Capa_1" data-name="Capa 1" xmlns="http://www.w3.org/2000/svg" viewBox="0 0 183.58 110"><defs><style>.cls-1{fill:#184585;}.cls-2{fill:#5178a4;}</style></defs><title>11_soti</title><path class="cls-1" d="M58.33,39.4H55.25c-.2,0-.39,0-.44-.27-.59-3.24-2.75-5-5.69-6a19.86,19.86,0,0,0-5.51-1,27.94,27.94,0,0,0-9.42.84,9.37,9.37,0,0,0-3.57,1.88,4.3,4.3,0,0,0-1.43,4.4A3.4,3.4,0,0,0,31,41.58a16.15,16.15,0,0,0,4.72,1.69c3.53.83,7.13,1.25,10.69,1.87a39,39,0,0,1,10.93,3.21,10.17,10.17,0,0,1,5,4.57,8.55,8.55,0,0,1-1.07,9.42A14.83,14.83,0,0,1,54.41,67,32.13,32.13,0,0,1,42,68.92,36.8,36.8,0,0,1,29.5,66.81a15.34,15.34,0,0,1-7.19-5.19,11.82,11.82,0,0,1-2.13-5.78c-.05-.48.08-.61.57-.6,1.93,0,3.85,0,5.77,0,.37,0,.55,0,.63.49a8.51,8.51,0,0,0,4.54,6,17.8,17.8,0,0,0,6.15,2,33,33,0,0,0,6.73.31,19.7,19.7,0,0,0,7.6-1.65A8.06,8.06,0,0,0,55,60.29a4.64,4.64,0,0,0-.48-6.55,2.78,2.78,0,0,0-.33-.27,14.21,14.21,0,0,0-4.92-2c-3.22-.84-6.5-1.33-9.77-1.89a44.57,44.57,0,0,1-11.95-3.3,11.31,11.31,0,0,1-3.82-2.82,7.91,7.91,0,0,1-.11-9.8,13.85,13.85,0,0,1,6.42-4.52A29.5,29.5,0,0,1,40.1,27.25a35.42,35.42,0,0,1,12,1.53,16,16,0,0,1,7.15,4.33A9.64,9.64,0,0,1,61.79,39c0,.34-.08.41-.37.41C60.38,39.4,59.35,39.4,58.33,39.4Z"/><path class="cls-1" d="M87.69,69A25.31,25.31,0,0,1,75.25,66.2,19,19,0,0,1,64.82,51.58a20.38,20.38,0,0,1,3.16-15,20.07,20.07,0,0,1,11.88-8.22,27.3,27.3,0,0,1,19.23,1.47,18.77,18.77,0,0,1,11.08,14.53,20.26,20.26,0,0,1-3.85,16.42,21,21,0,0,1-11.39,7.3A25.67,25.67,0,0,1,87.69,69Zm16.19-20.93a17.16,17.16,0,0,0-.37-3.85,14.18,14.18,0,0,0-9-10.91,18.89,18.89,0,0,0-10.65-.94c-5.48,1-9.51,3.94-11.6,9.21a18.4,18.4,0,0,0-.78,10.46,14.2,14.2,0,0,0,8.83,11,19,19,0,0,0,11.14,1,14.47,14.47,0,0,0,10.09-6.82,16.53,16.53,0,0,0,2.27-9.09Z"/><path class="cls-1" d="M130.18,27.25h20.44c.48,0,.62.1.61.6q0,2.41,0,4.83c0,.5-.13.61-.61.61q-8.58,0-17.15,0c-.55,0-.7.12-.7.69q0,17.15,0,34.29c0,.53-.11.67-.65.66q-3.08,0-6.16,0c-.49,0-.63-.1-.63-.62q0-17.12,0-34.24c0-.71,0-.71-.7-.71h-15c-.55,0-.66-.16-.65-.68,0-1.61,0-3.22,0-4.83,0-.46.14-.59.6-.59Q119.9,27.27,130.18,27.25Z"/><path class="cls-1" d="M162.19,48V68.21c0,.58-.17.68-.7.67-2,0-4,0-6,0-.42,0-.53-.12-.53-.53V27.92c0-.51.11-.7.67-.69,2,0,3.91,0,5.87,0,.6,0,.68.19.68.71Q162.18,38,162.19,48Z"/><path class="cls-2" d="M111.44,87.24C113,84,114.75,81,116.35,77.91a.69.69,0,0,1,.74-.46c.4,0,.8,0,1.21,0s.36.06.34.36q-.77,5.72-1.47,11.43c0,.34-.15.42-.47.42-1.14,0-1.14,0-1-1.1.37-2.87.7-5.74,1.2-8.59a2.23,2.23,0,0,0,0-.37c-.15,0-.17.16-.21.26-1.47,3.19-3.28,6.2-4.91,9.32-.34.64-.86.33-1.3.34s-.24-.39-.27-.61c-.35-2.67-.8-5.32-1-8a4.53,4.53,0,0,0-.24-1.25c-.16.67-.31,1.35-.47,2-.64,2.54-1.27,5.07-1.9,7.61a.41.41,0,0,1-.46.37h0c-1.14,0-1.14,0-.85-1.06C106.16,85,107.09,81.49,108,78c.1-.37.21-.55.62-.49a3.53,3.53,0,0,0,.65,0c.9,0,.92,0,1,.86C110.67,81.25,111.17,84.18,111.44,87.24Z"/><path class="cls-2" d="M22.08,87.58c1.32-3.21,2.89-6.31,4.26-9.48a.89.89,0,0,1,1-.66c.91,0,.94,0,1,.89.12,3,.23,6.11.36,9.16.15-.07.15-.25.2-.39,1.2-3.18,2.72-6.22,4.06-9.34a.46.46,0,0,1,.5-.31c.4,0,.8,0,1.28,0-.48,1-.93,2-1.4,3-1.33,2.86-2.69,5.71-4,8.59a.86.86,0,0,1-1,.6c-1,0-1,0-1-1q-.16-3.72-.3-7.46c0-.57,0-1.13,0-1.71-.06,0,0,.07-.07.13C25.8,83,24.08,86.1,22.63,89.33c-.14.31-.34.32-.6.32-1.27,0-1.24,0-1.29-1.25-.11-2.6-.27-5.19-.4-7.79-.05-.91-.08-1.83-.14-2.74,0-.35.09-.43.42-.43,1.19,0,1.2,0,1.21,1.17C21.85,81.6,22.1,84.58,22.08,87.58Z"/><path class="cls-2" d="M55.61,79.46c-.19,0-.21.14-.26.24C53.85,83,52,86,50.36,89.21c-.31.59-.8.3-1.2.32s-.26-.37-.29-.6C48.58,87,48.29,85,48,83c-.16-1.23-.25-2.47-.39-3.85-.42,1.75-.8,3.37-1.19,5s-.87,3.36-1.28,5c-.08.37-.21.5-.57.46s-.65,0-1,0c.66-2.51,1.29-5,1.93-7.41.37-1.47.78-2.94,1.15-4.41a.43.43,0,0,1,.46-.41h.05c1.6,0,1.59,0,1.8,1.55.32,2.44.65,4.88,1,7.33,0,.31,0,.62,0,.93.13,0,.15-.09.18-.15,1.47-3.2,3.28-6.2,4.89-9.32a.51.51,0,0,1,.55-.34c.43,0,.85,0,1.27,0s.39.09.37.37q-.37,2.72-.71,5.43t-.71,5.54c0,.28,0,.73-.2.8a4.11,4.11,0,0,1-1.31,0c-.16,0-.08-.17-.06-.26.32-2.44.64-4.89,1-7.33C55.32,81.19,55.47,80.33,55.61,79.46Zm0-.3,0,.1,0,0s0,0,0-.07a.09.09,0,0,0,0-.07Z"/><path class="cls-2" d="M91.05,88.1a4,4,0,0,1-2.14,1.49,2.69,2.69,0,0,1-3.33-1.84,2.35,2.35,0,0,1-.1-.59,5.87,5.87,0,0,1,4.07-6.33,6.38,6.38,0,0,1,4,.26c.25.09.37.22.3.49-.6,2.89-.92,5.83-1.73,8.68s-2.91,3.48-5.45,3.19a4.68,4.68,0,0,1-1.27-.34c-.28-.12-.44-.25-.26-.57A2.38,2.38,0,0,0,85.3,92c.08-.29.21-.3.48-.19a4.55,4.55,0,0,0,2.57.37,2.63,2.63,0,0,0,1.88-1.28A6.14,6.14,0,0,0,91.05,88.1Zm-2.38.37a1.78,1.78,0,0,0,1.13-.37,4.34,4.34,0,0,0,1.72-2.65c.24-1,.37-2,.59-2.93.07-.31,0-.37-.29-.45a3.18,3.18,0,0,0-2.73.33,4.85,4.85,0,0,0-2,4.84,1.54,1.54,0,0,0,1.53,1.21Z"/><path class="cls-2" d="M131.2,82.11a4.17,4.17,0,0,1,2.05-1.37,2.64,2.64,0,0,1,3.5,2.11,6.2,6.2,0,0,1-3.67,6.74,4.78,4.78,0,0,1-2.8.18,2,2,0,0,1-1.71-2.2,22.25,22.25,0,0,1,.65-3.89c.43-2.17.89-4.33,1.3-6.5.06-.31.18-.37.47-.37,1.25,0,1.25,0,1,1.2s-.49,2.4-.73,3.6C131.23,81.72,131.23,81.87,131.2,82.11Zm-1,4.86c0,1.38.68,1.93,1.85,1.66,2.08-.48,3.73-3.84,2.84-5.78a1.42,1.42,0,0,0-1.43-.93,2.45,2.45,0,0,0-1.83,1A7.83,7.83,0,0,0,130.23,87Z"/><path class="cls-2" d="M82.18,87.62a7.19,7.19,0,0,1-1.31,1.55,3.22,3.22,0,0,1-2.57.69,2.58,2.58,0,0,1-2-2.35,6.25,6.25,0,0,1,5.22-6.83,7.67,7.67,0,0,1,2.94.18c.37.1.33.34.28.58-.26,1.37-.53,2.72-.79,4.08a17.21,17.21,0,0,0-.39,3.65c0,.36-.07.51-.47.5-1.06,0-1.11,0-.93-1.1A4.35,4.35,0,0,0,82.18,87.62Zm0-5.78a5.14,5.14,0,0,0-.78.07,4.88,4.88,0,0,0-3.51,5,1.57,1.57,0,0,0,.83,1.55,1.75,1.75,0,0,0,1.83-.3,4.93,4.93,0,0,0,1.55-2.09,21.25,21.25,0,0,0,.87-3.77c.06-.26,0-.37-.28-.41S82.27,81.86,82.15,81.84Z"/><path class="cls-2" d="M63.68,87.64a4.47,4.47,0,0,1-2.51,2.15,2.56,2.56,0,0,1-3.38-2.25,6.25,6.25,0,0,1,4.59-6.74,7.59,7.59,0,0,1,3.42,0c.42.09.5.27.42.64-.26,1.34-.52,2.68-.78,4A18.3,18.3,0,0,0,65,89.2c0,.33,0,.49-.43.49-1.08,0-1.14,0-1-1.12A2.65,2.65,0,0,0,63.68,87.64ZM59.4,86.7a2.67,2.67,0,0,0,0,.51,1.38,1.38,0,0,0,1.72,1.36,2.11,2.11,0,0,0,1-.49,5,5,0,0,0,1.44-2,14.46,14.46,0,0,0,.73-3c.27-1.23.19-1.32-1.1-1.24a1.77,1.77,0,0,0-.32.05A4.84,4.84,0,0,0,59.4,86.7Z"/><path class="cls-2" d="M157.74,87.43c.9-2,1.8-3.86,2.62-5.78.27-.64.6-.92,1.29-.81a6.76,6.76,0,0,0,.9,0c-.42.85-.81,1.66-1.21,2.45-1.1,2.21-2.09,4.48-3.38,6.59a8.89,8.89,0,0,1-3.06,3.24,3.55,3.55,0,0,1-.43.23c-.95.45-1.27.25-1.34-.81,0-.29.21-.27.35-.33a5.91,5.91,0,0,0,2.75-2.43,1.1,1.1,0,0,0,.17-.93c-.54-2.5-1.06-5-1.61-7.51-.08-.36-.06-.51.37-.51,1.27,0,1.28,0,1.52,1.22.31,1.71.62,3.42.93,5.15A1,1,0,0,0,157.74,87.43Z"/><path class="cls-2" d="M119.22,85.71A5.35,5.35,0,0,1,122,81.19c2.34-1.29,5.67-.47,5.58,3.31a5.64,5.64,0,0,1-2.31,4.58,4.17,4.17,0,0,1-3.33.75C120.17,89.5,119.2,88.14,119.22,85.71Zm1.66.43a3,3,0,0,0,.32,1.47,1.93,1.93,0,0,0,3.19.4,4.89,4.89,0,0,0,1.5-4.16,2,2,0,0,0-1.39-1.91,2.19,2.19,0,0,0-2.32.73A5.21,5.21,0,0,0,120.88,86.14Z"/><path class="cls-2" d="M98.06,89.88c-2.48.11-3.65-1.64-3.49-3.86a6,6,0,0,1,2.33-4.54,3.91,3.91,0,0,1,3.53-.72,2.28,2.28,0,0,1,1.6,2.79,2.36,2.36,0,0,1-.61,1,4.76,4.76,0,0,1-2.74,1.12,9,9,0,0,1-2.08.1c-.37,0-.45.13-.45.48A2.18,2.18,0,0,0,99,88.61a5.55,5.55,0,0,0,1.25-.41c.29-.14.45-.13.54.24.18.78.18.84-.59,1.1A6,6,0,0,1,98.06,89.88Zm-.79-5.27a4.89,4.89,0,0,0,2.53-.55,1.25,1.25,0,0,0,.59-1.41,1.09,1.09,0,0,0-1.23-.79,2.9,2.9,0,0,0-2.43,1.86c-.47.87-.44.9.54.89Z"/><path class="cls-2" d="M36.63,89.88C34.13,90,33,88.22,33.13,86a6,6,0,0,1,2.37-4.58A3.91,3.91,0,0,1,39,80.76a2,2,0,0,1,1.59,1.57,2.28,2.28,0,0,1-.64,2.28,5,5,0,0,1-2.75,1.1,10.36,10.36,0,0,1-2.08.1c-.31,0-.4.1-.42.41a2.19,2.19,0,0,0,2.88,2.39,4.94,4.94,0,0,0,1.3-.42c.27-.13.42-.08.49.25.19.78.19.84-.57,1.1A5.84,5.84,0,0,1,36.63,89.88Zm-.77-5.28h.33a4.74,4.74,0,0,0,2.15-.52,1.24,1.24,0,0,0,.6-1.45,1.11,1.11,0,0,0-1.25-.77A2.92,2.92,0,0,0,35.3,83.7c-.51.89-.46.92.54.9Z"/><path class="cls-2" d="M69.66,82.31a4.82,4.82,0,0,1,2.49-1.6,2.24,2.24,0,0,1,3,2.32,30.72,30.72,0,0,1-.71,4.48c-.09.58-.23,1.15-.32,1.72-.05.32-.18.44-.53.44-1.16,0-1.13,0-.92-1.1.29-1.6.69-3.17.85-4.78,0-.62.09-1.3-.57-1.66a1.78,1.78,0,0,0-2,.27,4.69,4.69,0,0,0-1.79,3.09c-.24,1.24-.47,2.47-.68,3.72-.07.45-.32.5-.71.49-.95,0-1,0-.8-.9.46-2.51.94-5,1.39-7.53,0-.29.13-.38.43-.39,1,0,1,0,.91,1C69.73,82,69.69,82.16,69.66,82.31Z"/><path class="cls-2" d="M151.49,89.9c-1.47,0-2.11-.63-2-2.1a45.44,45.44,0,0,1,.8-4.59.83.83,0,0,1,0-.15c.18-.91.18-.92-.73-1-.27,0-.34-.09-.28-.37.15-.83.13-.84,1-.85.31,0,.49-.06.49-.41a3.29,3.29,0,0,1,.09-.43c.22-1.24.32-1.32,1.58-1.47.36,0,.44.07.36.42-.12.51-.18,1-.31,1.56-.07.29,0,.34.29.34h1.32c.33,0,.45,0,.36.42-.18.79-.15.79-1,.79-1.29,0-1.3,0-1.55,1.31s-.46,2.44-.68,3.67a5.14,5.14,0,0,0-.06.55c0,.76.21,1,1,1,.2,0,.6-.21.55.26s.22.91-.44,1C152,89.86,151.76,89.87,151.49,89.9Z"/><path class="cls-2" d="M144.56,76.78c.86,0,.85,0,.69.82-.73,3.78-1.46,7.56-2.16,11.36-.11.63-.36.73-.92.7-1,0-1,0-.78-.94l2.13-11.14C143.67,76.78,143.66,76.78,144.56,76.78Z"/><path class="cls-2" d="M138.27,89.66c-.81,0-.81,0-.66-.76.48-2.51,1-5,1.43-7.54.08-.41.25-.52.65-.51,1.1,0,1.1,0,.89,1.06l-1.32,6.9C139.09,89.66,139.11,89.66,138.27,89.66Z"/><path class="cls-2" d="M145.86,89.66c-.82,0-.82,0-.66-.81.47-2.48,1-4.95,1.41-7.43.1-.51.33-.58.77-.57,1,0,1,0,.8,1l-1.35,7C146.68,89.66,146.69,89.66,145.86,89.66Z"/><path class="cls-2" d="M147,78.47a1,1,0,0,1,1-1h.08a.87.87,0,0,1,1,.79.43.43,0,0,1,0,.16,1,1,0,0,1-1,1h0a.89.89,0,0,1-.95-.82Z"/><path class="cls-2" d="M140.51,77.45a.88.88,0,0,1,.93.81v.11a1,1,0,0,1-1,1.06h-.07a.89.89,0,0,1-.93-.84.66.66,0,0,1,0-.14,1,1,0,0,1,1-1Z"/></svg>