<svg id="Capa_1" data-name="Capa 1" xmlns="http://www.w3.org/2000/svg" viewBox="0 0 387.6 180.73"><defs><style>.cls-1{fill:#14488e;}.cls-2{fill:#547eaf;}</style></defs><title>11a</title><path class="cls-1" d="M160.07,95.24h-8.38c-.55,0-1.05.07-1.2-.74C148.89,85.68,143,80.94,135,78.21a53.41,53.41,0,0,0-15-2.6c-8.64-.38-17.26-.24-25.64,2.29A25.06,25.06,0,0,0,84.65,83a11.73,11.73,0,0,0-3.91,12,9.39,9.39,0,0,0,4.79,6.18c4,2.36,8.41,3.55,12.87,4.6,9.6,2.24,19.39,3.39,29.09,5.09,10.25,1.8,20.38,4,29.77,8.74,5.67,2.84,10.71,6.57,13.49,12.44,4.28,9.05,3.15,17.71-2.91,25.64-4.75,6.21-11.29,10-18.44,12.73-10.9,4.21-22.27,5.41-33.86,5.17s-23-1.57-33.95-5.75c-7.76-3-14.61-7.25-19.58-14.11A32.28,32.28,0,0,1,56.22,140c-.14-1.32.21-1.67,1.56-1.65,5.24.09,10.48.06,15.71,0,1,0,1.48.09,1.7,1.34,1.31,7.53,6,12.61,12.37,16.3a48.15,48.15,0,0,0,16.73,5.47,90.09,90.09,0,0,0,18.34.85c7.13-.32,14.14-1.42,20.69-4.49a21.82,21.82,0,0,0,7.73-5.73,12.64,12.64,0,0,0-2.22-18.55c-4-2.92-8.68-4.35-13.39-5.58-8.75-2.28-17.7-3.62-26.6-5.14-11.15-1.91-22.23-4.08-32.53-9a30.46,30.46,0,0,1-10.39-7.67c-6.25-7.44-6.39-18.49-.3-26.69,4.47-6,10.64-9.65,17.48-12.3a80.07,80.07,0,0,1,27.34-5c11.07-.25,22,.69,32.6,4.16,7.39,2.42,14.15,5.92,19.46,11.78a26.36,26.36,0,0,1,7,16.13c.07.92-.21,1.11-1,1.1C165.65,95.22,162.86,95.24,160.07,95.24Z" transform="translate(-56.19 -62.04)"/><path class="cls-1" d="M240,175.85c-12.13.12-23.42-2.1-33.86-7.67-16-8.53-25.73-21.75-28.4-39.8-2.16-14.59.21-28.35,8.61-40.75,7.88-11.62,19-18.82,32.33-22.37,17.85-4.74,35.49-4,52.36,4s27.09,21.23,30.16,39.55c2.73,16.23-.18,31.44-10.48,44.72-8,10.26-18.61,16.46-31,19.87A70.37,70.37,0,0,1,240,175.85Zm44.07-57a46,46,0,0,0-1-10.46c-3-14.07-10.83-24.3-24.38-29.72a51.53,51.53,0,0,0-29-2.55c-14.92,2.74-25.88,10.73-31.57,25.08-3.66,9.22-4,18.85-2.13,28.48,2.78,14.09,10.62,24.33,24.05,29.93,9.81,4.09,20,4.61,30.31,2.59,11.7-2.29,21.18-8.16,27.46-18.57C282.39,136.13,284.15,127.85,284,118.89Z" transform="translate(-56.19 -62.04)"/><path class="cls-1" d="M355.67,62.16q27.82,0,55.66,0c1.29,0,1.69.26,1.66,1.62q-.14,6.59,0,13.17c0,1.34-.36,1.66-1.67,1.66-15.56,0-31.12,0-46.69-.06-1.49,0-1.89.32-1.89,1.86q.08,46.7.07,93.37c0,1.43-.3,1.82-1.77,1.8-5.58-.1-11.17-.08-16.76,0-1.33,0-1.73-.28-1.73-1.69q.07-46.6,0-93.22c0-1.94,0-1.94-1.89-1.94-13.61,0-27.23,0-40.85,0-1.48,0-1.8-.43-1.77-1.84.09-4.38.07-8.78,0-13.16,0-1.26.4-1.59,1.63-1.59Q327.69,62.19,355.67,62.16Z" transform="translate(-56.19 -62.04)"/><path class="cls-1" d="M442.82,118.76c0,18.3,0,36.6,0,54.89,0,1.59-.46,1.87-1.91,1.84-5.44-.08-10.87-.06-16.31,0-1.13,0-1.43-.33-1.43-1.44q0-40.38,0-80.77c0-9.77,0-19.54,0-29.31,0-1.38.31-1.89,1.81-1.87,5.33.1,10.67.12,16,0,1.62,0,1.83.51,1.83,1.93Q442.78,91.4,442.82,118.76Z" transform="translate(-56.19 -62.04)"/><path class="cls-2" d="M304.67,225.48c4.22-8.87,9-17,13.37-25.42a1.86,1.86,0,0,1,2-1.25,24.08,24.08,0,0,0,3.29,0c.78,0,1,.18.93,1q-2.06,15.55-4,31.11c-.11.91-.4,1.13-1.27,1.14-3.1,0-3.12,0-2.73-3,1-7.81,1.9-15.62,3.27-23.38a6.88,6.88,0,0,0,.06-1c-.41.1-.46.43-.58.69-4,8.69-8.94,16.9-13.37,25.37-.91,1.74-2.34.92-3.53.94-.89,0-.66-1.06-.74-1.66-.95-7.26-2.17-14.49-2.87-21.78a12.27,12.27,0,0,0-.64-3.4c-.43,1.83-.84,3.67-1.29,5.49q-2.58,10.36-5.15,20.73a1.14,1.14,0,0,1-1.32,1c-3.09,0-3.09.07-2.32-2.88q3.78-14.53,7.53-29c.25-1,.57-1.51,1.67-1.34a10.68,10.68,0,0,0,1.79,0c2.43,0,2.48,0,2.77,2.34C302.56,209.17,303.92,217.13,304.67,225.48Z" transform="translate(-56.19 -62.04)"/><path class="cls-2" d="M61.39,226.39C65,217.66,69.25,209.22,73,200.58a2.43,2.43,0,0,1,2.75-1.79c2.48.15,2.55,0,2.65,2.43.34,8.31.64,16.62,1,24.94.4-.2.39-.68.54-1.06,3.25-8.67,7.41-16.94,11.06-25.43a1.22,1.22,0,0,1,1.34-.86c1.09.06,2.19,0,3.5,0-1.32,2.84-2.55,5.53-3.81,8.22-3.64,7.79-7.32,15.56-10.89,23.39a2.39,2.39,0,0,1-2.66,1.65c-2.61-.11-2.62,0-2.72-2.64q-.42-10.15-.81-20.32c-.06-1.54,0-3.08,0-4.67-.17-.05-.14.21-.2.36-3.24,9.11-7.92,17.57-11.86,26.37-.37.84-.91.87-1.63.87-3.47,0-3.38,0-3.52-3.42-.3-7.06-.72-14.13-1.08-21.19-.13-2.49-.21-5-.39-7.47-.06-.95.25-1.17,1.16-1.17,3.24,0,3.25-.06,3.29,3.19C60.78,210.12,61.44,218.23,61.39,226.39Z" transform="translate(-56.19 -62.04)"/><path class="cls-2" d="M152.67,204.29c-.51.08-.57.39-.69.66-4.09,8.85-9.08,17.24-13.6,25.87-.84,1.61-2.17.83-3.27.88s-.69-1-.78-1.62c-.78-5.36-1.58-10.71-2.28-16.08-.44-3.35-.7-6.72-1.08-10.48-1.14,4.78-2.16,9.18-3.24,13.57-1.13,4.58-2.37,9.13-3.47,13.71-.23,1-.57,1.36-1.56,1.27s-1.77,0-2.77,0c1.78-6.84,3.51-13.52,5.25-20.19,1-4,2.13-8,3.12-12a1.2,1.2,0,0,1,1.4-1.11c4.35-.07,4.34-.09,4.9,4.21.86,6.65,1.76,13.3,2.62,19.95.11.84.1,1.69.14,2.55.35.07.39-.25.47-.43,4-8.69,8.93-16.88,13.31-25.36a1.43,1.43,0,0,1,1.52-.92,32.89,32.89,0,0,0,3.44,0c.8,0,1.06.24,1,1q-1,7.38-1.93,14.78t-1.93,15.08c-.1.78,0,2-.54,2.17a10.77,10.77,0,0,1-3.55.12c-.46,0-.22-.45-.18-.71.88-6.65,1.75-13.3,2.66-19.94C151.9,209,152.3,206.67,152.67,204.29Zm0-.83a1.72,1.72,0,0,0-.08.28s.06.07.09.11.11-.13.11-.2S152.75,203.53,152.7,203.46Z" transform="translate(-56.19 -62.04)"/><path class="cls-2" d="M249.16,227.82a11.08,11.08,0,0,1-5.83,4.06,7.33,7.33,0,0,1-9.34-6.64c-.72-8,3.88-15.15,11.09-17.21a17.4,17.4,0,0,1,10.83.7c.67.24,1,.6.82,1.32-1.65,7.87-2.51,15.89-4.72,23.64s-7.92,9.47-14.84,8.69a13,13,0,0,1-3.44-.93c-.76-.32-1.2-.67-.71-1.55a6.84,6.84,0,0,0,.49-1.4c.21-.79.56-.82,1.3-.51a12.33,12.33,0,0,0,7,1,7.18,7.18,0,0,0,5.12-3.48A17.06,17.06,0,0,0,249.16,227.82Zm-6.47,1a4.94,4.94,0,0,0,3.05-1,11.92,11.92,0,0,0,4.7-7.21c.64-2.65,1-5.36,1.61-8,.18-.83-.1-1-.79-1.21a8.59,8.59,0,0,0-7.43.9c-4,2.52-6.47,8.61-5.32,13.18A4.22,4.22,0,0,0,242.69,228.77Z" transform="translate(-56.19 -62.04)"/><path class="cls-2" d="M358.45,211.5a11.45,11.45,0,0,1,5.58-3.73c4.8-1.22,8.45,1,9.55,5.76,1.61,7.08-3.16,15.89-10,18.35a13.25,13.25,0,0,1-7.63.49c-3.16-.75-4.71-2.73-4.65-6,.06-3.61,1.1-7.07,1.78-10.58,1.16-5.91,2.4-11.81,3.54-17.72.16-.83.47-1,1.26-1,3.4-.07,3.4-.1,2.71,3.27s-1.34,6.53-2,9.79C358.54,210.45,358.53,210.84,358.45,211.5Zm-2.64,13.23c0,3.77,1.86,5.26,5.05,4.52,5.66-1.3,10.14-10.44,7.72-15.74A3.81,3.81,0,0,0,364.7,211a6.68,6.68,0,0,0-5,2.69C356.88,217,356.41,221.18,355.81,224.73Z" transform="translate(-56.19 -62.04)"/><path class="cls-2" d="M225,226.5a19.64,19.64,0,0,1-3.55,4.22,8.83,8.83,0,0,1-7,1.88c-2.89-.38-5.22-3.12-5.58-6.39a17,17,0,0,1,14.21-18.59,20.23,20.23,0,0,1,8,.48c1,.26.9.92.77,1.59-.71,3.71-1.45,7.4-2.16,11.1a48.05,48.05,0,0,0-1.07,9.92c0,1-.17,1.39-1.28,1.37-2.87,0-3-.11-2.53-3A11.35,11.35,0,0,0,225,226.5Zm-.06-15.72a13.1,13.1,0,0,0-2.15.18c-5.73,1.38-9.88,7.3-9.53,13.64.09,1.77.45,3.44,2.24,4.22a4.81,4.81,0,0,0,5-.83,13.37,13.37,0,0,0,4.2-5.69c1.37-3.29,1.63-6.83,2.38-10.26.16-.69-.11-1-.77-1.12S225.26,210.81,224.94,210.78Z" transform="translate(-56.19 -62.04)"/><path class="cls-2" d="M174.65,226.55c-1.82,2.79-3.72,5-6.84,5.86-4.6,1.22-8.71-1.39-9.19-6.12-.8-7.93,3.95-16.23,12.48-18.35a20.66,20.66,0,0,1,9.32.08c1.14.24,1.35.73,1.15,1.73-.73,3.65-1.43,7.31-2.14,11a49.35,49.35,0,0,0-1.1,10.06c0,.89-.11,1.32-1.18,1.32-2.94,0-3.1-.14-2.61-3.05A7.3,7.3,0,0,0,174.65,226.55ZM163,224c0,.28,0,.83.09,1.38.27,2.7,2,4.07,4.7,3.7a5.52,5.52,0,0,0,2.78-1.33,13.82,13.82,0,0,0,3.91-5.37c1.16-2.62,1.43-5.46,2-8.21.73-3.35.5-3.59-3-3.38a6.67,6.67,0,0,0-.88.13C167.11,212.19,163.05,217.59,163,224Z" transform="translate(-56.19 -62.04)"/><path class="cls-2" d="M430.71,226c2.46-5.41,4.91-10.53,7.12-15.74.74-1.74,1.64-2.52,3.51-2.21a16.44,16.44,0,0,0,2.46,0c-1.15,2.32-2.19,4.51-3.29,6.67-3,6-5.7,12.18-9.2,17.94a24.38,24.38,0,0,1-8.32,8.83,12.17,12.17,0,0,1-1.19.62c-2.59,1.21-3.45.67-3.63-2.2-.05-.79.55-.76.94-.92a16,16,0,0,0,7.5-6.6,3.08,3.08,0,0,0,.46-2.54c-1.48-6.8-2.9-13.63-4.39-20.43-.22-1-.16-1.41,1-1.4,3.47,0,3.5,0,4.13,3.33.86,4.65,1.69,9.31,2.54,14A3.49,3.49,0,0,0,430.71,226Z" transform="translate(-56.19 -62.04)"/><path class="cls-2" d="M325.84,221.3A14.61,14.61,0,0,1,333.42,209c6.36-3.5,15.44-1.28,15.18,9a15.32,15.32,0,0,1-6.29,12.47,11.3,11.3,0,0,1-9.05,2.06C328.43,231.62,325.79,227.91,325.84,221.3Zm4.52,1.17a8.4,8.4,0,0,0,.88,4c1.71,3.32,5.72,3.91,8.69,1.1A13.32,13.32,0,0,0,344,216.23c-.22-2.35-1.21-4.45-3.79-5.2s-4.59.23-6.3,2A14.13,14.13,0,0,0,330.36,222.47Z" transform="translate(-56.19 -62.04)"/><path class="cls-2" d="M268.23,232.65c-6.75.31-9.93-4.47-9.5-10.5a16.41,16.41,0,0,1,6.36-12.37,10.6,10.6,0,0,1,9.59-1.94,6.18,6.18,0,0,1,2.72,10.38c-2,2.05-4.76,2.58-7.47,3.05a25,25,0,0,1-5.66.29c-1-.05-1.24.35-1.24,1.29,0,4.82,3.1,7.33,7.86,6.34a14.18,14.18,0,0,0,3.39-1.11c.79-.38,1.23-.35,1.47.66.49,2.13.49,2.27-1.61,3A16,16,0,0,1,268.23,232.65Zm-2.14-14.35c3,0,5.58-.6,6.9-1.48a3.44,3.44,0,0,0,1.59-3.85,3,3,0,0,0-3.34-2.15c-3.36.16-5.2,2.39-6.63,5.08C263.35,218.26,263.43,218.34,266.09,218.3Z" transform="translate(-56.19 -62.04)"/><path class="cls-2" d="M101,232.65c-6.81.31-10-4.5-9.53-10.47a16.4,16.4,0,0,1,6.45-12.47,10.63,10.63,0,0,1,9.47-1.88,5.55,5.55,0,0,1,4.34,4.28A6.18,6.18,0,0,1,110,218.3c-2.08,2-4.78,2.52-7.5,3a28.25,28.25,0,0,1-5.66.29c-.85,0-1.1.25-1.13,1.1-.15,4.84,3,7.52,7.83,6.52a14.47,14.47,0,0,0,3.53-1.16c.75-.36,1.14-.21,1.35.68.52,2.14.51,2.29-1.57,3A15.93,15.93,0,0,1,101,232.65Zm-2.1-14.36c.3,0,.6,0,.9,0a13.07,13.07,0,0,0,5.86-1.43,3.34,3.34,0,0,0,1.63-3.95,3,3,0,0,0-3.39-2.08c-3.28.19-5.1,2.38-6.51,5C96,218.26,96.12,218.34,98.85,218.29Z" transform="translate(-56.19 -62.04)"/><path class="cls-2" d="M190.92,212.06a13.09,13.09,0,0,1,6.77-4.38c4.72-1.12,8.17,1.52,8.17,6.34,0,4.16-1.32,8.12-1.93,12.19-.24,1.57-.61,3.12-.87,4.68-.14.86-.49,1.2-1.44,1.19-3.16,0-3.08,0-2.51-3,.8-4.34,1.89-8.63,2.31-13,.16-1.69.27-3.55-1.53-4.51s-3.67-.48-5.31.71a12.78,12.78,0,0,0-4.88,8.43c-.64,3.37-1.29,6.73-1.84,10.11-.21,1.24-.87,1.37-1.94,1.34-2.6-.07-2.63,0-2.18-2.44,1.26-6.83,2.55-13.65,3.78-20.49.14-.79.35-1.06,1.18-1.07,2.77,0,2.77-.06,2.46,2.67C191.11,211.19,191,211.63,190.92,212.06Z" transform="translate(-56.19 -62.04)"/><path class="cls-2" d="M413.69,232.71c-4-.06-5.73-1.71-5.47-5.71.28-4.23,1.47-8.32,2.18-12.49,0-.14.08-.28.11-.43.49-2.46.49-2.49-2-2.67-.72-.06-.91-.23-.76-1,.41-2.25.36-2.29,2.73-2.3.84,0,1.34-.18,1.34-1.12a8.1,8.1,0,0,1,.24-1.17c.61-3.38.87-3.61,4.29-4,1-.12,1.21.17,1,1.14-.34,1.39-.5,2.84-.84,4.24-.19.79.06.94.77.92,1.19,0,2.39,0,3.59,0,.9,0,1.24.14,1,1.16-.49,2.14-.43,2.15-2.64,2.15-3.53,0-3.54,0-4.23,3.56-.64,3.32-1.24,6.64-1.85,10a9.28,9.28,0,0,0-.15,1.48c-.05,2.07.56,2.63,2.63,2.68.55,0,1.63-.57,1.5.71-.1,1,.6,2.47-1.21,2.71C415.17,232.6,414.43,232.64,413.69,232.71Z" transform="translate(-56.19 -62.04)"/><path class="cls-2" d="M394.82,197c2.35,0,2.32,0,1.9,2.22-2,10.3-4,20.6-5.88,30.92-.31,1.73-1,2-2.53,1.91-2.63-.1-2.6,0-2.12-2.55q2.93-15.17,5.8-30.34C392.4,197,392.37,197,394.82,197Z" transform="translate(-56.19 -62.04)"/><path class="cls-2" d="M377.7,232.06c-2.19,0-2.2,0-1.8-2.07,1.31-6.84,2.65-13.68,3.91-20.53.21-1.11.67-1.4,1.76-1.38,3,.07,3,0,2.43,2.88q-1.81,9.39-3.61,18.77C379.94,232.05,380,232.06,377.7,232.06Z" transform="translate(-56.19 -62.04)"/><path class="cls-2" d="M398.36,232.06c-2.22,0-2.22,0-1.79-2.2,1.29-6.75,2.63-13.49,3.85-20.24.25-1.38.9-1.57,2.09-1.54,2.73.08,2.71,0,2.18,2.72q-1.86,9.52-3.67,19.06C400.6,232.05,400.62,232.06,398.36,232.06Z" transform="translate(-56.19 -62.04)"/><path class="cls-2" d="M401.56,201.6a2.69,2.69,0,0,1,2.83-2.77,2.38,2.38,0,0,1,2.59,2.58,2.79,2.79,0,0,1-2.85,2.8A2.41,2.41,0,0,1,401.56,201.6Z" transform="translate(-56.19 -62.04)"/><path class="cls-2" d="M383.8,198.83a2.37,2.37,0,0,1,2.53,2.49,2.8,2.8,0,0,1-2.91,2.89,2.41,2.41,0,0,1-2.51-2.67A2.7,2.7,0,0,1,383.8,198.83Z" transform="translate(-56.19 -62.04)"/></svg>