<svg id="Capa_1" data-name="Capa 1" xmlns="http://www.w3.org/2000/svg" viewBox="0 0 457.29 68.27"><defs><style>.cls-1{fill:#03686d;}.cls-2{fill:#dfa236;}</style></defs><title>14a</title><path class="cls-1" d="M477,138.84c-.34,0-.29.24-.33.42-2.38,10.57-9.24,16.43-19.58,18.61a39.94,39.94,0,0,1-7.57.36l-.69,0,25.64,22.63c-.14.32-.38.2-.57.2H455.25a1.65,1.65,0,0,1-1.21-.5q-11-10.29-22-20.54L417.9,146.81c-.23-.22-.54-.39-.66-.78a2,2,0,0,1,1.13-.13q15.56,0,31.1,0a15,15,0,0,0,8.38-2.11c3.07-2,5.12-4.63,5-8.38-.12-3.95-2.33-6.69-5.72-8.54a15.11,15.11,0,0,0-7.5-1.67q-17.77,0-35.57,0c-.92,0-1.09.29-1.09,1.14q0,26.75,0,53.5c0,1.45.16,1.27-1.26,1.27-4.33,0-8.66,0-13,0-.72,0-1-.14-1-.94q0-33.19,0-66.4c0-.71.19-.92.92-.92,18.08,0,36.15,0,54.23,0a23.92,23.92,0,0,1,19.59,9.52,21,21,0,0,1,4.14,9.35c.05.25-.14.67.37.68Z" transform="translate(-19.71 -112.84)"/><path class="cls-1" d="M19.71,180.73c.45,0,.5-.48.67-.77q20.06-33.11,40.09-66.24a1.51,1.51,0,0,1,1.5-.87c4.42,0,8.84,0,13.26,0a1.32,1.32,0,0,1,1.31.72q20.11,33.35,40.27,66.66c.14.23.25.47.38.71-.28.24-.56.15-.82.15-4.75,0-9.51,0-14.27,0a1.32,1.32,0,0,1-1.29-.75C98.54,176.57,96.23,172.8,94,169a1.33,1.33,0,0,0-1.3-.74c-4.27,0-8.53,0-12.8,0a1.29,1.29,0,0,1-1.37-.88q-2.77-6-5.66-11.88c-.36-.74-.24-.92.58-.92,3.62,0,7.25,0,10.88,0,1,0,1,0,.47-.86q-7.82-12.94-15.65-25.89c-.57-.93-.57-.93-1.15,0Q52.18,154,36.44,180a2,2,0,0,1-2,1.11c-4.91-.06-9.81,0-14.72,0Z" transform="translate(-19.71 -112.84)"/><path class="cls-1" d="M201.86,147c0-11,0-22,0-33,0-.95.27-1.15,1.17-1.15q26.25,0,52.48,0a26.24,26.24,0,0,1,16.93,5.59c5.15,4.13,7.89,9.46,7.4,16.17A17.69,17.69,0,0,1,274.29,146c-1,1-1,1,0,2a17.83,17.83,0,0,1-.83,26.63,25.4,25.4,0,0,1-17.33,6.46c-17.7,0-35.41,0-53.12,0-1.17,0-1.17,0-1.17-1.18ZM237,140.7v0c6.21,0,12.43.07,18.65,0a14,14,0,0,0,9.23-3.19c3.23-2.78,3.14-6.34-.18-9-.18-.15-.38-.29-.58-.43a16.14,16.14,0,0,0-9.62-2.67c-12.13,0-24.27,0-36.4,0-.74,0-1,.18-1,1q.06,6.72,0,13.44c0,.84.27,1,1,1C224.39,140.68,230.67,140.7,237,140.7Zm.41,27.85c6,0,12,0,18,0a15,15,0,0,0,8.93-2.76c3.85-2.78,3.84-6.87,0-9.7l-.23-.16a15.71,15.71,0,0,0-9.33-2.65c-12.26,0-24.51,0-36.76,0-.8,0-.94.29-.94,1,0,4.42,0,8.84,0,13.26,0,.87.27,1.06,1.08,1.05C224.55,168.53,231,168.55,237.36,168.55Z" transform="translate(-19.71 -112.84)"/><path class="cls-1" d="M338,181.09c-6.16,0-12.32,0-18.47,0a34.1,34.1,0,0,1-13-65.64,33.24,33.24,0,0,1,12.91-2.58c12.4,0,24.81,0,37.21,0a34.11,34.11,0,0,1,6.07,67.67,35,35,0,0,1-6.45.54Zm-.83-57.25c-4.11.13-9.27-.27-14.41.17a25.94,25.94,0,0,0-17.87,8.88,21.26,21.26,0,0,0,0,28.18c5.42,6.13,12.35,9,20.42,9,8.5.08,17,.05,25.52,0a27.42,27.42,0,0,0,16.12-5.1c12.15-8.65,13-24.95,1.69-34.71a26.85,26.85,0,0,0-18-6.46C346.46,123.82,342.31,123.84,337.13,123.84Z" transform="translate(-19.71 -112.84)"/><path class="cls-1" d="M165.05,158.23,190.82,181a1.35,1.35,0,0,1-.92.14c-6,0-12.08,0-18.11,0a2.54,2.54,0,0,1-1.91-.84c-2.64-2.56-5.34-5.06-8-7.54-1.09-1-2.17-2-3.25-3.06-1.63-1.55-3.32-3-5-4.57s-3-2.91-4.54-4.35l-8.72-8.15c-2.14-2-4.3-3.94-6.44-5.91a6.61,6.61,0,0,1-.55-.66,1.52,1.52,0,0,1,1.07-.16q15.74,0,31.46,0a14.78,14.78,0,0,0,8.59-2.31,9.86,9.86,0,0,0,4.19-5.26c1.29-4.17-.27-8.2-4.26-10.85a12.65,12.65,0,0,0-7-2.18c-8.11,0-16.22,0-24.32,0-4.27,0-8.54,0-12.81,0-.84,0-1.06.24-1.06,1.08q0,26.7,0,53.4v1.05l-.19,0c-1.09-1.75-2.19-3.5-3.26-5.27q-3.51-5.76-7-11.53c-1.44-2.37-2.9-4.73-4.34-7.11a3.18,3.18,0,0,1-.47-1.72q0-20.62,0-41.24c0-.86.26-1.05,1.08-1.05,17.92,0,35.85,0,53.77,0,7.94,0,14.62,3,19.64,9.22a21.63,21.63,0,0,1,4.63,12.17c.84,10.55-6.52,18.57-13.32,21.62a28,28,0,0,1-12.91,2.34C166.38,158.21,165.84,158.23,165.05,158.23Z" transform="translate(-19.71 -112.84)"/><path class="cls-2" d="M75.79,168.29H61.64a.61.61,0,0,1-.64-.38q-3.06-6.47-6.15-12.92c0-.05,0-.12,0-.27H68.63c.43,0,.78,0,1,.5,2,4.24,4,8.46,6,12.69A2.9,2.9,0,0,1,75.79,168.29Z" transform="translate(-19.71 -112.84)"/></svg>