<svg id="Capa_1" data-name="Capa 1" xmlns="http://www.w3.org/2000/svg" viewBox="0 0 466 82.72"><defs><style>.cls-1{fill:#c2323b;}</style></defs><title>1a</title><path class="cls-1" d="M342.56,155.39c-2.63,7.52-5.28,15-7.83,22.54-.47,1.37-1,1.92-2.57,1.86-3.43-.14-6.86-.1-10.29,0a1.91,1.91,0,0,1-2.22-1.53Q312.54,158.08,305.3,138c-.16-.45-.33-.9-.65-1.75-1.11,2.68-2.1,5-3.06,7.37q-9.18,22.4-18.36,44.8c-2,4.92-5.16,8.79-10.55,10.18a17,17,0,0,1-10.82-.5,9.76,9.76,0,0,1-6.56-9.8,7.45,7.45,0,0,1,6.62-7.36c4.23-.47,8,2,8.84,5.77a8,8,0,0,1,.23,1.45c.05,1.12.33,2.11,1.56,2.41a2.48,2.48,0,0,0,2.88-1.47c.89-1.8,1.41-3.79,2.37-5.55,1.22-2.27.77-4.08-.5-6.23-7.72-13.14-15.29-26.37-22.91-39.57l-1-1.81h5c5.15,0,10.3,0,15.44,0a2.26,2.26,0,0,1,2.3,1.32c3.69,6.42,7.45,12.8,11.19,19.19.3.52.62,1,1.1,1.81.68-1.7,1.26-3.14,1.83-4.6,2.13-5.47,4.28-10.93,6.37-16.42a1.66,1.66,0,0,1,1.85-1.29c7.84,0,15.69.06,23.53,0,1.26,0,1.67.55,2,1.57q4,11.23,8,22.46c.2.55.42,1.1.76,2l4.88-14.57c1.1-3.3,2.26-6.6,3.28-9.93a1.76,1.76,0,0,1,2-1.51c3.24.09,6.5.11,9.74,0a2.27,2.27,0,0,1,2.63,1.8c2.57,7.27,5.25,14.49,7.9,21.72.19.51.41,1,.76,1.85,1.58-5,3.06-9.58,4.54-14.21,1-3.26,2.08-6.52,3.06-9.8.29-1,.72-1.4,1.79-1.34a49.88,49.88,0,0,0,5.33,0c1.46-.09,1.43.47,1,1.59-2.8,8.09-5.55,16.19-8.32,24.29-1.86,5.44-3.77,10.86-5.57,16.31a2,2,0,0,1-2.3,1.69c-3.49-.11-7-.09-10.48,0a1.89,1.89,0,0,1-2.21-1.53c-2.49-7.35-5.1-14.66-7.66-22A1.11,1.11,0,0,0,342.56,155.39Z" transform="translate(-18 -116.51)"/><path class="cls-1" d="M18.05,148.3c0-9.92,0-19.85-.05-29.77,0-1.66.47-2,2.06-2,6.68.09,13.36.07,20,0,1.39,0,1.78.37,1.77,1.75-.06,7.17,0,14.34-.07,21.5,0,1.5.45,1.86,1.86,1.82,3.49-.09,7-.1,10.48,0,1.49,0,2-.35,2-1.91-.09-7,0-14.09-.08-21.14,0-1.64.43-2.05,2-2,6.44.09,12.87.07,19.3,0,1.37,0,1.9.23,1.9,1.78q-.07,29.87,0,59.73c0,1.38-.36,1.75-1.73,1.74-6.62-.08-13.24-.07-19.86,0-1.27,0-1.65-.33-1.64-1.63,0-9.32,0-18.63.06-27.94,0-1.36-.32-1.79-1.72-1.75-3.61.1-7.23.11-10.84,0-1.44,0-1.72.46-1.72,1.78.05,9.13,0,18.26.08,27.38,0,1.84-.53,2.2-2.26,2.18-6.49-.11-13-.1-19.48,0-1.62,0-2.16-.32-2.14-2.07C18.09,167.91,18.05,158.11,18.05,148.3Z" transform="translate(-18 -116.51)"/><path class="cls-1" d="M166.07,140.15a24.17,24.17,0,0,1,10.22-5c10.85-2.2,20.12,4.94,20.33,16,.16,9.06,0,18.14.06,27.2,0,1.3-.51,1.48-1.62,1.47-5.39,0-10.79-.06-16.18,0-1.29,0-1.64-.35-1.63-1.63.06-8.58,0-17.16,0-25.74a21.05,21.05,0,0,0-.1-2.38c-.38-3.11-1.36-4.4-3.74-5a6.09,6.09,0,0,0-6.85,2.3,8.84,8.84,0,0,0-1.75,5.49c0,8.39,0,16.79,0,25.18,0,1.44-.36,1.84-1.81,1.82-5.39-.09-10.78-.07-16.18,0-1.15,0-1.57-.26-1.56-1.51q.06-20.4,0-40.8c0-1.17.27-1.58,1.51-1.56,5.33.07,10.67.1,16,0,1.62,0,2.33.5,2.57,2A18.78,18.78,0,0,0,166.07,140.15Z" transform="translate(-18 -116.51)"/><path class="cls-1" d="M139.18,158.44c0,8-3.51,14.23-9.8,19a28.62,28.62,0,0,1-34.06-.31A23.49,23.49,0,0,1,96.2,139c12-8.45,29.74-6,38.33,5.41A22,22,0,0,1,139.18,158.44Zm-19.94.12c0-3.8,0-7.6,0-11.4a6.53,6.53,0,0,0-6.78-6.86c-3.76,0-6.42,2.72-6.44,6.75q-.06,11.3,0,22.6c0,3.91,2.8,6.94,6.33,7a6.86,6.86,0,0,0,6.89-7.07C119.25,165.91,119.24,162.23,119.24,158.56Z" transform="translate(-18 -116.51)"/><path class="cls-1" d="M416.87,161.66c-5,0-10.05,0-15.08,0-1.18,0-1.62.31-1.56,1.54.09,2.08,0,4.17,0,6.25.08,4,3.82,8.55,9,7.58,5.91-1.09,11-3.39,14.57-8.32a1.26,1.26,0,0,1,1.84-.46c1.28.58,2.59,1.1,3.92,1.55,1,.34,1.2.71.53,1.63-11.68,16.05-37.63,15.25-47.22-2.45-6-11.11-1.78-24.38,9.68-31.15,12.28-7.25,29.15-3.94,37,7.34a21.83,21.83,0,0,1,4.2,14.52c-.11,1.49-.66,2.07-2.28,2C426.67,161.59,421.77,161.66,416.87,161.66Zm-9.7-6.23c1.9,0,3.8,0,5.7,0,.73,0,1.18-.18,1.16-1-.09-2.81.26-5.64-.21-8.43a6.65,6.65,0,0,0-7.36-5.68,6.92,6.92,0,0,0-6.25,6.57c-.08,2.45,0,4.9,0,7.34,0,1,.42,1.23,1.31,1.21C403.38,155.39,405.28,155.42,407.17,155.43Z" transform="translate(-18 -116.51)"/><path class="cls-1" d="M238.87,161.66c-5,0-10,0-15.06,0-1.2,0-1.62.32-1.57,1.55.09,2.08,0,4.16,0,6.24a7.48,7.48,0,0,0,8.9,7.54,21.6,21.6,0,0,0,14.63-8.24c.62-.8,1.15-1,2-.43a11.28,11.28,0,0,0,1.5.68c3.29,1.45,3.29,1.45.92,4.28-11.09,13.24-33,12.7-43.39-1.08-7.22-9.55-5.89-22.66,3.14-31.07,10.61-9.87,28.94-9.36,39,1.06,4.85,5,6.56,11.17,6.64,17.94,0,1-.34,1.61-1.63,1.59C248.92,161.61,243.9,161.66,238.87,161.66Zm-10.07-6.24c1.65,0,3.3-.07,4.95,0,1.25.07,1.73-.29,1.68-1.62-.1-2.37,0-4.76,0-7.14a6.18,6.18,0,0,0-6.15-6.38,6.56,6.56,0,0,0-7,6.23c-.1,2.56,0,5.13,0,7.69,0,1,.41,1.24,1.31,1.21C225.26,155.39,227,155.43,228.8,155.42Z" transform="translate(-18 -116.51)"/><path class="cls-1" d="M440.08,148.32c0-9.92,0-19.84,0-29.76,0-1.59.37-2.09,2-2,4.89.12,9.79.08,14.69,0,1.2,0,1.55.33,1.55,1.54q-.06,30.12,0,60.25c0,1.1-.25,1.47-1.41,1.45-5.08-.06-10.17-.07-15.25,0-1.36,0-1.6-.48-1.59-1.7C440.1,168.16,440.08,158.24,440.08,148.32Z" transform="translate(-18 -116.51)"/><path class="cls-1" d="M466.38,148.06c0-9.93,0-19.85,0-29.77,0-1.34.28-1.8,1.71-1.77,4.71.09,9.43.1,14.15,0,1.55,0,1.79.54,1.78,1.9q0,29.85,0,59.72c0,1.31-.38,1.65-1.65,1.63-4.77-.07-9.55-.09-14.33,0-1.46,0-1.67-.48-1.67-1.77C466.4,168,466.38,158,466.38,148.06Z" transform="translate(-18 -116.51)"/></svg>