<svg id="Capa_1" data-name="Capa 1" xmlns="http://www.w3.org/2000/svg" viewBox="0 0 454.16 71.75"><defs><style>.cls-1{fill:#233387;}</style></defs><title>3a</title><path class="cls-1" d="M22.94,149.4q0-16.86,0-33.74c0-.85.21-1.08,1.06-1.07,10.8.08,21.6-.13,32.4.13,4.49.11,8.94.6,13.08,2.48,7.31,3.31,11.42,9.09,12.68,16.92a27.57,27.57,0,0,1-2.09,16.46c-3.35,7.1-9,11-16.77,12.06-6.14.81-12.31.49-18.47.53-.94,0-1.22.2-1.21,1.19,0,6.33,0,12.65,0,19,0,.76-.21,1-1,.95q-9.39,0-18.79,0c-.85,0-1-.29-1-1Q23,166.33,22.94,149.4Zm26.6-17.27c-1.63,0-3.26,0-4.88,0-.6,0-.76.2-.76.77q0,6.66,0,13.32c0,.55.12.81.74.8,3.16-.05,6.33,0,9.49-.12a11.22,11.22,0,0,0,5.92-1.65,6.22,6.22,0,0,0,3-6.19c-.39-3.48-2.59-5.73-6.17-6.52A35.44,35.44,0,0,0,49.54,132.13Z" transform="translate(-22.92 -114.13)"/><path class="cls-1" d="M243.56,184.69h-.93c-5.69,0-11.38,0-17.06,0-.72,0-1.08-.11-1.15-1-.1-1.23-.39-2.45-.6-3.68-.45,0-.69.32-1,.54-6.64,5.14-14.09,6.27-22.09,4.27-6-1.5-9-5.77-10-11.64a15.77,15.77,0,0,1-.08-5.81c1.16-5.6,4.8-9.07,9.95-11.1A42.47,42.47,0,0,1,211.7,154a39.61,39.61,0,0,0,9.25-1.9,3.36,3.36,0,0,0,2.32-3.34,3.68,3.68,0,0,0-1.66-3.52c-2.33-1.66-7.9-2.2-10.33,1.06a4.79,4.79,0,0,0-1,2.63c0,.51-.16.75-.72.75q-8.19,0-16.39,0c-.92,0-.55-.59-.49-1,1.27-8.57,6.25-13.82,14.6-15.65a51.35,51.35,0,0,1,22-.13,19.08,19.08,0,0,1,3,1c5.15,2,7.64,6.09,8.64,11.3a53.63,53.63,0,0,1,.64,9.64c.06,6.55-.12,13.1.11,19.65a28.4,28.4,0,0,0,1.65,9.08c.1.27.18.55.26.82A1.25,1.25,0,0,1,243.56,184.69ZM223.3,165.78c0-1.23,0-2.15,0-3.08,0-.48-.05-.68-.63-.49-3.4,1.08-6.77,2.23-10.21,3.18a3.73,3.73,0,0,0-2.8,3.4,5,5,0,0,0,4.76,5.56c.77,0,1.54,0,2.3,0a6.13,6.13,0,0,0,4.71-2.38C222.92,170.06,223.77,168,223.3,165.78Z" transform="translate(-22.92 -114.13)"/><path class="cls-1" d="M155.26,139l.22-.32a15.3,15.3,0,0,1,10.87-6.08,28.58,28.58,0,0,1,10.47.35,13.79,13.79,0,0,1,10.62,12,54.19,54.19,0,0,1,.53,7.64v30.57c0,1.23,0,1.23-1.26,1.23h-16.1c-1.63,0-1.4.16-1.4-1.35,0-9.08,0-18.15,0-27.23a18.33,18.33,0,0,0-.73-5.19,3.11,3.11,0,0,0-1.88-2.13,8.27,8.27,0,0,0-6.68-.26,5.16,5.16,0,0,0-3.16,3.36,25.43,25.43,0,0,0-1,7.85c0,8,0,15.91,0,23.87,0,.95-.28,1.14-1.17,1.14q-8.4-.06-16.78,0c-.78,0-1.09-.11-1.09-1q0-24.54,0-49.08c0-.87.25-1.05,1.07-1,5.33,0,10.67,0,16,0,.76,0,1,.22,1,1,0,1.55.13,3.11.2,4.66Z" transform="translate(-22.92 -114.13)"/><path class="cls-1" d="M368,139.09c.36-.43.57-.67.76-.92a15.32,15.32,0,0,1,10.71-5.64,25,25,0,0,1,10.81.63c5.89,1.93,9,6.25,10,12.17a42.08,42.08,0,0,1,.48,7.45q0,15.19,0,30.38c0,.92-.2,1.17-1.14,1.16-5.56,0-11.12,0-16.68,0-.72,0-1-.15-1-.93,0-7.6,0-15.21.05-22.81a74.32,74.32,0,0,0-.21-8.31c-.38-3.92-3-4.56-6.31-4.71a6.28,6.28,0,0,0-3.2.86,5.11,5.11,0,0,0-2.35,2.54,19.32,19.32,0,0,0-1.38,8c0,8.15-.1,16.3-.11,24.44,0,.86-.26,1.07-1.09,1.06q-8.3-.09-16.58-.08c-.72,0-1-.15-1-.94q0-24.58,0-49.17c0-.74.18-1,.95-1q8,0,16,0c.75,0,1,.2,1,.95C367.74,135.75,367.87,137.3,368,139.09Z" transform="translate(-22.92 -114.13)"/><path class="cls-1" d="M132.21,160.25c.13,6.15,0,10.34.17,14.52a29.59,29.59,0,0,0,1.7,8.5c.28.78.27,1.07-.72,1.06-5.49-.05-11,0-16.49,0-.65,0-1-.13-1-.83-.1-1-.35-1.88-.46-2.83s-.35-.84-1-.35a23.59,23.59,0,0,1-10.5,5,23,23,0,0,1-14.15-1.48c-5-2.3-7.36-6.56-8.36-11.82-1.32-6.9,4.51-13.47,9.36-15.54a37,37,0,0,1,11.2-2.67,58.75,58.75,0,0,0,9.59-1.71c1.81-.47,2.65-1.74,2.84-4.14a3.08,3.08,0,0,0-2.21-3.13,10.49,10.49,0,0,0-7.58-.3,4.51,4.51,0,0,0-3.4,4.17c0,.62-.28.71-.82.71-5.37,0-10.74-.05-16.11-.06-.43,0-.86,0-.72-.63.69-3.47,1.68-6.8,4-9.61a17.87,17.87,0,0,1,11-6.14,56.72,56.72,0,0,1,19.62-.42,16.85,16.85,0,0,1,11,6.11,15.27,15.27,0,0,1,3.14,8.49C132.6,152.18,132.05,157.2,132.21,160.25Zm-18.06,5.68v-2.49c0-1.45,0-1.45-1.38-1-3,1-6,2-9.1,2.88a4.23,4.23,0,0,0-3.19,4.79c.3,2.56,1.85,4.11,4.22,4.26a13.3,13.3,0,0,0,3.33-.26,7.23,7.23,0,0,0,4.53-2.24,6,6,0,0,0,1.6-5A6,6,0,0,1,114.15,165.93Z" transform="translate(-22.92 -114.13)"/><path class="cls-1" d="M294.61,158.13a26.79,26.79,0,0,1,2.45-12,22.69,22.69,0,0,1,14.82-12.76,31.13,31.13,0,0,1,17.66-.17c8,2.26,13.3,7.55,15.85,15.4a33.66,33.66,0,0,1-.24,21.54A21.05,21.05,0,0,1,332.2,183.6a31.36,31.36,0,0,1-19.92,1.17c-9-2.46-14.27-8.72-16.66-17.57A33,33,0,0,1,294.61,158.13Zm18.06.33c0,.51,0,1,0,1.53a19.6,19.6,0,0,0,1.73,7.69,6.85,6.85,0,0,0,6.28,4.13,6.73,6.73,0,0,0,6.54-3.67,14.81,14.81,0,0,0,1.2-2.7,23.18,23.18,0,0,0,.65-10A15.41,15.41,0,0,0,327,149a7.05,7.05,0,0,0-9.12-2.33,9.05,9.05,0,0,0-4.26,5.09A19.21,19.21,0,0,0,312.67,158.46Z" transform="translate(-22.92 -114.13)"/><path class="cls-1" d="M252.41,167.65c2.72,0,5.44,0,8.15,0,.59,0,.94.07,1,.77.26,3.19,3,5.3,6.4,5.37a10.08,10.08,0,0,0,4.68-.71c1.41-.66,2.47-1.6,2.47-3.32a3.42,3.42,0,0,0-2.5-3.26,50.72,50.72,0,0,0-7.93-2.13c-3.53-.83-7.13-1.42-10.49-2.87a16.54,16.54,0,0,1-6.91-4.82c-4-5.2-3.43-13.31,1.37-18.27a19.16,19.16,0,0,1,10.2-5.32c7.62-1.55,15.16-1.43,22.52,1.38a19,19,0,0,1,6.08,3.74,14.58,14.58,0,0,1,4.48,9.37c.1.77-.48.52-.82.53H276.92c-.55,0-1.09,0-1.63,0a.58.58,0,0,1-.7-.47c-1-4.11-4.82-5.24-8.67-4.44-1.38.29-2.74.63-3.19,2.31a3,3,0,0,0,1.91,3.92c1.58.62,3.3.68,4.92,1.14,4.26,1.2,8.62,2.06,12.83,3.45a16.84,16.84,0,0,1,7.26,4.47,11.29,11.29,0,0,1,3.28,7.84,21.52,21.52,0,0,1-1.24,8.56c-1.95,4.72-5.69,7.41-10.34,9-4.87,1.68-9.93,1.92-15,1.74A34.75,34.75,0,0,1,253,182.57c-5.49-2.5-8.4-6.85-9.33-12.67-.35-2.19-.34-2.2,1.85-2.2h6.9Z" transform="translate(-22.92 -114.13)"/><path class="cls-1" d="M467.85,152.83c-2.65,0-5.3,0-8,0-.6,0-.91-.13-1.07-.76-1.18-4.6-3.51-6.42-9-5.56-3,.47-4.81,2.69-5.46,5.53a26.1,26.1,0,0,0,.46,14.18,8.6,8.6,0,0,0,3,4.43c3.8,2.78,9.75.49,10.95-4.21,0-.1,0-.19.05-.29.41-1.83.41-1.84,2.28-1.86q7.57-.06,15.15-.14c.61,0,.94,0,.8.84-1.83,11.06-9.21,18.4-20.41,20.06-6,.9-12,.56-17.6-2.12-7.79-3.73-12.24-10-13.42-18.54a32.23,32.23,0,0,1,2-17.37c3.34-7.85,9.39-12.3,17.63-13.89a33.3,33.3,0,0,1,18.91,1.54c6.47,2.54,9.83,7.63,11.71,14,.32,1.1.51,2.23.78,3.35.14.61,0,.84-.71.83C473.22,152.81,470.53,152.83,467.85,152.83Z" transform="translate(-22.92 -114.13)"/><path class="cls-1" d="M404.52,158.74c0-8.15,0-16.29,0-24.44,0-1,.31-1.19,1.23-1.18q8.23.06,16.48,0c.74,0,1,.18,1,1q0,24.72,0,49.45c0,.72-.15,1-.93,1q-8.34,0-16.68,0c-.82,0-1.06-.17-1.06-1C404.54,175.22,404.52,167,404.52,158.74Z" transform="translate(-22.92 -114.13)"/><path class="cls-1" d="M413.82,127.53c-2.81,0-5.62,0-8.43,0-.64,0-.89-.12-.88-.83q0-5.89,0-11.79c0-.63.18-.81.8-.8q8.54,0,17.07,0c.65,0,.79.22.79.82,0,3.93,0,7.87,0,11.8,0,.64-.2.8-.81.79C419.51,127.52,416.67,127.53,413.82,127.53Z" transform="translate(-22.92 -114.13)"/></svg>