<svg id="Capa_1" data-name="Capa 1" xmlns="http://www.w3.org/2000/svg" viewBox="0 0 450.73 176.72"><defs><style>.cls-1{fill:#134478;}.cls-2{fill:#898a8a;}</style></defs><title>6a</title><path class="cls-1" d="M446.89,226.59c0,3.83-.15,7.66,0,11.49,0,1.74-.5,2.15-2.19,2.15-13.93-.07-27.87,0-41.81,0q-61.55,0-123.09.05c-2.29,0-3-.46-3-2.92q.12-71.34,0-142.69c0-2.29.43-3.15,2.93-3,4.61.2,9.23,0,13.84,0h12.14c1.13,0,2.25.12,3.38.12q67.4,0,134.8,0c2.3,0,3,.47,3,2.93q-.12,58.4-.05,116.77c0,1,0,2.09.07,3.13ZM387.7,199.38c-.37-.92-.63-1.55-.89-2.18L364,142.66c-2.57-6.14-2.58-6-9.38-6.16-1.8,0-2.52.6-3.18,2.18-6.34,15.42-12.79,30.78-19.14,46.19a2.56,2.56,0,0,1-2.83,1.93c-5.75-.1-11.51-.17-17.25,0-2.6.09-3.47-.47-3.44-3.31.15-17.24,0-34.49.12-51.74,0-1.89-.37-2.65-2.41-2.49a51.1,51.1,0,0,1-7.32,0c-1.79-.1-2.36.4-2.35,2.29q.09,32.79,0,65.59c0,1.92.65,2.26,2.39,2.25,12.54-.07,25.08-.09,37.63,0,1.85,0,2.55-.67,3.15-2.25,1.61-4.22,3.42-8.36,5.07-12.56a2.07,2.07,0,0,1,2.27-1.56q9.68.09,19.34,0a2.07,2.07,0,0,1,2.27,1.54c1.72,4.37,3.55,8.69,5.28,13,.45,1.16,1,1.83,2.4,1.78C380.15,199.3,383.72,199.38,387.7,199.38ZM420.45,165c5.35-3.3,7.51-8,6.67-13.85-1.12-7.76-6.91-13.07-15.21-14.16-6.42-.84-12.87-.22-19.3-.5-2-.08-2.42.51-2.41,2.44.08,15.93.05,31.86.05,47.79q0,5.49,0,11c0,.91-.08,1.73,1.28,1.68,7.9-.29,15.85.68,23.71-.68,8.8-1.52,14.68-7.38,15.68-15.81C431.71,176.16,430,168.92,420.45,165Z" transform="translate(-22.27 -64.36)"/><path class="cls-2" d="M305.67,91.53H293.53c0-8.28.05-16.56,0-24.83,0-1.81.46-2.36,2.31-2.35q87.43.06,174.86,0c1.81,0,2.34.44,2.34,2.3q-.08,78.81,0,157.61c0,1.81-.47,2.36-2.32,2.34-7.93-.09-15.86,0-23.79,0q0-6.08,0-12.15c3.83,0,7.67-.14,11.49.09,2.51.16,3-.75,3-3.06q-.09-66,0-132c0-3.41,0-3.42-3.38-3.42h-149a9,9,0,0,1-1,0c-1.66-.23-2.3.36-2.25,2.14C305.76,82.64,305.67,87.09,305.67,91.53Z" transform="translate(-22.27 -64.36)"/><path class="cls-1" d="M155.22,167.93c0-9.76,0-19.52,0-29.28,0-1.64.34-2.35,2.15-2.23a48.21,48.21,0,0,0,7.31,0c2.12-.18,2.4.71,2.37,2.54-.1,6.79,0,13.59-.09,20.39,0,2.08.37,2.86,2.65,2.8,5.92-.18,11.85-.13,17.78,0,1.75,0,2.18-.54,2.16-2.22-.09-7.15,0-14.29-.08-21.44,0-1.6.39-2.06,2-2q15.94.1,31.89,0c1.55,0,2.22.33,2.11,2a54.72,54.72,0,0,0,0,6.53c.12,1.8-.44,2.41-2.31,2.38-6.8-.11-13.6,0-20.39-.09-1.94,0-2.58.46-2.48,2.45.17,3.39.14,6.8,0,10.19-.06,1.71.44,2.24,2.18,2.22,6.54-.1,13.08,0,19.61-.09,2,0,2.57.55,2.43,2.49a57.18,57.18,0,0,0,0,7.05c.09,1.62-.46,2.08-2.06,2.06-6.63-.08-13.25,0-19.87-.07-1.87,0-2.36.54-2.28,2.33q.21,5.1,0,10.2c-.07,1.79.4,2.38,2.27,2.35,6.8-.12,13.6,0,20.4-.1,1.91,0,2.67.41,2.51,2.44a54.94,54.94,0,0,0,0,6.79c.06,1.39-.45,1.76-1.79,1.76q-16.22-.08-32.42,0c-1.6,0-1.82-.6-1.8-2,0-7.15,0-14.3.06-21.44,0-1.76-.32-2.42-2.25-2.38-6.09.13-12.2.11-18.3,0-1.61,0-2.05.42-2,2,.09,7.14,0,14.29.08,21.43,0,1.84-.46,2.44-2.3,2.31a42.55,42.55,0,0,0-7.05,0c-2.26.22-2.51-.78-2.49-2.67C155.26,187.1,155.22,177.52,155.22,167.93Z" transform="translate(-22.27 -64.36)"/><path class="cls-1" d="M87.53,179.87c-5.39,13.33-21.34,22.75-37.31,19.7-17.32-3.3-28.63-18.44-27.92-36.94.56-14.9,11-30.22,29.11-32.95,14.87-2.24,31.62,7,36.45,20.47-4.38,0-8.71,0-13,0-1.28,0-1.83-.83-2.52-1.56a22.23,22.23,0,0,0-14.56-7.35c-8.27-.7-14.48,2.84-19,9.56-5.91,8.71-5,22.29,2,30.2,8.3,9.42,21.09,9.91,30.21,1a6.76,6.76,0,0,1,5.46-2.2C80,180,83.67,179.87,87.53,179.87Z" transform="translate(-22.27 -64.36)"/><path class="cls-1" d="M273.1,199.4c-4.53,0-8.53-.07-12.53,0-1.4,0-1.73-.83-2.2-1.76q-5.19-10.23-10.4-20.44c-.82-1.6-4.55-2.71-6-1.78-.84.53-.49,1.42-.5,2.15,0,6.53-.06,13.07,0,19.6,0,1.62-.3,2.34-2.11,2.23-2.61-.16-5.23-.11-7.84,0-1.39,0-1.74-.42-1.74-1.77q.06-29.67,0-59.34c0-.93-.24-1.93,1.33-1.87,7.91.28,15.86-.65,23.73.63a17.85,17.85,0,0,1,14.63,13.84c1.84,8.86-1.05,16.92-7.75,21.12-1.64,1-1.9,1.78-1,3.53C264.88,183.29,268.83,191.11,273.1,199.4Zm-31.74-43.66c0,2.35,0,4.7,0,7,0,.82-.07,1.6,1.14,1.57,3.38-.09,6.79.31,10.09-.76,4-1.29,5.79-3.88,5.62-8S256,149,252,148a20.66,20.66,0,0,0-4.89-.67c-5.77-.08-5.77-.08-5.77,5.58Z" transform="translate(-22.27 -64.36)"/><path class="cls-1" d="M111.09,167.86c0-9.76,0-19.51,0-29.26,0-1.69.4-2.24,2.14-2.17,7.65.32,15.34-.63,22.94.64,9.5,1.59,15.46,9.36,15.17,19.49-.28,9.8-6.62,17-16,18.3a64,64,0,0,1-10.16.43c-1.93,0-2.54.45-2.5,2.45.13,6.53,0,13.07.09,19.6,0,1.63-.45,2.1-2,2a55.28,55.28,0,0,0-7,0c-1.94.13-2.64-.34-2.61-2.49C111.16,187.19,111.09,177.53,111.09,167.86Zm11.61-12.24c0,2.35,0,4.7,0,7,0,.76-.19,1.7,1,1.67,4-.09,8,.47,11.77-1.41,3.16-1.57,4.2-4.24,4.08-7.5a7.05,7.05,0,0,0-4.89-7c-3.52-1.3-7.18-1-10.81-1.16-1.12,0-1.2.68-1.19,1.55C122.71,151.1,122.7,153.36,122.7,155.62Z" transform="translate(-22.27 -64.36)"/><path class="cls-1" d="M92.24,167.91c0-9.67,0-19.34,0-29,0-1.82.25-2.67,2.36-2.51a80.37,80.37,0,0,0,8.36,0c1.35,0,1.8.4,1.79,1.78q0,29.67,0,59.34c0,1.33-.33,1.85-1.74,1.8-2.87-.1-5.76-.14-8.62,0-1.73.09-2.17-.46-2.15-2.16C92.28,187.43,92.24,177.67,92.24,167.91Z" transform="translate(-22.27 -64.36)"/><path class="cls-1" d="M98.7,230.31c0-2.7,0-5.4,0-8.1,0-.69-.44-1.88.7-1.89s2.72-.93,3.39.68c.43,1,.67.64,1.25.28a7.29,7.29,0,0,1,9.16.51c.86.7,1.29.33,2-.15a7.85,7.85,0,0,1,8.61-.75c2.9,1.51,3.65,4.19,3.58,7.28-.09,3.48-.08,7,0,10.45,0,1.43-.11,2.27-1.91,2.14-1.47-.1-2.44-.09-2.33-2.06.18-3.3.08-6.62,0-9.93,0-3.05-1.52-4.76-4-4.75s-3.92,1.75-4,4.81c0,3.4-.1,6.8,0,10.19.06,1.75-.89,1.72-2.12,1.71s-2.2.17-2.12-1.65c.13-3.3.06-6.62,0-9.93s-1.49-5.06-4-5.13-4.12,1.81-4.16,5.21c0,3.22-.09,6.44,0,9.66.06,1.56-.54,1.93-2,1.85s-2.4.13-2.3-1.81C98.81,236.06,98.7,233.18,98.7,230.31Z" transform="translate(-22.27 -64.36)"/><path class="cls-1" d="M83.94,240.92A15.75,15.75,0,0,1,75,238.31c-.69-.49-2.42-.82-1.19-2.18.84-.94,1.31-3.14,3.54-1.59a12,12,0,0,0,8,1.89c2.67-.21,4.43-1.72,4.47-3.83.07-2.74-1.88-3.48-4-3.92-1.7-.36-3.46-.45-5.13-.9a7.74,7.74,0,0,1-5.94-7.87,8.18,8.18,0,0,1,6.61-8,15.27,15.27,0,0,1,10.57,1.75c.62.33,2.07.62.92,1.74-.87.84-.64,3.32-3,2.22a13.55,13.55,0,0,0-6.24-1.6c-2.5.08-4.25,1.42-4.46,3.5-.26,2.55,1.31,3.59,3.48,4,1.44.31,2.9.54,4.35.81,4.52.84,7.36,4.06,7.25,8.21-.12,4.35-3.14,7.5-7.73,8.06C85.61,240.78,84.74,240.85,83.94,240.92Z" transform="translate(-22.27 -64.36)"/><path class="cls-1" d="M147.74,232.73c0,1.83,0,3.66,0,5.49,0,2.36-2.07,3.64-3.94,2.14-.78-.61-1-.46-1.52-.16a8.2,8.2,0,0,1-6.58.37c-3.11-.94-4.68-3.52-4.27-6.86a5.77,5.77,0,0,1,5.74-5c1.38-.08,2.79.07,4.17-.05.85-.07,2.28.75,2.29-1.13,0-1.43.06-2.91-1.73-3.34s-3.78-.75-5.31.38c-2.09,1.55-3.06-.46-3.68-1.31-.84-1.16.84-1.9,1.72-2.29a11.91,11.91,0,0,1,10.57.4,4.93,4.93,0,0,1,2.48,4.6c.07,2.26,0,4.53,0,6.79Zm-8.8,4.28h1.32c2.28.09,3.28-1,3.34-3.29.07-2.82-2-1.44-3.13-1.64a10.17,10.17,0,0,0-3.11.09,2.22,2.22,0,0,0-2.18,2.18,2.32,2.32,0,0,0,2,2.4A9.73,9.73,0,0,0,138.94,237Z" transform="translate(-22.27 -64.36)"/><path class="cls-1" d="M191.59,232c-1.48,0-3,.08-4.43,0-2.1-.15-2.14.84-1.49,2.36,1.11,2.58,4.46,3.42,7.4,1.84.7-.37,1.18-1.21,2.27-.52,2.3,1.45,2.37,2.3.09,3.76a9,9,0,0,1-14-5.76,15.28,15.28,0,0,1,.32-7.74,8.1,8.1,0,0,1,8.48-5.92,8.32,8.32,0,0,1,7.58,6.77c.93,4.63.45,5.23-4.13,5.23Zm-2.17-3.44a5.55,5.55,0,0,0,1.29,0c1-.23,2.59.77,2.9-.62a3.33,3.33,0,0,0-2.07-3.56c-1.87-.94-3.69-.87-5.17.81a3,3,0,0,0-1,2.82c.41,1.19,1.64.36,2.48.55A7.28,7.28,0,0,0,189.42,228.59Z" transform="translate(-22.27 -64.36)"/><path class="cls-1" d="M176.22,240.7c-3.4-.15-5-1.65-5.1-4.88-.1-3.39,0-6.79-.05-10.18,0-1,.33-1.95-1.32-2.3s-.78-2.66-.57-2.71c3.18-.64,1.71-3.09,1.83-4.74.11-1.48.52-1.86,2-1.93,1.8-.08,2.31.59,2.14,2.23-.09.86,0,1.74,0,2.61s.18,1.53,1.27,1.42,1.82,0,1.77,1.45c0,1.25-.23,2-1.7,1.8-1.05-.14-1.34.52-1.33,1.44,0,3.4,0,6.79,0,10.18,0,.91.29,1.8,1.47,1.76,2.42-.09,1.33,1.73,1.44,2.76C178.23,241.36,176.72,240.37,176.22,240.7Z" transform="translate(-22.27 -64.36)"/><path class="cls-1" d="M166.51,221.44c-1.4,2-2.27,4-5.3,2.67-2-.85-4.07,1.27-4.16,3.8-.12,3.56-.18,7.13,0,10.68.08,1.91-.77,2-2.29,2.09-1.72.08-2-.61-2-2.1.08-5.48,0-11,.05-16.42,0-.64-.38-1.66.46-1.83,1.15-.23,3.15-.6,3.43.2.59,1.7,1,.87,1.85.43A7.13,7.13,0,0,1,166.51,221.44Z" transform="translate(-22.27 -64.36)"/><path class="cls-1" d="M202.56,230.31c0-2.7-.05-5.4,0-8.09,0-.66-.58-1.82.63-1.92s2.93-.72,3.31.39c.59,1.7,1.07.73,1.68.32a6.8,6.8,0,0,1,4.49-.95c1.25.09,2.82.28,3.21,1.35s-1.23,1.86-1.84,2.84-1.09.42-1.76.19c-3.25-1.11-5.47.43-5.55,3.92-.09,3.3-.12,6.61,0,9.91.07,1.71-.24,2.43-2.2,2.43s-2.08-.77-2-2.3C202.62,235.71,202.56,233,202.56,230.31Z" transform="translate(-22.27 -64.36)"/><path class="cls-1" d="M356.82,152.68,364,172.11H349.66Z" transform="translate(-22.27 -64.36)"/><path class="cls-1" d="M407,188.63c-5.11,0-5.11,0-5.11-4.37V173.58c0-.84-.2-1.79,1.2-1.76,3.46.05,6.95-.21,10.32.82,3.94,1.2,6.06,4,6,7.79s-2.09,6.32-6.28,7.5A24.88,24.88,0,0,1,407,188.63Z" transform="translate(-22.27 -64.36)"/><path class="cls-1" d="M401.84,154.16a6,6,0,0,1,0-1c.33-1.87-1-5.07.67-5.39,3.62-.71,7.68-1,11,1.62,2.27,1.78,2.47,4.33,1.85,6.88-.68,2.84-3.06,3.87-5.62,4.31-1.87.32-3.82.17-5.71.4s-2.37-.63-2.22-2.36C402,157.12,401.84,155.63,401.84,154.16Z" transform="translate(-22.27 -64.36)"/></svg>