<svg id="Capa_1" data-name="Capa 1" xmlns="http://www.w3.org/2000/svg" viewBox="0 0 446.59 142.24"><defs><style>.cls-1{fill:#213662;}.cls-2{fill:#db9532;}</style></defs><title>7a</title><path class="cls-1" d="M68.11,76a3.44,3.44,0,0,1,2.68,1.2L89.41,96.49q9.69,10,19.37,20a5.78,5.78,0,0,0,.66.65c1,.75.75,1.33-.07,2.12Q98.1,130.06,86.92,140.91c-1.81,1.74-3.64,3.46-5.41,5.23-.52.53-.82.56-1.35,0q-6.75-7.07-13.55-14.08T53.32,118.29c-.6-.64-.88-.34-1.34.11-4.1,4-8.23,7.95-12.3,12-.8.78-1.23.83-2,0q-6.12-6.48-12.38-12.82c-.69-.7-.57-1,.06-1.63q12-11.48,23.86-23,8.07-7.8,16.15-15.6A3.69,3.69,0,0,1,68.11,76Z" transform="translate(-24.37 -76)"/><path class="cls-1" d="M171.07,148.15v-1.81q0-19.29,0-38.58c0-1.08.25-1.41,1.36-1.39,3.35.08,6.69.09,10,0,1.16,0,1.45.27,1.45,1.44q-.06,25.83,0,51.66c0,3.84,0,7.67,0,11.5,0,1-.19,1.35-1.28,1.33q-4.81-.12-9.65,0a1.88,1.88,0,0,1-1.86-1.07Q158.29,151,145.43,130.81c-.29-.47-.6-.93-1.1-1.71v1.71q0,20.08,0,40.17c0,1-.17,1.34-1.26,1.32-3.48-.08-7-.06-10.44,0-.79,0-1-.17-1-1q0-31.9,0-63.81c0-.87.23-1.1,1.09-1.09,3.35.05,6.7.06,10,0a2,2,0,0,1,1.89,1q12.77,19.78,25.6,39.52C170.43,147.23,170.63,147.52,171.07,148.15Z" transform="translate(-24.37 -76)"/><path class="cls-1" d="M456.55,139.23a15,15,0,0,0-6.63-5.37,14.45,14.45,0,0,0-19.36,11.66c-.95,8.28,3.75,15,11.5,16.49,9.28,1.76,16.91-4.66,16.93-14.29q0-19.89,0-39.77c0-1.27.3-1.63,1.58-1.58,3.08.1,6.17,0,9.25,0,.8,0,1.15.11,1.15,1,0,13.48.09,27-.05,40.43a26,26,0,0,1-22.4,25.63c-19.4,2.84-30.2-12.62-30.08-25.84.11-12.29,7.88-22.73,19.4-25.46a25,25,0,0,1,17.83,1.92c.54.27.93.51.92,1.24C456.53,129.85,456.55,134.34,456.55,139.23Z" transform="translate(-24.37 -76)"/><path class="cls-1" d="M266.82,142.78q-2,7.2-4.07,14.4c-1.32,4.69-2.66,9.38-3.94,14.08-.21.78-.5,1.06-1.32,1-1.93-.07-3.87,0-5.81,0a.91.91,0,0,1-1.05-.7q-8.38-24.42-16.81-48.82c0-.08,0-.17,0-.41H237c2.55,0,5.11.08,7.66,0,1.21-.06,1.65.33,2,1.45,2.45,8.94,5,17.86,7.48,26.87a5.34,5.34,0,0,0,.92-2.32q3.81-12.33,7.54-24.69c.28-.94.64-1.35,1.7-1.3,2.06.1,4.14.08,6.2,0a1.28,1.28,0,0,1,1.53,1.12q3.78,13.11,7.63,26.19a1.64,1.64,0,0,0,.49,1q2.16-7.74,4.29-15.39c1.1-3.93,2.22-7.86,3.28-11.81a1.23,1.23,0,0,1,1.43-1.1c3.78.06,7.56,0,11.51,0-1.06,3.06-2.07,6-3.09,8.93q-6.94,19.91-13.87,39.8c-.3.87-.63,1.27-1.62,1.21a42.28,42.28,0,0,0-5.28,0c-1.1.08-1.31-.48-1.54-1.3q-3.94-13.74-7.91-27.48c-.07-.24-.15-.48-.23-.72Z" transform="translate(-24.37 -76)"/><path class="cls-1" d="M355.26,156v7.62c0,1.94-.05,3.88,0,5.81a1.68,1.68,0,0,1-1.09,1.81A25.85,25.85,0,0,1,326,167.62c-14.1-12.32-11.19-36,5.64-43.8a26.58,26.58,0,0,1,37.65,20,43.56,43.56,0,0,1,.32,6.45c.08,6.92,0,13.83.05,20.75,0,1-.17,1.28-1.21,1.26q-4.68-.12-9.38,0c-1.11,0-1.48-.18-1.47-1.4.07-7.89.06-15.77,0-23.65,0-6.74-4.4-12.54-10.5-14a14.9,14.9,0,0,0-16.09,6.66,15.25,15.25,0,0,0,1.84,17.67,14.07,14.07,0,0,0,21.84-1Z" transform="translate(-24.37 -76)"/><path class="cls-1" d="M226.84,145.53c2.67,4.59,5.31,9.2,8,13.77a1.4,1.4,0,0,1-.14,1.66c-3.65,6.43-9.32,10.24-16.3,12.07-14.05,3.66-29-6-31.8-20.47-2.67-13.75,5.35-26.93,18.65-30.34a26.05,26.05,0,0,1,29.62,12.67c1.66,2.92,1.71,2.88-1.13,4.52q-15.36,8.86-30.73,17.72c-.86.5-1,.75-.31,1.58a12.13,12.13,0,0,0,13.51,3.68c7.26-2.46,10.95-7.9,10.59-15.6,0-.43-.19-.87,0-1.3Zm-29,4,23-13.28c-3.85-4.27-10-5.55-15.88-2.47S195.87,143.69,197.81,149.51Z" transform="translate(-24.37 -76)"/><path class="cls-1" d="M415.84,156.3c0,4.89,0,9.78,0,14.67,0,1-.15,1.36-1.25,1.33-3.13-.09-6.26-.06-9.38,0-.87,0-1.09-.23-1.09-1.09,0-7.57.05-15.15,0-22.73a37.53,37.53,0,0,0-1-8.89c-1.25-5-5-6.84-9.47-6.57-5.24.31-7.58,2.5-8.83,7.64a38.23,38.23,0,0,0-1,8.77q-.08,10.71,0,21.41c0,1.26-.38,1.49-1.53,1.46-3.08-.07-6.16,0-9.25,0-.59,0-1,0-.95-.81.16-10.65-.37-21.32.33-32,.46-6.85,3.38-12.42,9.73-15.57,5.53-2.74,11.46-3.07,17.51-2,5.3,1,9.71,3.31,12.75,7.88,2.44,3.65,3.15,7.8,3.25,12.06.11,4.8,0,9.6,0,14.4Z" transform="translate(-24.37 -76)"/><path class="cls-1" d="M303.19,139.24c0-10.52,0-21.05,0-31.57,0-1,.24-1.32,1.29-1.3,3,.08,6,.06,9,0,.87,0,1.11.23,1.11,1.1q0,31.89,0,63.79c0,.84-.26,1-1.05,1-3,0-6.07-.06-9.11,0-1,0-1.22-.24-1.22-1.22C303.2,160.46,303.19,149.85,303.19,139.24Z" transform="translate(-24.37 -76)"/><path class="cls-1" d="M101.42,143.74c.42.51.78,1,1.2,1.44,1.54,1.59,1.53,1.57,0,3.08L78.94,171.09C73,176.84,67,182.57,61.11,188.34c-.57.56-.84.44-1.33-.05-2.27-2.23-2.31-2.24-.07-4.4q20.35-19.68,40.73-39.32C100.68,144.33,101,144.12,101.42,143.74Z" transform="translate(-24.37 -76)"/><path class="cls-1" d="M98.44,141c-.25.27-.44.5-.66.71L56.62,181.37c-1.83,1.77-1.78,1.68-3.64-.11-.95-.91-.85-1.33.05-2.2q13-12.42,25.86-24.93,8-7.71,15.94-15.43c.61-.6,1-.66,1.56,0s1.09,1.14,1.64,1.72C98.17,140.61,98.29,140.78,98.44,141Z" transform="translate(-24.37 -76)"/><path class="cls-1" d="M66.2,193.42c-.2,0-.55-.11-.88-.22-2.09-.69-2.26-1.27-.75-2.73q20.66-20,41.3-39.94c.76-.73,1.18-.81,1.95,0,1.9,2,2,2,0,3.93L68.66,192.28A3.53,3.53,0,0,1,66.2,193.42Z" transform="translate(-24.37 -76)"/><path class="cls-2" d="M295.56,214.37c2.69-5.24,5.21-10.17,7.73-15.1a2.09,2.09,0,0,1,2.56-1.1c.44.13.38.4.35.71q-.72,9.13-1.43,18.29c-.11,1.39-1.19.62-1.83.77s-.87-.27-.82-.92c.25-2.94.46-5.88.69-8.82a10.82,10.82,0,0,0-.06-2.83l-2.49,4.84c-1.16,2.27-2.36,4.52-3.46,6.82-.4.85-1,.93-1.78.95s-.95-.58-1.15-1.15c-1.39-3.87-2.78-7.75-4.41-11.6q-.43,5.67-.86,11.33c-.05.73.06,1.5-1.16,1.42-1.91-.11-1.63.08-1.49-1.62.48-5.7.89-11.41,1.34-17.11,0-.46-.2-1.2.7-1.07.73.1,1.63-.46,2.06.79,1.5,4.41,3.11,8.78,4.68,13.16C295,212.79,295.21,213.43,295.56,214.37Z" transform="translate(-24.37 -76)"/><path class="cls-2" d="M416.39,205.17l-4.51,8.74c-.56,1.1-1.17,2.17-1.65,3.3-.34.83-1,.7-1.62.76s-1-.39-1.17-1c-1.38-3.89-2.76-7.77-4.42-11.65-.14,1.55-.28,3.09-.41,4.63-.19,2.33-.43,4.65-.52,7-.07,1.62-1.21.84-1.91,1-1,.18-.8-.55-.75-1.1q.66-8.88,1.35-17.77c0-.5.06-1,.79-.9s1.63-.39,2,.82c1.1,3.3,2.3,6.55,3.47,9.82.63,1.78,1.27,3.56,2,5.56,1-1.85,1.86-3.55,2.73-5.25,1.68-3.28,3.36-6.58,5-9.87a2.13,2.13,0,0,1,2.59-1.07c.59.21.32.67.29,1q-.42,5.73-.89,11.45c-.16,2.1-.36,4.21-.48,6.31-.09,1.64-1.3.9-2,1-1.05.13-.64-.69-.61-1.17q.44-5.76.89-11.53Z" transform="translate(-24.37 -76)"/><path class="cls-1" d="M78.88,148.88c-.25.2-.46.34-.65.52l-19,18.34c-3,2.91-6,5.8-9,8.74-.67.66-1.06.89-1.84.06-2-2.12-2.06-2.09.05-4.14q13.4-12.93,26.77-25.86c.64-.62,1-.59,1.52.05s1.09,1.14,1.64,1.71C78.53,148.46,78.66,148.63,78.88,148.88Z" transform="translate(-24.37 -76)"/><path class="cls-1" d="M27,154a2,2,0,0,1-1-.76c-2.18-2.15-2.14-2.12.05-4.23q12.09-11.61,24.14-23.27c.44-.43.88-.85,1.34-1.26.69-.6,1.4-1.94,2-1.7,1,.41,1.74,1.54,2.56,2.4.53.56-.16.78-.41,1q-5.86,5.7-11.76,11.38L27.55,153.36A6.87,6.87,0,0,0,27,154Z" transform="translate(-24.37 -76)"/><path class="cls-1" d="M43.55,171.42c-.13-.12-.29-.26-.44-.41a22.27,22.27,0,0,0-1.65-1.71c-.68-.56-.51-.9,0-1.44q14.07-13.53,28.09-27.12c.72-.71,1-.51,1.62.1,2.05,2.16,2.05,2.12-.13,4.21q-10.87,10.48-21.71,21c-1.71,1.65-3.42,3.3-5.14,4.93C44.05,171.14,43.93,171.42,43.55,171.42Z" transform="translate(-24.37 -76)"/><path class="cls-1" d="M67.48,137.23c-.21.23-.44.49-.69.73q-8.06,7.8-16.14,15.61c-3.92,3.79-7.87,7.56-11.78,11.38-.62.6-.95.73-1.63,0-2.11-2.19-2.14-2.14,0-4.23Q50.42,148,63.56,135.32c1.42-1.37.91-1.31,2.35.08.51.48,1,1,1.46,1.53A1.2,1.2,0,0,1,67.48,137.23Z" transform="translate(-24.37 -76)"/><path class="cls-1" d="M32.29,160c-.36-.43-.69-.84-1.05-1.23-1.76-1.84-1.73-1.81.1-3.58q11.22-10.78,22.42-21.61c1.55-1.5,3.1-3,4.63-4.51.47-.46.77-.62,1.35-.06,2.32,2.25,2.37,2.25,0,4.51q-13.32,12.9-26.68,25.75C32.88,159.44,32.65,159.64,32.29,160Z" transform="translate(-24.37 -76)"/><path class="cls-2" d="M334.44,218c-1.15,0-2.29-.05-3.44,0-.89.05-1.24-.17-1.15-1.16.36-4.21.65-8.42,1-12.63.13-1.71.27-3.42.4-5.14,0-.43,0-.89.67-.88,2.72.08,5.47-.23,8.18.15,4.47.63,6.9,3.12,7.38,7.64.58,5.55-1.64,10.44-7.21,11.7A27.38,27.38,0,0,1,334.44,218Zm1.5-2.46c.87-.05,1.76,0,2.63-.14A6.08,6.08,0,0,0,344,211a11.35,11.35,0,0,0,.37-5.72,5.31,5.31,0,0,0-4.82-4.52c-1.45-.23-2.9-.1-4.34-.19-.85-.05-1.14.23-1.2,1.07q-.37,5.32-.87,10.64C332.82,215.46,332.78,215.46,335.94,215.5Z" transform="translate(-24.37 -76)"/><path class="cls-2" d="M251.14,212.85c.37-4.75.71-9.13,1.07-13.51,0-.4-.19-1,.4-1.12a4.6,4.6,0,0,1,2.33.08c.3.12.11.57.09.86q-.66,8.68-1.39,17.36c0,.48.26,1.31-.56,1.39s-1.67.31-2.32-.69c-2.82-4.25-5.72-8.45-8.59-12.67l-.89-1.31c-.18,2-.33,3.59-.46,5.2-.22,2.76-.41,5.53-.66,8.29,0,.42.16,1.1-.5,1.19a6.11,6.11,0,0,1-2.09-.08c-.36-.08-.19-.62-.17-1l1.17-15.12c.05-.71.06-1.41.17-2.11.08-.51-.28-1.34.49-1.44s1.74-.35,2.43.71c2.74,4.15,5.57,8.23,8.37,12.33Z" transform="translate(-24.37 -76)"/><path class="cls-2" d="M202.21,212.88c.37-4.7.71-9,1.07-13.36,0-.45-.23-1.15.35-1.27a7.35,7.35,0,0,1,2.34,0c.27,0,.18.45.16.7-.47,5.92-.94,11.84-1.45,17.75,0,.43.27,1.21-.6,1.22s-1.61.27-2.22-.67c-1.64-2.55-3.39-5-5.1-7.54a70.73,70.73,0,0,0-4.44-6c-.14,1.48-.28,3-.4,4.45-.23,2.8-.42,5.61-.66,8.42-.13,1.5-.25,1.52-2,1.42-1.35-.08-.71-1-.67-1.56.39-5.74.85-11.49,1.3-17.23,0-.4-.12-1,.55-1,.83,0,1.69-.27,2.34.71,2.14,3.28,4.38,6.49,6.58,9.73Z" transform="translate(-24.37 -76)"/><path class="cls-2" d="M213.07,203.2c-.38,4.75-.72,9.09-1.09,13.43,0,.44.22,1.13-.4,1.25a7.19,7.19,0,0,1-2.22,0c-.32,0-.18-.44-.16-.68.46-5.88.9-11.76,1.4-17.63,0-.46-.35-1.31.57-1.35s1.67-.3,2.3.72c1.48,2.35,3.1,4.6,4.66,6.89,1.39,2,2.77,4.08,4.17,6.11a9.84,9.84,0,0,0,.66.76c.14-1.74.28-3.25.4-4.77.22-2.8.52-5.61.6-8.42,0-1.79,1.21-1.29,2.15-1.32,1.25,0,.7.93.66,1.42-.41,5.8-.87,11.59-1.33,17.38,0,.42.07,1-.59,1s-1.57.35-2.15-.54c-1.15-1.77-2.36-3.5-3.55-5.25Z" transform="translate(-24.37 -76)"/><path class="cls-2" d="M271.33,207.42h1.72c1.95,0,1.92,0,1.75,1.87-.19,2.06-.35,4.12-.46,6.18a1.69,1.69,0,0,1-1.35,1.79,17.16,17.16,0,0,1-7.94.72,7.49,7.49,0,0,1-6.53-5.88,13.34,13.34,0,0,1,.69-8.65c2.9-6.79,11.63-6.47,15.31-3.59,1.17.91,0,1.43-.25,2.08-.31.91-.8.27-1.19,0-3.6-2.38-8.07-2-10.2,1a9.64,9.64,0,0,0-.87,9.91c1.09,2.46,3.42,2.94,5.87,3H268c1.2-.21,3,.1,3.45-.85.64-1.39.42-3.17.54-4.79,0-.54-.41-.47-.75-.47-.92,0-1.85,0-2.77,0-.7,0-1.1-.12-1-.94.11-.66-.11-1.47,1.05-1.36C269.48,207.49,270.41,207.42,271.33,207.42Z" transform="translate(-24.37 -76)"/><path class="cls-2" d="M381.09,218.16a12.61,12.61,0,0,1-6.9-1.9c-1.2-.76-.15-1.3.06-1.92.27-.8.73-.64,1.29-.24a10.11,10.11,0,0,0,7.06,1.56,4.74,4.74,0,0,0,1.76-.54,2.43,2.43,0,0,0,.11-4.43,20.77,20.77,0,0,0-3.7-1.37c-1-.37-2.1-.67-3.09-1.14a4.54,4.54,0,0,1-2.9-4.2,5.06,5.06,0,0,1,2.62-4.84c3.14-1.85,8.39-1.49,11.31.66,1.24.91.07,1.51-.2,2.18-.37.91-.84.18-1.21-.06a8.62,8.62,0,0,0-6.79-1.37,3.16,3.16,0,0,0-2.78,2.76c-.08,1.28.64,2.27,2.27,2.88s3.51,1.13,5.25,1.76c2,.75,3.51,2,3.58,4.39a5.16,5.16,0,0,1-3.47,5.1A10.59,10.59,0,0,1,381.09,218.16Z" transform="translate(-24.37 -76)"/><path class="cls-2" d="M138.61,218.16a13.22,13.22,0,0,1-6.68-1.76c-1.31-.75-.43-1.36-.12-2.1.43-1,.92-.42,1.4-.11a10.34,10.34,0,0,0,7.09,1.45,4.29,4.29,0,0,0,1.74-.59,2.43,2.43,0,0,0,.06-4.3,15.17,15.17,0,0,0-3.18-1.23c-1.21-.42-2.43-.79-3.6-1.29a4.61,4.61,0,0,1-3-4.41,4.91,4.91,0,0,1,2.79-4.75,11,11,0,0,1,11.17.76c1.32.84,0,1.51-.22,2.17-.38.92-.85.12-1.21-.1a8.64,8.64,0,0,0-6.53-1.39c-1.81.36-2.86,1.29-3,2.69s.65,2.46,2.51,3.11c1.66.58,3.35,1.06,5,1.65,2.07.74,3.52,2.08,3.55,4.42a5.07,5.07,0,0,1-3.26,5A10.74,10.74,0,0,1,138.61,218.16Z" transform="translate(-24.37 -76)"/><path class="cls-2" d="M325.6,218c-.93.24-1.43-.25-1.73-1.27-.35-1.21-.45-2.78-1.39-3.46s-2.47-.17-3.74-.2-2.74.11-4.08-.05a2.28,2.28,0,0,0-2.76,1.72c-.2.58-.61,1.08-.79,1.66-.43,1.37-1.31,1.71-2.67,1.64-1.13-.06-1.13-.34-.68-1.19,2.27-4.27,4.5-8.55,6.74-12.83.88-1.67,1.84-3.31,2.61-5,.49-1.12,1.36-.66,2.11-.79s.94.42,1.14,1l6.39,17.42C327.27,218,327.26,218,325.6,218Zm-7-16.44-4.38,8.71c-.24.49.1.51.43.51,2.16,0,4.31,0,6.47,0,.59,0,.64-.24.46-.74C320.58,207.29,319.64,204.58,318.57,201.52Z" transform="translate(-24.37 -76)"/><path class="cls-2" d="M463.94,198.17h5.54c.39,0,1-.17.8.59s.57,1.77-.84,1.78c-2.68,0-5.37.05-8.05,0-.86,0-1.25.14-1.26,1.11a27.81,27.81,0,0,1-.33,4.07c-.11.78.1,1,.86,1,2.46,0,4.93,0,7.39,0,.45,0,1.24-.27,1,.67-.15.67.38,1.78-1.11,1.72-2.41-.08-4.84,0-7.26,0-.92,0-1.23.31-1.27,1.19-.05,1.44-.15,2.89-.31,4.33-.1.85.22,1,1,1,2.6,0,5.2,0,7.79,0,.64,0,1.17,0,1,.88-.12.65.28,1.55-1,1.53-3.69-.05-7.39,0-11.08,0-.76,0-.87-.3-.82-.94.48-5.92.95-11.83,1.37-17.75.07-.92.41-1.16,1.29-1.13C460.42,198.21,462.18,198.17,463.94,198.17Z" transform="translate(-24.37 -76)"/><path class="cls-2" d="M358.57,198.17c1.62,0,3.26-.07,4.88,0,.51,0,1.53-.67,1.55.67,0,1.55-.11,1.67-1.68,1.67-2.42,0-4.85.06-7.26,0-1,0-1.29.33-1.31,1.26a37.59,37.59,0,0,1-.3,3.81c-.12.92.25,1.1,1.08,1.08,2.38,0,4.75,0,7.13,0,.58,0,1.21-.11,1.06.82-.11.71.24,1.63-1.11,1.59-2.33-.09-4.67,0-7-.05-1,0-1.51.14-1.51,1.3a32.9,32.9,0,0,1-.36,4.2c-.11.8.08,1.08.94,1.06,2.64-.05,5.28,0,7.92,0,.48,0,1.24-.18,1,.71-.18.61.43,1.7-1,1.68-3.7-.05-7.39,0-11.09,0-.57,0-.86-.06-.8-.79q.75-9.13,1.39-18.28c.05-.72.43-.73.95-.73Z" transform="translate(-24.37 -76)"/><path class="cls-2" d="M176.31,213c-1.32,0-2.64,0-4,0a1.26,1.26,0,0,0-1.39.89,23.45,23.45,0,0,0-1.15,2.37c-.47,1.5-1.44,1.83-2.88,1.73-1-.06-1-.27-.6-1,2.61-4.93,5.19-9.88,7.79-14.82a26.43,26.43,0,0,0,1.56-3c.47-1.27,1.44-.83,2.29-.93s.9.68,1.09,1.2c2.16,5.81,4.27,11.62,6.46,17.42.39,1,.14,1.17-.88,1.22a1.83,1.83,0,0,1-2.22-1.56c-.3-1.14-.42-2.6-1.3-3.23s-2.3-.14-3.49-.19C177.2,213,176.75,213,176.31,213Zm-3.75-2.28c2.52,0,4.8,0,7.08,0,.64,0,.74-.25.54-.81-1-2.72-1.93-5.44-2.93-8.29-.19.3-.33.47-.42.66Z" transform="translate(-24.37 -76)"/><path class="cls-2" d="M429.13,198.2c1.37,0,2.74-.07,4.09,0,3.31.21,5.38,2.16,5.52,5.09a5.61,5.61,0,0,1-5,6,34.23,34.23,0,0,1-6.32.18c-.85,0-1.1.25-1.14,1.1-.11,2.15-.35,4.29-.48,6.44-.1,1.69-1.35.74-2.07.93s-.92-.34-.86-1q.69-9,1.35-18c.05-.69.37-.77.92-.76,1.32,0,2.64,0,4,0Zm.46,9a17.32,17.32,0,0,0,3.48-.22,3.29,3.29,0,0,0,2.79-3.7c-.17-1.63-1.34-2.6-3.34-2.68-1.49-.06-3,0-4.48,0-.76,0-1,.28-1,1,0,.87-.14,1.75-.18,2.62s-.64,2.18-.09,2.8S428.68,207,429.59,207.17Z" transform="translate(-24.37 -76)"/><path class="cls-2" d="M152.51,208.81a13.64,13.64,0,0,0,.08,1.57c.61,4.12,3.7,6.13,7.75,5.09a13.86,13.86,0,0,0,2.55-1.06c.43-.2.87-1.26,1.43-.33.44.75,1.12,1.64-.22,2.42-3.45,2-7,2.41-10.53.48s-4.15-5.24-4.07-8.84a14,14,0,0,1,.4-2.86,10,10,0,0,1,15.58-5.54c1.22.92.17,1.5-.11,2.18-.42,1-.91.23-1.31,0a7.56,7.56,0,0,0-7.76-.79c-2.76,1.27-3.49,3.89-3.76,6.66a9.2,9.2,0,0,0,0,1.05Z" transform="translate(-24.37 -76)"/><path class="cls-2" d="M447.24,218c-1.76,0-3.52,0-5.28,0-.66,0-.92-.12-.86-.88q.73-9.08,1.38-18.16c0-.54.2-.82.79-.77a5.17,5.17,0,0,0,1.18,0c.84-.11,1.06.22,1,1-.35,4.12-.65,8.25-1,12.37-.06.7-.12,1.4-.16,2.1-.11,1.8-.1,1.8,1.76,1.8h6.61c.58,0,1.14,0,.93.81-.16.64.48,1.73-1,1.7C450.85,217.92,449.05,218,447.24,218Z" transform="translate(-24.37 -76)"/><path class="cls-2" d="M234.17,201c-.39,4.87-.86,10.47-1.27,16.07-.05.76-.32.94-1,.95-2,0-2,.06-1.85-2,.43-5.6.88-11.2,1.29-16.81.05-.79.28-1,1.08-1C234.31,198.15,234.31,198.11,234.17,201Z" transform="translate(-24.37 -76)"/><path class="cls-2" d="M396.24,199.79c-.46,5.91-.88,11.66-1.37,17.39-.13,1.51-1.37.55-2.08.75s-.88-.26-.83-.91q.71-9.08,1.38-18.14c0-.47.16-.76.69-.71.13,0,.26,0,.39,0C396.32,198.13,396.32,198.13,396.24,199.79Z" transform="translate(-24.37 -76)"/><path class="cls-1" d="M226.87,145.49c-.11.09-.2.09-.25-.05s0-.08,0-.12l.21.21Z" transform="translate(-24.37 -76)"/></svg>